<?xml version="1.0" encoding="utf-8" standalone="no"?>
<!DOCTYPE svg PUBLIC "-//W3C//DTD SVG 1.1//EN"
  "http://www.w3.org/Graphics/SVG/1.1/DTD/svg11.dtd">
<svg xmlns:xlink="http://www.w3.org/1999/xlink" width="518.4pt" height="244.8pt" viewBox="0 0 518.4 244.8" xmlns="http://www.w3.org/2000/svg" version="1.1">
 <metadata>
  <rdf:RDF xmlns:dc="http://purl.org/dc/elements/1.1/" xmlns:cc="http://creativecommons.org/ns#" xmlns:rdf="http://www.w3.org/1999/02/22-rdf-syntax-ns#">
   <cc:Work>
    <dc:type rdf:resource="http://purl.org/dc/dcmitype/StillImage"/>
    <dc:date>2026-07-02T15:51:31.425610</dc:date>
    <dc:format>image/svg+xml</dc:format>
    <dc:creator>
     <cc:Agent>
      <dc:title>Matplotlib v3.11.0, https://matplotlib.org/</dc:title>
     </cc:Agent>
    </dc:creator>
   </cc:Work>
  </rdf:RDF>
 </metadata>
 <defs>
  <style type="text/css">*{stroke-linejoin: round; stroke-linecap: butt}</style>
 </defs>
 <g id="figure_1">
  <g id="patch_1">
   <path d="M 0 244.8 
L 518.4 244.8 
L 518.4 0 
L 0 0 
z
" style="fill: #ffffff"/>
  </g>
  <g id="axes_1">
   <g id="patch_2">
    <path d="M 47.962344 202.677656 
L 507.6 202.677656 
L 507.6 24.72 
L 47.962344 24.72 
z
" style="fill: #ffffff"/>
   </g>
   <g id="matplotlib.axis_1">
    <g id="xtick_1">
     <g id="line2d_1">
      <defs>
       <path id="mf24bf2d9f7" d="M 0 0 
L 0 3.5 
" style="stroke: #000000; stroke-width: 0.8"/>
      </defs>
      <g>
       <use xlink:href="#mf24bf2d9f7" x="64.634233" y="202.677656" style="stroke: #000000; stroke-width: 0.8"/>
      </g>
     </g>
     <g id="text_1">
      <!-- 0.000 -->
      <g transform="translate(50.320171 217.275312) scale(0.1 -0.1)">
       <defs>
        <path id="DejaVuSans-13" d="M 2034 4250 
Q 1547 4250 1301 3770 
Q 1056 3291 1056 2328 
Q 1056 1369 1301 889 
Q 1547 409 2034 409 
Q 2525 409 2770 889 
Q 3016 1369 3016 2328 
Q 3016 3291 2770 3770 
Q 2525 4250 2034 4250 
z
M 2034 4750 
Q 2819 4750 3233 4129 
Q 3647 3509 3647 2328 
Q 3647 1150 3233 529 
Q 2819 -91 2034 -91 
Q 1250 -91 836 529 
Q 422 1150 422 2328 
Q 422 3509 836 4129 
Q 1250 4750 2034 4750 
z
" transform="scale(0.015625)"/>
        <path id="DejaVuSans-11" d="M 684 794 
L 1344 794 
L 1344 0 
L 684 0 
L 684 794 
z
" transform="scale(0.015625)"/>
       </defs>
       <use xlink:href="#DejaVuSans-13"/>
       <use xlink:href="#DejaVuSans-11" transform="translate(63.625 0)"/>
       <use xlink:href="#DejaVuSans-13" transform="translate(95.40625 0)"/>
       <use xlink:href="#DejaVuSans-13" transform="translate(159.03125 0)"/>
       <use xlink:href="#DejaVuSans-13" transform="translate(222.65625 0)"/>
      </g>
     </g>
    </g>
    <g id="xtick_2">
     <g id="line2d_2">
      <g>
       <use xlink:href="#mf24bf2d9f7" x="149.048862" y="202.677656" style="stroke: #000000; stroke-width: 0.8"/>
      </g>
     </g>
     <g id="text_2">
      <!-- 0.002 -->
      <g transform="translate(134.7348 217.275312) scale(0.1 -0.1)">
       <defs>
        <path id="DejaVuSans-15" d="M 1228 531 
L 3431 531 
L 3431 0 
L 469 0 
L 469 531 
Q 828 903 1448 1529 
Q 2069 2156 2228 2338 
Q 2531 2678 2651 2914 
Q 2772 3150 2772 3378 
Q 2772 3750 2511 3984 
Q 2250 4219 1831 4219 
Q 1534 4219 1204 4116 
Q 875 4013 500 3803 
L 500 4441 
Q 881 4594 1212 4672 
Q 1544 4750 1819 4750 
Q 2544 4750 2975 4387 
Q 3406 4025 3406 3419 
Q 3406 3131 3298 2873 
Q 3191 2616 2906 2266 
Q 2828 2175 2409 1742 
Q 1991 1309 1228 531 
z
" transform="scale(0.015625)"/>
       </defs>
       <use xlink:href="#DejaVuSans-13"/>
       <use xlink:href="#DejaVuSans-11" transform="translate(63.625 0)"/>
       <use xlink:href="#DejaVuSans-13" transform="translate(95.40625 0)"/>
       <use xlink:href="#DejaVuSans-13" transform="translate(159.03125 0)"/>
       <use xlink:href="#DejaVuSans-15" transform="translate(222.65625 0)"/>
      </g>
     </g>
    </g>
    <g id="xtick_3">
     <g id="line2d_3">
      <g>
       <use xlink:href="#mf24bf2d9f7" x="233.463492" y="202.677656" style="stroke: #000000; stroke-width: 0.8"/>
      </g>
     </g>
     <g id="text_3">
      <!-- 0.004 -->
      <g transform="translate(219.149429 217.275312) scale(0.1 -0.1)">
       <defs>
        <path id="DejaVuSans-17" d="M 2419 4116 
L 825 1625 
L 2419 1625 
L 2419 4116 
z
M 2253 4666 
L 3047 4666 
L 3047 1625 
L 3713 1625 
L 3713 1100 
L 3047 1100 
L 3047 0 
L 2419 0 
L 2419 1100 
L 313 1100 
L 313 1709 
L 2253 4666 
z
" transform="scale(0.015625)"/>
       </defs>
       <use xlink:href="#DejaVuSans-13"/>
       <use xlink:href="#DejaVuSans-11" transform="translate(63.625 0)"/>
       <use xlink:href="#DejaVuSans-13" transform="translate(95.40625 0)"/>
       <use xlink:href="#DejaVuSans-13" transform="translate(159.03125 0)"/>
       <use xlink:href="#DejaVuSans-17" transform="translate(222.65625 0)"/>
      </g>
     </g>
    </g>
    <g id="xtick_4">
     <g id="line2d_4">
      <g>
       <use xlink:href="#mf24bf2d9f7" x="317.878121" y="202.677656" style="stroke: #000000; stroke-width: 0.8"/>
      </g>
     </g>
     <g id="text_4">
      <!-- 0.006 -->
      <g transform="translate(303.564058 217.275312) scale(0.1 -0.1)">
       <defs>
        <path id="DejaVuSans-19" d="M 2113 2584 
Q 1688 2584 1439 2293 
Q 1191 2003 1191 1497 
Q 1191 994 1439 701 
Q 1688 409 2113 409 
Q 2538 409 2786 701 
Q 3034 994 3034 1497 
Q 3034 2003 2786 2293 
Q 2538 2584 2113 2584 
z
M 3366 4563 
L 3366 3988 
Q 3128 4100 2886 4159 
Q 2644 4219 2406 4219 
Q 1781 4219 1451 3797 
Q 1122 3375 1075 2522 
Q 1259 2794 1537 2939 
Q 1816 3084 2150 3084 
Q 2853 3084 3261 2657 
Q 3669 2231 3669 1497 
Q 3669 778 3244 343 
Q 2819 -91 2113 -91 
Q 1303 -91 875 529 
Q 447 1150 447 2328 
Q 447 3434 972 4092 
Q 1497 4750 2381 4750 
Q 2619 4750 2861 4703 
Q 3103 4656 3366 4563 
z
" transform="scale(0.015625)"/>
       </defs>
       <use xlink:href="#DejaVuSans-13"/>
       <use xlink:href="#DejaVuSans-11" transform="translate(63.625 0)"/>
       <use xlink:href="#DejaVuSans-13" transform="translate(95.40625 0)"/>
       <use xlink:href="#DejaVuSans-13" transform="translate(159.03125 0)"/>
       <use xlink:href="#DejaVuSans-19" transform="translate(222.65625 0)"/>
      </g>
     </g>
    </g>
    <g id="xtick_5">
     <g id="line2d_5">
      <g>
       <use xlink:href="#mf24bf2d9f7" x="402.29275" y="202.677656" style="stroke: #000000; stroke-width: 0.8"/>
      </g>
     </g>
     <g id="text_5">
      <!-- 0.008 -->
      <g transform="translate(387.978688 217.275312) scale(0.1 -0.1)">
       <defs>
        <path id="DejaVuSans-1b" d="M 2034 2216 
Q 1584 2216 1326 1975 
Q 1069 1734 1069 1313 
Q 1069 891 1326 650 
Q 1584 409 2034 409 
Q 2484 409 2743 651 
Q 3003 894 3003 1313 
Q 3003 1734 2745 1975 
Q 2488 2216 2034 2216 
z
M 1403 2484 
Q 997 2584 770 2862 
Q 544 3141 544 3541 
Q 544 4100 942 4425 
Q 1341 4750 2034 4750 
Q 2731 4750 3128 4425 
Q 3525 4100 3525 3541 
Q 3525 3141 3298 2862 
Q 3072 2584 2669 2484 
Q 3125 2378 3379 2068 
Q 3634 1759 3634 1313 
Q 3634 634 3220 271 
Q 2806 -91 2034 -91 
Q 1263 -91 848 271 
Q 434 634 434 1313 
Q 434 1759 690 2068 
Q 947 2378 1403 2484 
z
M 1172 3481 
Q 1172 3119 1398 2916 
Q 1625 2713 2034 2713 
Q 2441 2713 2670 2916 
Q 2900 3119 2900 3481 
Q 2900 3844 2670 4047 
Q 2441 4250 2034 4250 
Q 1625 4250 1398 4047 
Q 1172 3844 1172 3481 
z
" transform="scale(0.015625)"/>
       </defs>
       <use xlink:href="#DejaVuSans-13"/>
       <use xlink:href="#DejaVuSans-11" transform="translate(63.625 0)"/>
       <use xlink:href="#DejaVuSans-13" transform="translate(95.40625 0)"/>
       <use xlink:href="#DejaVuSans-13" transform="translate(159.03125 0)"/>
       <use xlink:href="#DejaVuSans-1b" transform="translate(222.65625 0)"/>
      </g>
     </g>
    </g>
    <g id="xtick_6">
     <g id="line2d_6">
      <g>
       <use xlink:href="#mf24bf2d9f7" x="486.707379" y="202.677656" style="stroke: #000000; stroke-width: 0.8"/>
      </g>
     </g>
     <g id="text_6">
      <!-- 0.010 -->
      <g transform="translate(472.393317 217.275312) scale(0.1 -0.1)">
       <defs>
        <path id="DejaVuSans-14" d="M 794 531 
L 1825 531 
L 1825 4091 
L 703 3866 
L 703 4441 
L 1819 4666 
L 2450 4666 
L 2450 531 
L 3481 531 
L 3481 0 
L 794 0 
L 794 531 
z
" transform="scale(0.015625)"/>
       </defs>
       <use xlink:href="#DejaVuSans-13"/>
       <use xlink:href="#DejaVuSans-11" transform="translate(63.625 0)"/>
       <use xlink:href="#DejaVuSans-13" transform="translate(95.40625 0)"/>
       <use xlink:href="#DejaVuSans-14" transform="translate(159.03125 0)"/>
       <use xlink:href="#DejaVuSans-13" transform="translate(222.65625 0)"/>
      </g>
     </g>
    </g>
    <g id="text_7">
     <!-- fpr_budget -->
     <g transform="translate(250.563203 231.276094) scale(0.1 -0.1)">
      <defs>
       <path id="DejaVuSans-49" d="M 2375 4863 
L 2375 4384 
L 1825 4384 
Q 1516 4384 1395 4259 
Q 1275 4134 1275 3809 
L 1275 3500 
L 2222 3500 
L 2222 3053 
L 1275 3053 
L 1275 0 
L 697 0 
L 697 3053 
L 147 3053 
L 147 3500 
L 697 3500 
L 697 3744 
Q 697 4328 969 4595 
Q 1241 4863 1831 4863 
L 2375 4863 
z
" transform="scale(0.015625)"/>
       <path id="DejaVuSans-53" d="M 1159 525 
L 1159 -1331 
L 581 -1331 
L 581 3500 
L 1159 3500 
L 1159 2969 
Q 1341 3281 1617 3432 
Q 1894 3584 2278 3584 
Q 2916 3584 3314 3078 
Q 3713 2572 3713 1747 
Q 3713 922 3314 415 
Q 2916 -91 2278 -91 
Q 1894 -91 1617 61 
Q 1341 213 1159 525 
z
M 3116 1747 
Q 3116 2381 2855 2742 
Q 2594 3103 2138 3103 
Q 1681 3103 1420 2742 
Q 1159 2381 1159 1747 
Q 1159 1113 1420 752 
Q 1681 391 2138 391 
Q 2594 391 2855 752 
Q 3116 1113 3116 1747 
z
" transform="scale(0.015625)"/>
       <path id="DejaVuSans-55" d="M 2631 2963 
Q 2534 3019 2420 3045 
Q 2306 3072 2169 3072 
Q 1681 3072 1420 2755 
Q 1159 2438 1159 1844 
L 1159 0 
L 581 0 
L 581 3500 
L 1159 3500 
L 1159 2956 
Q 1341 3275 1631 3429 
Q 1922 3584 2338 3584 
Q 2397 3584 2469 3576 
Q 2541 3569 2628 3553 
L 2631 2963 
z
" transform="scale(0.015625)"/>
       <path id="DejaVuSans-42" d="M 3263 -1063 
L 3263 -1509 
L -63 -1509 
L -63 -1063 
L 3263 -1063 
z
" transform="scale(0.015625)"/>
       <path id="DejaVuSans-45" d="M 3116 1747 
Q 3116 2381 2855 2742 
Q 2594 3103 2138 3103 
Q 1681 3103 1420 2742 
Q 1159 2381 1159 1747 
Q 1159 1113 1420 752 
Q 1681 391 2138 391 
Q 2594 391 2855 752 
Q 3116 1113 3116 1747 
z
M 1159 2969 
Q 1341 3281 1617 3432 
Q 1894 3584 2278 3584 
Q 2916 3584 3314 3078 
Q 3713 2572 3713 1747 
Q 3713 922 3314 415 
Q 2916 -91 2278 -91 
Q 1894 -91 1617 61 
Q 1341 213 1159 525 
L 1159 0 
L 581 0 
L 581 4863 
L 1159 4863 
L 1159 2969 
z
" transform="scale(0.015625)"/>
       <path id="DejaVuSans-58" d="M 544 1381 
L 544 3500 
L 1119 3500 
L 1119 1403 
Q 1119 906 1312 657 
Q 1506 409 1894 409 
Q 2359 409 2629 706 
Q 2900 1003 2900 1516 
L 2900 3500 
L 3475 3500 
L 3475 0 
L 2900 0 
L 2900 538 
Q 2691 219 2414 64 
Q 2138 -91 1772 -91 
Q 1169 -91 856 284 
Q 544 659 544 1381 
z
M 1991 3584 
L 1991 3584 
z
" transform="scale(0.015625)"/>
       <path id="DejaVuSans-47" d="M 2906 2969 
L 2906 4863 
L 3481 4863 
L 3481 0 
L 2906 0 
L 2906 525 
Q 2725 213 2448 61 
Q 2172 -91 1784 -91 
Q 1150 -91 751 415 
Q 353 922 353 1747 
Q 353 2572 751 3078 
Q 1150 3584 1784 3584 
Q 2172 3584 2448 3432 
Q 2725 3281 2906 2969 
z
M 947 1747 
Q 947 1113 1208 752 
Q 1469 391 1925 391 
Q 2381 391 2643 752 
Q 2906 1113 2906 1747 
Q 2906 2381 2643 2742 
Q 2381 3103 1925 3103 
Q 1469 3103 1208 2742 
Q 947 2381 947 1747 
z
" transform="scale(0.015625)"/>
       <path id="DejaVuSans-4a" d="M 2906 1791 
Q 2906 2416 2648 2759 
Q 2391 3103 1925 3103 
Q 1463 3103 1205 2759 
Q 947 2416 947 1791 
Q 947 1169 1205 825 
Q 1463 481 1925 481 
Q 2391 481 2648 825 
Q 2906 1169 2906 1791 
z
M 3481 434 
Q 3481 -459 3084 -895 
Q 2688 -1331 1869 -1331 
Q 1566 -1331 1297 -1286 
Q 1028 -1241 775 -1147 
L 775 -588 
Q 1028 -725 1275 -790 
Q 1522 -856 1778 -856 
Q 2344 -856 2625 -561 
Q 2906 -266 2906 331 
L 2906 616 
Q 2728 306 2450 153 
Q 2172 0 1784 0 
Q 1141 0 747 490 
Q 353 981 353 1791 
Q 353 2603 747 3093 
Q 1141 3584 1784 3584 
Q 2172 3584 2450 3431 
Q 2728 3278 2906 2969 
L 2906 3500 
L 3481 3500 
L 3481 434 
z
" transform="scale(0.015625)"/>
       <path id="DejaVuSans-48" d="M 3597 1894 
L 3597 1613 
L 953 1613 
Q 991 1019 1311 708 
Q 1631 397 2203 397 
Q 2534 397 2845 478 
Q 3156 559 3463 722 
L 3463 178 
Q 3153 47 2828 -22 
Q 2503 -91 2169 -91 
Q 1331 -91 842 396 
Q 353 884 353 1716 
Q 353 2575 817 3079 
Q 1281 3584 2069 3584 
Q 2775 3584 3186 3129 
Q 3597 2675 3597 1894 
z
M 3022 2063 
Q 3016 2534 2758 2815 
Q 2500 3097 2075 3097 
Q 1594 3097 1305 2825 
Q 1016 2553 972 2059 
L 3022 2063 
z
" transform="scale(0.015625)"/>
       <path id="DejaVuSans-57" d="M 1172 4494 
L 1172 3500 
L 2356 3500 
L 2356 3053 
L 1172 3053 
L 1172 1153 
Q 1172 725 1289 603 
Q 1406 481 1766 481 
L 2356 481 
L 2356 0 
L 1766 0 
Q 1100 0 847 248 
Q 594 497 594 1153 
L 594 3053 
L 172 3053 
L 172 3500 
L 594 3500 
L 594 4494 
L 1172 4494 
z
" transform="scale(0.015625)"/>
      </defs>
      <use xlink:href="#DejaVuSans-49"/>
      <use xlink:href="#DejaVuSans-53" transform="translate(35.203125 0)"/>
      <use xlink:href="#DejaVuSans-55" transform="translate(98.6875 0)"/>
      <use xlink:href="#DejaVuSans-42" transform="translate(139.796875 0)"/>
      <use xlink:href="#DejaVuSans-45" transform="translate(189.796875 0)"/>
      <use xlink:href="#DejaVuSans-58" transform="translate(253.28125 0)"/>
      <use xlink:href="#DejaVuSans-47" transform="translate(316.65625 0)"/>
      <use xlink:href="#DejaVuSans-4a" transform="translate(380.140625 0)"/>
      <use xlink:href="#DejaVuSans-48" transform="translate(443.625 0)"/>
      <use xlink:href="#DejaVuSans-57" transform="translate(505.15625 0)"/>
     </g>
    </g>
   </g>
   <g id="matplotlib.axis_2">
    <g id="ytick_1">
     <g id="line2d_7">
      <path d="M 47.962344 194.588672 
L 507.6 194.588672 
" clip-path="url(#padd5f4a262)" style="fill: none; stroke: #e6e6e6; stroke-width: 0.6; stroke-linecap: square"/>
     </g>
     <g id="line2d_8">
      <defs>
       <path id="m363580e598" d="M 0 0 
L -3.5 0 
" style="stroke: #000000; stroke-width: 0.8"/>
      </defs>
      <g>
       <use xlink:href="#m363580e598" x="47.962344" y="194.588672" style="stroke: #000000; stroke-width: 0.8"/>
      </g>
     </g>
     <g id="text_8">
      <!-- 0.0 -->
      <g transform="translate(25.059219 198.3875) scale(0.1 -0.1)">
       <use xlink:href="#DejaVuSans-13"/>
       <use xlink:href="#DejaVuSans-11" transform="translate(63.625 0)"/>
       <use xlink:href="#DejaVuSans-13" transform="translate(95.40625 0)"/>
      </g>
     </g>
    </g>
    <g id="ytick_2">
     <g id="line2d_9">
      <path d="M 47.962344 159.821073 
L 507.6 159.821073 
" clip-path="url(#padd5f4a262)" style="fill: none; stroke: #e6e6e6; stroke-width: 0.6; stroke-linecap: square"/>
     </g>
     <g id="line2d_10">
      <g>
       <use xlink:href="#m363580e598" x="47.962344" y="159.821073" style="stroke: #000000; stroke-width: 0.8"/>
      </g>
     </g>
     <g id="text_9">
      <!-- 0.2 -->
      <g transform="translate(25.059219 163.619901) scale(0.1 -0.1)">
       <use xlink:href="#DejaVuSans-13"/>
       <use xlink:href="#DejaVuSans-11" transform="translate(63.625 0)"/>
       <use xlink:href="#DejaVuSans-15" transform="translate(95.40625 0)"/>
      </g>
     </g>
    </g>
    <g id="ytick_3">
     <g id="line2d_11">
      <path d="M 47.962344 125.053475 
L 507.6 125.053475 
" clip-path="url(#padd5f4a262)" style="fill: none; stroke: #e6e6e6; stroke-width: 0.6; stroke-linecap: square"/>
     </g>
     <g id="line2d_12">
      <g>
       <use xlink:href="#m363580e598" x="47.962344" y="125.053475" style="stroke: #000000; stroke-width: 0.8"/>
      </g>
     </g>
     <g id="text_10">
      <!-- 0.4 -->
      <g transform="translate(25.059219 128.852303) scale(0.1 -0.1)">
       <use xlink:href="#DejaVuSans-13"/>
       <use xlink:href="#DejaVuSans-11" transform="translate(63.625 0)"/>
       <use xlink:href="#DejaVuSans-17" transform="translate(95.40625 0)"/>
      </g>
     </g>
    </g>
    <g id="ytick_4">
     <g id="line2d_13">
      <path d="M 47.962344 90.285876 
L 507.6 90.285876 
" clip-path="url(#padd5f4a262)" style="fill: none; stroke: #e6e6e6; stroke-width: 0.6; stroke-linecap: square"/>
     </g>
     <g id="line2d_14">
      <g>
       <use xlink:href="#m363580e598" x="47.962344" y="90.285876" style="stroke: #000000; stroke-width: 0.8"/>
      </g>
     </g>
     <g id="text_11">
      <!-- 0.6 -->
      <g transform="translate(25.059219 94.084704) scale(0.1 -0.1)">
       <use xlink:href="#DejaVuSans-13"/>
       <use xlink:href="#DejaVuSans-11" transform="translate(63.625 0)"/>
       <use xlink:href="#DejaVuSans-19" transform="translate(95.40625 0)"/>
      </g>
     </g>
    </g>
    <g id="ytick_5">
     <g id="line2d_15">
      <path d="M 47.962344 55.518277 
L 507.6 55.518277 
" clip-path="url(#padd5f4a262)" style="fill: none; stroke: #e6e6e6; stroke-width: 0.6; stroke-linecap: square"/>
     </g>
     <g id="line2d_16">
      <g>
       <use xlink:href="#m363580e598" x="47.962344" y="55.518277" style="stroke: #000000; stroke-width: 0.8"/>
      </g>
     </g>
     <g id="text_12">
      <!-- 0.8 -->
      <g transform="translate(25.059219 59.317105) scale(0.1 -0.1)">
       <use xlink:href="#DejaVuSans-13"/>
       <use xlink:href="#DejaVuSans-11" transform="translate(63.625 0)"/>
       <use xlink:href="#DejaVuSans-1b" transform="translate(95.40625 0)"/>
      </g>
     </g>
    </g>
    <g id="text_13">
     <!-- recall_at_fpr -->
     <g transform="translate(18.656875 144.326172) rotate(-90) scale(0.1 -0.1)">
      <defs>
       <path id="DejaVuSans-46" d="M 3122 3366 
L 3122 2828 
Q 2878 2963 2633 3030 
Q 2388 3097 2138 3097 
Q 1578 3097 1268 2742 
Q 959 2388 959 1747 
Q 959 1106 1268 751 
Q 1578 397 2138 397 
Q 2388 397 2633 464 
Q 2878 531 3122 666 
L 3122 134 
Q 2881 22 2623 -34 
Q 2366 -91 2075 -91 
Q 1284 -91 818 406 
Q 353 903 353 1747 
Q 353 2603 823 3093 
Q 1294 3584 2113 3584 
Q 2378 3584 2631 3529 
Q 2884 3475 3122 3366 
z
" transform="scale(0.015625)"/>
       <path id="DejaVuSans-44" d="M 2194 1759 
Q 1497 1759 1228 1600 
Q 959 1441 959 1056 
Q 959 750 1161 570 
Q 1363 391 1709 391 
Q 2188 391 2477 730 
Q 2766 1069 2766 1631 
L 2766 1759 
L 2194 1759 
z
M 3341 1997 
L 3341 0 
L 2766 0 
L 2766 531 
Q 2569 213 2275 61 
Q 1981 -91 1556 -91 
Q 1019 -91 701 211 
Q 384 513 384 1019 
Q 384 1609 779 1909 
Q 1175 2209 1959 2209 
L 2766 2209 
L 2766 2266 
Q 2766 2663 2505 2880 
Q 2244 3097 1772 3097 
Q 1472 3097 1187 3025 
Q 903 2953 641 2809 
L 641 3341 
Q 956 3463 1253 3523 
Q 1550 3584 1831 3584 
Q 2591 3584 2966 3190 
Q 3341 2797 3341 1997 
z
" transform="scale(0.015625)"/>
       <path id="DejaVuSans-4f" d="M 603 4863 
L 1178 4863 
L 1178 0 
L 603 0 
L 603 4863 
z
" transform="scale(0.015625)"/>
      </defs>
      <use xlink:href="#DejaVuSans-55"/>
      <use xlink:href="#DejaVuSans-48" transform="translate(38.90625 0)"/>
      <use xlink:href="#DejaVuSans-46" transform="translate(100.4375 0)"/>
      <use xlink:href="#DejaVuSans-44" transform="translate(155.421875 0)"/>
      <use xlink:href="#DejaVuSans-4f" transform="translate(216.703125 0)"/>
      <use xlink:href="#DejaVuSans-4f" transform="translate(244.484375 0)"/>
      <use xlink:href="#DejaVuSans-42" transform="translate(272.265625 0)"/>
      <use xlink:href="#DejaVuSans-44" transform="translate(322.265625 0)"/>
      <use xlink:href="#DejaVuSans-57" transform="translate(383.546875 0)"/>
      <use xlink:href="#DejaVuSans-42" transform="translate(422.75 0)"/>
      <use xlink:href="#DejaVuSans-49" transform="translate(472.75 0)"/>
      <use xlink:href="#DejaVuSans-53" transform="translate(507.953125 0)"/>
      <use xlink:href="#DejaVuSans-55" transform="translate(571.4375 0)"/>
     </g>
    </g>
   </g>
   <g id="line2d_17">
    <path d="M 68.854964 176.850101 
L 68.854964 183.945529 
L 85.73789 183.945529 
L 85.73789 141.37296 
L 106.841548 155.563816 
L 106.841548 141.37296 
L 275.670806 141.37296 
L 275.670806 137.825245 
L 486.707379 141.37296 
L 486.707379 134.277531 
" clip-path="url(#padd5f4a262)" style="fill: none; stroke: #1f77b4; stroke-width: 1.4; stroke-linecap: square"/>
    <defs>
     <path id="m78b8f333af" d="M 0 2 
C 0.530406 2 1.03916 1.789267 1.414214 1.414214 
C 1.789267 1.03916 2 0.530406 2 0 
C 2 -0.530406 1.789267 -1.03916 1.414214 -1.414214 
C 1.03916 -1.789267 0.530406 -2 0 -2 
C -0.530406 -2 -1.03916 -1.789267 -1.414214 -1.414214 
C -1.789267 -1.03916 -2 -0.530406 -2 0 
C -2 0.530406 -1.789267 1.03916 -1.414214 1.414214 
C -1.03916 1.789267 -0.530406 2 0 2 
z
" style="stroke: #1f77b4"/>
    </defs>
    <g clip-path="url(#padd5f4a262)">
     <use xlink:href="#m78b8f333af" x="68.854964" y="176.850101" style="fill: #1f77b4; stroke: #1f77b4"/>
     <use xlink:href="#m78b8f333af" x="68.854964" y="183.945529" style="fill: #1f77b4; stroke: #1f77b4"/>
     <use xlink:href="#m78b8f333af" x="85.73789" y="183.945529" style="fill: #1f77b4; stroke: #1f77b4"/>
     <use xlink:href="#m78b8f333af" x="85.73789" y="141.37296" style="fill: #1f77b4; stroke: #1f77b4"/>
     <use xlink:href="#m78b8f333af" x="106.841548" y="155.563816" style="fill: #1f77b4; stroke: #1f77b4"/>
     <use xlink:href="#m78b8f333af" x="106.841548" y="141.37296" style="fill: #1f77b4; stroke: #1f77b4"/>
     <use xlink:href="#m78b8f333af" x="275.670806" y="141.37296" style="fill: #1f77b4; stroke: #1f77b4"/>
     <use xlink:href="#m78b8f333af" x="275.670806" y="137.825245" style="fill: #1f77b4; stroke: #1f77b4"/>
     <use xlink:href="#m78b8f333af" x="486.707379" y="141.37296" style="fill: #1f77b4; stroke: #1f77b4"/>
     <use xlink:href="#m78b8f333af" x="486.707379" y="134.277531" style="fill: #1f77b4; stroke: #1f77b4"/>
    </g>
   </g>
   <g id="line2d_18">
    <path d="M 68.854964 39.546406 
L 68.854964 194.588672 
L 85.73789 194.588672 
L 85.73789 39.456474 
L 106.841548 194.588672 
L 106.841548 39.456474 
L 275.670806 39.366542 
L 275.670806 194.588672 
L 486.707379 39.366542 
L 486.707379 194.588672 
" clip-path="url(#padd5f4a262)" style="fill: none; stroke-dasharray: 5.18,2.24; stroke-dashoffset: 0; stroke: #ff7f0e; stroke-width: 1.4"/>
    <defs>
     <path id="m0b6c077ca9" d="M -2 2 
L 2 2 
L 2 -2 
L -2 -2 
z
" style="stroke: #ff7f0e; stroke-linejoin: miter"/>
    </defs>
    <g clip-path="url(#padd5f4a262)">
     <use xlink:href="#m0b6c077ca9" x="68.854964" y="39.546406" style="fill: #ff7f0e; stroke: #ff7f0e; stroke-linejoin: miter"/>
     <use xlink:href="#m0b6c077ca9" x="68.854964" y="194.588672" style="fill: #ff7f0e; stroke: #ff7f0e; stroke-linejoin: miter"/>
     <use xlink:href="#m0b6c077ca9" x="85.73789" y="194.588672" style="fill: #ff7f0e; stroke: #ff7f0e; stroke-linejoin: miter"/>
     <use xlink:href="#m0b6c077ca9" x="85.73789" y="39.456474" style="fill: #ff7f0e; stroke: #ff7f0e; stroke-linejoin: miter"/>
     <use xlink:href="#m0b6c077ca9" x="106.841548" y="194.588672" style="fill: #ff7f0e; stroke: #ff7f0e; stroke-linejoin: miter"/>
     <use xlink:href="#m0b6c077ca9" x="106.841548" y="39.456474" style="fill: #ff7f0e; stroke: #ff7f0e; stroke-linejoin: miter"/>
     <use xlink:href="#m0b6c077ca9" x="275.670806" y="39.366542" style="fill: #ff7f0e; stroke: #ff7f0e; stroke-linejoin: miter"/>
     <use xlink:href="#m0b6c077ca9" x="275.670806" y="194.588672" style="fill: #ff7f0e; stroke: #ff7f0e; stroke-linejoin: miter"/>
     <use xlink:href="#m0b6c077ca9" x="486.707379" y="39.366542" style="fill: #ff7f0e; stroke: #ff7f0e; stroke-linejoin: miter"/>
     <use xlink:href="#m0b6c077ca9" x="486.707379" y="194.588672" style="fill: #ff7f0e; stroke: #ff7f0e; stroke-linejoin: miter"/>
    </g>
   </g>
   <g id="line2d_19">
    <path d="M 68.854964 82.127145 
L 68.854964 194.588672 
L 85.73789 194.588672 
L 85.73789 32.901979 
L 106.841548 194.588672 
L 106.841548 32.808984 
L 275.670806 32.808984 
L 275.670806 194.588672 
L 486.707379 32.808984 
L 486.707379 194.588672 
" clip-path="url(#padd5f4a262)" style="fill: none; stroke-dasharray: 8.96,2.24,1.4,2.24; stroke-dashoffset: 0; stroke: #2ca02c; stroke-width: 1.4"/>
    <defs>
     <path id="mc2f980def5" d="M 0 -2 
L -2 2 
L 2 2 
z
" style="stroke: #2ca02c; stroke-linejoin: miter"/>
    </defs>
    <g clip-path="url(#padd5f4a262)">
     <use xlink:href="#mc2f980def5" x="68.854964" y="82.127145" style="fill: #2ca02c; stroke: #2ca02c; stroke-linejoin: miter"/>
     <use xlink:href="#mc2f980def5" x="68.854964" y="194.588672" style="fill: #2ca02c; stroke: #2ca02c; stroke-linejoin: miter"/>
     <use xlink:href="#mc2f980def5" x="85.73789" y="194.588672" style="fill: #2ca02c; stroke: #2ca02c; stroke-linejoin: miter"/>
     <use xlink:href="#mc2f980def5" x="85.73789" y="32.901979" style="fill: #2ca02c; stroke: #2ca02c; stroke-linejoin: miter"/>
     <use xlink:href="#mc2f980def5" x="106.841548" y="194.588672" style="fill: #2ca02c; stroke: #2ca02c; stroke-linejoin: miter"/>
     <use xlink:href="#mc2f980def5" x="106.841548" y="32.808984" style="fill: #2ca02c; stroke: #2ca02c; stroke-linejoin: miter"/>
     <use xlink:href="#mc2f980def5" x="275.670806" y="32.808984" style="fill: #2ca02c; stroke: #2ca02c; stroke-linejoin: miter"/>
     <use xlink:href="#mc2f980def5" x="275.670806" y="194.588672" style="fill: #2ca02c; stroke: #2ca02c; stroke-linejoin: miter"/>
     <use xlink:href="#mc2f980def5" x="486.707379" y="32.808984" style="fill: #2ca02c; stroke: #2ca02c; stroke-linejoin: miter"/>
     <use xlink:href="#mc2f980def5" x="486.707379" y="194.588672" style="fill: #2ca02c; stroke: #2ca02c; stroke-linejoin: miter"/>
    </g>
   </g>
   <g id="line2d_20">
    <path d="M 68.854964 77.423392 
L 68.854964 194.588672 
L 85.73789 194.588672 
L 85.73789 51.88826 
L 106.841548 194.588672 
L 106.841548 34.340091 
L 275.670806 32.881603 
L 275.670806 194.588672 
L 486.707379 32.881603 
L 486.707379 194.588672 
" clip-path="url(#padd5f4a262)" style="fill: none; stroke-dasharray: 1.4,2.31; stroke-dashoffset: 0; stroke: #d62728; stroke-width: 1.4"/>
    <defs>
     <path id="m6963adcfab" d="M -0 2.828427 
L 2.828427 0 
L 0 -2.828427 
L -2.828427 -0 
z
" style="stroke: #d62728; stroke-linejoin: miter"/>
    </defs>
    <g clip-path="url(#padd5f4a262)">
     <use xlink:href="#m6963adcfab" x="68.854964" y="77.423392" style="fill: #d62728; stroke: #d62728; stroke-linejoin: miter"/>
     <use xlink:href="#m6963adcfab" x="68.854964" y="194.588672" style="fill: #d62728; stroke: #d62728; stroke-linejoin: miter"/>
     <use xlink:href="#m6963adcfab" x="85.73789" y="194.588672" style="fill: #d62728; stroke: #d62728; stroke-linejoin: miter"/>
     <use xlink:href="#m6963adcfab" x="85.73789" y="51.88826" style="fill: #d62728; stroke: #d62728; stroke-linejoin: miter"/>
     <use xlink:href="#m6963adcfab" x="106.841548" y="194.588672" style="fill: #d62728; stroke: #d62728; stroke-linejoin: miter"/>
     <use xlink:href="#m6963adcfab" x="106.841548" y="34.340091" style="fill: #d62728; stroke: #d62728; stroke-linejoin: miter"/>
     <use xlink:href="#m6963adcfab" x="275.670806" y="32.881603" style="fill: #d62728; stroke: #d62728; stroke-linejoin: miter"/>
     <use xlink:href="#m6963adcfab" x="275.670806" y="194.588672" style="fill: #d62728; stroke: #d62728; stroke-linejoin: miter"/>
     <use xlink:href="#m6963adcfab" x="486.707379" y="32.881603" style="fill: #d62728; stroke: #d62728; stroke-linejoin: miter"/>
     <use xlink:href="#m6963adcfab" x="486.707379" y="194.588672" style="fill: #d62728; stroke: #d62728; stroke-linejoin: miter"/>
    </g>
   </g>
   <g id="line2d_21">
    <path d="M 68.854964 116.736973 
L 68.854964 194.588672 
L 85.73789 194.588672 
L 85.73789 86.012118 
L 106.841548 194.588672 
L 106.841548 54.594221 
L 275.670806 54.594221 
L 275.670806 194.588672 
L 486.707379 54.594221 
L 486.707379 194.588672 
" clip-path="url(#padd5f4a262)" style="fill: none; stroke: #9467bd; stroke-width: 1.4; stroke-linecap: square"/>
    <defs>
     <path id="m377796bad6" d="M -0 2 
L 2 -2 
L -2 -2 
z
" style="stroke: #9467bd; stroke-linejoin: miter"/>
    </defs>
    <g clip-path="url(#padd5f4a262)">
     <use xlink:href="#m377796bad6" x="68.854964" y="116.736973" style="fill: #9467bd; stroke: #9467bd; stroke-linejoin: miter"/>
     <use xlink:href="#m377796bad6" x="68.854964" y="194.588672" style="fill: #9467bd; stroke: #9467bd; stroke-linejoin: miter"/>
     <use xlink:href="#m377796bad6" x="85.73789" y="194.588672" style="fill: #9467bd; stroke: #9467bd; stroke-linejoin: miter"/>
     <use xlink:href="#m377796bad6" x="85.73789" y="86.012118" style="fill: #9467bd; stroke: #9467bd; stroke-linejoin: miter"/>
     <use xlink:href="#m377796bad6" x="106.841548" y="194.588672" style="fill: #9467bd; stroke: #9467bd; stroke-linejoin: miter"/>
     <use xlink:href="#m377796bad6" x="106.841548" y="54.594221" style="fill: #9467bd; stroke: #9467bd; stroke-linejoin: miter"/>
     <use xlink:href="#m377796bad6" x="275.670806" y="54.594221" style="fill: #9467bd; stroke: #9467bd; stroke-linejoin: miter"/>
     <use xlink:href="#m377796bad6" x="275.670806" y="194.588672" style="fill: #9467bd; stroke: #9467bd; stroke-linejoin: miter"/>
     <use xlink:href="#m377796bad6" x="486.707379" y="54.594221" style="fill: #9467bd; stroke: #9467bd; stroke-linejoin: miter"/>
     <use xlink:href="#m377796bad6" x="486.707379" y="194.588672" style="fill: #9467bd; stroke: #9467bd; stroke-linejoin: miter"/>
    </g>
   </g>
   <g id="patch_3">
    <path d="M 47.962344 202.677656 
L 47.962344 24.72 
" style="fill: none; stroke: #000000; stroke-width: 0.8; stroke-linejoin: miter; stroke-linecap: square"/>
   </g>
   <g id="patch_4">
    <path d="M 47.962344 202.677656 
L 507.6 202.677656 
" style="fill: none; stroke: #000000; stroke-width: 0.8; stroke-linejoin: miter; stroke-linecap: square"/>
   </g>
   <g id="text_14">
    <!-- Low-FPR Deployment -->
    <g transform="translate(224.592109 18.72) scale(0.1 -0.1)">
     <defs>
      <path id="DejaVuSans-2f" d="M 628 4666 
L 1259 4666 
L 1259 531 
L 3531 531 
L 3531 0 
L 628 0 
L 628 4666 
z
" transform="scale(0.015625)"/>
      <path id="DejaVuSans-52" d="M 1959 3097 
Q 1497 3097 1228 2736 
Q 959 2375 959 1747 
Q 959 1119 1226 758 
Q 1494 397 1959 397 
Q 2419 397 2687 759 
Q 2956 1122 2956 1747 
Q 2956 2369 2687 2733 
Q 2419 3097 1959 3097 
z
M 1959 3584 
Q 2709 3584 3137 3096 
Q 3566 2609 3566 1747 
Q 3566 888 3137 398 
Q 2709 -91 1959 -91 
Q 1206 -91 779 398 
Q 353 888 353 1747 
Q 353 2609 779 3096 
Q 1206 3584 1959 3584 
z
" transform="scale(0.015625)"/>
      <path id="DejaVuSans-5a" d="M 269 3500 
L 844 3500 
L 1563 769 
L 2278 3500 
L 2956 3500 
L 3675 769 
L 4391 3500 
L 4966 3500 
L 4050 0 
L 3372 0 
L 2619 2869 
L 1863 0 
L 1184 0 
L 269 3500 
z
" transform="scale(0.015625)"/>
      <path id="DejaVuSans-10" d="M 313 2009 
L 1997 2009 
L 1997 1497 
L 313 1497 
L 313 2009 
z
" transform="scale(0.015625)"/>
      <path id="DejaVuSans-29" d="M 628 4666 
L 3309 4666 
L 3309 4134 
L 1259 4134 
L 1259 2759 
L 3109 2759 
L 3109 2228 
L 1259 2228 
L 1259 0 
L 628 0 
L 628 4666 
z
" transform="scale(0.015625)"/>
      <path id="DejaVuSans-33" d="M 1259 4147 
L 1259 2394 
L 2053 2394 
Q 2494 2394 2734 2622 
Q 2975 2850 2975 3272 
Q 2975 3691 2734 3919 
Q 2494 4147 2053 4147 
L 1259 4147 
z
M 628 4666 
L 2053 4666 
Q 2838 4666 3239 4311 
Q 3641 3956 3641 3272 
Q 3641 2581 3239 2228 
Q 2838 1875 2053 1875 
L 1259 1875 
L 1259 0 
L 628 0 
L 628 4666 
z
" transform="scale(0.015625)"/>
      <path id="DejaVuSans-35" d="M 2841 2188 
Q 3044 2119 3236 1894 
Q 3428 1669 3622 1275 
L 4263 0 
L 3584 0 
L 2988 1197 
Q 2756 1666 2539 1819 
Q 2322 1972 1947 1972 
L 1259 1972 
L 1259 0 
L 628 0 
L 628 4666 
L 2053 4666 
Q 2853 4666 3247 4331 
Q 3641 3997 3641 3322 
Q 3641 2881 3436 2590 
Q 3231 2300 2841 2188 
z
M 1259 4147 
L 1259 2491 
L 2053 2491 
Q 2509 2491 2742 2702 
Q 2975 2913 2975 3322 
Q 2975 3731 2742 3939 
Q 2509 4147 2053 4147 
L 1259 4147 
z
" transform="scale(0.015625)"/>
      <path id="DejaVuSans-3" transform="scale(0.015625)"/>
      <path id="DejaVuSans-27" d="M 1259 4147 
L 1259 519 
L 2022 519 
Q 2988 519 3436 956 
Q 3884 1394 3884 2338 
Q 3884 3275 3436 3711 
Q 2988 4147 2022 4147 
L 1259 4147 
z
M 628 4666 
L 1925 4666 
Q 3281 4666 3915 4102 
Q 4550 3538 4550 2338 
Q 4550 1131 3912 565 
Q 3275 0 1925 0 
L 628 0 
L 628 4666 
z
" transform="scale(0.015625)"/>
      <path id="DejaVuSans-5c" d="M 2059 -325 
Q 1816 -950 1584 -1140 
Q 1353 -1331 966 -1331 
L 506 -1331 
L 506 -850 
L 844 -850 
Q 1081 -850 1212 -737 
Q 1344 -625 1503 -206 
L 1606 56 
L 191 3500 
L 800 3500 
L 1894 763 
L 2988 3500 
L 3597 3500 
L 2059 -325 
z
" transform="scale(0.015625)"/>
      <path id="DejaVuSans-50" d="M 3328 2828 
Q 3544 3216 3844 3400 
Q 4144 3584 4550 3584 
Q 5097 3584 5394 3201 
Q 5691 2819 5691 2113 
L 5691 0 
L 5113 0 
L 5113 2094 
Q 5113 2597 4934 2840 
Q 4756 3084 4391 3084 
Q 3944 3084 3684 2787 
Q 3425 2491 3425 1978 
L 3425 0 
L 2847 0 
L 2847 2094 
Q 2847 2600 2669 2842 
Q 2491 3084 2119 3084 
Q 1678 3084 1418 2786 
Q 1159 2488 1159 1978 
L 1159 0 
L 581 0 
L 581 3500 
L 1159 3500 
L 1159 2956 
Q 1356 3278 1631 3431 
Q 1906 3584 2284 3584 
Q 2666 3584 2933 3390 
Q 3200 3197 3328 2828 
z
" transform="scale(0.015625)"/>
      <path id="DejaVuSans-51" d="M 3513 2113 
L 3513 0 
L 2938 0 
L 2938 2094 
Q 2938 2591 2744 2837 
Q 2550 3084 2163 3084 
Q 1697 3084 1428 2787 
Q 1159 2491 1159 1978 
L 1159 0 
L 581 0 
L 581 3500 
L 1159 3500 
L 1159 2956 
Q 1366 3272 1645 3428 
Q 1925 3584 2291 3584 
Q 2894 3584 3203 3211 
Q 3513 2838 3513 2113 
z
" transform="scale(0.015625)"/>
     </defs>
     <use xlink:href="#DejaVuSans-2f"/>
     <use xlink:href="#DejaVuSans-52" transform="translate(53.96875 0)"/>
     <use xlink:href="#DejaVuSans-5a" transform="translate(115.15625 0)"/>
     <use xlink:href="#DejaVuSans-10" transform="translate(196.9375 0)"/>
     <use xlink:href="#DejaVuSans-29" transform="translate(233.015625 0)"/>
     <use xlink:href="#DejaVuSans-33" transform="translate(290.53125 0)"/>
     <use xlink:href="#DejaVuSans-35" transform="translate(350.828125 0)"/>
     <use xlink:href="#DejaVuSans-3" transform="translate(420.3125 0)"/>
     <use xlink:href="#DejaVuSans-27" transform="translate(452.09375 0)"/>
     <use xlink:href="#DejaVuSans-48" transform="translate(529.09375 0)"/>
     <use xlink:href="#DejaVuSans-53" transform="translate(590.625 0)"/>
     <use xlink:href="#DejaVuSans-4f" transform="translate(654.109375 0)"/>
     <use xlink:href="#DejaVuSans-52" transform="translate(681.890625 0)"/>
     <use xlink:href="#DejaVuSans-5c" transform="translate(743.078125 0)"/>
     <use xlink:href="#DejaVuSans-50" transform="translate(802.265625 0)"/>
     <use xlink:href="#DejaVuSans-48" transform="translate(899.671875 0)"/>
     <use xlink:href="#DejaVuSans-51" transform="translate(961.203125 0)"/>
     <use xlink:href="#DejaVuSans-57" transform="translate(1024.578125 0)"/>
    </g>
   </g>
   <g id="legend_1">
    <g id="line2d_22">
     <path d="M 311.68 89.769063 
L 319.68 89.769063 
L 327.68 89.769063 
" style="fill: none; stroke: #1f77b4; stroke-width: 1.4; stroke-linecap: square"/>
     <g>
      <use xlink:href="#m78b8f333af" x="319.68" y="89.769063" style="fill: #1f77b4; stroke: #1f77b4"/>
     </g>
    </g>
    <g id="text_15">
     <!-- 0        ctt_test04 -->
     <g transform="translate(334.08 38.798906) scale(0.08 -0.08)">
      <defs>
       <path id="DejaVuSans-56" d="M 2834 3397 
L 2834 2853 
Q 2591 2978 2328 3040 
Q 2066 3103 1784 3103 
Q 1356 3103 1142 2972 
Q 928 2841 928 2578 
Q 928 2378 1081 2264 
Q 1234 2150 1697 2047 
L 1894 2003 
Q 2506 1872 2764 1633 
Q 3022 1394 3022 966 
Q 3022 478 2636 193 
Q 2250 -91 1575 -91 
Q 1294 -91 989 -36 
Q 684 19 347 128 
L 347 722 
Q 666 556 975 473 
Q 1284 391 1588 391 
Q 1994 391 2212 530 
Q 2431 669 2431 922 
Q 2431 1156 2273 1281 
Q 2116 1406 1581 1522 
L 1381 1569 
Q 847 1681 609 1914 
Q 372 2147 372 2553 
Q 372 3047 722 3315 
Q 1072 3584 1716 3584 
Q 2034 3584 2315 3537 
Q 2597 3491 2834 3397 
z
" transform="scale(0.015625)"/>
      </defs>
      <use xlink:href="#DejaVuSans-13"/>
      <use xlink:href="#DejaVuSans-3" transform="translate(63.625 0)"/>
      <use xlink:href="#DejaVuSans-3" transform="translate(95.40625 0)"/>
      <use xlink:href="#DejaVuSans-3" transform="translate(127.1875 0)"/>
      <use xlink:href="#DejaVuSans-3" transform="translate(158.96875 0)"/>
      <use xlink:href="#DejaVuSans-3" transform="translate(190.75 0)"/>
      <use xlink:href="#DejaVuSans-3" transform="translate(222.53125 0)"/>
      <use xlink:href="#DejaVuSans-3" transform="translate(254.3125 0)"/>
      <use xlink:href="#DejaVuSans-3" transform="translate(286.09375 0)"/>
      <use xlink:href="#DejaVuSans-46" transform="translate(317.875 0)"/>
      <use xlink:href="#DejaVuSans-57" transform="translate(372.859375 0)"/>
      <use xlink:href="#DejaVuSans-57" transform="translate(412.0625 0)"/>
      <use xlink:href="#DejaVuSans-42" transform="translate(451.265625 0)"/>
      <use xlink:href="#DejaVuSans-57" transform="translate(501.265625 0)"/>
      <use xlink:href="#DejaVuSans-48" transform="translate(540.46875 0)"/>
      <use xlink:href="#DejaVuSans-56" transform="translate(602 0)"/>
      <use xlink:href="#DejaVuSans-57" transform="translate(654.09375 0)"/>
      <use xlink:href="#DejaVuSans-13" transform="translate(693.296875 0)"/>
      <use xlink:href="#DejaVuSans-17" transform="translate(756.921875 0)"/>
     </g>
     <!-- 1        ctt_test04 -->
     <g transform="translate(334.08 48.400469) scale(0.08 -0.08)">
      <use xlink:href="#DejaVuSans-14"/>
      <use xlink:href="#DejaVuSans-3" transform="translate(63.625 0)"/>
      <use xlink:href="#DejaVuSans-3" transform="translate(95.40625 0)"/>
      <use xlink:href="#DejaVuSans-3" transform="translate(127.1875 0)"/>
      <use xlink:href="#DejaVuSans-3" transform="translate(158.96875 0)"/>
      <use xlink:href="#DejaVuSans-3" transform="translate(190.75 0)"/>
      <use xlink:href="#DejaVuSans-3" transform="translate(222.53125 0)"/>
      <use xlink:href="#DejaVuSans-3" transform="translate(254.3125 0)"/>
      <use xlink:href="#DejaVuSans-3" transform="translate(286.09375 0)"/>
      <use xlink:href="#DejaVuSans-46" transform="translate(317.875 0)"/>
      <use xlink:href="#DejaVuSans-57" transform="translate(372.859375 0)"/>
      <use xlink:href="#DejaVuSans-57" transform="translate(412.0625 0)"/>
      <use xlink:href="#DejaVuSans-42" transform="translate(451.265625 0)"/>
      <use xlink:href="#DejaVuSans-57" transform="translate(501.265625 0)"/>
      <use xlink:href="#DejaVuSans-48" transform="translate(540.46875 0)"/>
      <use xlink:href="#DejaVuSans-56" transform="translate(602 0)"/>
      <use xlink:href="#DejaVuSans-57" transform="translate(654.09375 0)"/>
      <use xlink:href="#DejaVuSans-13" transform="translate(693.296875 0)"/>
      <use xlink:href="#DejaVuSans-17" transform="translate(756.921875 0)"/>
     </g>
     <!-- 2        ctt_test04 -->
     <g transform="translate(334.08 58.002031) scale(0.08 -0.08)">
      <use xlink:href="#DejaVuSans-15"/>
      <use xlink:href="#DejaVuSans-3" transform="translate(63.625 0)"/>
      <use xlink:href="#DejaVuSans-3" transform="translate(95.40625 0)"/>
      <use xlink:href="#DejaVuSans-3" transform="translate(127.1875 0)"/>
      <use xlink:href="#DejaVuSans-3" transform="translate(158.96875 0)"/>
      <use xlink:href="#DejaVuSans-3" transform="translate(190.75 0)"/>
      <use xlink:href="#DejaVuSans-3" transform="translate(222.53125 0)"/>
      <use xlink:href="#DejaVuSans-3" transform="translate(254.3125 0)"/>
      <use xlink:href="#DejaVuSans-3" transform="translate(286.09375 0)"/>
      <use xlink:href="#DejaVuSans-46" transform="translate(317.875 0)"/>
      <use xlink:href="#DejaVuSans-57" transform="translate(372.859375 0)"/>
      <use xlink:href="#DejaVuSans-57" transform="translate(412.0625 0)"/>
      <use xlink:href="#DejaVuSans-42" transform="translate(451.265625 0)"/>
      <use xlink:href="#DejaVuSans-57" transform="translate(501.265625 0)"/>
      <use xlink:href="#DejaVuSans-48" transform="translate(540.46875 0)"/>
      <use xlink:href="#DejaVuSans-56" transform="translate(602 0)"/>
      <use xlink:href="#DejaVuSans-57" transform="translate(654.09375 0)"/>
      <use xlink:href="#DejaVuSans-13" transform="translate(693.296875 0)"/>
      <use xlink:href="#DejaVuSans-17" transform="translate(756.921875 0)"/>
     </g>
     <!-- 3        ctt_test04 -->
     <g transform="translate(334.08 67.603594) scale(0.08 -0.08)">
      <defs>
       <path id="DejaVuSans-16" d="M 2597 2516 
Q 3050 2419 3304 2112 
Q 3559 1806 3559 1356 
Q 3559 666 3084 287 
Q 2609 -91 1734 -91 
Q 1441 -91 1130 -33 
Q 819 25 488 141 
L 488 750 
Q 750 597 1062 519 
Q 1375 441 1716 441 
Q 2309 441 2620 675 
Q 2931 909 2931 1356 
Q 2931 1769 2642 2001 
Q 2353 2234 1838 2234 
L 1294 2234 
L 1294 2753 
L 1863 2753 
Q 2328 2753 2575 2939 
Q 2822 3125 2822 3475 
Q 2822 3834 2567 4026 
Q 2313 4219 1838 4219 
Q 1578 4219 1281 4162 
Q 984 4106 628 3988 
L 628 4550 
Q 988 4650 1302 4700 
Q 1616 4750 1894 4750 
Q 2613 4750 3031 4423 
Q 3450 4097 3450 3541 
Q 3450 3153 3228 2886 
Q 3006 2619 2597 2516 
z
" transform="scale(0.015625)"/>
      </defs>
      <use xlink:href="#DejaVuSans-16"/>
      <use xlink:href="#DejaVuSans-3" transform="translate(63.625 0)"/>
      <use xlink:href="#DejaVuSans-3" transform="translate(95.40625 0)"/>
      <use xlink:href="#DejaVuSans-3" transform="translate(127.1875 0)"/>
      <use xlink:href="#DejaVuSans-3" transform="translate(158.96875 0)"/>
      <use xlink:href="#DejaVuSans-3" transform="translate(190.75 0)"/>
      <use xlink:href="#DejaVuSans-3" transform="translate(222.53125 0)"/>
      <use xlink:href="#DejaVuSans-3" transform="translate(254.3125 0)"/>
      <use xlink:href="#DejaVuSans-3" transform="translate(286.09375 0)"/>
      <use xlink:href="#DejaVuSans-46" transform="translate(317.875 0)"/>
      <use xlink:href="#DejaVuSans-57" transform="translate(372.859375 0)"/>
      <use xlink:href="#DejaVuSans-57" transform="translate(412.0625 0)"/>
      <use xlink:href="#DejaVuSans-42" transform="translate(451.265625 0)"/>
      <use xlink:href="#DejaVuSans-57" transform="translate(501.265625 0)"/>
      <use xlink:href="#DejaVuSans-48" transform="translate(540.46875 0)"/>
      <use xlink:href="#DejaVuSans-56" transform="translate(602 0)"/>
      <use xlink:href="#DejaVuSans-57" transform="translate(654.09375 0)"/>
      <use xlink:href="#DejaVuSans-13" transform="translate(693.296875 0)"/>
      <use xlink:href="#DejaVuSans-17" transform="translate(756.921875 0)"/>
     </g>
     <!-- 4        ctt_test04 -->
     <g transform="translate(334.08 77.205156) scale(0.08 -0.08)">
      <use xlink:href="#DejaVuSans-17"/>
      <use xlink:href="#DejaVuSans-3" transform="translate(63.625 0)"/>
      <use xlink:href="#DejaVuSans-3" transform="translate(95.40625 0)"/>
      <use xlink:href="#DejaVuSans-3" transform="translate(127.1875 0)"/>
      <use xlink:href="#DejaVuSans-3" transform="translate(158.96875 0)"/>
      <use xlink:href="#DejaVuSans-3" transform="translate(190.75 0)"/>
      <use xlink:href="#DejaVuSans-3" transform="translate(222.53125 0)"/>
      <use xlink:href="#DejaVuSans-3" transform="translate(254.3125 0)"/>
      <use xlink:href="#DejaVuSans-3" transform="translate(286.09375 0)"/>
      <use xlink:href="#DejaVuSans-46" transform="translate(317.875 0)"/>
      <use xlink:href="#DejaVuSans-57" transform="translate(372.859375 0)"/>
      <use xlink:href="#DejaVuSans-57" transform="translate(412.0625 0)"/>
      <use xlink:href="#DejaVuSans-42" transform="translate(451.265625 0)"/>
      <use xlink:href="#DejaVuSans-57" transform="translate(501.265625 0)"/>
      <use xlink:href="#DejaVuSans-48" transform="translate(540.46875 0)"/>
      <use xlink:href="#DejaVuSans-56" transform="translate(602 0)"/>
      <use xlink:href="#DejaVuSans-57" transform="translate(654.09375 0)"/>
      <use xlink:href="#DejaVuSans-13" transform="translate(693.296875 0)"/>
      <use xlink:href="#DejaVuSans-17" transform="translate(756.921875 0)"/>
     </g>
     <!--             ...     -->
     <g transform="translate(334.08 86.806719) scale(0.08 -0.08)">
      <use xlink:href="#DejaVuSans-3"/>
      <use xlink:href="#DejaVuSans-3" transform="translate(31.78125 0)"/>
      <use xlink:href="#DejaVuSans-3" transform="translate(63.5625 0)"/>
      <use xlink:href="#DejaVuSans-3" transform="translate(95.34375 0)"/>
      <use xlink:href="#DejaVuSans-3" transform="translate(127.125 0)"/>
      <use xlink:href="#DejaVuSans-3" transform="translate(158.90625 0)"/>
      <use xlink:href="#DejaVuSans-3" transform="translate(190.6875 0)"/>
      <use xlink:href="#DejaVuSans-3" transform="translate(222.46875 0)"/>
      <use xlink:href="#DejaVuSans-3" transform="translate(254.25 0)"/>
      <use xlink:href="#DejaVuSans-3" transform="translate(286.03125 0)"/>
      <use xlink:href="#DejaVuSans-3" transform="translate(317.8125 0)"/>
      <use xlink:href="#DejaVuSans-3" transform="translate(349.59375 0)"/>
      <use xlink:href="#DejaVuSans-11" transform="translate(381.375 0)"/>
      <use xlink:href="#DejaVuSans-11" transform="translate(413.15625 0)"/>
      <use xlink:href="#DejaVuSans-11" transform="translate(444.9375 0)"/>
      <use xlink:href="#DejaVuSans-3" transform="translate(476.71875 0)"/>
      <use xlink:href="#DejaVuSans-3" transform="translate(508.5 0)"/>
      <use xlink:href="#DejaVuSans-3" transform="translate(540.28125 0)"/>
      <use xlink:href="#DejaVuSans-3" transform="translate(572.0625 0)"/>
     </g>
     <!-- 49995    ctt_test04 -->
     <g transform="translate(334.08 96.408281) scale(0.08 -0.08)">
      <defs>
       <path id="DejaVuSans-1c" d="M 703 97 
L 703 672 
Q 941 559 1184 500 
Q 1428 441 1663 441 
Q 2288 441 2617 861 
Q 2947 1281 2994 2138 
Q 2813 1869 2534 1725 
Q 2256 1581 1919 1581 
Q 1219 1581 811 2004 
Q 403 2428 403 3163 
Q 403 3881 828 4315 
Q 1253 4750 1959 4750 
Q 2769 4750 3195 4129 
Q 3622 3509 3622 2328 
Q 3622 1225 3098 567 
Q 2575 -91 1691 -91 
Q 1453 -91 1209 -44 
Q 966 3 703 97 
z
M 1959 2075 
Q 2384 2075 2632 2365 
Q 2881 2656 2881 3163 
Q 2881 3666 2632 3958 
Q 2384 4250 1959 4250 
Q 1534 4250 1286 3958 
Q 1038 3666 1038 3163 
Q 1038 2656 1286 2365 
Q 1534 2075 1959 2075 
z
" transform="scale(0.015625)"/>
       <path id="DejaVuSans-18" d="M 691 4666 
L 3169 4666 
L 3169 4134 
L 1269 4134 
L 1269 2991 
Q 1406 3038 1543 3061 
Q 1681 3084 1819 3084 
Q 2600 3084 3056 2656 
Q 3513 2228 3513 1497 
Q 3513 744 3044 326 
Q 2575 -91 1722 -91 
Q 1428 -91 1123 -41 
Q 819 9 494 109 
L 494 744 
Q 775 591 1075 516 
Q 1375 441 1709 441 
Q 2250 441 2565 725 
Q 2881 1009 2881 1497 
Q 2881 1984 2565 2268 
Q 2250 2553 1709 2553 
Q 1456 2553 1204 2497 
Q 953 2441 691 2322 
L 691 4666 
z
" transform="scale(0.015625)"/>
      </defs>
      <use xlink:href="#DejaVuSans-17"/>
      <use xlink:href="#DejaVuSans-1c" transform="translate(63.625 0)"/>
      <use xlink:href="#DejaVuSans-1c" transform="translate(127.25 0)"/>
      <use xlink:href="#DejaVuSans-1c" transform="translate(190.875 0)"/>
      <use xlink:href="#DejaVuSans-18" transform="translate(254.5 0)"/>
      <use xlink:href="#DejaVuSans-3" transform="translate(318.125 0)"/>
      <use xlink:href="#DejaVuSans-3" transform="translate(349.90625 0)"/>
      <use xlink:href="#DejaVuSans-3" transform="translate(381.6875 0)"/>
      <use xlink:href="#DejaVuSans-3" transform="translate(413.46875 0)"/>
      <use xlink:href="#DejaVuSans-46" transform="translate(445.25 0)"/>
      <use xlink:href="#DejaVuSans-57" transform="translate(500.234375 0)"/>
      <use xlink:href="#DejaVuSans-57" transform="translate(539.4375 0)"/>
      <use xlink:href="#DejaVuSans-42" transform="translate(578.640625 0)"/>
      <use xlink:href="#DejaVuSans-57" transform="translate(628.640625 0)"/>
      <use xlink:href="#DejaVuSans-48" transform="translate(667.84375 0)"/>
      <use xlink:href="#DejaVuSans-56" transform="translate(729.375 0)"/>
      <use xlink:href="#DejaVuSans-57" transform="translate(781.46875 0)"/>
      <use xlink:href="#DejaVuSans-13" transform="translate(820.671875 0)"/>
      <use xlink:href="#DejaVuSans-17" transform="translate(884.296875 0)"/>
     </g>
     <!-- 49996    ctt_test04 -->
     <g transform="translate(334.08 106.009844) scale(0.08 -0.08)">
      <use xlink:href="#DejaVuSans-17"/>
      <use xlink:href="#DejaVuSans-1c" transform="translate(63.625 0)"/>
      <use xlink:href="#DejaVuSans-1c" transform="translate(127.25 0)"/>
      <use xlink:href="#DejaVuSans-1c" transform="translate(190.875 0)"/>
      <use xlink:href="#DejaVuSans-19" transform="translate(254.5 0)"/>
      <use xlink:href="#DejaVuSans-3" transform="translate(318.125 0)"/>
      <use xlink:href="#DejaVuSans-3" transform="translate(349.90625 0)"/>
      <use xlink:href="#DejaVuSans-3" transform="translate(381.6875 0)"/>
      <use xlink:href="#DejaVuSans-3" transform="translate(413.46875 0)"/>
      <use xlink:href="#DejaVuSans-46" transform="translate(445.25 0)"/>
      <use xlink:href="#DejaVuSans-57" transform="translate(500.234375 0)"/>
      <use xlink:href="#DejaVuSans-57" transform="translate(539.4375 0)"/>
      <use xlink:href="#DejaVuSans-42" transform="translate(578.640625 0)"/>
      <use xlink:href="#DejaVuSans-57" transform="translate(628.640625 0)"/>
      <use xlink:href="#DejaVuSans-48" transform="translate(667.84375 0)"/>
      <use xlink:href="#DejaVuSans-56" transform="translate(729.375 0)"/>
      <use xlink:href="#DejaVuSans-57" transform="translate(781.46875 0)"/>
      <use xlink:href="#DejaVuSans-13" transform="translate(820.671875 0)"/>
      <use xlink:href="#DejaVuSans-17" transform="translate(884.296875 0)"/>
     </g>
     <!-- 49997    ctt_test04 -->
     <g transform="translate(334.08 115.611406) scale(0.08 -0.08)">
      <defs>
       <path id="DejaVuSans-1a" d="M 525 4666 
L 3525 4666 
L 3525 4397 
L 1831 0 
L 1172 0 
L 2766 4134 
L 525 4134 
L 525 4666 
z
" transform="scale(0.015625)"/>
      </defs>
      <use xlink:href="#DejaVuSans-17"/>
      <use xlink:href="#DejaVuSans-1c" transform="translate(63.625 0)"/>
      <use xlink:href="#DejaVuSans-1c" transform="translate(127.25 0)"/>
      <use xlink:href="#DejaVuSans-1c" transform="translate(190.875 0)"/>
      <use xlink:href="#DejaVuSans-1a" transform="translate(254.5 0)"/>
      <use xlink:href="#DejaVuSans-3" transform="translate(318.125 0)"/>
      <use xlink:href="#DejaVuSans-3" transform="translate(349.90625 0)"/>
      <use xlink:href="#DejaVuSans-3" transform="translate(381.6875 0)"/>
      <use xlink:href="#DejaVuSans-3" transform="translate(413.46875 0)"/>
      <use xlink:href="#DejaVuSans-46" transform="translate(445.25 0)"/>
      <use xlink:href="#DejaVuSans-57" transform="translate(500.234375 0)"/>
      <use xlink:href="#DejaVuSans-57" transform="translate(539.4375 0)"/>
      <use xlink:href="#DejaVuSans-42" transform="translate(578.640625 0)"/>
      <use xlink:href="#DejaVuSans-57" transform="translate(628.640625 0)"/>
      <use xlink:href="#DejaVuSans-48" transform="translate(667.84375 0)"/>
      <use xlink:href="#DejaVuSans-56" transform="translate(729.375 0)"/>
      <use xlink:href="#DejaVuSans-57" transform="translate(781.46875 0)"/>
      <use xlink:href="#DejaVuSans-13" transform="translate(820.671875 0)"/>
      <use xlink:href="#DejaVuSans-17" transform="translate(884.296875 0)"/>
     </g>
     <!-- 49998    ctt_test04 -->
     <g transform="translate(334.08 125.212969) scale(0.08 -0.08)">
      <use xlink:href="#DejaVuSans-17"/>
      <use xlink:href="#DejaVuSans-1c" transform="translate(63.625 0)"/>
      <use xlink:href="#DejaVuSans-1c" transform="translate(127.25 0)"/>
      <use xlink:href="#DejaVuSans-1c" transform="translate(190.875 0)"/>
      <use xlink:href="#DejaVuSans-1b" transform="translate(254.5 0)"/>
      <use xlink:href="#DejaVuSans-3" transform="translate(318.125 0)"/>
      <use xlink:href="#DejaVuSans-3" transform="translate(349.90625 0)"/>
      <use xlink:href="#DejaVuSans-3" transform="translate(381.6875 0)"/>
      <use xlink:href="#DejaVuSans-3" transform="translate(413.46875 0)"/>
      <use xlink:href="#DejaVuSans-46" transform="translate(445.25 0)"/>
      <use xlink:href="#DejaVuSans-57" transform="translate(500.234375 0)"/>
      <use xlink:href="#DejaVuSans-57" transform="translate(539.4375 0)"/>
      <use xlink:href="#DejaVuSans-42" transform="translate(578.640625 0)"/>
      <use xlink:href="#DejaVuSans-57" transform="translate(628.640625 0)"/>
      <use xlink:href="#DejaVuSans-48" transform="translate(667.84375 0)"/>
      <use xlink:href="#DejaVuSans-56" transform="translate(729.375 0)"/>
      <use xlink:href="#DejaVuSans-57" transform="translate(781.46875 0)"/>
      <use xlink:href="#DejaVuSans-13" transform="translate(820.671875 0)"/>
      <use xlink:href="#DejaVuSans-17" transform="translate(884.296875 0)"/>
     </g>
     <!-- 49999    ctt_test04 -->
     <g transform="translate(334.08 134.814531) scale(0.08 -0.08)">
      <use xlink:href="#DejaVuSans-17"/>
      <use xlink:href="#DejaVuSans-1c" transform="translate(63.625 0)"/>
      <use xlink:href="#DejaVuSans-1c" transform="translate(127.25 0)"/>
      <use xlink:href="#DejaVuSans-1c" transform="translate(190.875 0)"/>
      <use xlink:href="#DejaVuSans-1c" transform="translate(254.5 0)"/>
      <use xlink:href="#DejaVuSans-3" transform="translate(318.125 0)"/>
      <use xlink:href="#DejaVuSans-3" transform="translate(349.90625 0)"/>
      <use xlink:href="#DejaVuSans-3" transform="translate(381.6875 0)"/>
      <use xlink:href="#DejaVuSans-3" transform="translate(413.46875 0)"/>
      <use xlink:href="#DejaVuSans-46" transform="translate(445.25 0)"/>
      <use xlink:href="#DejaVuSans-57" transform="translate(500.234375 0)"/>
      <use xlink:href="#DejaVuSans-57" transform="translate(539.4375 0)"/>
      <use xlink:href="#DejaVuSans-42" transform="translate(578.640625 0)"/>
      <use xlink:href="#DejaVuSans-57" transform="translate(628.640625 0)"/>
      <use xlink:href="#DejaVuSans-48" transform="translate(667.84375 0)"/>
      <use xlink:href="#DejaVuSans-56" transform="translate(729.375 0)"/>
      <use xlink:href="#DejaVuSans-57" transform="translate(781.46875 0)"/>
      <use xlink:href="#DejaVuSans-13" transform="translate(820.671875 0)"/>
      <use xlink:href="#DejaVuSans-17" transform="translate(884.296875 0)"/>
     </g>
     <!-- Name: dataset, Length: 50000, dtype: str -->
     <g transform="translate(334.08 144.416719) scale(0.08 -0.08)">
      <defs>
       <path id="DejaVuSans-31" d="M 628 4666 
L 1478 4666 
L 3547 763 
L 3547 4666 
L 4159 4666 
L 4159 0 
L 3309 0 
L 1241 3903 
L 1241 0 
L 628 0 
L 628 4666 
z
" transform="scale(0.015625)"/>
       <path id="DejaVuSans-1d" d="M 750 794 
L 1409 794 
L 1409 0 
L 750 0 
L 750 794 
z
M 750 3309 
L 1409 3309 
L 1409 2516 
L 750 2516 
L 750 3309 
z
" transform="scale(0.015625)"/>
       <path id="DejaVuSans-f" d="M 750 794 
L 1409 794 
L 1409 256 
L 897 -744 
L 494 -744 
L 750 256 
L 750 794 
z
" transform="scale(0.015625)"/>
       <path id="DejaVuSans-4b" d="M 3513 2113 
L 3513 0 
L 2938 0 
L 2938 2094 
Q 2938 2591 2744 2837 
Q 2550 3084 2163 3084 
Q 1697 3084 1428 2787 
Q 1159 2491 1159 1978 
L 1159 0 
L 581 0 
L 581 4863 
L 1159 4863 
L 1159 2956 
Q 1366 3272 1645 3428 
Q 1925 3584 2291 3584 
Q 2894 3584 3203 3211 
Q 3513 2838 3513 2113 
z
" transform="scale(0.015625)"/>
      </defs>
      <use xlink:href="#DejaVuSans-31"/>
      <use xlink:href="#DejaVuSans-44" transform="translate(74.8125 0)"/>
      <use xlink:href="#DejaVuSans-50" transform="translate(136.09375 0)"/>
      <use xlink:href="#DejaVuSans-48" transform="translate(233.5 0)"/>
      <use xlink:href="#DejaVuSans-1d" transform="translate(295.03125 0)"/>
      <use xlink:href="#DejaVuSans-3" transform="translate(328.71875 0)"/>
      <use xlink:href="#DejaVuSans-47" transform="translate(360.5 0)"/>
      <use xlink:href="#DejaVuSans-44" transform="translate(423.984375 0)"/>
      <use xlink:href="#DejaVuSans-57" transform="translate(485.265625 0)"/>
      <use xlink:href="#DejaVuSans-44" transform="translate(524.46875 0)"/>
      <use xlink:href="#DejaVuSans-56" transform="translate(585.75 0)"/>
      <use xlink:href="#DejaVuSans-48" transform="translate(637.84375 0)"/>
      <use xlink:href="#DejaVuSans-57" transform="translate(699.375 0)"/>
      <use xlink:href="#DejaVuSans-f" transform="translate(738.578125 0)"/>
      <use xlink:href="#DejaVuSans-3" transform="translate(770.359375 0)"/>
      <use xlink:href="#DejaVuSans-2f" transform="translate(802.140625 0)"/>
      <use xlink:href="#DejaVuSans-48" transform="translate(856.109375 0)"/>
      <use xlink:href="#DejaVuSans-51" transform="translate(917.640625 0)"/>
      <use xlink:href="#DejaVuSans-4a" transform="translate(981.015625 0)"/>
      <use xlink:href="#DejaVuSans-57" transform="translate(1044.5 0)"/>
      <use xlink:href="#DejaVuSans-4b" transform="translate(1083.703125 0)"/>
      <use xlink:href="#DejaVuSans-1d" transform="translate(1147.078125 0)"/>
      <use xlink:href="#DejaVuSans-3" transform="translate(1180.765625 0)"/>
      <use xlink:href="#DejaVuSans-18" transform="translate(1212.546875 0)"/>
      <use xlink:href="#DejaVuSans-13" transform="translate(1276.171875 0)"/>
      <use xlink:href="#DejaVuSans-13" transform="translate(1339.796875 0)"/>
      <use xlink:href="#DejaVuSans-13" transform="translate(1403.421875 0)"/>
      <use xlink:href="#DejaVuSans-13" transform="translate(1467.046875 0)"/>
      <use xlink:href="#DejaVuSans-f" transform="translate(1530.671875 0)"/>
      <use xlink:href="#DejaVuSans-3" transform="translate(1562.453125 0)"/>
      <use xlink:href="#DejaVuSans-47" transform="translate(1594.234375 0)"/>
      <use xlink:href="#DejaVuSans-57" transform="translate(1657.71875 0)"/>
      <use xlink:href="#DejaVuSans-5c" transform="translate(1696.921875 0)"/>
      <use xlink:href="#DejaVuSans-53" transform="translate(1756.109375 0)"/>
      <use xlink:href="#DejaVuSans-48" transform="translate(1819.59375 0)"/>
      <use xlink:href="#DejaVuSans-1d" transform="translate(1881.125 0)"/>
      <use xlink:href="#DejaVuSans-3" transform="translate(1914.8125 0)"/>
      <use xlink:href="#DejaVuSans-56" transform="translate(1946.59375 0)"/>
      <use xlink:href="#DejaVuSans-57" transform="translate(1998.6875 0)"/>
      <use xlink:href="#DejaVuSans-55" transform="translate(2037.890625 0)"/>
     </g>
    </g>
    <g id="line2d_23">
     <path d="M 311.68 154.418125 
L 319.68 154.418125 
L 327.68 154.418125 
" style="fill: none; stroke-dasharray: 5.18,2.24; stroke-dashoffset: 0; stroke: #ff7f0e; stroke-width: 1.4"/>
     <g>
      <use xlink:href="#m0b6c077ca9" x="319.68" y="154.418125" style="fill: #ff7f0e; stroke: #ff7f0e; stroke-linejoin: miter"/>
     </g>
    </g>
    <g id="text_16">
     <!-- ctt_test01 -->
     <g transform="translate(334.08 157.218125) scale(0.08 -0.08)">
      <use xlink:href="#DejaVuSans-46"/>
      <use xlink:href="#DejaVuSans-57" transform="translate(54.984375 0)"/>
      <use xlink:href="#DejaVuSans-57" transform="translate(94.1875 0)"/>
      <use xlink:href="#DejaVuSans-42" transform="translate(133.390625 0)"/>
      <use xlink:href="#DejaVuSans-57" transform="translate(183.390625 0)"/>
      <use xlink:href="#DejaVuSans-48" transform="translate(222.59375 0)"/>
      <use xlink:href="#DejaVuSans-56" transform="translate(284.125 0)"/>
      <use xlink:href="#DejaVuSans-57" transform="translate(336.21875 0)"/>
      <use xlink:href="#DejaVuSans-13" transform="translate(375.421875 0)"/>
      <use xlink:href="#DejaVuSans-14" transform="translate(439.046875 0)"/>
     </g>
    </g>
    <g id="line2d_24">
     <path d="M 311.68 166.41875 
L 319.68 166.41875 
L 327.68 166.41875 
" style="fill: none; stroke-dasharray: 8.96,2.24,1.4,2.24; stroke-dashoffset: 0; stroke: #2ca02c; stroke-width: 1.4"/>
     <g>
      <use xlink:href="#mc2f980def5" x="319.68" y="166.41875" style="fill: #2ca02c; stroke: #2ca02c; stroke-linejoin: miter"/>
     </g>
    </g>
    <g id="text_17">
     <!-- ctt_test02 -->
     <g transform="translate(334.08 169.21875) scale(0.08 -0.08)">
      <use xlink:href="#DejaVuSans-46"/>
      <use xlink:href="#DejaVuSans-57" transform="translate(54.984375 0)"/>
      <use xlink:href="#DejaVuSans-57" transform="translate(94.1875 0)"/>
      <use xlink:href="#DejaVuSans-42" transform="translate(133.390625 0)"/>
      <use xlink:href="#DejaVuSans-57" transform="translate(183.390625 0)"/>
      <use xlink:href="#DejaVuSans-48" transform="translate(222.59375 0)"/>
      <use xlink:href="#DejaVuSans-56" transform="translate(284.125 0)"/>
      <use xlink:href="#DejaVuSans-57" transform="translate(336.21875 0)"/>
      <use xlink:href="#DejaVuSans-13" transform="translate(375.421875 0)"/>
      <use xlink:href="#DejaVuSans-15" transform="translate(439.046875 0)"/>
     </g>
    </g>
    <g id="line2d_25">
     <path d="M 311.68 178.419375 
L 319.68 178.419375 
L 327.68 178.419375 
" style="fill: none; stroke-dasharray: 1.4,2.31; stroke-dashoffset: 0; stroke: #d62728; stroke-width: 1.4"/>
     <g>
      <use xlink:href="#m6963adcfab" x="319.68" y="178.419375" style="fill: #d62728; stroke: #d62728; stroke-linejoin: miter"/>
     </g>
    </g>
    <g id="text_18">
     <!-- ctt_test03 -->
     <g transform="translate(334.08 181.219375) scale(0.08 -0.08)">
      <use xlink:href="#DejaVuSans-46"/>
      <use xlink:href="#DejaVuSans-57" transform="translate(54.984375 0)"/>
      <use xlink:href="#DejaVuSans-57" transform="translate(94.1875 0)"/>
      <use xlink:href="#DejaVuSans-42" transform="translate(133.390625 0)"/>
      <use xlink:href="#DejaVuSans-57" transform="translate(183.390625 0)"/>
      <use xlink:href="#DejaVuSans-48" transform="translate(222.59375 0)"/>
      <use xlink:href="#DejaVuSans-56" transform="translate(284.125 0)"/>
      <use xlink:href="#DejaVuSans-57" transform="translate(336.21875 0)"/>
      <use xlink:href="#DejaVuSans-13" transform="translate(375.421875 0)"/>
      <use xlink:href="#DejaVuSans-16" transform="translate(439.046875 0)"/>
     </g>
    </g>
    <g id="line2d_26">
     <path d="M 311.68 190.42 
L 319.68 190.42 
L 327.68 190.42 
" style="fill: none; stroke: #9467bd; stroke-width: 1.4; stroke-linecap: square"/>
     <g>
      <use xlink:href="#m377796bad6" x="319.68" y="190.42" style="fill: #9467bd; stroke: #9467bd; stroke-linejoin: miter"/>
     </g>
    </g>
    <g id="text_19">
     <!-- ctt_test04 -->
     <g transform="translate(334.08 193.22) scale(0.08 -0.08)">
      <use xlink:href="#DejaVuSans-46"/>
      <use xlink:href="#DejaVuSans-57" transform="translate(54.984375 0)"/>
      <use xlink:href="#DejaVuSans-57" transform="translate(94.1875 0)"/>
      <use xlink:href="#DejaVuSans-42" transform="translate(133.390625 0)"/>
      <use xlink:href="#DejaVuSans-57" transform="translate(183.390625 0)"/>
      <use xlink:href="#DejaVuSans-48" transform="translate(222.59375 0)"/>
      <use xlink:href="#DejaVuSans-56" transform="translate(284.125 0)"/>
      <use xlink:href="#DejaVuSans-57" transform="translate(336.21875 0)"/>
      <use xlink:href="#DejaVuSans-13" transform="translate(375.421875 0)"/>
      <use xlink:href="#DejaVuSans-17" transform="translate(439.046875 0)"/>
     </g>
    </g>
   </g>
  </g>
 </g>
 <defs>
  <clipPath id="padd5f4a262">
   <rect x="47.962344" y="24.72" width="459.637656" height="177.957656"/>
  </clipPath>
 </defs>
</svg>
