<?xml version="1.0" encoding="utf-8" standalone="no"?>
<!DOCTYPE svg PUBLIC "-//W3C//DTD SVG 1.1//EN"
  "http://www.w3.org/Graphics/SVG/1.1/DTD/svg11.dtd">
<svg xmlns:xlink="http://www.w3.org/1999/xlink" width="416.16pt" height="136.368pt" viewBox="0 0 416.16 136.368" xmlns="http://www.w3.org/2000/svg" version="1.1">
 <metadata>
  <rdf:RDF xmlns:dc="http://purl.org/dc/elements/1.1/" xmlns:cc="http://creativecommons.org/ns#" xmlns:rdf="http://www.w3.org/1999/02/22-rdf-syntax-ns#">
   <cc:Work>
    <dc:type rdf:resource="http://purl.org/dc/dcmitype/StillImage"/>
    <dc:date>2026-07-02T00:12:50.753949</dc:date>
    <dc:format>image/svg+xml</dc:format>
    <dc:creator>
     <cc:Agent>
      <dc:title>Matplotlib v3.11.0, https://matplotlib.org/</dc:title>
     </cc:Agent>
    </dc:creator>
   </cc:Work>
  </rdf:RDF>
 </metadata>
 <defs>
  <style type="text/css">*{stroke-linejoin: round; stroke-linecap: butt}</style>
 </defs>
 <g id="figure_1">
  <g id="patch_1">
   <path d="M 0 136.368 
L 416.16 136.368 
L 416.16 0 
L 0 0 
z
" style="fill: #ffffff"/>
  </g>
  <g id="axes_1">
   <g id="text_1">
    <g id="patch_2">
     <path d="M 18.858066 75.137709 
L 59.823534 75.137709 
Q 62.073534 75.137709 62.073534 72.887709 
L 62.073534 51.283491 
Q 62.073534 49.033491 59.823534 49.033491 
L 18.858066 49.033491 
Q 16.608066 49.033491 16.608066 51.283491 
L 16.608066 72.887709 
Q 16.608066 75.137709 18.858066 75.137709 
z
" style="fill: #ffffff; stroke: #000000; stroke-width: 0.8; stroke-linejoin: miter"/>
    </g>
    <!-- Raw CAN -->
    <g transform="translate(18.858066 59.02226) scale(0.09 -0.09)">
     <defs>
      <path id="DejaVuSans-35" d="M 2841 2188 
Q 3044 2119 3236 1894 
Q 3428 1669 3622 1275 
L 4263 0 
L 3584 0 
L 2988 1197 
Q 2756 1666 2539 1819 
Q 2322 1972 1947 1972 
L 1259 1972 
L 1259 0 
L 628 0 
L 628 4666 
L 2053 4666 
Q 2853 4666 3247 4331 
Q 3641 3997 3641 3322 
Q 3641 2881 3436 2590 
Q 3231 2300 2841 2188 
z
M 1259 4147 
L 1259 2491 
L 2053 2491 
Q 2509 2491 2742 2702 
Q 2975 2913 2975 3322 
Q 2975 3731 2742 3939 
Q 2509 4147 2053 4147 
L 1259 4147 
z
" transform="scale(0.015625)"/>
      <path id="DejaVuSans-44" d="M 2194 1759 
Q 1497 1759 1228 1600 
Q 959 1441 959 1056 
Q 959 750 1161 570 
Q 1363 391 1709 391 
Q 2188 391 2477 730 
Q 2766 1069 2766 1631 
L 2766 1759 
L 2194 1759 
z
M 3341 1997 
L 3341 0 
L 2766 0 
L 2766 531 
Q 2569 213 2275 61 
Q 1981 -91 1556 -91 
Q 1019 -91 701 211 
Q 384 513 384 1019 
Q 384 1609 779 1909 
Q 1175 2209 1959 2209 
L 2766 2209 
L 2766 2266 
Q 2766 2663 2505 2880 
Q 2244 3097 1772 3097 
Q 1472 3097 1187 3025 
Q 903 2953 641 2809 
L 641 3341 
Q 956 3463 1253 3523 
Q 1550 3584 1831 3584 
Q 2591 3584 2966 3190 
Q 3341 2797 3341 1997 
z
" transform="scale(0.015625)"/>
      <path id="DejaVuSans-5a" d="M 269 3500 
L 844 3500 
L 1563 769 
L 2278 3500 
L 2956 3500 
L 3675 769 
L 4391 3500 
L 4966 3500 
L 4050 0 
L 3372 0 
L 2619 2869 
L 1863 0 
L 1184 0 
L 269 3500 
z
" transform="scale(0.015625)"/>
      <path id="DejaVuSans-3" transform="scale(0.015625)"/>
      <path id="DejaVuSans-26" d="M 4122 4306 
L 4122 3641 
Q 3803 3938 3442 4084 
Q 3081 4231 2675 4231 
Q 1875 4231 1450 3742 
Q 1025 3253 1025 2328 
Q 1025 1406 1450 917 
Q 1875 428 2675 428 
Q 3081 428 3442 575 
Q 3803 722 4122 1019 
L 4122 359 
Q 3791 134 3420 21 
Q 3050 -91 2638 -91 
Q 1578 -91 968 557 
Q 359 1206 359 2328 
Q 359 3453 968 4101 
Q 1578 4750 2638 4750 
Q 3056 4750 3426 4639 
Q 3797 4528 4122 4306 
z
" transform="scale(0.015625)"/>
      <path id="DejaVuSans-24" d="M 2188 4044 
L 1331 1722 
L 3047 1722 
L 2188 4044 
z
M 1831 4666 
L 2547 4666 
L 4325 0 
L 3669 0 
L 3244 1197 
L 1141 1197 
L 716 0 
L 50 0 
L 1831 4666 
z
" transform="scale(0.015625)"/>
      <path id="DejaVuSans-31" d="M 628 4666 
L 1478 4666 
L 3547 763 
L 3547 4666 
L 4159 4666 
L 4159 0 
L 3309 0 
L 1241 3903 
L 1241 0 
L 628 0 
L 628 4666 
z
" transform="scale(0.015625)"/>
     </defs>
     <use xlink:href="#DejaVuSans-35"/>
     <use xlink:href="#DejaVuSans-44" transform="translate(67.28125 0)"/>
     <use xlink:href="#DejaVuSans-5a" transform="translate(128.5625 0)"/>
     <use xlink:href="#DejaVuSans-3" transform="translate(210.34375 0)"/>
     <use xlink:href="#DejaVuSans-26" transform="translate(242.125 0)"/>
     <use xlink:href="#DejaVuSans-24" transform="translate(311.953125 0)"/>
     <use xlink:href="#DejaVuSans-31" transform="translate(380.359375 0)"/>
    </g>
    <!-- frames -->
    <g transform="translate(23.652675 69.824721) scale(0.09 -0.09)">
     <defs>
      <path id="DejaVuSans-49" d="M 2375 4863 
L 2375 4384 
L 1825 4384 
Q 1516 4384 1395 4259 
Q 1275 4134 1275 3809 
L 1275 3500 
L 2222 3500 
L 2222 3053 
L 1275 3053 
L 1275 0 
L 697 0 
L 697 3053 
L 147 3053 
L 147 3500 
L 697 3500 
L 697 3744 
Q 697 4328 969 4595 
Q 1241 4863 1831 4863 
L 2375 4863 
z
" transform="scale(0.015625)"/>
      <path id="DejaVuSans-55" d="M 2631 2963 
Q 2534 3019 2420 3045 
Q 2306 3072 2169 3072 
Q 1681 3072 1420 2755 
Q 1159 2438 1159 1844 
L 1159 0 
L 581 0 
L 581 3500 
L 1159 3500 
L 1159 2956 
Q 1341 3275 1631 3429 
Q 1922 3584 2338 3584 
Q 2397 3584 2469 3576 
Q 2541 3569 2628 3553 
L 2631 2963 
z
" transform="scale(0.015625)"/>
      <path id="DejaVuSans-50" d="M 3328 2828 
Q 3544 3216 3844 3400 
Q 4144 3584 4550 3584 
Q 5097 3584 5394 3201 
Q 5691 2819 5691 2113 
L 5691 0 
L 5113 0 
L 5113 2094 
Q 5113 2597 4934 2840 
Q 4756 3084 4391 3084 
Q 3944 3084 3684 2787 
Q 3425 2491 3425 1978 
L 3425 0 
L 2847 0 
L 2847 2094 
Q 2847 2600 2669 2842 
Q 2491 3084 2119 3084 
Q 1678 3084 1418 2786 
Q 1159 2488 1159 1978 
L 1159 0 
L 581 0 
L 581 3500 
L 1159 3500 
L 1159 2956 
Q 1356 3278 1631 3431 
Q 1906 3584 2284 3584 
Q 2666 3584 2933 3390 
Q 3200 3197 3328 2828 
z
" transform="scale(0.015625)"/>
      <path id="DejaVuSans-48" d="M 3597 1894 
L 3597 1613 
L 953 1613 
Q 991 1019 1311 708 
Q 1631 397 2203 397 
Q 2534 397 2845 478 
Q 3156 559 3463 722 
L 3463 178 
Q 3153 47 2828 -22 
Q 2503 -91 2169 -91 
Q 1331 -91 842 396 
Q 353 884 353 1716 
Q 353 2575 817 3079 
Q 1281 3584 2069 3584 
Q 2775 3584 3186 3129 
Q 3597 2675 3597 1894 
z
M 3022 2063 
Q 3016 2534 2758 2815 
Q 2500 3097 2075 3097 
Q 1594 3097 1305 2825 
Q 1016 2553 972 2059 
L 3022 2063 
z
" transform="scale(0.015625)"/>
      <path id="DejaVuSans-56" d="M 2834 3397 
L 2834 2853 
Q 2591 2978 2328 3040 
Q 2066 3103 1784 3103 
Q 1356 3103 1142 2972 
Q 928 2841 928 2578 
Q 928 2378 1081 2264 
Q 1234 2150 1697 2047 
L 1894 2003 
Q 2506 1872 2764 1633 
Q 3022 1394 3022 966 
Q 3022 478 2636 193 
Q 2250 -91 1575 -91 
Q 1294 -91 989 -36 
Q 684 19 347 128 
L 347 722 
Q 666 556 975 473 
Q 1284 391 1588 391 
Q 1994 391 2212 530 
Q 2431 669 2431 922 
Q 2431 1156 2273 1281 
Q 2116 1406 1581 1522 
L 1381 1569 
Q 847 1681 609 1914 
Q 372 2147 372 2553 
Q 372 3047 722 3315 
Q 1072 3584 1716 3584 
Q 2034 3584 2315 3537 
Q 2597 3491 2834 3397 
z
" transform="scale(0.015625)"/>
     </defs>
     <use xlink:href="#DejaVuSans-49"/>
     <use xlink:href="#DejaVuSans-55" transform="translate(35.203125 0)"/>
     <use xlink:href="#DejaVuSans-44" transform="translate(76.3125 0)"/>
     <use xlink:href="#DejaVuSans-50" transform="translate(137.59375 0)"/>
     <use xlink:href="#DejaVuSans-48" transform="translate(235 0)"/>
     <use xlink:href="#DejaVuSans-56" transform="translate(296.53125 0)"/>
    </g>
   </g>
   <g id="text_2">
    <g id="patch_3">
     <path d="M 88.270144 75.138061 
L 151.115456 75.138061 
Q 153.365456 75.138061 153.365456 72.888061 
L 153.365456 51.283139 
Q 153.365456 49.033139 151.115456 49.033139 
L 88.270144 49.033139 
Q 86.020144 49.033139 86.020144 51.283139 
L 86.020144 72.888061 
Q 86.020144 75.138061 88.270144 75.138061 
z
" style="fill: #ffffff; stroke: #000000; stroke-width: 0.8; stroke-linejoin: miter"/>
    </g>
    <!-- Attack-centric -->
    <g transform="translate(88.270144 59.022612) scale(0.09 -0.09)">
     <defs>
      <path id="DejaVuSans-57" d="M 1172 4494 
L 1172 3500 
L 2356 3500 
L 2356 3053 
L 1172 3053 
L 1172 1153 
Q 1172 725 1289 603 
Q 1406 481 1766 481 
L 2356 481 
L 2356 0 
L 1766 0 
Q 1100 0 847 248 
Q 594 497 594 1153 
L 594 3053 
L 172 3053 
L 172 3500 
L 594 3500 
L 594 4494 
L 1172 4494 
z
" transform="scale(0.015625)"/>
      <path id="DejaVuSans-46" d="M 3122 3366 
L 3122 2828 
Q 2878 2963 2633 3030 
Q 2388 3097 2138 3097 
Q 1578 3097 1268 2742 
Q 959 2388 959 1747 
Q 959 1106 1268 751 
Q 1578 397 2138 397 
Q 2388 397 2633 464 
Q 2878 531 3122 666 
L 3122 134 
Q 2881 22 2623 -34 
Q 2366 -91 2075 -91 
Q 1284 -91 818 406 
Q 353 903 353 1747 
Q 353 2603 823 3093 
Q 1294 3584 2113 3584 
Q 2378 3584 2631 3529 
Q 2884 3475 3122 3366 
z
" transform="scale(0.015625)"/>
      <path id="DejaVuSans-4e" d="M 581 4863 
L 1159 4863 
L 1159 1991 
L 2875 3500 
L 3609 3500 
L 1753 1863 
L 3688 0 
L 2938 0 
L 1159 1709 
L 1159 0 
L 581 0 
L 581 4863 
z
" transform="scale(0.015625)"/>
      <path id="DejaVuSans-10" d="M 313 2009 
L 1997 2009 
L 1997 1497 
L 313 1497 
L 313 2009 
z
" transform="scale(0.015625)"/>
      <path id="DejaVuSans-51" d="M 3513 2113 
L 3513 0 
L 2938 0 
L 2938 2094 
Q 2938 2591 2744 2837 
Q 2550 3084 2163 3084 
Q 1697 3084 1428 2787 
Q 1159 2491 1159 1978 
L 1159 0 
L 581 0 
L 581 3500 
L 1159 3500 
L 1159 2956 
Q 1366 3272 1645 3428 
Q 1925 3584 2291 3584 
Q 2894 3584 3203 3211 
Q 3513 2838 3513 2113 
z
" transform="scale(0.015625)"/>
      <path id="DejaVuSans-4c" d="M 603 3500 
L 1178 3500 
L 1178 0 
L 603 0 
L 603 3500 
z
M 603 4863 
L 1178 4863 
L 1178 4134 
L 603 4134 
L 603 4863 
z
" transform="scale(0.015625)"/>
     </defs>
     <use xlink:href="#DejaVuSans-24"/>
     <use xlink:href="#DejaVuSans-57" transform="translate(66.65625 0)"/>
     <use xlink:href="#DejaVuSans-57" transform="translate(105.859375 0)"/>
     <use xlink:href="#DejaVuSans-44" transform="translate(145.0625 0)"/>
     <use xlink:href="#DejaVuSans-46" transform="translate(206.34375 0)"/>
     <use xlink:href="#DejaVuSans-4e" transform="translate(261.328125 0)"/>
     <use xlink:href="#DejaVuSans-10" transform="translate(319.234375 0)"/>
     <use xlink:href="#DejaVuSans-46" transform="translate(355.3125 0)"/>
     <use xlink:href="#DejaVuSans-48" transform="translate(410.296875 0)"/>
     <use xlink:href="#DejaVuSans-51" transform="translate(471.828125 0)"/>
     <use xlink:href="#DejaVuSans-57" transform="translate(535.203125 0)"/>
     <use xlink:href="#DejaVuSans-55" transform="translate(574.40625 0)"/>
     <use xlink:href="#DejaVuSans-4c" transform="translate(615.515625 0)"/>
     <use xlink:href="#DejaVuSans-46" transform="translate(643.296875 0)"/>
    </g>
    <!-- metrics -->
    <g transform="translate(102.857878 69.825073) scale(0.09 -0.09)">
     <use xlink:href="#DejaVuSans-50"/>
     <use xlink:href="#DejaVuSans-48" transform="translate(97.40625 0)"/>
     <use xlink:href="#DejaVuSans-57" transform="translate(158.9375 0)"/>
     <use xlink:href="#DejaVuSans-55" transform="translate(198.140625 0)"/>
     <use xlink:href="#DejaVuSans-4c" transform="translate(239.25 0)"/>
     <use xlink:href="#DejaVuSans-46" transform="translate(267.03125 0)"/>
     <use xlink:href="#DejaVuSans-56" transform="translate(322.015625 0)"/>
    </g>
   </g>
   <g id="text_3">
    <g id="patch_4">
     <path d="M 179.922769 75.138061 
L 220.166831 75.138061 
Q 222.416831 75.138061 222.416831 72.888061 
L 222.416831 51.283139 
Q 222.416831 49.033139 220.166831 49.033139 
L 179.922769 49.033139 
Q 177.672769 49.033139 177.672769 51.283139 
L 177.672769 72.888061 
Q 177.672769 75.138061 179.922769 75.138061 
z
" style="fill: #ffffff; stroke: #000000; stroke-width: 0.8; stroke-linejoin: miter"/>
    </g>
    <!-- Metric -->
    <g transform="translate(186.054722 59.022612) scale(0.09 -0.09)">
     <defs>
      <path id="DejaVuSans-30" d="M 628 4666 
L 1569 4666 
L 2759 1491 
L 3956 4666 
L 4897 4666 
L 4897 0 
L 4281 0 
L 4281 4097 
L 3078 897 
L 2444 897 
L 1241 4097 
L 1241 0 
L 628 0 
L 628 4666 
z
" transform="scale(0.015625)"/>
     </defs>
     <use xlink:href="#DejaVuSans-30"/>
     <use xlink:href="#DejaVuSans-48" transform="translate(86.28125 0)"/>
     <use xlink:href="#DejaVuSans-57" transform="translate(147.8125 0)"/>
     <use xlink:href="#DejaVuSans-55" transform="translate(187.015625 0)"/>
     <use xlink:href="#DejaVuSans-4c" transform="translate(228.125 0)"/>
     <use xlink:href="#DejaVuSans-46" transform="translate(255.90625 0)"/>
    </g>
    <!-- forensics -->
    <g transform="translate(179.922769 69.825073) scale(0.09 -0.09)">
     <defs>
      <path id="DejaVuSans-52" d="M 1959 3097 
Q 1497 3097 1228 2736 
Q 959 2375 959 1747 
Q 959 1119 1226 758 
Q 1494 397 1959 397 
Q 2419 397 2687 759 
Q 2956 1122 2956 1747 
Q 2956 2369 2687 2733 
Q 2419 3097 1959 3097 
z
M 1959 3584 
Q 2709 3584 3137 3096 
Q 3566 2609 3566 1747 
Q 3566 888 3137 398 
Q 2709 -91 1959 -91 
Q 1206 -91 779 398 
Q 353 888 353 1747 
Q 353 2609 779 3096 
Q 1206 3584 1959 3584 
z
" transform="scale(0.015625)"/>
     </defs>
     <use xlink:href="#DejaVuSans-49"/>
     <use xlink:href="#DejaVuSans-52" transform="translate(35.203125 0)"/>
     <use xlink:href="#DejaVuSans-55" transform="translate(96.390625 0)"/>
     <use xlink:href="#DejaVuSans-48" transform="translate(135.296875 0)"/>
     <use xlink:href="#DejaVuSans-51" transform="translate(196.828125 0)"/>
     <use xlink:href="#DejaVuSans-56" transform="translate(260.203125 0)"/>
     <use xlink:href="#DejaVuSans-4c" transform="translate(312.296875 0)"/>
     <use xlink:href="#DejaVuSans-46" transform="translate(340.078125 0)"/>
     <use xlink:href="#DejaVuSans-56" transform="translate(395.0625 0)"/>
    </g>
   </g>
   <g id="text_4">
    <g id="patch_5">
     <path d="M 254.996409 75.138061 
L 305.797191 75.138061 
Q 308.047191 75.138061 308.047191 72.888061 
L 308.047191 51.283139 
Q 308.047191 49.033139 305.797191 49.033139 
L 254.996409 49.033139 
Q 252.746409 49.033139 252.746409 51.283139 
L 252.746409 72.888061 
Q 252.746409 75.138061 254.996409 75.138061 
z
" style="fill: #ffffff; stroke: #000000; stroke-width: 0.8; stroke-linejoin: miter"/>
    </g>
    <!-- Corrected -->
    <g transform="translate(258.346097 59.022612) scale(0.09 -0.09)">
     <defs>
      <path id="DejaVuSans-47" d="M 2906 2969 
L 2906 4863 
L 3481 4863 
L 3481 0 
L 2906 0 
L 2906 525 
Q 2725 213 2448 61 
Q 2172 -91 1784 -91 
Q 1150 -91 751 415 
Q 353 922 353 1747 
Q 353 2572 751 3078 
Q 1150 3584 1784 3584 
Q 2172 3584 2448 3432 
Q 2725 3281 2906 2969 
z
M 947 1747 
Q 947 1113 1208 752 
Q 1469 391 1925 391 
Q 2381 391 2643 752 
Q 2906 1113 2906 1747 
Q 2906 2381 2643 2742 
Q 2381 3103 1925 3103 
Q 1469 3103 1208 2742 
Q 947 2381 947 1747 
z
" transform="scale(0.015625)"/>
     </defs>
     <use xlink:href="#DejaVuSans-26"/>
     <use xlink:href="#DejaVuSans-52" transform="translate(69.828125 0)"/>
     <use xlink:href="#DejaVuSans-55" transform="translate(131.015625 0)"/>
     <use xlink:href="#DejaVuSans-55" transform="translate(170.375 0)"/>
     <use xlink:href="#DejaVuSans-48" transform="translate(209.28125 0)"/>
     <use xlink:href="#DejaVuSans-46" transform="translate(270.8125 0)"/>
     <use xlink:href="#DejaVuSans-57" transform="translate(325.796875 0)"/>
     <use xlink:href="#DejaVuSans-48" transform="translate(365 0)"/>
     <use xlink:href="#DejaVuSans-47" transform="translate(426.53125 0)"/>
    </g>
    <!-- benchmark -->
    <g transform="translate(254.996409 69.825073) scale(0.09 -0.09)">
     <defs>
      <path id="DejaVuSans-45" d="M 3116 1747 
Q 3116 2381 2855 2742 
Q 2594 3103 2138 3103 
Q 1681 3103 1420 2742 
Q 1159 2381 1159 1747 
Q 1159 1113 1420 752 
Q 1681 391 2138 391 
Q 2594 391 2855 752 
Q 3116 1113 3116 1747 
z
M 1159 2969 
Q 1341 3281 1617 3432 
Q 1894 3584 2278 3584 
Q 2916 3584 3314 3078 
Q 3713 2572 3713 1747 
Q 3713 922 3314 415 
Q 2916 -91 2278 -91 
Q 1894 -91 1617 61 
Q 1341 213 1159 525 
L 1159 0 
L 581 0 
L 581 4863 
L 1159 4863 
L 1159 2969 
z
" transform="scale(0.015625)"/>
      <path id="DejaVuSans-4b" d="M 3513 2113 
L 3513 0 
L 2938 0 
L 2938 2094 
Q 2938 2591 2744 2837 
Q 2550 3084 2163 3084 
Q 1697 3084 1428 2787 
Q 1159 2491 1159 1978 
L 1159 0 
L 581 0 
L 581 4863 
L 1159 4863 
L 1159 2956 
Q 1366 3272 1645 3428 
Q 1925 3584 2291 3584 
Q 2894 3584 3203 3211 
Q 3513 2838 3513 2113 
z
" transform="scale(0.015625)"/>
     </defs>
     <use xlink:href="#DejaVuSans-45"/>
     <use xlink:href="#DejaVuSans-48" transform="translate(63.484375 0)"/>
     <use xlink:href="#DejaVuSans-51" transform="translate(125.015625 0)"/>
     <use xlink:href="#DejaVuSans-46" transform="translate(188.390625 0)"/>
     <use xlink:href="#DejaVuSans-4b" transform="translate(243.375 0)"/>
     <use xlink:href="#DejaVuSans-50" transform="translate(306.75 0)"/>
     <use xlink:href="#DejaVuSans-44" transform="translate(404.15625 0)"/>
     <use xlink:href="#DejaVuSans-55" transform="translate(465.4375 0)"/>
     <use xlink:href="#DejaVuSans-4e" transform="translate(506.546875 0)"/>
    </g>
   </g>
   <g id="text_5">
    <g id="patch_6">
     <path d="M 335.334347 75.137709 
L 386.163253 75.137709 
Q 388.413253 75.137709 388.413253 72.887709 
L 388.413253 51.283491 
Q 388.413253 49.033491 386.163253 49.033491 
L 335.334347 49.033491 
Q 333.084347 49.033491 333.084347 51.283491 
L 333.084347 72.887709 
Q 333.084347 75.137709 335.334347 75.137709 
z
" style="fill: #ffffff; stroke: #000000; stroke-width: 0.8; stroke-linejoin: miter"/>
    </g>
    <!-- GRAIN-CAN -->
    <g transform="translate(335.334347 59.02226) scale(0.09 -0.09)">
     <defs>
      <path id="DejaVuSans-2a" d="M 3809 666 
L 3809 1919 
L 2778 1919 
L 2778 2438 
L 4434 2438 
L 4434 434 
Q 4069 175 3628 42 
Q 3188 -91 2688 -91 
Q 1594 -91 976 548 
Q 359 1188 359 2328 
Q 359 3472 976 4111 
Q 1594 4750 2688 4750 
Q 3144 4750 3555 4637 
Q 3966 4525 4313 4306 
L 4313 3634 
Q 3963 3931 3569 4081 
Q 3175 4231 2741 4231 
Q 1884 4231 1454 3753 
Q 1025 3275 1025 2328 
Q 1025 1384 1454 906 
Q 1884 428 2741 428 
Q 3075 428 3337 486 
Q 3600 544 3809 666 
z
" transform="scale(0.015625)"/>
      <path id="DejaVuSans-2c" d="M 628 4666 
L 1259 4666 
L 1259 0 
L 628 0 
L 628 4666 
z
" transform="scale(0.015625)"/>
     </defs>
     <use xlink:href="#DejaVuSans-2a"/>
     <use xlink:href="#DejaVuSans-35" transform="translate(77.484375 0)"/>
     <use xlink:href="#DejaVuSans-24" transform="translate(142.921875 0)"/>
     <use xlink:href="#DejaVuSans-2c" transform="translate(211.328125 0)"/>
     <use xlink:href="#DejaVuSans-31" transform="translate(240.828125 0)"/>
     <use xlink:href="#DejaVuSans-10" transform="translate(315.640625 0)"/>
     <use xlink:href="#DejaVuSans-26" transform="translate(351.71875 0)"/>
     <use xlink:href="#DejaVuSans-24" transform="translate(421.546875 0)"/>
     <use xlink:href="#DejaVuSans-31" transform="translate(489.953125 0)"/>
    </g>
    <!-- baseline -->
    <g transform="translate(341.900128 69.824721) scale(0.09 -0.09)">
     <defs>
      <path id="DejaVuSans-4f" d="M 603 4863 
L 1178 4863 
L 1178 0 
L 603 0 
L 603 4863 
z
" transform="scale(0.015625)"/>
     </defs>
     <use xlink:href="#DejaVuSans-45"/>
     <use xlink:href="#DejaVuSans-44" transform="translate(63.484375 0)"/>
     <use xlink:href="#DejaVuSans-56" transform="translate(124.765625 0)"/>
     <use xlink:href="#DejaVuSans-48" transform="translate(176.859375 0)"/>
     <use xlink:href="#DejaVuSans-4f" transform="translate(238.390625 0)"/>
     <use xlink:href="#DejaVuSans-4c" transform="translate(266.171875 0)"/>
     <use xlink:href="#DejaVuSans-51" transform="translate(293.953125 0)"/>
     <use xlink:href="#DejaVuSans-48" transform="translate(357.328125 0)"/>
    </g>
   </g>
   <g id="patch_7">
    <path d="M 73.47863 62.0856 
Q 79.513755 62.0856 84.542651 62.0856 
" style="fill: none; stroke: #333333; stroke-width: 0.9; stroke-linecap: round"/>
    <path d="M 80.542651 60.0856 
L 84.542651 62.0856 
L 80.542651 64.0856 
" style="fill: none; stroke: #333333; stroke-width: 0.9; stroke-linecap: round"/>
   </g>
   <g id="patch_8">
    <path d="M 153.83063 62.0856 
Q 159.865755 62.0856 164.894651 62.0856 
" style="fill: none; stroke: #333333; stroke-width: 0.9; stroke-linecap: round"/>
    <path d="M 160.894651 60.0856 
L 164.894651 62.0856 
L 160.894651 64.0856 
" style="fill: none; stroke: #333333; stroke-width: 0.9; stroke-linecap: round"/>
   </g>
   <g id="patch_9">
    <path d="M 234.18263 62.0856 
Q 240.217755 62.0856 245.246651 62.0856 
" style="fill: none; stroke: #333333; stroke-width: 0.9; stroke-linecap: round"/>
    <path d="M 241.246651 60.0856 
L 245.246651 62.0856 
L 241.246651 64.0856 
" style="fill: none; stroke: #333333; stroke-width: 0.9; stroke-linecap: round"/>
   </g>
   <g id="patch_10">
    <path d="M 314.53463 62.0856 
Q 320.569755 62.0856 325.598651 62.0856 
" style="fill: none; stroke: #333333; stroke-width: 0.9; stroke-linecap: round"/>
    <path d="M 321.598651 60.0856 
L 325.598651 62.0856 
L 321.598651 64.0856 
" style="fill: none; stroke: #333333; stroke-width: 0.9; stroke-linecap: round"/>
   </g>
  </g>
 </g>
</svg>
