<?xml version="1.0" encoding="utf-8" standalone="no"?>
<!DOCTYPE svg PUBLIC "-//W3C//DTD SVG 1.1//EN"
  "http://www.w3.org/Graphics/SVG/1.1/DTD/svg11.dtd">
<svg xmlns:xlink="http://www.w3.org/1999/xlink" width="518.4pt" height="244.8pt" viewBox="0 0 518.4 244.8" xmlns="http://www.w3.org/2000/svg" version="1.1">
 <metadata>
  <rdf:RDF xmlns:dc="http://purl.org/dc/elements/1.1/" xmlns:cc="http://creativecommons.org/ns#" xmlns:rdf="http://www.w3.org/1999/02/22-rdf-syntax-ns#">
   <cc:Work>
    <dc:type rdf:resource="http://purl.org/dc/dcmitype/StillImage"/>
    <dc:date>2026-07-02T00:51:08.211675</dc:date>
    <dc:format>image/svg+xml</dc:format>
    <dc:creator>
     <cc:Agent>
      <dc:title>Matplotlib v3.11.0, https://matplotlib.org/</dc:title>
     </cc:Agent>
    </dc:creator>
   </cc:Work>
  </rdf:RDF>
 </metadata>
 <defs>
  <style type="text/css">*{stroke-linejoin: round; stroke-linecap: butt}</style>
 </defs>
 <g id="figure_1">
  <g id="patch_1">
   <path d="M 0 244.8 
L 518.4 244.8 
L 518.4 0 
L 0 0 
z
" style="fill: #ffffff"/>
  </g>
  <g id="axes_1">
   <g id="patch_2">
    <path d="M 47.962344 142.557025 
L 507.6 142.557025 
L 507.6 24.72 
L 47.962344 24.72 
z
" style="fill: #ffffff"/>
   </g>
   <g id="patch_3">
    <path d="M 68.854964 142.557025 
L 106.841548 142.557025 
L 106.841548 30.331287 
L 68.854964 30.331287 
z
" clip-path="url(#pb68032e79c)" style="fill: url(#h65914c2ba4); stroke: #000000; stroke-width: 0.7; stroke-linejoin: miter"/>
   </g>
   <g id="patch_4">
    <path d="M 116.338193 142.557025 
L 154.324777 142.557025 
L 154.324777 52.814384 
L 116.338193 52.814384 
z
" clip-path="url(#pb68032e79c)" style="fill: url(#h65914c2ba4); stroke: #000000; stroke-width: 0.7; stroke-linejoin: miter"/>
   </g>
   <g id="patch_5">
    <path d="M 163.821422 142.557025 
L 201.808006 142.557025 
L 201.808006 52.952367 
L 163.821422 52.952367 
z
" clip-path="url(#pb68032e79c)" style="fill: url(#h65914c2ba4); stroke: #000000; stroke-width: 0.7; stroke-linejoin: miter"/>
   </g>
   <g id="patch_6">
    <path d="M 211.304651 142.557025 
L 249.291235 142.557025 
L 249.291235 52.952367 
L 211.304651 52.952367 
z
" clip-path="url(#pb68032e79c)" style="fill: url(#h65914c2ba4); stroke: #000000; stroke-width: 0.7; stroke-linejoin: miter"/>
   </g>
   <g id="patch_7">
    <path d="M 258.78788 142.557025 
L 296.774463 142.557025 
L 296.774463 52.952367 
L 258.78788 52.952367 
z
" clip-path="url(#pb68032e79c)" style="fill: url(#h65914c2ba4); stroke: #000000; stroke-width: 0.7; stroke-linejoin: miter"/>
   </g>
   <g id="patch_8">
    <path d="M 306.271109 142.557025 
L 344.257692 142.557025 
L 344.257692 57.915185 
L 306.271109 57.915185 
z
" clip-path="url(#pb68032e79c)" style="fill: url(#h65914c2ba4); stroke: #000000; stroke-width: 0.7; stroke-linejoin: miter"/>
   </g>
   <g id="patch_9">
    <path d="M 353.754338 142.557025 
L 391.740921 142.557025 
L 391.740921 140.794018 
L 353.754338 140.794018 
z
" clip-path="url(#pb68032e79c)" style="fill: url(#h65914c2ba4); stroke: #000000; stroke-width: 0.7; stroke-linejoin: miter"/>
   </g>
   <g id="patch_10">
    <path d="M 401.237567 142.557025 
L 439.22415 142.557025 
L 439.22415 142.068829 
L 401.237567 142.068829 
z
" clip-path="url(#pb68032e79c)" style="fill: url(#h65914c2ba4); stroke: #000000; stroke-width: 0.7; stroke-linejoin: miter"/>
   </g>
   <g id="patch_11">
    <path d="M 448.720796 142.557025 
L 486.707379 142.557025 
L 486.707379 142.262022 
L 448.720796 142.262022 
z
" clip-path="url(#pb68032e79c)" style="fill: url(#h65914c2ba4); stroke: #000000; stroke-width: 0.7; stroke-linejoin: miter"/>
   </g>
   <g id="matplotlib.axis_1">
    <g id="xtick_1">
     <g id="line2d_1">
      <defs>
       <path id="m1a68cc4c9d" d="M 0 0 
L 0 3.5 
" style="stroke: #000000; stroke-width: 0.8"/>
      </defs>
      <g>
       <use xlink:href="#m1a68cc4c9d" x="87.848256" y="142.557025" style="stroke: #000000; stroke-width: 0.8"/>
      </g>
     </g>
     <g id="text_1">
      <!-- only_timing -->
      <g transform="translate(38.913432 189.080997) rotate(-35) scale(0.1 -0.1)">
       <defs>
        <path id="DejaVuSans-52" d="M 1959 3097 
Q 1497 3097 1228 2736 
Q 959 2375 959 1747 
Q 959 1119 1226 758 
Q 1494 397 1959 397 
Q 2419 397 2687 759 
Q 2956 1122 2956 1747 
Q 2956 2369 2687 2733 
Q 2419 3097 1959 3097 
z
M 1959 3584 
Q 2709 3584 3137 3096 
Q 3566 2609 3566 1747 
Q 3566 888 3137 398 
Q 2709 -91 1959 -91 
Q 1206 -91 779 398 
Q 353 888 353 1747 
Q 353 2609 779 3096 
Q 1206 3584 1959 3584 
z
" transform="scale(0.015625)"/>
        <path id="DejaVuSans-51" d="M 3513 2113 
L 3513 0 
L 2938 0 
L 2938 2094 
Q 2938 2591 2744 2837 
Q 2550 3084 2163 3084 
Q 1697 3084 1428 2787 
Q 1159 2491 1159 1978 
L 1159 0 
L 581 0 
L 581 3500 
L 1159 3500 
L 1159 2956 
Q 1366 3272 1645 3428 
Q 1925 3584 2291 3584 
Q 2894 3584 3203 3211 
Q 3513 2838 3513 2113 
z
" transform="scale(0.015625)"/>
        <path id="DejaVuSans-4f" d="M 603 4863 
L 1178 4863 
L 1178 0 
L 603 0 
L 603 4863 
z
" transform="scale(0.015625)"/>
        <path id="DejaVuSans-5c" d="M 2059 -325 
Q 1816 -950 1584 -1140 
Q 1353 -1331 966 -1331 
L 506 -1331 
L 506 -850 
L 844 -850 
Q 1081 -850 1212 -737 
Q 1344 -625 1503 -206 
L 1606 56 
L 191 3500 
L 800 3500 
L 1894 763 
L 2988 3500 
L 3597 3500 
L 2059 -325 
z
" transform="scale(0.015625)"/>
        <path id="DejaVuSans-42" d="M 3263 -1063 
L 3263 -1509 
L -63 -1509 
L -63 -1063 
L 3263 -1063 
z
" transform="scale(0.015625)"/>
        <path id="DejaVuSans-57" d="M 1172 4494 
L 1172 3500 
L 2356 3500 
L 2356 3053 
L 1172 3053 
L 1172 1153 
Q 1172 725 1289 603 
Q 1406 481 1766 481 
L 2356 481 
L 2356 0 
L 1766 0 
Q 1100 0 847 248 
Q 594 497 594 1153 
L 594 3053 
L 172 3053 
L 172 3500 
L 594 3500 
L 594 4494 
L 1172 4494 
z
" transform="scale(0.015625)"/>
        <path id="DejaVuSans-4c" d="M 603 3500 
L 1178 3500 
L 1178 0 
L 603 0 
L 603 3500 
z
M 603 4863 
L 1178 4863 
L 1178 4134 
L 603 4134 
L 603 4863 
z
" transform="scale(0.015625)"/>
        <path id="DejaVuSans-50" d="M 3328 2828 
Q 3544 3216 3844 3400 
Q 4144 3584 4550 3584 
Q 5097 3584 5394 3201 
Q 5691 2819 5691 2113 
L 5691 0 
L 5113 0 
L 5113 2094 
Q 5113 2597 4934 2840 
Q 4756 3084 4391 3084 
Q 3944 3084 3684 2787 
Q 3425 2491 3425 1978 
L 3425 0 
L 2847 0 
L 2847 2094 
Q 2847 2600 2669 2842 
Q 2491 3084 2119 3084 
Q 1678 3084 1418 2786 
Q 1159 2488 1159 1978 
L 1159 0 
L 581 0 
L 581 3500 
L 1159 3500 
L 1159 2956 
Q 1356 3278 1631 3431 
Q 1906 3584 2284 3584 
Q 2666 3584 2933 3390 
Q 3200 3197 3328 2828 
z
" transform="scale(0.015625)"/>
        <path id="DejaVuSans-4a" d="M 2906 1791 
Q 2906 2416 2648 2759 
Q 2391 3103 1925 3103 
Q 1463 3103 1205 2759 
Q 947 2416 947 1791 
Q 947 1169 1205 825 
Q 1463 481 1925 481 
Q 2391 481 2648 825 
Q 2906 1169 2906 1791 
z
M 3481 434 
Q 3481 -459 3084 -895 
Q 2688 -1331 1869 -1331 
Q 1566 -1331 1297 -1286 
Q 1028 -1241 775 -1147 
L 775 -588 
Q 1028 -725 1275 -790 
Q 1522 -856 1778 -856 
Q 2344 -856 2625 -561 
Q 2906 -266 2906 331 
L 2906 616 
Q 2728 306 2450 153 
Q 2172 0 1784 0 
Q 1141 0 747 490 
Q 353 981 353 1791 
Q 353 2603 747 3093 
Q 1141 3584 1784 3584 
Q 2172 3584 2450 3431 
Q 2728 3278 2906 2969 
L 2906 3500 
L 3481 3500 
L 3481 434 
z
" transform="scale(0.015625)"/>
       </defs>
       <use xlink:href="#DejaVuSans-52"/>
       <use xlink:href="#DejaVuSans-51" transform="translate(61.1875 0)"/>
       <use xlink:href="#DejaVuSans-4f" transform="translate(124.5625 0)"/>
       <use xlink:href="#DejaVuSans-5c" transform="translate(152.34375 0)"/>
       <use xlink:href="#DejaVuSans-42" transform="translate(211.53125 0)"/>
       <use xlink:href="#DejaVuSans-57" transform="translate(261.53125 0)"/>
       <use xlink:href="#DejaVuSans-4c" transform="translate(300.734375 0)"/>
       <use xlink:href="#DejaVuSans-50" transform="translate(328.515625 0)"/>
       <use xlink:href="#DejaVuSans-4c" transform="translate(425.921875 0)"/>
       <use xlink:href="#DejaVuSans-51" transform="translate(453.703125 0)"/>
       <use xlink:href="#DejaVuSans-4a" transform="translate(517.078125 0)"/>
      </g>
     </g>
    </g>
    <g id="xtick_2">
     <g id="line2d_2">
      <g>
       <use xlink:href="#m1a68cc4c9d" x="135.331485" y="142.557025" style="stroke: #000000; stroke-width: 0.8"/>
      </g>
     </g>
     <g id="text_2">
      <!-- without_can_id -->
      <g transform="translate(72.778259 198.616706) rotate(-35) scale(0.1 -0.1)">
       <defs>
        <path id="DejaVuSans-5a" d="M 269 3500 
L 844 3500 
L 1563 769 
L 2278 3500 
L 2956 3500 
L 3675 769 
L 4391 3500 
L 4966 3500 
L 4050 0 
L 3372 0 
L 2619 2869 
L 1863 0 
L 1184 0 
L 269 3500 
z
" transform="scale(0.015625)"/>
        <path id="DejaVuSans-4b" d="M 3513 2113 
L 3513 0 
L 2938 0 
L 2938 2094 
Q 2938 2591 2744 2837 
Q 2550 3084 2163 3084 
Q 1697 3084 1428 2787 
Q 1159 2491 1159 1978 
L 1159 0 
L 581 0 
L 581 4863 
L 1159 4863 
L 1159 2956 
Q 1366 3272 1645 3428 
Q 1925 3584 2291 3584 
Q 2894 3584 3203 3211 
Q 3513 2838 3513 2113 
z
" transform="scale(0.015625)"/>
        <path id="DejaVuSans-58" d="M 544 1381 
L 544 3500 
L 1119 3500 
L 1119 1403 
Q 1119 906 1312 657 
Q 1506 409 1894 409 
Q 2359 409 2629 706 
Q 2900 1003 2900 1516 
L 2900 3500 
L 3475 3500 
L 3475 0 
L 2900 0 
L 2900 538 
Q 2691 219 2414 64 
Q 2138 -91 1772 -91 
Q 1169 -91 856 284 
Q 544 659 544 1381 
z
M 1991 3584 
L 1991 3584 
z
" transform="scale(0.015625)"/>
        <path id="DejaVuSans-46" d="M 3122 3366 
L 3122 2828 
Q 2878 2963 2633 3030 
Q 2388 3097 2138 3097 
Q 1578 3097 1268 2742 
Q 959 2388 959 1747 
Q 959 1106 1268 751 
Q 1578 397 2138 397 
Q 2388 397 2633 464 
Q 2878 531 3122 666 
L 3122 134 
Q 2881 22 2623 -34 
Q 2366 -91 2075 -91 
Q 1284 -91 818 406 
Q 353 903 353 1747 
Q 353 2603 823 3093 
Q 1294 3584 2113 3584 
Q 2378 3584 2631 3529 
Q 2884 3475 3122 3366 
z
" transform="scale(0.015625)"/>
        <path id="DejaVuSans-44" d="M 2194 1759 
Q 1497 1759 1228 1600 
Q 959 1441 959 1056 
Q 959 750 1161 570 
Q 1363 391 1709 391 
Q 2188 391 2477 730 
Q 2766 1069 2766 1631 
L 2766 1759 
L 2194 1759 
z
M 3341 1997 
L 3341 0 
L 2766 0 
L 2766 531 
Q 2569 213 2275 61 
Q 1981 -91 1556 -91 
Q 1019 -91 701 211 
Q 384 513 384 1019 
Q 384 1609 779 1909 
Q 1175 2209 1959 2209 
L 2766 2209 
L 2766 2266 
Q 2766 2663 2505 2880 
Q 2244 3097 1772 3097 
Q 1472 3097 1187 3025 
Q 903 2953 641 2809 
L 641 3341 
Q 956 3463 1253 3523 
Q 1550 3584 1831 3584 
Q 2591 3584 2966 3190 
Q 3341 2797 3341 1997 
z
" transform="scale(0.015625)"/>
        <path id="DejaVuSans-47" d="M 2906 2969 
L 2906 4863 
L 3481 4863 
L 3481 0 
L 2906 0 
L 2906 525 
Q 2725 213 2448 61 
Q 2172 -91 1784 -91 
Q 1150 -91 751 415 
Q 353 922 353 1747 
Q 353 2572 751 3078 
Q 1150 3584 1784 3584 
Q 2172 3584 2448 3432 
Q 2725 3281 2906 2969 
z
M 947 1747 
Q 947 1113 1208 752 
Q 1469 391 1925 391 
Q 2381 391 2643 752 
Q 2906 1113 2906 1747 
Q 2906 2381 2643 2742 
Q 2381 3103 1925 3103 
Q 1469 3103 1208 2742 
Q 947 2381 947 1747 
z
" transform="scale(0.015625)"/>
       </defs>
       <use xlink:href="#DejaVuSans-5a"/>
       <use xlink:href="#DejaVuSans-4c" transform="translate(81.78125 0)"/>
       <use xlink:href="#DejaVuSans-57" transform="translate(109.5625 0)"/>
       <use xlink:href="#DejaVuSans-4b" transform="translate(148.765625 0)"/>
       <use xlink:href="#DejaVuSans-52" transform="translate(212.140625 0)"/>
       <use xlink:href="#DejaVuSans-58" transform="translate(273.328125 0)"/>
       <use xlink:href="#DejaVuSans-57" transform="translate(336.703125 0)"/>
       <use xlink:href="#DejaVuSans-42" transform="translate(375.90625 0)"/>
       <use xlink:href="#DejaVuSans-46" transform="translate(425.90625 0)"/>
       <use xlink:href="#DejaVuSans-44" transform="translate(480.890625 0)"/>
       <use xlink:href="#DejaVuSans-51" transform="translate(542.171875 0)"/>
       <use xlink:href="#DejaVuSans-42" transform="translate(605.546875 0)"/>
       <use xlink:href="#DejaVuSans-4c" transform="translate(655.546875 0)"/>
       <use xlink:href="#DejaVuSans-47" transform="translate(683.328125 0)"/>
      </g>
     </g>
    </g>
    <g id="xtick_3">
     <g id="line2d_3">
      <g>
       <use xlink:href="#m1a68cc4c9d" x="182.814714" y="142.557025" style="stroke: #000000; stroke-width: 0.8"/>
      </g>
     </g>
     <g id="text_3">
      <!-- full_safe_can -->
      <g transform="translate(128.692354 192.713349) rotate(-35) scale(0.1 -0.1)">
       <defs>
        <path id="DejaVuSans-49" d="M 2375 4863 
L 2375 4384 
L 1825 4384 
Q 1516 4384 1395 4259 
Q 1275 4134 1275 3809 
L 1275 3500 
L 2222 3500 
L 2222 3053 
L 1275 3053 
L 1275 0 
L 697 0 
L 697 3053 
L 147 3053 
L 147 3500 
L 697 3500 
L 697 3744 
Q 697 4328 969 4595 
Q 1241 4863 1831 4863 
L 2375 4863 
z
" transform="scale(0.015625)"/>
        <path id="DejaVuSans-56" d="M 2834 3397 
L 2834 2853 
Q 2591 2978 2328 3040 
Q 2066 3103 1784 3103 
Q 1356 3103 1142 2972 
Q 928 2841 928 2578 
Q 928 2378 1081 2264 
Q 1234 2150 1697 2047 
L 1894 2003 
Q 2506 1872 2764 1633 
Q 3022 1394 3022 966 
Q 3022 478 2636 193 
Q 2250 -91 1575 -91 
Q 1294 -91 989 -36 
Q 684 19 347 128 
L 347 722 
Q 666 556 975 473 
Q 1284 391 1588 391 
Q 1994 391 2212 530 
Q 2431 669 2431 922 
Q 2431 1156 2273 1281 
Q 2116 1406 1581 1522 
L 1381 1569 
Q 847 1681 609 1914 
Q 372 2147 372 2553 
Q 372 3047 722 3315 
Q 1072 3584 1716 3584 
Q 2034 3584 2315 3537 
Q 2597 3491 2834 3397 
z
" transform="scale(0.015625)"/>
        <path id="DejaVuSans-48" d="M 3597 1894 
L 3597 1613 
L 953 1613 
Q 991 1019 1311 708 
Q 1631 397 2203 397 
Q 2534 397 2845 478 
Q 3156 559 3463 722 
L 3463 178 
Q 3153 47 2828 -22 
Q 2503 -91 2169 -91 
Q 1331 -91 842 396 
Q 353 884 353 1716 
Q 353 2575 817 3079 
Q 1281 3584 2069 3584 
Q 2775 3584 3186 3129 
Q 3597 2675 3597 1894 
z
M 3022 2063 
Q 3016 2534 2758 2815 
Q 2500 3097 2075 3097 
Q 1594 3097 1305 2825 
Q 1016 2553 972 2059 
L 3022 2063 
z
" transform="scale(0.015625)"/>
       </defs>
       <use xlink:href="#DejaVuSans-49"/>
       <use xlink:href="#DejaVuSans-58" transform="translate(35.203125 0)"/>
       <use xlink:href="#DejaVuSans-4f" transform="translate(98.578125 0)"/>
       <use xlink:href="#DejaVuSans-4f" transform="translate(126.359375 0)"/>
       <use xlink:href="#DejaVuSans-42" transform="translate(154.140625 0)"/>
       <use xlink:href="#DejaVuSans-56" transform="translate(204.140625 0)"/>
       <use xlink:href="#DejaVuSans-44" transform="translate(256.234375 0)"/>
       <use xlink:href="#DejaVuSans-49" transform="translate(317.515625 0)"/>
       <use xlink:href="#DejaVuSans-48" transform="translate(352.71875 0)"/>
       <use xlink:href="#DejaVuSans-42" transform="translate(414.25 0)"/>
       <use xlink:href="#DejaVuSans-46" transform="translate(464.25 0)"/>
       <use xlink:href="#DejaVuSans-44" transform="translate(519.234375 0)"/>
       <use xlink:href="#DejaVuSans-51" transform="translate(580.515625 0)"/>
      </g>
     </g>
    </g>
    <g id="xtick_4">
     <g id="line2d_4">
      <g>
       <use xlink:href="#m1a68cc4c9d" x="230.297943" y="142.557025" style="stroke: #000000; stroke-width: 0.8"/>
      </g>
     </g>
     <g id="text_4">
      <!-- without_payload_statistics -->
      <g transform="translate(120.848262 231.453957) rotate(-35) scale(0.1 -0.1)">
       <defs>
        <path id="DejaVuSans-53" d="M 1159 525 
L 1159 -1331 
L 581 -1331 
L 581 3500 
L 1159 3500 
L 1159 2969 
Q 1341 3281 1617 3432 
Q 1894 3584 2278 3584 
Q 2916 3584 3314 3078 
Q 3713 2572 3713 1747 
Q 3713 922 3314 415 
Q 2916 -91 2278 -91 
Q 1894 -91 1617 61 
Q 1341 213 1159 525 
z
M 3116 1747 
Q 3116 2381 2855 2742 
Q 2594 3103 2138 3103 
Q 1681 3103 1420 2742 
Q 1159 2381 1159 1747 
Q 1159 1113 1420 752 
Q 1681 391 2138 391 
Q 2594 391 2855 752 
Q 3116 1113 3116 1747 
z
" transform="scale(0.015625)"/>
       </defs>
       <use xlink:href="#DejaVuSans-5a"/>
       <use xlink:href="#DejaVuSans-4c" transform="translate(81.78125 0)"/>
       <use xlink:href="#DejaVuSans-57" transform="translate(109.5625 0)"/>
       <use xlink:href="#DejaVuSans-4b" transform="translate(148.765625 0)"/>
       <use xlink:href="#DejaVuSans-52" transform="translate(212.140625 0)"/>
       <use xlink:href="#DejaVuSans-58" transform="translate(273.328125 0)"/>
       <use xlink:href="#DejaVuSans-57" transform="translate(336.703125 0)"/>
       <use xlink:href="#DejaVuSans-42" transform="translate(375.90625 0)"/>
       <use xlink:href="#DejaVuSans-53" transform="translate(425.90625 0)"/>
       <use xlink:href="#DejaVuSans-44" transform="translate(489.390625 0)"/>
       <use xlink:href="#DejaVuSans-5c" transform="translate(550.671875 0)"/>
       <use xlink:href="#DejaVuSans-4f" transform="translate(609.859375 0)"/>
       <use xlink:href="#DejaVuSans-52" transform="translate(637.640625 0)"/>
       <use xlink:href="#DejaVuSans-44" transform="translate(698.828125 0)"/>
       <use xlink:href="#DejaVuSans-47" transform="translate(760.109375 0)"/>
       <use xlink:href="#DejaVuSans-42" transform="translate(823.59375 0)"/>
       <use xlink:href="#DejaVuSans-56" transform="translate(873.59375 0)"/>
       <use xlink:href="#DejaVuSans-57" transform="translate(925.6875 0)"/>
       <use xlink:href="#DejaVuSans-44" transform="translate(964.890625 0)"/>
       <use xlink:href="#DejaVuSans-57" transform="translate(1026.171875 0)"/>
       <use xlink:href="#DejaVuSans-4c" transform="translate(1065.375 0)"/>
       <use xlink:href="#DejaVuSans-56" transform="translate(1093.15625 0)"/>
       <use xlink:href="#DejaVuSans-57" transform="translate(1145.25 0)"/>
       <use xlink:href="#DejaVuSans-4c" transform="translate(1184.453125 0)"/>
       <use xlink:href="#DejaVuSans-46" transform="translate(1212.234375 0)"/>
       <use xlink:href="#DejaVuSans-56" transform="translate(1267.21875 0)"/>
      </g>
     </g>
    </g>
    <g id="xtick_5">
     <g id="line2d_5">
      <g>
       <use xlink:href="#m1a68cc4c9d" x="277.781172" y="142.557025" style="stroke: #000000; stroke-width: 0.8"/>
      </g>
     </g>
     <g id="text_5">
      <!-- without_payload_delta_l1 -->
      <g transform="translate(172.511726 228.526924) rotate(-35) scale(0.1 -0.1)">
       <defs>
        <path id="DejaVuSans-14" d="M 794 531 
L 1825 531 
L 1825 4091 
L 703 3866 
L 703 4441 
L 1819 4666 
L 2450 4666 
L 2450 531 
L 3481 531 
L 3481 0 
L 794 0 
L 794 531 
z
" transform="scale(0.015625)"/>
       </defs>
       <use xlink:href="#DejaVuSans-5a"/>
       <use xlink:href="#DejaVuSans-4c" transform="translate(81.78125 0)"/>
       <use xlink:href="#DejaVuSans-57" transform="translate(109.5625 0)"/>
       <use xlink:href="#DejaVuSans-4b" transform="translate(148.765625 0)"/>
       <use xlink:href="#DejaVuSans-52" transform="translate(212.140625 0)"/>
       <use xlink:href="#DejaVuSans-58" transform="translate(273.328125 0)"/>
       <use xlink:href="#DejaVuSans-57" transform="translate(336.703125 0)"/>
       <use xlink:href="#DejaVuSans-42" transform="translate(375.90625 0)"/>
       <use xlink:href="#DejaVuSans-53" transform="translate(425.90625 0)"/>
       <use xlink:href="#DejaVuSans-44" transform="translate(489.390625 0)"/>
       <use xlink:href="#DejaVuSans-5c" transform="translate(550.671875 0)"/>
       <use xlink:href="#DejaVuSans-4f" transform="translate(609.859375 0)"/>
       <use xlink:href="#DejaVuSans-52" transform="translate(637.640625 0)"/>
       <use xlink:href="#DejaVuSans-44" transform="translate(698.828125 0)"/>
       <use xlink:href="#DejaVuSans-47" transform="translate(760.109375 0)"/>
       <use xlink:href="#DejaVuSans-42" transform="translate(823.59375 0)"/>
       <use xlink:href="#DejaVuSans-47" transform="translate(873.59375 0)"/>
       <use xlink:href="#DejaVuSans-48" transform="translate(937.078125 0)"/>
       <use xlink:href="#DejaVuSans-4f" transform="translate(998.609375 0)"/>
       <use xlink:href="#DejaVuSans-57" transform="translate(1026.390625 0)"/>
       <use xlink:href="#DejaVuSans-44" transform="translate(1065.59375 0)"/>
       <use xlink:href="#DejaVuSans-42" transform="translate(1126.875 0)"/>
       <use xlink:href="#DejaVuSans-4f" transform="translate(1176.875 0)"/>
       <use xlink:href="#DejaVuSans-14" transform="translate(1204.65625 0)"/>
      </g>
     </g>
    </g>
    <g id="xtick_6">
     <g id="line2d_6">
      <g>
       <use xlink:href="#m1a68cc4c9d" x="325.264401" y="142.557025" style="stroke: #000000; stroke-width: 0.8"/>
      </g>
     </g>
     <g id="text_6">
      <!-- without_payload_bytes -->
      <g transform="translate(229.758224 221.69061) rotate(-35) scale(0.1 -0.1)">
       <defs>
        <path id="DejaVuSans-45" d="M 3116 1747 
Q 3116 2381 2855 2742 
Q 2594 3103 2138 3103 
Q 1681 3103 1420 2742 
Q 1159 2381 1159 1747 
Q 1159 1113 1420 752 
Q 1681 391 2138 391 
Q 2594 391 2855 752 
Q 3116 1113 3116 1747 
z
M 1159 2969 
Q 1341 3281 1617 3432 
Q 1894 3584 2278 3584 
Q 2916 3584 3314 3078 
Q 3713 2572 3713 1747 
Q 3713 922 3314 415 
Q 2916 -91 2278 -91 
Q 1894 -91 1617 61 
Q 1341 213 1159 525 
L 1159 0 
L 581 0 
L 581 4863 
L 1159 4863 
L 1159 2969 
z
" transform="scale(0.015625)"/>
       </defs>
       <use xlink:href="#DejaVuSans-5a"/>
       <use xlink:href="#DejaVuSans-4c" transform="translate(81.78125 0)"/>
       <use xlink:href="#DejaVuSans-57" transform="translate(109.5625 0)"/>
       <use xlink:href="#DejaVuSans-4b" transform="translate(148.765625 0)"/>
       <use xlink:href="#DejaVuSans-52" transform="translate(212.140625 0)"/>
       <use xlink:href="#DejaVuSans-58" transform="translate(273.328125 0)"/>
       <use xlink:href="#DejaVuSans-57" transform="translate(336.703125 0)"/>
       <use xlink:href="#DejaVuSans-42" transform="translate(375.90625 0)"/>
       <use xlink:href="#DejaVuSans-53" transform="translate(425.90625 0)"/>
       <use xlink:href="#DejaVuSans-44" transform="translate(489.390625 0)"/>
       <use xlink:href="#DejaVuSans-5c" transform="translate(550.671875 0)"/>
       <use xlink:href="#DejaVuSans-4f" transform="translate(609.859375 0)"/>
       <use xlink:href="#DejaVuSans-52" transform="translate(637.640625 0)"/>
       <use xlink:href="#DejaVuSans-44" transform="translate(698.828125 0)"/>
       <use xlink:href="#DejaVuSans-47" transform="translate(760.109375 0)"/>
       <use xlink:href="#DejaVuSans-42" transform="translate(823.59375 0)"/>
       <use xlink:href="#DejaVuSans-45" transform="translate(873.59375 0)"/>
       <use xlink:href="#DejaVuSans-5c" transform="translate(937.078125 0)"/>
       <use xlink:href="#DejaVuSans-57" transform="translate(996.265625 0)"/>
       <use xlink:href="#DejaVuSans-48" transform="translate(1035.46875 0)"/>
       <use xlink:href="#DejaVuSans-56" transform="translate(1097 0)"/>
      </g>
     </g>
    </g>
    <g id="xtick_7">
     <g id="line2d_7">
      <g>
       <use xlink:href="#m1a68cc4c9d" x="372.74763" y="142.557025" style="stroke: #000000; stroke-width: 0.8"/>
      </g>
     </g>
     <g id="text_7">
      <!-- without_delta_t_same_id -->
      <g transform="translate(270.45273 226.444125) rotate(-35) scale(0.1 -0.1)">
       <use xlink:href="#DejaVuSans-5a"/>
       <use xlink:href="#DejaVuSans-4c" transform="translate(81.78125 0)"/>
       <use xlink:href="#DejaVuSans-57" transform="translate(109.5625 0)"/>
       <use xlink:href="#DejaVuSans-4b" transform="translate(148.765625 0)"/>
       <use xlink:href="#DejaVuSans-52" transform="translate(212.140625 0)"/>
       <use xlink:href="#DejaVuSans-58" transform="translate(273.328125 0)"/>
       <use xlink:href="#DejaVuSans-57" transform="translate(336.703125 0)"/>
       <use xlink:href="#DejaVuSans-42" transform="translate(375.90625 0)"/>
       <use xlink:href="#DejaVuSans-47" transform="translate(425.90625 0)"/>
       <use xlink:href="#DejaVuSans-48" transform="translate(489.390625 0)"/>
       <use xlink:href="#DejaVuSans-4f" transform="translate(550.921875 0)"/>
       <use xlink:href="#DejaVuSans-57" transform="translate(578.703125 0)"/>
       <use xlink:href="#DejaVuSans-44" transform="translate(617.90625 0)"/>
       <use xlink:href="#DejaVuSans-42" transform="translate(679.1875 0)"/>
       <use xlink:href="#DejaVuSans-57" transform="translate(729.1875 0)"/>
       <use xlink:href="#DejaVuSans-42" transform="translate(768.390625 0)"/>
       <use xlink:href="#DejaVuSans-56" transform="translate(818.390625 0)"/>
       <use xlink:href="#DejaVuSans-44" transform="translate(870.484375 0)"/>
       <use xlink:href="#DejaVuSans-50" transform="translate(931.765625 0)"/>
       <use xlink:href="#DejaVuSans-48" transform="translate(1029.171875 0)"/>
       <use xlink:href="#DejaVuSans-42" transform="translate(1090.703125 0)"/>
       <use xlink:href="#DejaVuSans-4c" transform="translate(1140.703125 0)"/>
       <use xlink:href="#DejaVuSans-47" transform="translate(1168.484375 0)"/>
      </g>
     </g>
    </g>
    <g id="xtick_8">
     <g id="line2d_8">
      <g>
       <use xlink:href="#m1a68cc4c9d" x="420.230859" y="142.557025" style="stroke: #000000; stroke-width: 0.8"/>
      </g>
     </g>
     <g id="text_8">
      <!-- only_id -->
      <g transform="translate(389.953503 176.016898) rotate(-35) scale(0.1 -0.1)">
       <use xlink:href="#DejaVuSans-52"/>
       <use xlink:href="#DejaVuSans-51" transform="translate(61.1875 0)"/>
       <use xlink:href="#DejaVuSans-4f" transform="translate(124.5625 0)"/>
       <use xlink:href="#DejaVuSans-5c" transform="translate(152.34375 0)"/>
       <use xlink:href="#DejaVuSans-42" transform="translate(211.53125 0)"/>
       <use xlink:href="#DejaVuSans-4c" transform="translate(261.53125 0)"/>
       <use xlink:href="#DejaVuSans-47" transform="translate(289.3125 0)"/>
      </g>
     </g>
    </g>
    <g id="xtick_9">
     <g id="line2d_9">
      <g>
       <use xlink:href="#m1a68cc4c9d" x="467.714088" y="142.557025" style="stroke: #000000; stroke-width: 0.8"/>
      </g>
     </g>
     <g id="text_9">
      <!-- only_payload -->
      <g transform="translate(412.336121 193.592534) rotate(-35) scale(0.1 -0.1)">
       <use xlink:href="#DejaVuSans-52"/>
       <use xlink:href="#DejaVuSans-51" transform="translate(61.1875 0)"/>
       <use xlink:href="#DejaVuSans-4f" transform="translate(124.5625 0)"/>
       <use xlink:href="#DejaVuSans-5c" transform="translate(152.34375 0)"/>
       <use xlink:href="#DejaVuSans-42" transform="translate(211.53125 0)"/>
       <use xlink:href="#DejaVuSans-53" transform="translate(261.53125 0)"/>
       <use xlink:href="#DejaVuSans-44" transform="translate(325.015625 0)"/>
       <use xlink:href="#DejaVuSans-5c" transform="translate(386.296875 0)"/>
       <use xlink:href="#DejaVuSans-4f" transform="translate(445.484375 0)"/>
       <use xlink:href="#DejaVuSans-52" transform="translate(473.265625 0)"/>
       <use xlink:href="#DejaVuSans-44" transform="translate(534.453125 0)"/>
       <use xlink:href="#DejaVuSans-47" transform="translate(595.734375 0)"/>
      </g>
     </g>
    </g>
   </g>
   <g id="matplotlib.axis_2">
    <g id="ytick_1">
     <g id="line2d_10">
      <path d="M 47.962344 142.557025 
L 507.6 142.557025 
" clip-path="url(#pb68032e79c)" style="fill: none; stroke: #e6e6e6; stroke-width: 0.6; stroke-linecap: square"/>
     </g>
     <g id="line2d_11">
      <defs>
       <path id="m07ed984867" d="M 0 0 
L -3.5 0 
" style="stroke: #000000; stroke-width: 0.8"/>
      </defs>
      <g>
       <use xlink:href="#m07ed984867" x="47.962344" y="142.557025" style="stroke: #000000; stroke-width: 0.8"/>
      </g>
     </g>
     <g id="text_10">
      <!-- 0.0 -->
      <g transform="translate(25.059219 146.355853) scale(0.1 -0.1)">
       <defs>
        <path id="DejaVuSans-13" d="M 2034 4250 
Q 1547 4250 1301 3770 
Q 1056 3291 1056 2328 
Q 1056 1369 1301 889 
Q 1547 409 2034 409 
Q 2525 409 2770 889 
Q 3016 1369 3016 2328 
Q 3016 3291 2770 3770 
Q 2525 4250 2034 4250 
z
M 2034 4750 
Q 2819 4750 3233 4129 
Q 3647 3509 3647 2328 
Q 3647 1150 3233 529 
Q 2819 -91 2034 -91 
Q 1250 -91 836 529 
Q 422 1150 422 2328 
Q 422 3509 836 4129 
Q 1250 4750 2034 4750 
z
" transform="scale(0.015625)"/>
        <path id="DejaVuSans-11" d="M 684 794 
L 1344 794 
L 1344 0 
L 684 0 
L 684 794 
z
" transform="scale(0.015625)"/>
       </defs>
       <use xlink:href="#DejaVuSans-13"/>
       <use xlink:href="#DejaVuSans-11" transform="translate(63.625 0)"/>
       <use xlink:href="#DejaVuSans-13" transform="translate(95.40625 0)"/>
      </g>
     </g>
    </g>
    <g id="ytick_2">
     <g id="line2d_12">
      <path d="M 47.962344 105.138816 
L 507.6 105.138816 
" clip-path="url(#pb68032e79c)" style="fill: none; stroke: #e6e6e6; stroke-width: 0.6; stroke-linecap: square"/>
     </g>
     <g id="line2d_13">
      <g>
       <use xlink:href="#m07ed984867" x="47.962344" y="105.138816" style="stroke: #000000; stroke-width: 0.8"/>
      </g>
     </g>
     <g id="text_11">
      <!-- 0.2 -->
      <g transform="translate(25.059219 108.937645) scale(0.1 -0.1)">
       <defs>
        <path id="DejaVuSans-15" d="M 1228 531 
L 3431 531 
L 3431 0 
L 469 0 
L 469 531 
Q 828 903 1448 1529 
Q 2069 2156 2228 2338 
Q 2531 2678 2651 2914 
Q 2772 3150 2772 3378 
Q 2772 3750 2511 3984 
Q 2250 4219 1831 4219 
Q 1534 4219 1204 4116 
Q 875 4013 500 3803 
L 500 4441 
Q 881 4594 1212 4672 
Q 1544 4750 1819 4750 
Q 2544 4750 2975 4387 
Q 3406 4025 3406 3419 
Q 3406 3131 3298 2873 
Q 3191 2616 2906 2266 
Q 2828 2175 2409 1742 
Q 1991 1309 1228 531 
z
" transform="scale(0.015625)"/>
       </defs>
       <use xlink:href="#DejaVuSans-13"/>
       <use xlink:href="#DejaVuSans-11" transform="translate(63.625 0)"/>
       <use xlink:href="#DejaVuSans-15" transform="translate(95.40625 0)"/>
      </g>
     </g>
    </g>
    <g id="ytick_3">
     <g id="line2d_14">
      <path d="M 47.962344 67.720608 
L 507.6 67.720608 
" clip-path="url(#pb68032e79c)" style="fill: none; stroke: #e6e6e6; stroke-width: 0.6; stroke-linecap: square"/>
     </g>
     <g id="line2d_15">
      <g>
       <use xlink:href="#m07ed984867" x="47.962344" y="67.720608" style="stroke: #000000; stroke-width: 0.8"/>
      </g>
     </g>
     <g id="text_12">
      <!-- 0.4 -->
      <g transform="translate(25.059219 71.519436) scale(0.1 -0.1)">
       <defs>
        <path id="DejaVuSans-17" d="M 2419 4116 
L 825 1625 
L 2419 1625 
L 2419 4116 
z
M 2253 4666 
L 3047 4666 
L 3047 1625 
L 3713 1625 
L 3713 1100 
L 3047 1100 
L 3047 0 
L 2419 0 
L 2419 1100 
L 313 1100 
L 313 1709 
L 2253 4666 
z
" transform="scale(0.015625)"/>
       </defs>
       <use xlink:href="#DejaVuSans-13"/>
       <use xlink:href="#DejaVuSans-11" transform="translate(63.625 0)"/>
       <use xlink:href="#DejaVuSans-17" transform="translate(95.40625 0)"/>
      </g>
     </g>
    </g>
    <g id="ytick_4">
     <g id="line2d_16">
      <path d="M 47.962344 30.3024 
L 507.6 30.3024 
" clip-path="url(#pb68032e79c)" style="fill: none; stroke: #e6e6e6; stroke-width: 0.6; stroke-linecap: square"/>
     </g>
     <g id="line2d_17">
      <g>
       <use xlink:href="#m07ed984867" x="47.962344" y="30.3024" style="stroke: #000000; stroke-width: 0.8"/>
      </g>
     </g>
     <g id="text_13">
      <!-- 0.6 -->
      <g transform="translate(25.059219 34.101228) scale(0.1 -0.1)">
       <defs>
        <path id="DejaVuSans-19" d="M 2113 2584 
Q 1688 2584 1439 2293 
Q 1191 2003 1191 1497 
Q 1191 994 1439 701 
Q 1688 409 2113 409 
Q 2538 409 2786 701 
Q 3034 994 3034 1497 
Q 3034 2003 2786 2293 
Q 2538 2584 2113 2584 
z
M 3366 4563 
L 3366 3988 
Q 3128 4100 2886 4159 
Q 2644 4219 2406 4219 
Q 1781 4219 1451 3797 
Q 1122 3375 1075 2522 
Q 1259 2794 1537 2939 
Q 1816 3084 2150 3084 
Q 2853 3084 3261 2657 
Q 3669 2231 3669 1497 
Q 3669 778 3244 343 
Q 2819 -91 2113 -91 
Q 1303 -91 875 529 
Q 447 1150 447 2328 
Q 447 3434 972 4092 
Q 1497 4750 2381 4750 
Q 2619 4750 2861 4703 
Q 3103 4656 3366 4563 
z
" transform="scale(0.015625)"/>
       </defs>
       <use xlink:href="#DejaVuSans-13"/>
       <use xlink:href="#DejaVuSans-11" transform="translate(63.625 0)"/>
       <use xlink:href="#DejaVuSans-19" transform="translate(95.40625 0)"/>
      </g>
     </g>
    </g>
    <g id="text_14">
     <!-- attack_f1 -->
     <g transform="translate(18.656875 106.772887) rotate(-90) scale(0.1 -0.1)">
      <defs>
       <path id="DejaVuSans-4e" d="M 581 4863 
L 1159 4863 
L 1159 1991 
L 2875 3500 
L 3609 3500 
L 1753 1863 
L 3688 0 
L 2938 0 
L 1159 1709 
L 1159 0 
L 581 0 
L 581 4863 
z
" transform="scale(0.015625)"/>
      </defs>
      <use xlink:href="#DejaVuSans-44"/>
      <use xlink:href="#DejaVuSans-57" transform="translate(61.28125 0)"/>
      <use xlink:href="#DejaVuSans-57" transform="translate(100.484375 0)"/>
      <use xlink:href="#DejaVuSans-44" transform="translate(139.6875 0)"/>
      <use xlink:href="#DejaVuSans-46" transform="translate(200.96875 0)"/>
      <use xlink:href="#DejaVuSans-4e" transform="translate(255.953125 0)"/>
      <use xlink:href="#DejaVuSans-42" transform="translate(313.859375 0)"/>
      <use xlink:href="#DejaVuSans-49" transform="translate(363.859375 0)"/>
      <use xlink:href="#DejaVuSans-14" transform="translate(399.0625 0)"/>
     </g>
    </g>
   </g>
   <g id="patch_12">
    <path d="M 47.962344 142.557025 
L 47.962344 24.72 
" style="fill: none; stroke: #000000; stroke-width: 0.8; stroke-linejoin: miter; stroke-linecap: square"/>
   </g>
   <g id="patch_13">
    <path d="M 47.962344 142.557025 
L 507.6 142.557025 
" style="fill: none; stroke: #000000; stroke-width: 0.8; stroke-linejoin: miter; stroke-linecap: square"/>
   </g>
   <g id="text_15">
    <!-- GRAIN Retraining Ablation -->
    <g transform="translate(212.499922 18.72) scale(0.1 -0.1)">
     <defs>
      <path id="DejaVuSans-2a" d="M 3809 666 
L 3809 1919 
L 2778 1919 
L 2778 2438 
L 4434 2438 
L 4434 434 
Q 4069 175 3628 42 
Q 3188 -91 2688 -91 
Q 1594 -91 976 548 
Q 359 1188 359 2328 
Q 359 3472 976 4111 
Q 1594 4750 2688 4750 
Q 3144 4750 3555 4637 
Q 3966 4525 4313 4306 
L 4313 3634 
Q 3963 3931 3569 4081 
Q 3175 4231 2741 4231 
Q 1884 4231 1454 3753 
Q 1025 3275 1025 2328 
Q 1025 1384 1454 906 
Q 1884 428 2741 428 
Q 3075 428 3337 486 
Q 3600 544 3809 666 
z
" transform="scale(0.015625)"/>
      <path id="DejaVuSans-35" d="M 2841 2188 
Q 3044 2119 3236 1894 
Q 3428 1669 3622 1275 
L 4263 0 
L 3584 0 
L 2988 1197 
Q 2756 1666 2539 1819 
Q 2322 1972 1947 1972 
L 1259 1972 
L 1259 0 
L 628 0 
L 628 4666 
L 2053 4666 
Q 2853 4666 3247 4331 
Q 3641 3997 3641 3322 
Q 3641 2881 3436 2590 
Q 3231 2300 2841 2188 
z
M 1259 4147 
L 1259 2491 
L 2053 2491 
Q 2509 2491 2742 2702 
Q 2975 2913 2975 3322 
Q 2975 3731 2742 3939 
Q 2509 4147 2053 4147 
L 1259 4147 
z
" transform="scale(0.015625)"/>
      <path id="DejaVuSans-24" d="M 2188 4044 
L 1331 1722 
L 3047 1722 
L 2188 4044 
z
M 1831 4666 
L 2547 4666 
L 4325 0 
L 3669 0 
L 3244 1197 
L 1141 1197 
L 716 0 
L 50 0 
L 1831 4666 
z
" transform="scale(0.015625)"/>
      <path id="DejaVuSans-2c" d="M 628 4666 
L 1259 4666 
L 1259 0 
L 628 0 
L 628 4666 
z
" transform="scale(0.015625)"/>
      <path id="DejaVuSans-31" d="M 628 4666 
L 1478 4666 
L 3547 763 
L 3547 4666 
L 4159 4666 
L 4159 0 
L 3309 0 
L 1241 3903 
L 1241 0 
L 628 0 
L 628 4666 
z
" transform="scale(0.015625)"/>
      <path id="DejaVuSans-3" transform="scale(0.015625)"/>
      <path id="DejaVuSans-55" d="M 2631 2963 
Q 2534 3019 2420 3045 
Q 2306 3072 2169 3072 
Q 1681 3072 1420 2755 
Q 1159 2438 1159 1844 
L 1159 0 
L 581 0 
L 581 3500 
L 1159 3500 
L 1159 2956 
Q 1341 3275 1631 3429 
Q 1922 3584 2338 3584 
Q 2397 3584 2469 3576 
Q 2541 3569 2628 3553 
L 2631 2963 
z
" transform="scale(0.015625)"/>
     </defs>
     <use xlink:href="#DejaVuSans-2a"/>
     <use xlink:href="#DejaVuSans-35" transform="translate(77.484375 0)"/>
     <use xlink:href="#DejaVuSans-24" transform="translate(142.921875 0)"/>
     <use xlink:href="#DejaVuSans-2c" transform="translate(211.328125 0)"/>
     <use xlink:href="#DejaVuSans-31" transform="translate(240.828125 0)"/>
     <use xlink:href="#DejaVuSans-3" transform="translate(315.640625 0)"/>
     <use xlink:href="#DejaVuSans-35" transform="translate(347.421875 0)"/>
     <use xlink:href="#DejaVuSans-48" transform="translate(412.421875 0)"/>
     <use xlink:href="#DejaVuSans-57" transform="translate(473.953125 0)"/>
     <use xlink:href="#DejaVuSans-55" transform="translate(513.15625 0)"/>
     <use xlink:href="#DejaVuSans-44" transform="translate(554.265625 0)"/>
     <use xlink:href="#DejaVuSans-4c" transform="translate(615.546875 0)"/>
     <use xlink:href="#DejaVuSans-51" transform="translate(643.328125 0)"/>
     <use xlink:href="#DejaVuSans-4c" transform="translate(706.703125 0)"/>
     <use xlink:href="#DejaVuSans-51" transform="translate(734.484375 0)"/>
     <use xlink:href="#DejaVuSans-4a" transform="translate(797.859375 0)"/>
     <use xlink:href="#DejaVuSans-3" transform="translate(861.34375 0)"/>
     <use xlink:href="#DejaVuSans-24" transform="translate(893.125 0)"/>
     <use xlink:href="#DejaVuSans-45" transform="translate(961.53125 0)"/>
     <use xlink:href="#DejaVuSans-4f" transform="translate(1025.015625 0)"/>
     <use xlink:href="#DejaVuSans-44" transform="translate(1052.796875 0)"/>
     <use xlink:href="#DejaVuSans-57" transform="translate(1114.078125 0)"/>
     <use xlink:href="#DejaVuSans-4c" transform="translate(1153.28125 0)"/>
     <use xlink:href="#DejaVuSans-52" transform="translate(1181.0625 0)"/>
     <use xlink:href="#DejaVuSans-51" transform="translate(1242.25 0)"/>
    </g>
   </g>
  </g>
 </g>
 <defs>
  <clipPath id="pb68032e79c">
   <rect x="47.962344" y="24.72" width="459.637656" height="117.837025"/>
  </clipPath>
 </defs>
 <defs>
  <pattern id="h65914c2ba4" patternUnits="userSpaceOnUse" x="0" y="0" width="72" height="72">
   <rect x="0" y="0" width="73" height="73" fill="#4c78a8"/>
   <path d="M -36 36 
L 36 -36 
M -30 42 
L 42 -30 
M -24 48 
L 48 -24 
M -18 54 
L 54 -18 
M -12 60 
L 60 -12 
M -6 66 
L 66 -6 
M 0 72 
L 72 0 
M 6 78 
L 78 6 
M 12 84 
L 84 12 
M 18 90 
L 90 18 
M 24 96 
L 96 24 
M 30 102 
L 102 30 
M 36 108 
L 108 36 
" style="fill: #000000; stroke: #000000; stroke-width: 1.0; stroke-linecap: butt; stroke-linejoin: miter"/>
  </pattern>
 </defs>
</svg>
