<?xml version="1.0" encoding="utf-8" standalone="no"?>
<!DOCTYPE svg PUBLIC "-//W3C//DTD SVG 1.1//EN"
  "http://www.w3.org/Graphics/SVG/1.1/DTD/svg11.dtd">
<svg xmlns:xlink="http://www.w3.org/1999/xlink" width="370.765078pt" height="228.243016pt" viewBox="0 0 370.765078 228.243016" xmlns="http://www.w3.org/2000/svg" version="1.1">
 <metadata>
  <rdf:RDF xmlns:dc="http://purl.org/dc/elements/1.1/" xmlns:cc="http://creativecommons.org/ns#" xmlns:rdf="http://www.w3.org/1999/02/22-rdf-syntax-ns#">
   <cc:Work>
    <dc:type rdf:resource="http://purl.org/dc/dcmitype/StillImage"/>
    <dc:date>2026-07-02T19:54:06.845977</dc:date>
    <dc:format>image/svg+xml</dc:format>
    <dc:creator>
     <cc:Agent>
      <dc:title>Matplotlib v3.11.0, https://matplotlib.org/</dc:title>
     </cc:Agent>
    </dc:creator>
   </cc:Work>
  </rdf:RDF>
 </metadata>
 <defs>
  <style type="text/css">*{stroke-linejoin: round; stroke-linecap: butt}</style>
 </defs>
 <g id="figure_1">
  <g id="patch_1">
   <path d="M 0 228.243016 
L 370.765078 228.243016 
L 370.765078 0 
L 0 0 
z
" style="fill: #ffffff"/>
  </g>
  <g id="axes_1">
   <g id="patch_2">
    <path d="M 34.516953 196.042312 
L 358.156953 196.042312 
L 358.156953 21.406312 
L 34.516953 21.406312 
z
" style="fill: #ffffff"/>
   </g>
   <g id="matplotlib.axis_1">
    <g id="xtick_1">
     <g id="line2d_1"/>
     <g id="text_1">
      <!-- 2 -->
      <g transform="translate(80.014593 206.00032) scale(0.085 -0.085)">
       <defs>
        <path id="DejaVuSerif-15" d="M 819 3553 
L 469 3553 
L 469 4384 
Q 803 4563 1142 4656 
Q 1481 4750 1806 4750 
Q 2534 4750 2956 4397 
Q 3378 4044 3378 3438 
Q 3378 2753 2422 1800 
Q 2347 1728 2309 1691 
L 1131 513 
L 3078 513 
L 3078 1088 
L 3444 1088 
L 3444 0 
L 434 0 
L 434 341 
L 1850 1753 
Q 2319 2222 2519 2614 
Q 2719 3006 2719 3438 
Q 2719 3909 2473 4175 
Q 2228 4441 1797 4441 
Q 1350 4441 1106 4219 
Q 863 3997 819 3553 
z
" transform="scale(0.015625)"/>
       </defs>
       <use xlink:href="#DejaVuSerif-15"/>
      </g>
     </g>
    </g>
    <g id="xtick_2">
     <g id="line2d_2"/>
     <g id="text_2">
      <!-- 4 -->
      <g transform="translate(148.874167 206.00032) scale(0.085 -0.085)">
       <defs>
        <path id="DejaVuSerif-17" d="M 2234 1581 
L 2234 4063 
L 641 1581 
L 2234 1581 
z
M 3609 0 
L 1484 0 
L 1484 331 
L 2234 331 
L 2234 1247 
L 197 1247 
L 197 1588 
L 2241 4750 
L 2859 4750 
L 2859 1581 
L 3750 1581 
L 3750 1247 
L 2859 1247 
L 2859 331 
L 3609 331 
L 3609 0 
z
" transform="scale(0.015625)"/>
       </defs>
       <use xlink:href="#DejaVuSerif-17"/>
      </g>
     </g>
    </g>
    <g id="xtick_3">
     <g id="line2d_3"/>
     <g id="text_3">
      <!-- 6 -->
      <g transform="translate(217.733742 206.00032) scale(0.085 -0.085)">
       <defs>
        <path id="DejaVuSerif-19" d="M 2094 219 
Q 2534 219 2771 542 
Q 3009 866 3009 1472 
Q 3009 2078 2771 2401 
Q 2534 2725 2094 2725 
Q 1647 2725 1412 2412 
Q 1178 2100 1178 1509 
Q 1178 888 1415 553 
Q 1653 219 2094 219 
z
M 1075 2569 
Q 1288 2803 1556 2918 
Q 1825 3034 2163 3034 
Q 2859 3034 3264 2615 
Q 3669 2197 3669 1472 
Q 3669 763 3233 336 
Q 2797 -91 2069 -91 
Q 1278 -91 853 498 
Q 428 1088 428 2181 
Q 428 3406 931 4078 
Q 1434 4750 2350 4750 
Q 2597 4750 2869 4703 
Q 3141 4656 3425 4563 
L 3425 3794 
L 3072 3794 
Q 3034 4109 2831 4275 
Q 2628 4441 2284 4441 
Q 1678 4441 1381 3981 
Q 1084 3522 1075 2569 
z
" transform="scale(0.015625)"/>
       </defs>
       <use xlink:href="#DejaVuSerif-19"/>
      </g>
     </g>
    </g>
    <g id="xtick_4">
     <g id="line2d_4"/>
     <g id="text_4">
      <!-- 8 -->
      <g transform="translate(286.593316 206.00032) scale(0.085 -0.085)">
       <defs>
        <path id="DejaVuSerif-1b" d="M 2981 1275 
Q 2981 1775 2732 2051 
Q 2484 2328 2034 2328 
Q 1584 2328 1336 2051 
Q 1088 1775 1088 1275 
Q 1088 772 1336 495 
Q 1584 219 2034 219 
Q 2484 219 2732 495 
Q 2981 772 2981 1275 
z
M 2853 3541 
Q 2853 3966 2637 4203 
Q 2422 4441 2034 4441 
Q 1650 4441 1433 4203 
Q 1216 3966 1216 3541 
Q 1216 3113 1433 2875 
Q 1650 2638 2034 2638 
Q 2422 2638 2637 2875 
Q 2853 3113 2853 3541 
z
M 2516 2484 
Q 3047 2413 3344 2092 
Q 3641 1772 3641 1275 
Q 3641 619 3225 264 
Q 2809 -91 2034 -91 
Q 1263 -91 845 264 
Q 428 619 428 1275 
Q 428 1772 725 2092 
Q 1022 2413 1556 2484 
Q 1084 2569 832 2842 
Q 581 3116 581 3541 
Q 581 4103 968 4426 
Q 1356 4750 2034 4750 
Q 2713 4750 3100 4426 
Q 3488 4103 3488 3541 
Q 3488 3116 3236 2842 
Q 2984 2569 2516 2484 
z
" transform="scale(0.015625)"/>
       </defs>
       <use xlink:href="#DejaVuSerif-1b"/>
      </g>
     </g>
    </g>
    <g id="xtick_5">
     <g id="line2d_5"/>
     <g id="text_5">
      <!-- 10 -->
      <g transform="translate(352.748828 206.00032) scale(0.085 -0.085)">
       <defs>
        <path id="DejaVuSerif-14" d="M 909 0 
L 909 331 
L 1722 331 
L 1722 4213 
L 781 3603 
L 781 4013 
L 1919 4750 
L 2350 4750 
L 2350 331 
L 3163 331 
L 3163 0 
L 909 0 
z
" transform="scale(0.015625)"/>
        <path id="DejaVuSerif-13" d="M 2034 219 
Q 2513 219 2750 744 
Q 2988 1269 2988 2328 
Q 2988 3391 2750 3916 
Q 2513 4441 2034 4441 
Q 1556 4441 1318 3916 
Q 1081 3391 1081 2328 
Q 1081 1269 1318 744 
Q 1556 219 2034 219 
z
M 2034 -91 
Q 1275 -91 848 546 
Q 422 1184 422 2328 
Q 422 3475 848 4112 
Q 1275 4750 2034 4750 
Q 2797 4750 3222 4112 
Q 3647 3475 3647 2328 
Q 3647 1184 3222 546 
Q 2797 -91 2034 -91 
z
" transform="scale(0.015625)"/>
       </defs>
       <use xlink:href="#DejaVuSerif-14"/>
       <use xlink:href="#DejaVuSerif-13" transform="translate(63.625 0)"/>
      </g>
     </g>
    </g>
    <g id="text_6">
     <!-- Rank by weighted-F1 (1 = best) -->
     <g transform="translate(123.563516 218.880906) scale(0.09 -0.09)">
      <defs>
       <path id="DejaVuSerif-35" d="M 3066 2316 
Q 3284 2256 3442 2114 
Q 3600 1972 3725 1716 
L 4403 331 
L 4972 331 
L 4972 0 
L 3872 0 
L 3144 1484 
Q 2934 1916 2759 2042 
Q 2584 2169 2278 2169 
L 1581 2169 
L 1581 331 
L 2241 331 
L 2241 0 
L 353 0 
L 353 331 
L 947 331 
L 947 4331 
L 353 4331 
L 353 4666 
L 2719 4666 
Q 3400 4666 3770 4341 
Q 4141 4016 4141 3419 
Q 4141 2938 3870 2661 
Q 3600 2384 3066 2316 
z
M 1581 2503 
L 2503 2503 
Q 2975 2503 3200 2726 
Q 3425 2950 3425 3419 
Q 3425 3888 3200 4109 
Q 2975 4331 2503 4331 
L 1581 4331 
L 1581 2503 
z
" transform="scale(0.015625)"/>
       <path id="DejaVuSerif-44" d="M 2547 1044 
L 2547 1747 
L 1806 1747 
Q 1378 1747 1168 1562 
Q 959 1378 959 997 
Q 959 650 1171 447 
Q 1384 244 1747 244 
Q 2106 244 2326 466 
Q 2547 688 2547 1044 
z
M 3122 2075 
L 3122 331 
L 3634 331 
L 3634 0 
L 2547 0 
L 2547 359 
Q 2356 128 2106 18 
Q 1856 -91 1522 -91 
Q 969 -91 644 203 
Q 319 497 319 997 
Q 319 1513 691 1797 
Q 1063 2081 1741 2081 
L 2547 2081 
L 2547 2309 
Q 2547 2688 2317 2895 
Q 2088 3103 1672 3103 
Q 1328 3103 1125 2947 
Q 922 2791 872 2484 
L 575 2484 
L 575 3156 
Q 875 3284 1158 3348 
Q 1441 3413 1709 3413 
Q 2400 3413 2761 3070 
Q 3122 2728 3122 2075 
z
" transform="scale(0.015625)"/>
       <path id="DejaVuSerif-51" d="M 263 0 
L 263 331 
L 781 331 
L 781 2988 
L 231 2988 
L 231 3322 
L 1356 3322 
L 1356 2731 
Q 1516 3069 1770 3241 
Q 2025 3413 2363 3413 
Q 2913 3413 3172 3097 
Q 3431 2781 3431 2113 
L 3431 331 
L 3944 331 
L 3944 0 
L 2356 0 
L 2356 331 
L 2853 331 
L 2853 1931 
Q 2853 2541 2703 2767 
Q 2553 2994 2175 2994 
Q 1775 2994 1565 2701 
Q 1356 2409 1356 1850 
L 1356 331 
L 1856 331 
L 1856 0 
L 263 0 
z
" transform="scale(0.015625)"/>
       <path id="DejaVuSerif-4e" d="M 1831 0 
L 219 0 
L 219 331 
L 738 331 
L 738 4531 
L 184 4531 
L 184 4863 
L 1313 4863 
L 1313 1697 
L 2713 2988 
L 2234 2988 
L 2234 3322 
L 3738 3322 
L 3738 2988 
L 3169 2988 
L 2181 2075 
L 3444 331 
L 3922 331 
L 3922 0 
L 2284 0 
L 2284 331 
L 2759 331 
L 1766 1697 
L 1313 1275 
L 1313 331 
L 1831 331 
L 1831 0 
z
" transform="scale(0.015625)"/>
       <path id="DejaVuSerif-3" transform="scale(0.015625)"/>
       <path id="DejaVuSerif-45" d="M 738 331 
L 738 4531 
L 184 4531 
L 184 4863 
L 1313 4863 
L 1313 2803 
Q 1481 3116 1742 3264 
Q 2003 3413 2388 3413 
Q 3000 3413 3387 2928 
Q 3775 2444 3775 1663 
Q 3775 881 3387 395 
Q 3000 -91 2388 -91 
Q 2003 -91 1742 57 
Q 1481 206 1313 519 
L 1313 0 
L 184 0 
L 184 331 
L 738 331 
z
M 1313 1497 
Q 1313 897 1542 583 
Q 1772 269 2209 269 
Q 2650 269 2876 622 
Q 3103 975 3103 1663 
Q 3103 2353 2876 2703 
Q 2650 3053 2209 3053 
Q 1772 3053 1542 2737 
Q 1313 2422 1313 1825 
L 1313 1497 
z
" transform="scale(0.015625)"/>
       <path id="DejaVuSerif-5c" d="M 1381 -609 
L 1600 -56 
L 359 2988 
L -19 2988 
L -19 3322 
L 1509 3322 
L 1509 2988 
L 978 2988 
L 1913 703 
L 2847 2988 
L 2350 2988 
L 2350 3322 
L 3597 3322 
L 3597 2988 
L 3225 2988 
L 1703 -750 
Q 1547 -1138 1356 -1280 
Q 1166 -1422 819 -1422 
Q 672 -1422 517 -1397 
Q 363 -1372 206 -1325 
L 206 -691 
L 500 -691 
Q 519 -903 608 -995 
Q 697 -1088 884 -1088 
Q 1056 -1088 1161 -992 
Q 1266 -897 1381 -609 
z
" transform="scale(0.015625)"/>
       <path id="DejaVuSerif-5a" d="M 3072 3322 
L 3922 728 
L 4672 2988 
L 4191 2988 
L 4191 3322 
L 5394 3322 
L 5394 2988 
L 5025 2988 
L 4038 0 
L 3559 0 
L 2741 2484 
L 1919 0 
L 1459 0 
L 475 2988 
L 103 2988 
L 103 3322 
L 1606 3322 
L 1606 2988 
L 1069 2988 
L 1813 728 
L 2669 3322 
L 3072 3322 
z
" transform="scale(0.015625)"/>
       <path id="DejaVuSerif-48" d="M 3469 1600 
L 991 1600 
L 991 1575 
Q 991 903 1244 561 
Q 1497 219 1991 219 
Q 2369 219 2611 417 
Q 2853 616 2950 1006 
L 3413 1006 
Q 3275 459 2904 184 
Q 2534 -91 1931 -91 
Q 1203 -91 761 389 
Q 319 869 319 1663 
Q 319 2450 753 2931 
Q 1188 3413 1894 3413 
Q 2647 3413 3050 2948 
Q 3453 2484 3469 1600 
z
M 2791 1931 
Q 2772 2513 2545 2808 
Q 2319 3103 1894 3103 
Q 1497 3103 1269 2806 
Q 1041 2509 991 1931 
L 2791 1931 
z
" transform="scale(0.015625)"/>
       <path id="DejaVuSerif-4c" d="M 622 4353 
Q 622 4497 726 4603 
Q 831 4709 978 4709 
Q 1122 4709 1226 4603 
Q 1331 4497 1331 4353 
Q 1331 4206 1228 4103 
Q 1125 4000 978 4000 
Q 831 4000 726 4103 
Q 622 4206 622 4353 
z
M 1356 331 
L 1900 331 
L 1900 0 
L 231 0 
L 231 331 
L 781 331 
L 781 2988 
L 231 2988 
L 231 3322 
L 1356 3322 
L 1356 331 
z
" transform="scale(0.015625)"/>
       <path id="DejaVuSerif-4a" d="M 3359 2988 
L 3359 72 
Q 3359 -644 2965 -1033 
Q 2572 -1422 1844 -1422 
Q 1516 -1422 1216 -1362 
Q 916 -1303 641 -1184 
L 641 -488 
L 941 -488 
Q 997 -813 1206 -963 
Q 1416 -1113 1806 -1113 
Q 2313 -1113 2548 -827 
Q 2784 -541 2784 72 
L 2784 519 
Q 2616 206 2355 57 
Q 2094 -91 1709 -91 
Q 1097 -91 708 395 
Q 319 881 319 1663 
Q 319 2444 706 2928 
Q 1094 3413 1709 3413 
Q 2094 3413 2355 3264 
Q 2616 3116 2784 2803 
L 2784 3322 
L 3909 3322 
L 3909 2988 
L 3359 2988 
z
M 2784 1825 
Q 2784 2422 2554 2737 
Q 2325 3053 1888 3053 
Q 1444 3053 1217 2703 
Q 991 2353 991 1663 
Q 991 975 1217 622 
Q 1444 269 1888 269 
Q 2325 269 2554 583 
Q 2784 897 2784 1497 
L 2784 1825 
z
" transform="scale(0.015625)"/>
       <path id="DejaVuSerif-4b" d="M 263 0 
L 263 331 
L 781 331 
L 781 4531 
L 231 4531 
L 231 4863 
L 1356 4863 
L 1356 2731 
Q 1516 3069 1770 3241 
Q 2025 3413 2363 3413 
Q 2913 3413 3172 3097 
Q 3431 2781 3431 2113 
L 3431 331 
L 3944 331 
L 3944 0 
L 2356 0 
L 2356 331 
L 2853 331 
L 2853 1931 
Q 2853 2541 2704 2764 
Q 2556 2988 2175 2988 
Q 1775 2988 1565 2697 
Q 1356 2406 1356 1850 
L 1356 331 
L 1856 331 
L 1856 0 
L 263 0 
z
" transform="scale(0.015625)"/>
       <path id="DejaVuSerif-57" d="M 691 2988 
L 184 2988 
L 184 3322 
L 691 3322 
L 691 4353 
L 1269 4353 
L 1269 3322 
L 2350 3322 
L 2350 2988 
L 1269 2988 
L 1269 878 
Q 1269 456 1350 337 
Q 1431 219 1650 219 
Q 1875 219 1978 351 
Q 2081 484 2088 781 
L 2522 781 
Q 2497 328 2275 118 
Q 2053 -91 1600 -91 
Q 1103 -91 897 129 
Q 691 350 691 878 
L 691 2988 
z
" transform="scale(0.015625)"/>
       <path id="DejaVuSerif-47" d="M 3359 331 
L 3909 331 
L 3909 0 
L 2784 0 
L 2784 519 
Q 2616 206 2355 57 
Q 2094 -91 1709 -91 
Q 1097 -91 708 395 
Q 319 881 319 1663 
Q 319 2444 706 2928 
Q 1094 3413 1709 3413 
Q 2094 3413 2355 3264 
Q 2616 3116 2784 2803 
L 2784 4531 
L 2241 4531 
L 2241 4863 
L 3359 4863 
L 3359 331 
z
M 2784 1497 
L 2784 1825 
Q 2784 2422 2554 2737 
Q 2325 3053 1888 3053 
Q 1444 3053 1217 2703 
Q 991 2353 991 1663 
Q 991 975 1217 622 
Q 1444 269 1888 269 
Q 2325 269 2554 583 
Q 2784 897 2784 1497 
z
" transform="scale(0.015625)"/>
       <path id="DejaVuSerif-10" d="M 281 1959 
L 1881 1959 
L 1881 1472 
L 281 1472 
L 281 1959 
z
" transform="scale(0.015625)"/>
       <path id="DejaVuSerif-29" d="M 353 0 
L 353 331 
L 947 331 
L 947 4331 
L 353 4331 
L 353 4666 
L 4172 4666 
L 4172 3628 
L 3788 3628 
L 3788 4281 
L 1581 4281 
L 1581 2719 
L 3175 2719 
L 3175 3303 
L 3559 3303 
L 3559 1753 
L 3175 1753 
L 3175 2338 
L 1581 2338 
L 1581 331 
L 2328 331 
L 2328 0 
L 353 0 
z
" transform="scale(0.015625)"/>
       <path id="DejaVuSerif-b" d="M 2041 -997 
Q 1281 -656 893 83 
Q 506 822 506 1931 
Q 506 3044 893 3783 
Q 1281 4522 2041 4863 
L 2041 4556 
Q 1559 4225 1350 3623 
Q 1141 3022 1141 1931 
Q 1141 844 1350 242 
Q 1559 -359 2041 -691 
L 2041 -997 
z
" transform="scale(0.015625)"/>
       <path id="DejaVuSerif-20" d="M 678 2894 
L 4684 2894 
L 4684 2394 
L 678 2394 
L 678 2894 
z
M 678 1619 
L 4684 1619 
L 4684 1119 
L 678 1119 
L 678 1619 
z
" transform="scale(0.015625)"/>
       <path id="DejaVuSerif-56" d="M 359 184 
L 359 959 
L 691 959 
Q 703 588 923 403 
Q 1144 219 1575 219 
Q 1963 219 2166 364 
Q 2369 509 2369 788 
Q 2369 1006 2220 1140 
Q 2072 1275 1594 1428 
L 1178 1569 
Q 750 1706 558 1912 
Q 366 2119 366 2438 
Q 366 2894 700 3153 
Q 1034 3413 1625 3413 
Q 1888 3413 2178 3344 
Q 2469 3275 2778 3144 
L 2778 2419 
L 2447 2419 
Q 2434 2741 2221 2922 
Q 2009 3103 1644 3103 
Q 1281 3103 1095 2975 
Q 909 2847 909 2591 
Q 909 2381 1050 2254 
Q 1191 2128 1613 1997 
L 2069 1856 
Q 2541 1709 2748 1489 
Q 2956 1269 2956 922 
Q 2956 450 2595 179 
Q 2234 -91 1600 -91 
Q 1278 -91 972 -22 
Q 666 47 359 184 
z
" transform="scale(0.015625)"/>
       <path id="DejaVuSerif-c" d="M 453 -997 
L 453 -691 
Q 934 -359 1145 242 
Q 1356 844 1356 1931 
Q 1356 3022 1145 3623 
Q 934 4225 453 4556 
L 453 4863 
Q 1216 4522 1603 3783 
Q 1991 3044 1991 1931 
Q 1991 822 1603 83 
Q 1216 -656 453 -997 
z
" transform="scale(0.015625)"/>
      </defs>
      <use xlink:href="#DejaVuSerif-35"/>
      <use xlink:href="#DejaVuSerif-44" transform="translate(77.59375 0)"/>
      <use xlink:href="#DejaVuSerif-51" transform="translate(137.21875 0)"/>
      <use xlink:href="#DejaVuSerif-4e" transform="translate(201.625 0)"/>
      <use xlink:href="#DejaVuSerif-3" transform="translate(262.21875 0)"/>
      <use xlink:href="#DejaVuSerif-45" transform="translate(294 0)"/>
      <use xlink:href="#DejaVuSerif-5c" transform="translate(358.015625 0)"/>
      <use xlink:href="#DejaVuSerif-3" transform="translate(414.515625 0)"/>
      <use xlink:href="#DejaVuSerif-5a" transform="translate(446.296875 0)"/>
      <use xlink:href="#DejaVuSerif-48" transform="translate(531.890625 0)"/>
      <use xlink:href="#DejaVuSerif-4c" transform="translate(591.078125 0)"/>
      <use xlink:href="#DejaVuSerif-4a" transform="translate(623.0625 0)"/>
      <use xlink:href="#DejaVuSerif-4b" transform="translate(687.078125 0)"/>
      <use xlink:href="#DejaVuSerif-57" transform="translate(751.484375 0)"/>
      <use xlink:href="#DejaVuSerif-48" transform="translate(791.671875 0)"/>
      <use xlink:href="#DejaVuSerif-47" transform="translate(850.859375 0)"/>
      <use xlink:href="#DejaVuSerif-10" transform="translate(914.875 0)"/>
      <use xlink:href="#DejaVuSerif-29" transform="translate(948.671875 0)"/>
      <use xlink:href="#DejaVuSerif-14" transform="translate(1018.0625 0)"/>
      <use xlink:href="#DejaVuSerif-3" transform="translate(1081.6875 0)"/>
      <use xlink:href="#DejaVuSerif-b" transform="translate(1113.46875 0)"/>
      <use xlink:href="#DejaVuSerif-14" transform="translate(1152.484375 0)"/>
      <use xlink:href="#DejaVuSerif-3" transform="translate(1216.109375 0)"/>
      <use xlink:href="#DejaVuSerif-20" transform="translate(1247.890625 0)"/>
      <use xlink:href="#DejaVuSerif-3" transform="translate(1331.6875 0)"/>
      <use xlink:href="#DejaVuSerif-45" transform="translate(1363.46875 0)"/>
      <use xlink:href="#DejaVuSerif-48" transform="translate(1427.484375 0)"/>
      <use xlink:href="#DejaVuSerif-56" transform="translate(1486.671875 0)"/>
      <use xlink:href="#DejaVuSerif-57" transform="translate(1537.984375 0)"/>
      <use xlink:href="#DejaVuSerif-c" transform="translate(1578.171875 0)"/>
     </g>
    </g>
   </g>
   <g id="matplotlib.axis_2">
    <g id="ytick_1">
     <g id="line2d_6">
      <path d="M 34.516953 47.41593 
L 358.156953 47.41593 
" clip-path="url(#pec8c06594d)" style="fill: none; stroke-dasharray: 2.59,1.12; stroke-dashoffset: 0; stroke: #e6e6e6; stroke-width: 0.7"/>
     </g>
     <g id="line2d_7"/>
     <g id="text_7">
      <!-- 2 -->
      <g transform="translate(25.608828 50.644933) scale(0.085 -0.085)">
       <use xlink:href="#DejaVuSerif-15"/>
      </g>
     </g>
    </g>
    <g id="ytick_2">
     <g id="line2d_8">
      <path d="M 34.516953 84.572525 
L 358.156953 84.572525 
" clip-path="url(#pec8c06594d)" style="fill: none; stroke-dasharray: 2.59,1.12; stroke-dashoffset: 0; stroke: #e6e6e6; stroke-width: 0.7"/>
     </g>
     <g id="line2d_9"/>
     <g id="text_8">
      <!-- 4 -->
      <g transform="translate(25.608828 87.801529) scale(0.085 -0.085)">
       <use xlink:href="#DejaVuSerif-17"/>
      </g>
     </g>
    </g>
    <g id="ytick_3">
     <g id="line2d_10">
      <path d="M 34.516953 121.729121 
L 358.156953 121.729121 
" clip-path="url(#pec8c06594d)" style="fill: none; stroke-dasharray: 2.59,1.12; stroke-dashoffset: 0; stroke: #e6e6e6; stroke-width: 0.7"/>
     </g>
     <g id="line2d_11"/>
     <g id="text_9">
      <!-- 6 -->
      <g transform="translate(25.608828 124.958125) scale(0.085 -0.085)">
       <use xlink:href="#DejaVuSerif-19"/>
      </g>
     </g>
    </g>
    <g id="ytick_4">
     <g id="line2d_12">
      <path d="M 34.516953 158.885717 
L 358.156953 158.885717 
" clip-path="url(#pec8c06594d)" style="fill: none; stroke-dasharray: 2.59,1.12; stroke-dashoffset: 0; stroke: #e6e6e6; stroke-width: 0.7"/>
     </g>
     <g id="line2d_13"/>
     <g id="text_10">
      <!-- 8 -->
      <g transform="translate(25.608828 162.114721) scale(0.085 -0.085)">
       <use xlink:href="#DejaVuSerif-1b"/>
      </g>
     </g>
    </g>
    <g id="ytick_5">
     <g id="line2d_14">
      <path d="M 34.516953 196.042312 
L 358.156953 196.042312 
" clip-path="url(#pec8c06594d)" style="fill: none; stroke-dasharray: 2.59,1.12; stroke-dashoffset: 0; stroke: #e6e6e6; stroke-width: 0.7"/>
     </g>
     <g id="line2d_15"/>
     <g id="text_11">
      <!-- 10 -->
      <g transform="translate(20.200703 199.271316) scale(0.085 -0.085)">
       <use xlink:href="#DejaVuSerif-14"/>
       <use xlink:href="#DejaVuSerif-13" transform="translate(63.625 0)"/>
      </g>
     </g>
    </g>
    <g id="text_12">
     <!-- Rank by attack-F1 (1 = best) -->
     <g transform="translate(14.038594 174.562828) rotate(-90) scale(0.09 -0.09)">
      <defs>
       <path id="DejaVuSerif-46" d="M 3291 997 
Q 3169 466 2822 187 
Q 2475 -91 1925 -91 
Q 1200 -91 759 389 
Q 319 869 319 1663 
Q 319 2459 759 2936 
Q 1200 3413 1925 3413 
Q 2241 3413 2553 3339 
Q 2866 3266 3181 3116 
L 3181 2266 
L 2847 2266 
Q 2781 2703 2561 2903 
Q 2341 3103 1931 3103 
Q 1466 3103 1228 2742 
Q 991 2381 991 1663 
Q 991 944 1227 581 
Q 1463 219 1931 219 
Q 2303 219 2525 412 
Q 2747 606 2828 997 
L 3291 997 
z
" transform="scale(0.015625)"/>
      </defs>
      <use xlink:href="#DejaVuSerif-35"/>
      <use xlink:href="#DejaVuSerif-44" transform="translate(77.59375 0)"/>
      <use xlink:href="#DejaVuSerif-51" transform="translate(137.21875 0)"/>
      <use xlink:href="#DejaVuSerif-4e" transform="translate(201.625 0)"/>
      <use xlink:href="#DejaVuSerif-3" transform="translate(262.21875 0)"/>
      <use xlink:href="#DejaVuSerif-45" transform="translate(294 0)"/>
      <use xlink:href="#DejaVuSerif-5c" transform="translate(358.015625 0)"/>
      <use xlink:href="#DejaVuSerif-3" transform="translate(414.515625 0)"/>
      <use xlink:href="#DejaVuSerif-44" transform="translate(446.296875 0)"/>
      <use xlink:href="#DejaVuSerif-57" transform="translate(505.921875 0)"/>
      <use xlink:href="#DejaVuSerif-57" transform="translate(546.109375 0)"/>
      <use xlink:href="#DejaVuSerif-44" transform="translate(586.296875 0)"/>
      <use xlink:href="#DejaVuSerif-46" transform="translate(645.921875 0)"/>
      <use xlink:href="#DejaVuSerif-4e" transform="translate(701.921875 0)"/>
      <use xlink:href="#DejaVuSerif-10" transform="translate(760.765625 0)"/>
      <use xlink:href="#DejaVuSerif-29" transform="translate(794.5625 0)"/>
      <use xlink:href="#DejaVuSerif-14" transform="translate(863.953125 0)"/>
      <use xlink:href="#DejaVuSerif-3" transform="translate(927.578125 0)"/>
      <use xlink:href="#DejaVuSerif-b" transform="translate(959.359375 0)"/>
      <use xlink:href="#DejaVuSerif-14" transform="translate(998.375 0)"/>
      <use xlink:href="#DejaVuSerif-3" transform="translate(1062 0)"/>
      <use xlink:href="#DejaVuSerif-20" transform="translate(1093.78125 0)"/>
      <use xlink:href="#DejaVuSerif-3" transform="translate(1177.578125 0)"/>
      <use xlink:href="#DejaVuSerif-45" transform="translate(1209.359375 0)"/>
      <use xlink:href="#DejaVuSerif-48" transform="translate(1273.375 0)"/>
      <use xlink:href="#DejaVuSerif-56" transform="translate(1332.5625 0)"/>
      <use xlink:href="#DejaVuSerif-57" transform="translate(1383.875 0)"/>
      <use xlink:href="#DejaVuSerif-c" transform="translate(1424.0625 0)"/>
     </g>
    </g>
   </g>
   <g id="PathCollection_1">
    <defs>
     <path id="mf631bcabe8" d="M -4.609772 4.609772 
L 4.609772 -4.609772 
M -4.609772 -4.609772 
L 4.609772 4.609772 
" style="stroke: #565656; stroke-width: 2"/>
    </defs>
    <g clip-path="url(#pec8c06594d)">
     <use xlink:href="#mf631bcabe8" x="48.288868" y="158.885717" style="fill: #565656; stroke: #565656; stroke-width: 2"/>
     <use xlink:href="#mf631bcabe8" x="48.288868" y="177.464015" style="fill: #565656; stroke: #565656; stroke-width: 2"/>
     <use xlink:href="#mf631bcabe8" x="48.288868" y="158.885717" style="fill: #565656; stroke: #565656; stroke-width: 2"/>
     <use xlink:href="#mf631bcabe8" x="48.288868" y="158.885717" style="fill: #565656; stroke: #565656; stroke-width: 2"/>
    </g>
   </g>
   <g id="PathCollection_2">
    <defs>
     <path id="m764cbdee6b" d="M 0 -4.873397 
L -1.094146 -1.505963 
L -4.634876 -1.505963 
L -1.770365 0.575226 
L -2.864511 3.942661 
L -0 1.861472 
L 2.864511 3.942661 
L 1.770365 0.575226 
L 4.634876 -1.505963 
L 1.094146 -1.505963 
z
" style="stroke: #7a1115; stroke-width: 0.5"/>
    </defs>
    <g clip-path="url(#pec8c06594d)">
     <use xlink:href="#m764cbdee6b" x="82.718655" y="47.41593" style="fill: #c82127; stroke: #7a1115; stroke-width: 0.5"/>
     <use xlink:href="#m764cbdee6b" x="82.718655" y="28.837632" style="fill: #c82127; stroke: #7a1115; stroke-width: 0.5"/>
     <use xlink:href="#m764cbdee6b" x="82.718655" y="28.837632" style="fill: #c82127; stroke: #7a1115; stroke-width: 0.5"/>
     <use xlink:href="#m764cbdee6b" x="82.718655" y="28.837632" style="fill: #c82127; stroke: #7a1115; stroke-width: 0.5"/>
    </g>
   </g>
   <g id="line2d_16">
    <path d="M 37.959932 23.264142 
L 358.156953 196.042312 
" clip-path="url(#pec8c06594d)" style="fill: none; stroke-dasharray: 3.33,1.44; stroke-dashoffset: 0; stroke: #bdbdbd; stroke-width: 0.9"/>
   </g>
   <g id="patch_3">
    <path d="M 34.516953 196.042312 
L 34.516953 21.406312 
" style="fill: none; stroke: #333333; stroke-width: 0.8; stroke-linejoin: miter; stroke-linecap: square"/>
   </g>
   <g id="patch_4">
    <path d="M 34.516953 196.042312 
L 358.156953 196.042312 
" style="fill: none; stroke: #333333; stroke-width: 0.8; stroke-linejoin: miter; stroke-linecap: square"/>
   </g>
   <g id="text_13">
    <!-- T01/T03/T04 -->
    <g style="fill: #565656" transform="translate(56.288868 152.885717) scale(0.08 -0.08)">
     <defs>
      <path id="DejaVuSerif-37" d="M 1222 0 
L 1222 331 
L 1819 331 
L 1819 4294 
L 447 4294 
L 447 3566 
L 63 3566 
L 63 4666 
L 4206 4666 
L 4206 3566 
L 3822 3566 
L 3822 4294 
L 2450 4294 
L 2450 331 
L 3047 331 
L 3047 0 
L 1222 0 
z
" transform="scale(0.015625)"/>
      <path id="DejaVuSerif-12" d="M 1656 4666 
L 2156 4666 
L 500 -594 
L 0 -594 
L 1656 4666 
z
" transform="scale(0.015625)"/>
      <path id="DejaVuSerif-16" d="M 622 4469 
Q 988 4606 1323 4678 
Q 1659 4750 1953 4750 
Q 2638 4750 3022 4454 
Q 3406 4159 3406 3634 
Q 3406 3213 3140 2930 
Q 2875 2647 2388 2547 
Q 2963 2466 3280 2130 
Q 3597 1794 3597 1259 
Q 3597 606 3158 257 
Q 2719 -91 1894 -91 
Q 1528 -91 1179 -12 
Q 831 66 488 225 
L 488 1131 
L 838 1131 
Q 869 681 1141 450 
Q 1413 219 1906 219 
Q 2384 219 2661 495 
Q 2938 772 2938 1253 
Q 2938 1803 2653 2086 
Q 2369 2369 1819 2369 
L 1522 2369 
L 1522 2688 
L 1678 2688 
Q 2225 2688 2498 2914 
Q 2772 3141 2772 3597 
Q 2772 4006 2547 4223 
Q 2322 4441 1900 4441 
Q 1478 4441 1245 4241 
Q 1013 4041 972 3647 
L 622 3647 
L 622 4469 
z
" transform="scale(0.015625)"/>
     </defs>
     <use xlink:href="#DejaVuSerif-37"/>
     <use xlink:href="#DejaVuSerif-13" transform="translate(66.703125 0)"/>
     <use xlink:href="#DejaVuSerif-14" transform="translate(130.328125 0)"/>
     <use xlink:href="#DejaVuSerif-12" transform="translate(193.953125 0)"/>
     <use xlink:href="#DejaVuSerif-37" transform="translate(227.640625 0)"/>
     <use xlink:href="#DejaVuSerif-13" transform="translate(294.34375 0)"/>
     <use xlink:href="#DejaVuSerif-16" transform="translate(357.96875 0)"/>
     <use xlink:href="#DejaVuSerif-12" transform="translate(421.59375 0)"/>
     <use xlink:href="#DejaVuSerif-37" transform="translate(455.28125 0)"/>
     <use xlink:href="#DejaVuSerif-13" transform="translate(521.984375 0)"/>
     <use xlink:href="#DejaVuSerif-17" transform="translate(585.609375 0)"/>
    </g>
   </g>
   <g id="text_14">
    <!-- T02 -->
    <g style="fill: #565656" transform="translate(56.288868 189.464015) scale(0.08 -0.08)">
     <use xlink:href="#DejaVuSerif-37"/>
     <use xlink:href="#DejaVuSerif-13" transform="translate(66.703125 0)"/>
     <use xlink:href="#DejaVuSerif-15" transform="translate(130.328125 0)"/>
    </g>
   </g>
   <g id="text_15">
    <!-- T01 -->
    <g style="fill: #7a1115" transform="translate(90.718655 61.41593) scale(0.08 -0.08)">
     <defs>
      <path id="DejaVuSerif-Bold-37" d="M 1159 0 
L 1159 378 
L 1778 378 
L 1778 4238 
L 500 4238 
L 500 3500 
L 72 3500 
L 72 4666 
L 4697 4666 
L 4697 3500 
L 4275 3500 
L 4275 4238 
L 2988 4238 
L 2988 378 
L 3609 378 
L 3609 0 
L 1159 0 
z
" transform="scale(0.015625)"/>
      <path id="DejaVuSerif-Bold-13" d="M 2228 275 
Q 2603 275 2742 615 
Q 2881 956 2881 2328 
Q 2881 3691 2742 4037 
Q 2603 4384 2228 4384 
Q 1853 4384 1714 4043 
Q 1575 3703 1575 2328 
Q 1575 956 1714 615 
Q 1853 275 2228 275 
z
M 2228 -91 
Q 1294 -91 797 532 
Q 300 1156 300 2328 
Q 300 3500 797 4125 
Q 1294 4750 2228 4750 
Q 3159 4750 3656 4125 
Q 4153 3500 4153 2328 
Q 4153 1156 3656 532 
Q 3159 -91 2228 -91 
z
" transform="scale(0.015625)"/>
      <path id="DejaVuSerif-Bold-14" d="M 878 0 
L 878 378 
L 1753 378 
L 1753 4153 
L 781 3578 
L 781 4044 
L 1953 4750 
L 2938 4750 
L 2938 378 
L 3816 378 
L 3816 0 
L 878 0 
z
" transform="scale(0.015625)"/>
     </defs>
     <use xlink:href="#DejaVuSerif-Bold-37"/>
     <use xlink:href="#DejaVuSerif-Bold-13" transform="translate(74.421875 0)"/>
     <use xlink:href="#DejaVuSerif-Bold-14" transform="translate(144 0)"/>
    </g>
   </g>
   <g id="text_16">
    <!-- T02/T03/T04 -->
    <g style="fill: #7a1115" transform="translate(90.718655 42.837632) scale(0.08 -0.08)">
     <defs>
      <path id="DejaVuSerif-Bold-15" d="M 844 3513 
L 469 3513 
L 469 4519 
Q 850 4634 1223 4692 
Q 1597 4750 1978 4750 
Q 2869 4750 3367 4386 
Q 3866 4022 3866 3372 
Q 3866 2909 3591 2542 
Q 3316 2175 2541 1672 
L 1241 819 
L 3450 819 
L 3450 1369 
L 3878 1369 
L 3878 0 
L 428 0 
L 428 763 
L 1119 1241 
Q 2003 1850 2297 2278 
Q 2591 2706 2591 3278 
Q 2591 3819 2367 4101 
Q 2144 4384 1716 4384 
Q 1347 4384 1125 4161 
Q 903 3938 844 3513 
z
" transform="scale(0.015625)"/>
      <path id="DejaVuSerif-Bold-12" d="M 1644 4666 
L 2338 4666 
L 691 -594 
L 0 -594 
L 1644 4666 
z
" transform="scale(0.015625)"/>
      <path id="DejaVuSerif-Bold-16" d="M 550 4531 
Q 963 4641 1350 4695 
Q 1738 4750 2106 4750 
Q 2950 4750 3401 4448 
Q 3853 4147 3853 3584 
Q 3853 3163 3593 2900 
Q 3334 2638 2834 2547 
Q 3444 2450 3744 2131 
Q 4044 1813 4044 1259 
Q 4044 606 3526 257 
Q 3009 -91 2028 -91 
Q 1659 -91 1267 -28 
Q 875 34 447 159 
L 447 1184 
L 825 1184 
Q 859 741 1103 508 
Q 1347 275 1778 275 
Q 2253 275 2512 539 
Q 2772 803 2772 1288 
Q 2772 1794 2501 2069 
Q 2231 2344 1734 2344 
L 1528 2344 
L 1528 2719 
L 1691 2719 
Q 2150 2719 2381 2931 
Q 2613 3144 2613 3566 
Q 2613 3963 2395 4173 
Q 2178 4384 1772 4384 
Q 1403 4384 1187 4182 
Q 972 3981 928 3597 
L 550 3597 
L 550 4531 
z
" transform="scale(0.015625)"/>
      <path id="DejaVuSerif-Bold-17" d="M 4084 0 
L 1516 0 
L 1516 378 
L 2209 378 
L 2209 1228 
L 263 1228 
L 263 1588 
L 2216 4750 
L 3391 4750 
L 3391 1631 
L 4191 1631 
L 4191 1228 
L 3391 1228 
L 3391 378 
L 4084 378 
L 4084 0 
z
M 2209 1631 
L 2209 3897 
L 819 1631 
L 2209 1631 
z
" transform="scale(0.015625)"/>
     </defs>
     <use xlink:href="#DejaVuSerif-Bold-37"/>
     <use xlink:href="#DejaVuSerif-Bold-13" transform="translate(74.421875 0)"/>
     <use xlink:href="#DejaVuSerif-Bold-15" transform="translate(144 0)"/>
     <use xlink:href="#DejaVuSerif-Bold-12" transform="translate(213.578125 0)"/>
     <use xlink:href="#DejaVuSerif-Bold-37" transform="translate(250.109375 0)"/>
     <use xlink:href="#DejaVuSerif-Bold-13" transform="translate(324.53125 0)"/>
     <use xlink:href="#DejaVuSerif-Bold-16" transform="translate(394.109375 0)"/>
     <use xlink:href="#DejaVuSerif-Bold-12" transform="translate(463.6875 0)"/>
     <use xlink:href="#DejaVuSerif-Bold-37" transform="translate(500.21875 0)"/>
     <use xlink:href="#DejaVuSerif-Bold-13" transform="translate(574.640625 0)"/>
     <use xlink:href="#DejaVuSerif-Bold-17" transform="translate(644.21875 0)"/>
    </g>
   </g>
   <g id="text_17">
    <!-- Ranking Inversion Under Normal-Dominated Metrics -->
    <g transform="translate(50.324328 15.406312) scale(0.108 -0.108)">
     <defs>
      <path id="DejaVuSerif-2c" d="M 1581 331 
L 2175 331 
L 2175 0 
L 353 0 
L 353 331 
L 947 331 
L 947 4331 
L 353 4331 
L 353 4666 
L 2175 4666 
L 2175 4331 
L 1581 4331 
L 1581 331 
z
" transform="scale(0.015625)"/>
      <path id="DejaVuSerif-59" d="M 1581 0 
L 359 2988 
L -19 2988 
L -19 3322 
L 1509 3322 
L 1509 2988 
L 978 2988 
L 1913 703 
L 2847 2988 
L 2350 2988 
L 2350 3322 
L 3597 3322 
L 3597 2988 
L 3225 2988 
L 2003 0 
L 1581 0 
z
" transform="scale(0.015625)"/>
      <path id="DejaVuSerif-55" d="M 3059 3328 
L 3059 2497 
L 2728 2497 
Q 2713 2744 2591 2866 
Q 2469 2988 2234 2988 
Q 1809 2988 1582 2694 
Q 1356 2400 1356 1850 
L 1356 331 
L 2022 331 
L 2022 0 
L 263 0 
L 263 331 
L 781 331 
L 781 2994 
L 231 2994 
L 231 3322 
L 1356 3322 
L 1356 2731 
Q 1525 3078 1790 3245 
Q 2056 3413 2438 3413 
Q 2578 3413 2733 3391 
Q 2888 3369 3059 3328 
z
" transform="scale(0.015625)"/>
      <path id="DejaVuSerif-52" d="M 1925 219 
Q 2388 219 2623 584 
Q 2859 950 2859 1663 
Q 2859 2375 2623 2739 
Q 2388 3103 1925 3103 
Q 1463 3103 1227 2739 
Q 991 2375 991 1663 
Q 991 950 1228 584 
Q 1466 219 1925 219 
z
M 1925 -91 
Q 1200 -91 759 389 
Q 319 869 319 1663 
Q 319 2456 758 2934 
Q 1197 3413 1925 3413 
Q 2653 3413 3092 2934 
Q 3531 2456 3531 1663 
Q 3531 869 3092 389 
Q 2653 -91 1925 -91 
z
" transform="scale(0.015625)"/>
      <path id="DejaVuSerif-38" d="M 897 4331 
L 300 4331 
L 300 4666 
L 2125 4666 
L 2125 4331 
L 1528 4331 
L 1528 1919 
Q 1528 1025 1820 672 
Q 2113 319 2828 319 
Q 3544 319 3836 672 
Q 4128 1025 4128 1919 
L 4128 4331 
L 3531 4331 
L 3531 4666 
L 5106 4666 
L 5106 4331 
L 4513 4331 
L 4513 1856 
Q 4513 791 4103 350 
Q 3694 -91 2713 -91 
Q 1731 -91 1314 353 
Q 897 797 897 1856 
L 897 4331 
z
" transform="scale(0.015625)"/>
      <path id="DejaVuSerif-31" d="M 313 0 
L 313 331 
L 941 331 
L 941 4331 
L 313 4331 
L 313 4666 
L 1509 4666 
L 4306 984 
L 4306 4331 
L 3681 4331 
L 3681 4666 
L 5319 4666 
L 5319 4331 
L 4691 4331 
L 4691 -91 
L 4313 -91 
L 1325 3841 
L 1325 331 
L 1953 331 
L 1953 0 
L 313 0 
z
" transform="scale(0.015625)"/>
      <path id="DejaVuSerif-50" d="M 3316 2675 
Q 3481 3041 3739 3227 
Q 3997 3413 4341 3413 
Q 4863 3413 5119 3089 
Q 5375 2766 5375 2113 
L 5375 331 
L 5894 331 
L 5894 0 
L 4300 0 
L 4300 331 
L 4800 331 
L 4800 2047 
Q 4800 2556 4650 2772 
Q 4500 2988 4153 2988 
Q 3769 2988 3567 2697 
Q 3366 2406 3366 1850 
L 3366 331 
L 3866 331 
L 3866 0 
L 2291 0 
L 2291 331 
L 2791 331 
L 2791 2069 
Q 2791 2566 2641 2777 
Q 2491 2988 2144 2988 
Q 1759 2988 1557 2697 
Q 1356 2406 1356 1850 
L 1356 331 
L 1856 331 
L 1856 0 
L 263 0 
L 263 331 
L 781 331 
L 781 2994 
L 231 2994 
L 231 3322 
L 1356 3322 
L 1356 2731 
Q 1516 3063 1762 3238 
Q 2009 3413 2322 3413 
Q 2709 3413 2968 3220 
Q 3228 3028 3316 2675 
z
" transform="scale(0.015625)"/>
      <path id="DejaVuSerif-4f" d="M 1313 331 
L 1856 331 
L 1856 0 
L 184 0 
L 184 331 
L 738 331 
L 738 4531 
L 184 4531 
L 184 4863 
L 1313 4863 
L 1313 331 
z
" transform="scale(0.015625)"/>
      <path id="DejaVuSerif-27" d="M 1581 331 
L 2163 331 
Q 3072 331 3558 850 
Q 4044 1369 4044 2338 
Q 4044 3306 3559 3818 
Q 3075 4331 2163 4331 
L 1581 4331 
L 1581 331 
z
M 353 0 
L 353 331 
L 947 331 
L 947 4331 
L 353 4331 
L 353 4666 
L 2209 4666 
Q 3416 4666 4089 4050 
Q 4763 3434 4763 2338 
Q 4763 1238 4088 619 
Q 3413 0 2209 0 
L 353 0 
z
" transform="scale(0.015625)"/>
      <path id="DejaVuSerif-30" d="M 353 0 
L 353 331 
L 947 331 
L 947 4331 
L 319 4331 
L 319 4666 
L 1678 4666 
L 3316 1344 
L 4953 4666 
L 6228 4666 
L 6228 4331 
L 5606 4331 
L 5606 331 
L 6203 331 
L 6203 0 
L 4378 0 
L 4378 331 
L 4972 331 
L 4972 3938 
L 3372 684 
L 2931 684 
L 1331 3938 
L 1331 331 
L 1925 331 
L 1925 0 
L 353 0 
z
" transform="scale(0.015625)"/>
     </defs>
     <use xlink:href="#DejaVuSerif-35"/>
     <use xlink:href="#DejaVuSerif-44" transform="translate(77.59375 0)"/>
     <use xlink:href="#DejaVuSerif-51" transform="translate(137.21875 0)"/>
     <use xlink:href="#DejaVuSerif-4e" transform="translate(201.625 0)"/>
     <use xlink:href="#DejaVuSerif-4c" transform="translate(262.21875 0)"/>
     <use xlink:href="#DejaVuSerif-51" transform="translate(294.203125 0)"/>
     <use xlink:href="#DejaVuSerif-4a" transform="translate(358.609375 0)"/>
     <use xlink:href="#DejaVuSerif-3" transform="translate(422.625 0)"/>
     <use xlink:href="#DejaVuSerif-2c" transform="translate(454.40625 0)"/>
     <use xlink:href="#DejaVuSerif-51" transform="translate(493.90625 0)"/>
     <use xlink:href="#DejaVuSerif-59" transform="translate(558.3125 0)"/>
     <use xlink:href="#DejaVuSerif-48" transform="translate(614.8125 0)"/>
     <use xlink:href="#DejaVuSerif-55" transform="translate(674 0)"/>
     <use xlink:href="#DejaVuSerif-56" transform="translate(721.796875 0)"/>
     <use xlink:href="#DejaVuSerif-4c" transform="translate(773.109375 0)"/>
     <use xlink:href="#DejaVuSerif-52" transform="translate(805.09375 0)"/>
     <use xlink:href="#DejaVuSerif-51" transform="translate(865.296875 0)"/>
     <use xlink:href="#DejaVuSerif-3" transform="translate(929.703125 0)"/>
     <use xlink:href="#DejaVuSerif-38" transform="translate(961.484375 0)"/>
     <use xlink:href="#DejaVuSerif-51" transform="translate(1045.765625 0)"/>
     <use xlink:href="#DejaVuSerif-47" transform="translate(1110.171875 0)"/>
     <use xlink:href="#DejaVuSerif-48" transform="translate(1174.1875 0)"/>
     <use xlink:href="#DejaVuSerif-55" transform="translate(1233.375 0)"/>
     <use xlink:href="#DejaVuSerif-3" transform="translate(1281.171875 0)"/>
     <use xlink:href="#DejaVuSerif-31" transform="translate(1312.953125 0)"/>
     <use xlink:href="#DejaVuSerif-52" transform="translate(1400.453125 0)"/>
     <use xlink:href="#DejaVuSerif-55" transform="translate(1460.65625 0)"/>
     <use xlink:href="#DejaVuSerif-50" transform="translate(1508.453125 0)"/>
     <use xlink:href="#DejaVuSerif-44" transform="translate(1603.28125 0)"/>
     <use xlink:href="#DejaVuSerif-4f" transform="translate(1662.90625 0)"/>
     <use xlink:href="#DejaVuSerif-10" transform="translate(1694.890625 0)"/>
     <use xlink:href="#DejaVuSerif-27" transform="translate(1728.6875 0)"/>
     <use xlink:href="#DejaVuSerif-52" transform="translate(1808.859375 0)"/>
     <use xlink:href="#DejaVuSerif-50" transform="translate(1869.0625 0)"/>
     <use xlink:href="#DejaVuSerif-4c" transform="translate(1963.890625 0)"/>
     <use xlink:href="#DejaVuSerif-51" transform="translate(1995.875 0)"/>
     <use xlink:href="#DejaVuSerif-44" transform="translate(2060.28125 0)"/>
     <use xlink:href="#DejaVuSerif-57" transform="translate(2119.90625 0)"/>
     <use xlink:href="#DejaVuSerif-48" transform="translate(2160.09375 0)"/>
     <use xlink:href="#DejaVuSerif-47" transform="translate(2219.28125 0)"/>
     <use xlink:href="#DejaVuSerif-3" transform="translate(2283.296875 0)"/>
     <use xlink:href="#DejaVuSerif-30" transform="translate(2315.078125 0)"/>
     <use xlink:href="#DejaVuSerif-48" transform="translate(2417.46875 0)"/>
     <use xlink:href="#DejaVuSerif-57" transform="translate(2476.65625 0)"/>
     <use xlink:href="#DejaVuSerif-55" transform="translate(2516.84375 0)"/>
     <use xlink:href="#DejaVuSerif-4c" transform="translate(2564.640625 0)"/>
     <use xlink:href="#DejaVuSerif-46" transform="translate(2596.625 0)"/>
     <use xlink:href="#DejaVuSerif-56" transform="translate(2652.625 0)"/>
    </g>
   </g>
   <g id="legend_1">
    <g id="patch_5">
     <path d="M 275.913031 191.892312 
L 352.346953 191.892312 
Q 354.006953 191.892312 354.006953 190.232312 
L 354.006953 166.161016 
Q 354.006953 164.501016 352.346953 164.501016 
L 275.913031 164.501016 
Q 274.253031 164.501016 274.253031 166.161016 
L 274.253031 190.232312 
Q 274.253031 191.892312 275.913031 191.892312 
z
" style="fill: #ffffff; opacity: 0.8; stroke: #cccccc; stroke-linejoin: miter"/>
    </g>
    <g id="PathCollection_3">
     <g>
      <use xlink:href="#mf631bcabe8" x="285.873031" y="171.948969" style="fill: #565656; stroke: #565656; stroke-width: 2"/>
     </g>
    </g>
    <g id="text_18">
     <!-- All-normal -->
     <g transform="translate(300.813031 174.127719) scale(0.083 -0.083)">
      <defs>
       <path id="DejaVuSerif-24" d="M 1281 1691 
L 2994 1691 
L 2138 3909 
L 1281 1691 
z
M -38 0 
L -38 331 
L 372 331 
L 2034 4666 
L 2559 4666 
L 4225 331 
L 4684 331 
L 4684 0 
L 2988 0 
L 2988 331 
L 3506 331 
L 3116 1356 
L 1153 1356 
L 763 331 
L 1275 331 
L 1275 0 
L -38 0 
z
" transform="scale(0.015625)"/>
      </defs>
      <use xlink:href="#DejaVuSerif-24"/>
      <use xlink:href="#DejaVuSerif-4f" transform="translate(72.21875 0)"/>
      <use xlink:href="#DejaVuSerif-4f" transform="translate(104.203125 0)"/>
      <use xlink:href="#DejaVuSerif-10" transform="translate(136.1875 0)"/>
      <use xlink:href="#DejaVuSerif-51" transform="translate(169.984375 0)"/>
      <use xlink:href="#DejaVuSerif-52" transform="translate(234.390625 0)"/>
      <use xlink:href="#DejaVuSerif-55" transform="translate(294.59375 0)"/>
      <use xlink:href="#DejaVuSerif-50" transform="translate(342.390625 0)"/>
      <use xlink:href="#DejaVuSerif-44" transform="translate(437.21875 0)"/>
      <use xlink:href="#DejaVuSerif-4f" transform="translate(496.84375 0)"/>
     </g>
    </g>
    <g id="PathCollection_4">
     <g>
      <use xlink:href="#m764cbdee6b" x="285.873031" y="184.399617" style="fill: #c82127; stroke: #7a1115; stroke-width: 0.5"/>
     </g>
    </g>
    <g id="text_19">
     <!-- GRAIN best -->
     <g transform="translate(300.813031 186.578367) scale(0.083 -0.083)">
      <defs>
       <path id="DejaVuSerif-2a" d="M 4097 3272 
Q 3988 3856 3641 4136 
Q 3294 4416 2675 4416 
Q 1869 4416 1472 3897 
Q 1075 3378 1075 2328 
Q 1075 1300 1484 772 
Q 1894 244 2688 244 
Q 3041 244 3362 331 
Q 3684 419 3975 594 
L 3975 1797 
L 3097 1797 
L 3097 2131 
L 4609 2131 
L 4609 391 
Q 4194 150 3714 29 
Q 3234 -91 2688 -91 
Q 1631 -91 995 570 
Q 359 1231 359 2328 
Q 359 3434 996 4092 
Q 1634 4750 2713 4750 
Q 3113 4750 3539 4658 
Q 3966 4566 4447 4378 
L 4447 3272 
L 4097 3272 
z
" transform="scale(0.015625)"/>
      </defs>
      <use xlink:href="#DejaVuSerif-2a"/>
      <use xlink:href="#DejaVuSerif-35" transform="translate(79.890625 0)"/>
      <use xlink:href="#DejaVuSerif-24" transform="translate(155.1875 0)"/>
      <use xlink:href="#DejaVuSerif-2c" transform="translate(227.40625 0)"/>
      <use xlink:href="#DejaVuSerif-31" transform="translate(266.90625 0)"/>
      <use xlink:href="#DejaVuSerif-3" transform="translate(354.40625 0)"/>
      <use xlink:href="#DejaVuSerif-45" transform="translate(386.1875 0)"/>
      <use xlink:href="#DejaVuSerif-48" transform="translate(450.203125 0)"/>
      <use xlink:href="#DejaVuSerif-56" transform="translate(509.390625 0)"/>
      <use xlink:href="#DejaVuSerif-57" transform="translate(560.703125 0)"/>
     </g>
    </g>
   </g>
  </g>
 </g>
 <defs>
  <clipPath id="pec8c06594d">
   <rect x="34.516953" y="21.406312" width="323.64" height="174.636"/>
  </clipPath>
 </defs>
</svg>
