<?xml version="1.0" encoding="utf-8" standalone="no"?>
<!DOCTYPE svg PUBLIC "-//W3C//DTD SVG 1.1//EN"
  "http://www.w3.org/Graphics/SVG/1.1/DTD/svg11.dtd">
<svg xmlns:xlink="http://www.w3.org/1999/xlink" width="449.441027pt" height="214.569497pt" viewBox="0 0 449.441027 214.569497" xmlns="http://www.w3.org/2000/svg" version="1.1">
 <metadata>
  <rdf:RDF xmlns:dc="http://purl.org/dc/elements/1.1/" xmlns:cc="http://creativecommons.org/ns#" xmlns:rdf="http://www.w3.org/1999/02/22-rdf-syntax-ns#">
   <cc:Work>
    <dc:type rdf:resource="http://purl.org/dc/dcmitype/StillImage"/>
    <dc:date>2026-07-02T19:54:06.118963</dc:date>
    <dc:format>image/svg+xml</dc:format>
    <dc:creator>
     <cc:Agent>
      <dc:title>Matplotlib v3.11.0, https://matplotlib.org/</dc:title>
     </cc:Agent>
    </dc:creator>
   </cc:Work>
  </rdf:RDF>
 </metadata>
 <defs>
  <style type="text/css">*{stroke-linejoin: round; stroke-linecap: butt}</style>
 </defs>
 <g id="figure_1">
  <g id="patch_1">
   <path d="M 0 214.569497 
L 449.441027 214.569497 
L 449.441027 0 
L 0 0 
z
" style="fill: #ffffff"/>
  </g>
  <g id="axes_1">
   <g id="patch_2">
    <path d="M 21.51625 173.016 
L 128.108558 173.016 
L 128.108558 37.188 
L 21.51625 37.188 
z
" style="fill: #ffffff"/>
   </g>
   <g id="matplotlib.axis_1">
    <g id="xtick_1">
     <g id="line2d_1"/>
     <g id="text_1">
      <!-- count -->
      <g transform="translate(32.02605 182.974008) scale(0.085 -0.085)">
       <defs>
        <path id="DejaVuSerif-46" d="M 3291 997 
Q 3169 466 2822 187 
Q 2475 -91 1925 -91 
Q 1200 -91 759 389 
Q 319 869 319 1663 
Q 319 2459 759 2936 
Q 1200 3413 1925 3413 
Q 2241 3413 2553 3339 
Q 2866 3266 3181 3116 
L 3181 2266 
L 2847 2266 
Q 2781 2703 2561 2903 
Q 2341 3103 1931 3103 
Q 1466 3103 1228 2742 
Q 991 2381 991 1663 
Q 991 944 1227 581 
Q 1463 219 1931 219 
Q 2303 219 2525 412 
Q 2747 606 2828 997 
L 3291 997 
z
" transform="scale(0.015625)"/>
        <path id="DejaVuSerif-52" d="M 1925 219 
Q 2388 219 2623 584 
Q 2859 950 2859 1663 
Q 2859 2375 2623 2739 
Q 2388 3103 1925 3103 
Q 1463 3103 1227 2739 
Q 991 2375 991 1663 
Q 991 950 1228 584 
Q 1466 219 1925 219 
z
M 1925 -91 
Q 1200 -91 759 389 
Q 319 869 319 1663 
Q 319 2456 758 2934 
Q 1197 3413 1925 3413 
Q 2653 3413 3092 2934 
Q 3531 2456 3531 1663 
Q 3531 869 3092 389 
Q 2653 -91 1925 -91 
z
" transform="scale(0.015625)"/>
        <path id="DejaVuSerif-58" d="M 2266 3322 
L 3341 3322 
L 3341 331 
L 3884 331 
L 3884 0 
L 2766 0 
L 2766 588 
Q 2606 256 2353 82 
Q 2100 -91 1766 -91 
Q 1213 -91 952 223 
Q 691 538 691 1209 
L 691 2988 
L 172 2988 
L 172 3322 
L 1269 3322 
L 1269 1388 
Q 1269 781 1417 556 
Q 1566 331 1947 331 
Q 2347 331 2556 625 
Q 2766 919 2766 1478 
L 2766 2988 
L 2266 2988 
L 2266 3322 
z
" transform="scale(0.015625)"/>
        <path id="DejaVuSerif-51" d="M 263 0 
L 263 331 
L 781 331 
L 781 2988 
L 231 2988 
L 231 3322 
L 1356 3322 
L 1356 2731 
Q 1516 3069 1770 3241 
Q 2025 3413 2363 3413 
Q 2913 3413 3172 3097 
Q 3431 2781 3431 2113 
L 3431 331 
L 3944 331 
L 3944 0 
L 2356 0 
L 2356 331 
L 2853 331 
L 2853 1931 
Q 2853 2541 2703 2767 
Q 2553 2994 2175 2994 
Q 1775 2994 1565 2701 
Q 1356 2409 1356 1850 
L 1356 331 
L 1856 331 
L 1856 0 
L 263 0 
z
" transform="scale(0.015625)"/>
        <path id="DejaVuSerif-57" d="M 691 2988 
L 184 2988 
L 184 3322 
L 691 3322 
L 691 4353 
L 1269 4353 
L 1269 3322 
L 2350 3322 
L 2350 2988 
L 1269 2988 
L 1269 878 
Q 1269 456 1350 337 
Q 1431 219 1650 219 
Q 1875 219 1978 351 
Q 2081 484 2088 781 
L 2522 781 
Q 2497 328 2275 118 
Q 2053 -91 1600 -91 
Q 1103 -91 897 129 
Q 691 350 691 878 
L 691 2988 
z
" transform="scale(0.015625)"/>
       </defs>
       <use xlink:href="#DejaVuSerif-46"/>
       <use xlink:href="#DejaVuSerif-52" transform="translate(56 0)"/>
       <use xlink:href="#DejaVuSerif-58" transform="translate(116.203125 0)"/>
       <use xlink:href="#DejaVuSerif-51" transform="translate(180.609375 0)"/>
       <use xlink:href="#DejaVuSerif-57" transform="translate(245.015625 0)"/>
      </g>
     </g>
    </g>
    <g id="xtick_2">
     <g id="line2d_2"/>
     <g id="text_2">
      <!-- ratio -->
      <g transform="translate(95.286258 182.974008) scale(0.085 -0.085)">
       <defs>
        <path id="DejaVuSerif-55" d="M 3059 3328 
L 3059 2497 
L 2728 2497 
Q 2713 2744 2591 2866 
Q 2469 2988 2234 2988 
Q 1809 2988 1582 2694 
Q 1356 2400 1356 1850 
L 1356 331 
L 2022 331 
L 2022 0 
L 263 0 
L 263 331 
L 781 331 
L 781 2994 
L 231 2994 
L 231 3322 
L 1356 3322 
L 1356 2731 
Q 1525 3078 1790 3245 
Q 2056 3413 2438 3413 
Q 2578 3413 2733 3391 
Q 2888 3369 3059 3328 
z
" transform="scale(0.015625)"/>
        <path id="DejaVuSerif-44" d="M 2547 1044 
L 2547 1747 
L 1806 1747 
Q 1378 1747 1168 1562 
Q 959 1378 959 997 
Q 959 650 1171 447 
Q 1384 244 1747 244 
Q 2106 244 2326 466 
Q 2547 688 2547 1044 
z
M 3122 2075 
L 3122 331 
L 3634 331 
L 3634 0 
L 2547 0 
L 2547 359 
Q 2356 128 2106 18 
Q 1856 -91 1522 -91 
Q 969 -91 644 203 
Q 319 497 319 997 
Q 319 1513 691 1797 
Q 1063 2081 1741 2081 
L 2547 2081 
L 2547 2309 
Q 2547 2688 2317 2895 
Q 2088 3103 1672 3103 
Q 1328 3103 1125 2947 
Q 922 2791 872 2484 
L 575 2484 
L 575 3156 
Q 875 3284 1158 3348 
Q 1441 3413 1709 3413 
Q 2400 3413 2761 3070 
Q 3122 2728 3122 2075 
z
" transform="scale(0.015625)"/>
        <path id="DejaVuSerif-4c" d="M 622 4353 
Q 622 4497 726 4603 
Q 831 4709 978 4709 
Q 1122 4709 1226 4603 
Q 1331 4497 1331 4353 
Q 1331 4206 1228 4103 
Q 1125 4000 978 4000 
Q 831 4000 726 4103 
Q 622 4206 622 4353 
z
M 1356 331 
L 1900 331 
L 1900 0 
L 231 0 
L 231 331 
L 781 331 
L 781 2988 
L 231 2988 
L 231 3322 
L 1356 3322 
L 1356 331 
z
" transform="scale(0.015625)"/>
       </defs>
       <use xlink:href="#DejaVuSerif-55"/>
       <use xlink:href="#DejaVuSerif-44" transform="translate(47.796875 0)"/>
       <use xlink:href="#DejaVuSerif-57" transform="translate(107.421875 0)"/>
       <use xlink:href="#DejaVuSerif-4c" transform="translate(147.609375 0)"/>
       <use xlink:href="#DejaVuSerif-52" transform="translate(179.59375 0)"/>
      </g>
     </g>
    </g>
   </g>
   <g id="matplotlib.axis_2">
    <g id="ytick_1">
     <g id="line2d_3">
      <path d="M 21.51625 173.016 
L 128.108558 173.016 
" clip-path="url(#pcd21ae4cd7)" style="fill: none; stroke-dasharray: 2.59,1.12; stroke-dashoffset: 0; stroke: #e6e6e6; stroke-width: 0.7"/>
     </g>
     <g id="line2d_4"/>
     <g id="text_3">
      <!-- 0 -->
      <g transform="translate(12.608125 176.245004) scale(0.085 -0.085)">
       <defs>
        <path id="DejaVuSerif-13" d="M 2034 219 
Q 2513 219 2750 744 
Q 2988 1269 2988 2328 
Q 2988 3391 2750 3916 
Q 2513 4441 2034 4441 
Q 1556 4441 1318 3916 
Q 1081 3391 1081 2328 
Q 1081 1269 1318 744 
Q 1556 219 2034 219 
z
M 2034 -91 
Q 1275 -91 848 546 
Q 422 1184 422 2328 
Q 422 3475 848 4112 
Q 1275 4750 2034 4750 
Q 2797 4750 3222 4112 
Q 3647 3475 3647 2328 
Q 3647 1184 3222 546 
Q 2797 -91 2034 -91 
z
" transform="scale(0.015625)"/>
       </defs>
       <use xlink:href="#DejaVuSerif-13"/>
      </g>
     </g>
    </g>
    <g id="ytick_2">
     <g id="line2d_5">
      <path d="M 21.51625 145.8504 
L 128.108558 145.8504 
" clip-path="url(#pcd21ae4cd7)" style="fill: none; stroke-dasharray: 2.59,1.12; stroke-dashoffset: 0; stroke: #e6e6e6; stroke-width: 0.7"/>
     </g>
     <g id="line2d_6"/>
     <g id="text_4">
      <!-- 2 -->
      <g transform="translate(12.608125 149.079404) scale(0.085 -0.085)">
       <defs>
        <path id="DejaVuSerif-15" d="M 819 3553 
L 469 3553 
L 469 4384 
Q 803 4563 1142 4656 
Q 1481 4750 1806 4750 
Q 2534 4750 2956 4397 
Q 3378 4044 3378 3438 
Q 3378 2753 2422 1800 
Q 2347 1728 2309 1691 
L 1131 513 
L 3078 513 
L 3078 1088 
L 3444 1088 
L 3444 0 
L 434 0 
L 434 341 
L 1850 1753 
Q 2319 2222 2519 2614 
Q 2719 3006 2719 3438 
Q 2719 3909 2473 4175 
Q 2228 4441 1797 4441 
Q 1350 4441 1106 4219 
Q 863 3997 819 3553 
z
" transform="scale(0.015625)"/>
       </defs>
       <use xlink:href="#DejaVuSerif-15"/>
      </g>
     </g>
    </g>
    <g id="ytick_3">
     <g id="line2d_7">
      <path d="M 21.51625 118.6848 
L 128.108558 118.6848 
" clip-path="url(#pcd21ae4cd7)" style="fill: none; stroke-dasharray: 2.59,1.12; stroke-dashoffset: 0; stroke: #e6e6e6; stroke-width: 0.7"/>
     </g>
     <g id="line2d_8"/>
     <g id="text_5">
      <!-- 4 -->
      <g transform="translate(12.608125 121.913804) scale(0.085 -0.085)">
       <defs>
        <path id="DejaVuSerif-17" d="M 2234 1581 
L 2234 4063 
L 641 1581 
L 2234 1581 
z
M 3609 0 
L 1484 0 
L 1484 331 
L 2234 331 
L 2234 1247 
L 197 1247 
L 197 1588 
L 2241 4750 
L 2859 4750 
L 2859 1581 
L 3750 1581 
L 3750 1247 
L 2859 1247 
L 2859 331 
L 3609 331 
L 3609 0 
z
" transform="scale(0.015625)"/>
       </defs>
       <use xlink:href="#DejaVuSerif-17"/>
      </g>
     </g>
    </g>
    <g id="ytick_4">
     <g id="line2d_9">
      <path d="M 21.51625 91.5192 
L 128.108558 91.5192 
" clip-path="url(#pcd21ae4cd7)" style="fill: none; stroke-dasharray: 2.59,1.12; stroke-dashoffset: 0; stroke: #e6e6e6; stroke-width: 0.7"/>
     </g>
     <g id="line2d_10"/>
     <g id="text_6">
      <!-- 6 -->
      <g transform="translate(12.608125 94.748204) scale(0.085 -0.085)">
       <defs>
        <path id="DejaVuSerif-19" d="M 2094 219 
Q 2534 219 2771 542 
Q 3009 866 3009 1472 
Q 3009 2078 2771 2401 
Q 2534 2725 2094 2725 
Q 1647 2725 1412 2412 
Q 1178 2100 1178 1509 
Q 1178 888 1415 553 
Q 1653 219 2094 219 
z
M 1075 2569 
Q 1288 2803 1556 2918 
Q 1825 3034 2163 3034 
Q 2859 3034 3264 2615 
Q 3669 2197 3669 1472 
Q 3669 763 3233 336 
Q 2797 -91 2069 -91 
Q 1278 -91 853 498 
Q 428 1088 428 2181 
Q 428 3406 931 4078 
Q 1434 4750 2350 4750 
Q 2597 4750 2869 4703 
Q 3141 4656 3425 4563 
L 3425 3794 
L 3072 3794 
Q 3034 4109 2831 4275 
Q 2628 4441 2284 4441 
Q 1678 4441 1381 3981 
Q 1084 3522 1075 2569 
z
" transform="scale(0.015625)"/>
       </defs>
       <use xlink:href="#DejaVuSerif-19"/>
      </g>
     </g>
    </g>
    <g id="ytick_5">
     <g id="line2d_11">
      <path d="M 21.51625 64.3536 
L 128.108558 64.3536 
" clip-path="url(#pcd21ae4cd7)" style="fill: none; stroke-dasharray: 2.59,1.12; stroke-dashoffset: 0; stroke: #e6e6e6; stroke-width: 0.7"/>
     </g>
     <g id="line2d_12"/>
     <g id="text_7">
      <!-- 8 -->
      <g transform="translate(12.608125 67.582604) scale(0.085 -0.085)">
       <defs>
        <path id="DejaVuSerif-1b" d="M 2981 1275 
Q 2981 1775 2732 2051 
Q 2484 2328 2034 2328 
Q 1584 2328 1336 2051 
Q 1088 1775 1088 1275 
Q 1088 772 1336 495 
Q 1584 219 2034 219 
Q 2484 219 2732 495 
Q 2981 772 2981 1275 
z
M 2853 3541 
Q 2853 3966 2637 4203 
Q 2422 4441 2034 4441 
Q 1650 4441 1433 4203 
Q 1216 3966 1216 3541 
Q 1216 3113 1433 2875 
Q 1650 2638 2034 2638 
Q 2422 2638 2637 2875 
Q 2853 3113 2853 3541 
z
M 2516 2484 
Q 3047 2413 3344 2092 
Q 3641 1772 3641 1275 
Q 3641 619 3225 264 
Q 2809 -91 2034 -91 
Q 1263 -91 845 264 
Q 428 619 428 1275 
Q 428 1772 725 2092 
Q 1022 2413 1556 2484 
Q 1084 2569 832 2842 
Q 581 3116 581 3541 
Q 581 4103 968 4426 
Q 1356 4750 2034 4750 
Q 2713 4750 3100 4426 
Q 3488 4103 3488 3541 
Q 3488 3116 3236 2842 
Q 2984 2569 2516 2484 
z
" transform="scale(0.015625)"/>
       </defs>
       <use xlink:href="#DejaVuSerif-1b"/>
      </g>
     </g>
    </g>
    <g id="ytick_6">
     <g id="line2d_13">
      <path d="M 21.51625 37.188 
L 128.108558 37.188 
" clip-path="url(#pcd21ae4cd7)" style="fill: none; stroke-dasharray: 2.59,1.12; stroke-dashoffset: 0; stroke: #e6e6e6; stroke-width: 0.7"/>
     </g>
     <g id="line2d_14"/>
     <g id="text_8">
      <!-- 10 -->
      <g transform="translate(7.2 40.417004) scale(0.085 -0.085)">
       <defs>
        <path id="DejaVuSerif-14" d="M 909 0 
L 909 331 
L 1722 331 
L 1722 4213 
L 781 3603 
L 781 4013 
L 1919 4750 
L 2350 4750 
L 2350 331 
L 3163 331 
L 3163 0 
L 909 0 
z
" transform="scale(0.015625)"/>
       </defs>
       <use xlink:href="#DejaVuSerif-14"/>
       <use xlink:href="#DejaVuSerif-13" transform="translate(63.625 0)"/>
      </g>
     </g>
    </g>
   </g>
   <g id="patch_3">
    <path d="M 26.361355 173.016 
L 61.933011 173.016 
L 61.933011 50.7708 
L 26.361355 50.7708 
z
" clip-path="url(#pcd21ae4cd7)" style="fill: #2f5f8f; stroke: #ffffff; stroke-linejoin: miter"/>
   </g>
   <g id="patch_4">
    <path d="M 87.691797 173.016 
L 123.263453 173.016 
L 123.263453 164.86632 
L 87.691797 164.86632 
z
" clip-path="url(#pcd21ae4cd7)" style="fill: #c82127; stroke: #ffffff; stroke-linejoin: miter"/>
   </g>
   <g id="patch_5">
    <path d="M 21.51625 173.016 
L 21.51625 37.188 
" style="fill: none; stroke: #333333; stroke-width: 0.8; stroke-linejoin: miter; stroke-linecap: square"/>
   </g>
   <g id="patch_6">
    <path d="M 21.51625 173.016 
L 128.108558 173.016 
" style="fill: none; stroke: #333333; stroke-width: 0.8; stroke-linejoin: miter; stroke-linecap: square"/>
   </g>
   <g id="text_9">
    <!-- 9/15 -->
    <g transform="translate(33.723394 47.3751) scale(0.085 -0.085)">
     <defs>
      <path id="DejaVuSerif-Bold-1c" d="M 2181 4384 
Q 1859 4384 1723 4111 
Q 1588 3838 1588 3163 
Q 1588 2488 1723 2214 
Q 1859 1941 2181 1941 
Q 2503 1941 2640 2214 
Q 2778 2488 2778 3163 
Q 2778 3838 2640 4111 
Q 2503 4384 2181 4384 
z
M 2878 1900 
Q 2672 1734 2420 1651 
Q 2169 1569 1875 1569 
Q 1163 1569 755 1986 
Q 347 2403 347 3138 
Q 347 3913 803 4331 
Q 1259 4750 2106 4750 
Q 3063 4750 3556 4172 
Q 4050 3594 4050 2478 
Q 4050 1206 3503 557 
Q 2956 -91 1881 -91 
Q 1600 -91 1278 -44 
Q 956 3 588 97 
L 588 922 
L 966 922 
Q 1044 603 1261 439 
Q 1478 275 1825 275 
Q 2375 275 2625 658 
Q 2875 1041 2878 1900 
z
" transform="scale(0.015625)"/>
      <path id="DejaVuSerif-Bold-12" d="M 1644 4666 
L 2338 4666 
L 691 -594 
L 0 -594 
L 1644 4666 
z
" transform="scale(0.015625)"/>
      <path id="DejaVuSerif-Bold-14" d="M 878 0 
L 878 378 
L 1753 378 
L 1753 4153 
L 781 3578 
L 781 4044 
L 1953 4750 
L 2938 4750 
L 2938 378 
L 3816 378 
L 3816 0 
L 878 0 
z
" transform="scale(0.015625)"/>
      <path id="DejaVuSerif-Bold-18" d="M 3609 4666 
L 3609 3847 
L 1113 3847 
L 1113 2822 
Q 1319 2981 1572 3062 
Q 1825 3144 2106 3144 
Q 2969 3144 3469 2708 
Q 3969 2272 3969 1522 
Q 3969 759 3469 334 
Q 2969 -91 2069 -91 
Q 1688 -91 1311 -28 
Q 934 34 525 166 
L 525 1184 
L 900 1184 
Q 919 725 1139 500 
Q 1359 275 1791 275 
Q 2250 275 2472 583 
Q 2694 891 2694 1522 
Q 2694 2144 2476 2451 
Q 2259 2759 1819 2759 
Q 1581 2759 1395 2661 
Q 1209 2563 1050 2356 
L 738 2356 
L 738 4666 
L 3609 4666 
z
" transform="scale(0.015625)"/>
     </defs>
     <use xlink:href="#DejaVuSerif-Bold-1c"/>
     <use xlink:href="#DejaVuSerif-Bold-12" transform="translate(69.578125 0)"/>
     <use xlink:href="#DejaVuSerif-Bold-14" transform="translate(106.109375 0)"/>
     <use xlink:href="#DejaVuSerif-Bold-18" transform="translate(175.6875 0)"/>
    </g>
   </g>
   <g id="text_10">
    <!-- 0.60 -->
    <g style="fill: #7a1115" transform="translate(95.126883 163.915524) scale(0.085 -0.085)">
     <defs>
      <path id="DejaVuSerif-Bold-13" d="M 2228 275 
Q 2603 275 2742 615 
Q 2881 956 2881 2328 
Q 2881 3691 2742 4037 
Q 2603 4384 2228 4384 
Q 1853 4384 1714 4043 
Q 1575 3703 1575 2328 
Q 1575 956 1714 615 
Q 1853 275 2228 275 
z
M 2228 -91 
Q 1294 -91 797 532 
Q 300 1156 300 2328 
Q 300 3500 797 4125 
Q 1294 4750 2228 4750 
Q 3159 4750 3656 4125 
Q 4153 3500 4153 2328 
Q 4153 1156 3656 532 
Q 3159 -91 2228 -91 
z
" transform="scale(0.015625)"/>
      <path id="DejaVuSerif-Bold-11" d="M 519 506 
Q 519 750 694 925 
Q 869 1100 1113 1100 
Q 1359 1100 1534 925 
Q 1709 750 1709 506 
Q 1709 259 1534 84 
Q 1359 -91 1113 -91 
Q 869 -91 694 84 
Q 519 259 519 506 
z
" transform="scale(0.015625)"/>
      <path id="DejaVuSerif-Bold-19" d="M 1575 2766 
Q 1778 2928 2029 3009 
Q 2281 3091 2578 3091 
Q 3294 3091 3701 2672 
Q 4109 2253 4109 1522 
Q 4109 750 3650 329 
Q 3191 -91 2344 -91 
Q 1388 -91 895 486 
Q 403 1063 403 2181 
Q 403 3453 950 4101 
Q 1497 4750 2572 4750 
Q 2853 4750 3175 4703 
Q 3497 4656 3866 4563 
L 3866 3738 
L 3488 3738 
Q 3409 4056 3192 4220 
Q 2975 4384 2631 4384 
Q 2075 4384 1826 4003 
Q 1578 3622 1575 2766 
z
M 2272 275 
Q 2594 275 2731 548 
Q 2869 822 2869 1497 
Q 2869 2172 2731 2445 
Q 2594 2719 2272 2719 
Q 1950 2719 1814 2445 
Q 1678 2172 1678 1497 
Q 1678 822 1814 548 
Q 1950 275 2272 275 
z
" transform="scale(0.015625)"/>
     </defs>
     <use xlink:href="#DejaVuSerif-Bold-13"/>
     <use xlink:href="#DejaVuSerif-Bold-11" transform="translate(69.578125 0)"/>
     <use xlink:href="#DejaVuSerif-Bold-19" transform="translate(104.390625 0)"/>
     <use xlink:href="#DejaVuSerif-Bold-13" transform="translate(173.96875 0)"/>
    </g>
   </g>
   <g id="text_11">
    <!-- (a) accuracy=recall -->
    <g transform="translate(27.513537 31.188) scale(0.095 -0.095)">
     <defs>
      <path id="DejaVuSerif-b" d="M 2041 -997 
Q 1281 -656 893 83 
Q 506 822 506 1931 
Q 506 3044 893 3783 
Q 1281 4522 2041 4863 
L 2041 4556 
Q 1559 4225 1350 3623 
Q 1141 3022 1141 1931 
Q 1141 844 1350 242 
Q 1559 -359 2041 -691 
L 2041 -997 
z
" transform="scale(0.015625)"/>
      <path id="DejaVuSerif-c" d="M 453 -997 
L 453 -691 
Q 934 -359 1145 242 
Q 1356 844 1356 1931 
Q 1356 3022 1145 3623 
Q 934 4225 453 4556 
L 453 4863 
Q 1216 4522 1603 3783 
Q 1991 3044 1991 1931 
Q 1991 822 1603 83 
Q 1216 -656 453 -997 
z
" transform="scale(0.015625)"/>
      <path id="DejaVuSerif-3" transform="scale(0.015625)"/>
      <path id="DejaVuSerif-5c" d="M 1381 -609 
L 1600 -56 
L 359 2988 
L -19 2988 
L -19 3322 
L 1509 3322 
L 1509 2988 
L 978 2988 
L 1913 703 
L 2847 2988 
L 2350 2988 
L 2350 3322 
L 3597 3322 
L 3597 2988 
L 3225 2988 
L 1703 -750 
Q 1547 -1138 1356 -1280 
Q 1166 -1422 819 -1422 
Q 672 -1422 517 -1397 
Q 363 -1372 206 -1325 
L 206 -691 
L 500 -691 
Q 519 -903 608 -995 
Q 697 -1088 884 -1088 
Q 1056 -1088 1161 -992 
Q 1266 -897 1381 -609 
z
" transform="scale(0.015625)"/>
      <path id="DejaVuSerif-20" d="M 678 2894 
L 4684 2894 
L 4684 2394 
L 678 2394 
L 678 2894 
z
M 678 1619 
L 4684 1619 
L 4684 1119 
L 678 1119 
L 678 1619 
z
" transform="scale(0.015625)"/>
      <path id="DejaVuSerif-48" d="M 3469 1600 
L 991 1600 
L 991 1575 
Q 991 903 1244 561 
Q 1497 219 1991 219 
Q 2369 219 2611 417 
Q 2853 616 2950 1006 
L 3413 1006 
Q 3275 459 2904 184 
Q 2534 -91 1931 -91 
Q 1203 -91 761 389 
Q 319 869 319 1663 
Q 319 2450 753 2931 
Q 1188 3413 1894 3413 
Q 2647 3413 3050 2948 
Q 3453 2484 3469 1600 
z
M 2791 1931 
Q 2772 2513 2545 2808 
Q 2319 3103 1894 3103 
Q 1497 3103 1269 2806 
Q 1041 2509 991 1931 
L 2791 1931 
z
" transform="scale(0.015625)"/>
      <path id="DejaVuSerif-4f" d="M 1313 331 
L 1856 331 
L 1856 0 
L 184 0 
L 184 331 
L 738 331 
L 738 4531 
L 184 4531 
L 184 4863 
L 1313 4863 
L 1313 331 
z
" transform="scale(0.015625)"/>
     </defs>
     <use xlink:href="#DejaVuSerif-b"/>
     <use xlink:href="#DejaVuSerif-44" transform="translate(39.015625 0)"/>
     <use xlink:href="#DejaVuSerif-c" transform="translate(98.640625 0)"/>
     <use xlink:href="#DejaVuSerif-3" transform="translate(137.65625 0)"/>
     <use xlink:href="#DejaVuSerif-44" transform="translate(169.4375 0)"/>
     <use xlink:href="#DejaVuSerif-46" transform="translate(229.0625 0)"/>
     <use xlink:href="#DejaVuSerif-46" transform="translate(285.0625 0)"/>
     <use xlink:href="#DejaVuSerif-58" transform="translate(341.0625 0)"/>
     <use xlink:href="#DejaVuSerif-55" transform="translate(405.46875 0)"/>
     <use xlink:href="#DejaVuSerif-44" transform="translate(453.265625 0)"/>
     <use xlink:href="#DejaVuSerif-46" transform="translate(512.890625 0)"/>
     <use xlink:href="#DejaVuSerif-5c" transform="translate(568.890625 0)"/>
     <use xlink:href="#DejaVuSerif-20" transform="translate(625.390625 0)"/>
     <use xlink:href="#DejaVuSerif-55" transform="translate(709.1875 0)"/>
     <use xlink:href="#DejaVuSerif-48" transform="translate(756.984375 0)"/>
     <use xlink:href="#DejaVuSerif-46" transform="translate(816.171875 0)"/>
     <use xlink:href="#DejaVuSerif-44" transform="translate(872.171875 0)"/>
     <use xlink:href="#DejaVuSerif-4f" transform="translate(931.796875 0)"/>
     <use xlink:href="#DejaVuSerif-4f" transform="translate(963.78125 0)"/>
    </g>
   </g>
  </g>
  <g id="axes_2">
   <g id="patch_7">
    <path d="M 176.075096 173.016 
L 282.667404 173.016 
L 282.667404 37.188 
L 176.075096 37.188 
z
" style="fill: #ffffff"/>
   </g>
   <g id="matplotlib.axis_3">
    <g id="xtick_3">
     <g id="line2d_15"/>
     <g id="text_12">
      <!-- 0 -->
      <g transform="translate(173.371034 182.974008) scale(0.085 -0.085)">
       <use xlink:href="#DejaVuSerif-13"/>
      </g>
     </g>
    </g>
    <g id="xtick_4">
     <g id="line2d_16"/>
     <g id="text_13">
      <!-- 2 -->
      <g transform="translate(207.209861 182.974008) scale(0.085 -0.085)">
       <use xlink:href="#DejaVuSerif-15"/>
      </g>
     </g>
    </g>
    <g id="xtick_5">
     <g id="line2d_17"/>
     <g id="text_14">
      <!-- 4 -->
      <g transform="translate(241.048689 182.974008) scale(0.085 -0.085)">
       <use xlink:href="#DejaVuSerif-17"/>
      </g>
     </g>
    </g>
    <g id="xtick_6">
     <g id="line2d_18"/>
     <g id="text_15">
      <!-- 6 -->
      <g transform="translate(274.887517 182.974008) scale(0.085 -0.085)">
       <use xlink:href="#DejaVuSerif-19"/>
      </g>
     </g>
    </g>
   </g>
   <g id="matplotlib.axis_4">
    <g id="ytick_7">
     <g id="line2d_19">
      <path d="M 176.075096 57.241535 
L 282.667404 57.241535 
" clip-path="url(#p2757821c9f)" style="fill: none; stroke-dasharray: 2.59,1.12; stroke-dashoffset: 0; stroke: #e6e6e6; stroke-width: 0.7"/>
     </g>
     <g id="line2d_20"/>
     <g id="text_16">
      <!-- weighted / -->
      <g transform="translate(127.181112 55.795124) scale(0.085 -0.085)">
       <defs>
        <path id="DejaVuSerif-5a" d="M 3072 3322 
L 3922 728 
L 4672 2988 
L 4191 2988 
L 4191 3322 
L 5394 3322 
L 5394 2988 
L 5025 2988 
L 4038 0 
L 3559 0 
L 2741 2484 
L 1919 0 
L 1459 0 
L 475 2988 
L 103 2988 
L 103 3322 
L 1606 3322 
L 1606 2988 
L 1069 2988 
L 1813 728 
L 2669 3322 
L 3072 3322 
z
" transform="scale(0.015625)"/>
        <path id="DejaVuSerif-4a" d="M 3359 2988 
L 3359 72 
Q 3359 -644 2965 -1033 
Q 2572 -1422 1844 -1422 
Q 1516 -1422 1216 -1362 
Q 916 -1303 641 -1184 
L 641 -488 
L 941 -488 
Q 997 -813 1206 -963 
Q 1416 -1113 1806 -1113 
Q 2313 -1113 2548 -827 
Q 2784 -541 2784 72 
L 2784 519 
Q 2616 206 2355 57 
Q 2094 -91 1709 -91 
Q 1097 -91 708 395 
Q 319 881 319 1663 
Q 319 2444 706 2928 
Q 1094 3413 1709 3413 
Q 2094 3413 2355 3264 
Q 2616 3116 2784 2803 
L 2784 3322 
L 3909 3322 
L 3909 2988 
L 3359 2988 
z
M 2784 1825 
Q 2784 2422 2554 2737 
Q 2325 3053 1888 3053 
Q 1444 3053 1217 2703 
Q 991 2353 991 1663 
Q 991 975 1217 622 
Q 1444 269 1888 269 
Q 2325 269 2554 583 
Q 2784 897 2784 1497 
L 2784 1825 
z
" transform="scale(0.015625)"/>
        <path id="DejaVuSerif-4b" d="M 263 0 
L 263 331 
L 781 331 
L 781 4531 
L 231 4531 
L 231 4863 
L 1356 4863 
L 1356 2731 
Q 1516 3069 1770 3241 
Q 2025 3413 2363 3413 
Q 2913 3413 3172 3097 
Q 3431 2781 3431 2113 
L 3431 331 
L 3944 331 
L 3944 0 
L 2356 0 
L 2356 331 
L 2853 331 
L 2853 1931 
Q 2853 2541 2704 2764 
Q 2556 2988 2175 2988 
Q 1775 2988 1565 2697 
Q 1356 2406 1356 1850 
L 1356 331 
L 1856 331 
L 1856 0 
L 263 0 
z
" transform="scale(0.015625)"/>
        <path id="DejaVuSerif-47" d="M 3359 331 
L 3909 331 
L 3909 0 
L 2784 0 
L 2784 519 
Q 2616 206 2355 57 
Q 2094 -91 1709 -91 
Q 1097 -91 708 395 
Q 319 881 319 1663 
Q 319 2444 706 2928 
Q 1094 3413 1709 3413 
Q 2094 3413 2355 3264 
Q 2616 3116 2784 2803 
L 2784 4531 
L 2241 4531 
L 2241 4863 
L 3359 4863 
L 3359 331 
z
M 2784 1497 
L 2784 1825 
Q 2784 2422 2554 2737 
Q 2325 3053 1888 3053 
Q 1444 3053 1217 2703 
Q 991 2353 991 1663 
Q 991 975 1217 622 
Q 1444 269 1888 269 
Q 2325 269 2554 583 
Q 2784 897 2784 1497 
z
" transform="scale(0.015625)"/>
        <path id="DejaVuSerif-12" d="M 1656 4666 
L 2156 4666 
L 500 -594 
L 0 -594 
L 1656 4666 
z
" transform="scale(0.015625)"/>
       </defs>
       <use xlink:href="#DejaVuSerif-5a"/>
       <use xlink:href="#DejaVuSerif-48" transform="translate(85.59375 0)"/>
       <use xlink:href="#DejaVuSerif-4c" transform="translate(144.78125 0)"/>
       <use xlink:href="#DejaVuSerif-4a" transform="translate(176.765625 0)"/>
       <use xlink:href="#DejaVuSerif-4b" transform="translate(240.78125 0)"/>
       <use xlink:href="#DejaVuSerif-57" transform="translate(305.1875 0)"/>
       <use xlink:href="#DejaVuSerif-48" transform="translate(345.375 0)"/>
       <use xlink:href="#DejaVuSerif-47" transform="translate(404.5625 0)"/>
       <use xlink:href="#DejaVuSerif-3" transform="translate(468.578125 0)"/>
       <use xlink:href="#DejaVuSerif-12" transform="translate(500.359375 0)"/>
      </g>
      <!-- accuracy-like -->
      <g transform="translate(115.327596 65.997448) scale(0.085 -0.085)">
       <defs>
        <path id="DejaVuSerif-10" d="M 281 1959 
L 1881 1959 
L 1881 1472 
L 281 1472 
L 281 1959 
z
" transform="scale(0.015625)"/>
        <path id="DejaVuSerif-4e" d="M 1831 0 
L 219 0 
L 219 331 
L 738 331 
L 738 4531 
L 184 4531 
L 184 4863 
L 1313 4863 
L 1313 1697 
L 2713 2988 
L 2234 2988 
L 2234 3322 
L 3738 3322 
L 3738 2988 
L 3169 2988 
L 2181 2075 
L 3444 331 
L 3922 331 
L 3922 0 
L 2284 0 
L 2284 331 
L 2759 331 
L 1766 1697 
L 1313 1275 
L 1313 331 
L 1831 331 
L 1831 0 
z
" transform="scale(0.015625)"/>
       </defs>
       <use xlink:href="#DejaVuSerif-44"/>
       <use xlink:href="#DejaVuSerif-46" transform="translate(59.625 0)"/>
       <use xlink:href="#DejaVuSerif-46" transform="translate(115.625 0)"/>
       <use xlink:href="#DejaVuSerif-58" transform="translate(171.625 0)"/>
       <use xlink:href="#DejaVuSerif-55" transform="translate(236.03125 0)"/>
       <use xlink:href="#DejaVuSerif-44" transform="translate(283.828125 0)"/>
       <use xlink:href="#DejaVuSerif-46" transform="translate(343.453125 0)"/>
       <use xlink:href="#DejaVuSerif-5c" transform="translate(399.453125 0)"/>
       <use xlink:href="#DejaVuSerif-10" transform="translate(455.953125 0)"/>
       <use xlink:href="#DejaVuSerif-4f" transform="translate(489.75 0)"/>
       <use xlink:href="#DejaVuSerif-4c" transform="translate(521.734375 0)"/>
       <use xlink:href="#DejaVuSerif-4e" transform="translate(553.71875 0)"/>
       <use xlink:href="#DejaVuSerif-48" transform="translate(614.3125 0)"/>
      </g>
     </g>
    </g>
    <g id="ytick_8">
     <g id="line2d_21">
      <path d="M 176.075096 105.102 
L 282.667404 105.102 
" clip-path="url(#p2757821c9f)" style="fill: none; stroke-dasharray: 2.59,1.12; stroke-dashoffset: 0; stroke: #e6e6e6; stroke-width: 0.7"/>
     </g>
     <g id="line2d_22"/>
     <g id="text_17">
      <!-- attack- -->
      <g transform="translate(142.972518 103.655589) scale(0.085 -0.085)">
       <use xlink:href="#DejaVuSerif-44"/>
       <use xlink:href="#DejaVuSerif-57" transform="translate(59.625 0)"/>
       <use xlink:href="#DejaVuSerif-57" transform="translate(99.8125 0)"/>
       <use xlink:href="#DejaVuSerif-44" transform="translate(140 0)"/>
       <use xlink:href="#DejaVuSerif-46" transform="translate(199.625 0)"/>
       <use xlink:href="#DejaVuSerif-4e" transform="translate(255.625 0)"/>
       <use xlink:href="#DejaVuSerif-10" transform="translate(314.46875 0)"/>
      </g>
      <!-- positive-like -->
      <g transform="translate(120.476737 113.857913) scale(0.085 -0.085)">
       <defs>
        <path id="DejaVuSerif-53" d="M 1313 1825 
L 1313 1497 
Q 1313 897 1542 583 
Q 1772 269 2209 269 
Q 2650 269 2876 622 
Q 3103 975 3103 1663 
Q 3103 2353 2876 2703 
Q 2650 3053 2209 3053 
Q 1772 3053 1542 2737 
Q 1313 2422 1313 1825 
z
M 738 2988 
L 184 2988 
L 184 3322 
L 1313 3322 
L 1313 2803 
Q 1481 3116 1742 3264 
Q 2003 3413 2388 3413 
Q 3000 3413 3387 2928 
Q 3775 2444 3775 1663 
Q 3775 881 3387 395 
Q 3000 -91 2388 -91 
Q 2003 -91 1742 57 
Q 1481 206 1313 519 
L 1313 -997 
L 1856 -997 
L 1856 -1331 
L 184 -1331 
L 184 -997 
L 738 -997 
L 738 2988 
z
" transform="scale(0.015625)"/>
        <path id="DejaVuSerif-56" d="M 359 184 
L 359 959 
L 691 959 
Q 703 588 923 403 
Q 1144 219 1575 219 
Q 1963 219 2166 364 
Q 2369 509 2369 788 
Q 2369 1006 2220 1140 
Q 2072 1275 1594 1428 
L 1178 1569 
Q 750 1706 558 1912 
Q 366 2119 366 2438 
Q 366 2894 700 3153 
Q 1034 3413 1625 3413 
Q 1888 3413 2178 3344 
Q 2469 3275 2778 3144 
L 2778 2419 
L 2447 2419 
Q 2434 2741 2221 2922 
Q 2009 3103 1644 3103 
Q 1281 3103 1095 2975 
Q 909 2847 909 2591 
Q 909 2381 1050 2254 
Q 1191 2128 1613 1997 
L 2069 1856 
Q 2541 1709 2748 1489 
Q 2956 1269 2956 922 
Q 2956 450 2595 179 
Q 2234 -91 1600 -91 
Q 1278 -91 972 -22 
Q 666 47 359 184 
z
" transform="scale(0.015625)"/>
        <path id="DejaVuSerif-59" d="M 1581 0 
L 359 2988 
L -19 2988 
L -19 3322 
L 1509 3322 
L 1509 2988 
L 978 2988 
L 1913 703 
L 2847 2988 
L 2350 2988 
L 2350 3322 
L 3597 3322 
L 3597 2988 
L 3225 2988 
L 2003 0 
L 1581 0 
z
" transform="scale(0.015625)"/>
       </defs>
       <use xlink:href="#DejaVuSerif-53"/>
       <use xlink:href="#DejaVuSerif-52" transform="translate(64.015625 0)"/>
       <use xlink:href="#DejaVuSerif-56" transform="translate(124.21875 0)"/>
       <use xlink:href="#DejaVuSerif-4c" transform="translate(175.53125 0)"/>
       <use xlink:href="#DejaVuSerif-57" transform="translate(207.515625 0)"/>
       <use xlink:href="#DejaVuSerif-4c" transform="translate(247.703125 0)"/>
       <use xlink:href="#DejaVuSerif-59" transform="translate(279.6875 0)"/>
       <use xlink:href="#DejaVuSerif-48" transform="translate(336.1875 0)"/>
       <use xlink:href="#DejaVuSerif-10" transform="translate(395.375 0)"/>
       <use xlink:href="#DejaVuSerif-4f" transform="translate(429.171875 0)"/>
       <use xlink:href="#DejaVuSerif-4c" transform="translate(461.15625 0)"/>
       <use xlink:href="#DejaVuSerif-4e" transform="translate(493.140625 0)"/>
       <use xlink:href="#DejaVuSerif-48" transform="translate(553.734375 0)"/>
      </g>
     </g>
    </g>
    <g id="ytick_9">
     <g id="line2d_23">
      <path d="M 176.075096 152.962465 
L 282.667404 152.962465 
" clip-path="url(#p2757821c9f)" style="fill: none; stroke-dasharray: 2.59,1.12; stroke-dashoffset: 0; stroke: #e6e6e6; stroke-width: 0.7"/>
     </g>
     <g id="line2d_24"/>
     <g id="text_18">
      <!-- unknown -->
      <g transform="translate(133.133768 156.191801) scale(0.085 -0.085)">
       <use xlink:href="#DejaVuSerif-58"/>
       <use xlink:href="#DejaVuSerif-51" transform="translate(64.40625 0)"/>
       <use xlink:href="#DejaVuSerif-4e" transform="translate(128.8125 0)"/>
       <use xlink:href="#DejaVuSerif-51" transform="translate(189.40625 0)"/>
       <use xlink:href="#DejaVuSerif-52" transform="translate(253.8125 0)"/>
       <use xlink:href="#DejaVuSerif-5a" transform="translate(314.015625 0)"/>
       <use xlink:href="#DejaVuSerif-51" transform="translate(399.609375 0)"/>
      </g>
     </g>
    </g>
   </g>
   <g id="patch_8">
    <path d="M 176.075096 43.362 
L 277.59158 43.362 
L 277.59158 71.12107 
L 176.075096 71.12107 
z
" clip-path="url(#p2757821c9f)" style="fill: #c82127; stroke: #ffffff; stroke-linejoin: miter"/>
   </g>
   <g id="patch_9">
    <path d="M 176.075096 91.222465 
L 226.833338 91.222465 
L 226.833338 118.981535 
L 176.075096 118.981535 
z
" clip-path="url(#p2757821c9f)" style="fill: #d78300; stroke: #ffffff; stroke-linejoin: miter"/>
   </g>
   <g id="patch_10">
    <path d="M 176.075096 139.08293 
L 277.59158 139.08293 
L 277.59158 166.842 
L 176.075096 166.842 
z
" clip-path="url(#p2757821c9f)" style="fill: #bdbdbd; stroke: #ffffff; stroke-linejoin: miter"/>
   </g>
   <g id="patch_11">
    <path d="M 176.075096 173.016 
L 176.075096 37.188 
" style="fill: none; stroke: #333333; stroke-width: 0.8; stroke-linejoin: miter; stroke-linecap: square"/>
   </g>
   <g id="patch_12">
    <path d="M 176.075096 173.016 
L 282.667404 173.016 
" style="fill: none; stroke: #333333; stroke-width: 0.8; stroke-linejoin: miter; stroke-linecap: square"/>
   </g>
   <g id="text_19">
    <!-- 6 -->
    <g transform="translate(280.129492 59.39759) scale(0.083 -0.083)">
     <use xlink:href="#DejaVuSerif-19"/>
    </g>
   </g>
   <g id="text_20">
    <!-- 3 -->
    <g transform="translate(229.37125 107.258055) scale(0.083 -0.083)">
     <defs>
      <path id="DejaVuSerif-16" d="M 622 4469 
Q 988 4606 1323 4678 
Q 1659 4750 1953 4750 
Q 2638 4750 3022 4454 
Q 3406 4159 3406 3634 
Q 3406 3213 3140 2930 
Q 2875 2647 2388 2547 
Q 2963 2466 3280 2130 
Q 3597 1794 3597 1259 
Q 3597 606 3158 257 
Q 2719 -91 1894 -91 
Q 1528 -91 1179 -12 
Q 831 66 488 225 
L 488 1131 
L 838 1131 
Q 869 681 1141 450 
Q 1413 219 1906 219 
Q 2384 219 2661 495 
Q 2938 772 2938 1253 
Q 2938 1803 2653 2086 
Q 2369 2369 1819 2369 
L 1522 2369 
L 1522 2688 
L 1678 2688 
Q 2225 2688 2498 2914 
Q 2772 3141 2772 3597 
Q 2772 4006 2547 4223 
Q 2322 4441 1900 4441 
Q 1478 4441 1245 4241 
Q 1013 4041 972 3647 
L 622 3647 
L 622 4469 
z
" transform="scale(0.015625)"/>
     </defs>
     <use xlink:href="#DejaVuSerif-16"/>
    </g>
   </g>
   <g id="text_21">
    <!-- 6 -->
    <g transform="translate(280.129492 155.11852) scale(0.083 -0.083)">
     <use xlink:href="#DejaVuSerif-19"/>
    </g>
   </g>
   <g id="text_22">
    <!-- (b) metric hypothesis -->
    <g transform="translate(178.113555 31.188) scale(0.095 -0.095)">
     <defs>
      <path id="DejaVuSerif-45" d="M 738 331 
L 738 4531 
L 184 4531 
L 184 4863 
L 1313 4863 
L 1313 2803 
Q 1481 3116 1742 3264 
Q 2003 3413 2388 3413 
Q 3000 3413 3387 2928 
Q 3775 2444 3775 1663 
Q 3775 881 3387 395 
Q 3000 -91 2388 -91 
Q 2003 -91 1742 57 
Q 1481 206 1313 519 
L 1313 0 
L 184 0 
L 184 331 
L 738 331 
z
M 1313 1497 
Q 1313 897 1542 583 
Q 1772 269 2209 269 
Q 2650 269 2876 622 
Q 3103 975 3103 1663 
Q 3103 2353 2876 2703 
Q 2650 3053 2209 3053 
Q 1772 3053 1542 2737 
Q 1313 2422 1313 1825 
L 1313 1497 
z
" transform="scale(0.015625)"/>
      <path id="DejaVuSerif-50" d="M 3316 2675 
Q 3481 3041 3739 3227 
Q 3997 3413 4341 3413 
Q 4863 3413 5119 3089 
Q 5375 2766 5375 2113 
L 5375 331 
L 5894 331 
L 5894 0 
L 4300 0 
L 4300 331 
L 4800 331 
L 4800 2047 
Q 4800 2556 4650 2772 
Q 4500 2988 4153 2988 
Q 3769 2988 3567 2697 
Q 3366 2406 3366 1850 
L 3366 331 
L 3866 331 
L 3866 0 
L 2291 0 
L 2291 331 
L 2791 331 
L 2791 2069 
Q 2791 2566 2641 2777 
Q 2491 2988 2144 2988 
Q 1759 2988 1557 2697 
Q 1356 2406 1356 1850 
L 1356 331 
L 1856 331 
L 1856 0 
L 263 0 
L 263 331 
L 781 331 
L 781 2994 
L 231 2994 
L 231 3322 
L 1356 3322 
L 1356 2731 
Q 1516 3063 1762 3238 
Q 2009 3413 2322 3413 
Q 2709 3413 2968 3220 
Q 3228 3028 3316 2675 
z
" transform="scale(0.015625)"/>
     </defs>
     <use xlink:href="#DejaVuSerif-b"/>
     <use xlink:href="#DejaVuSerif-45" transform="translate(39.015625 0)"/>
     <use xlink:href="#DejaVuSerif-c" transform="translate(103.03125 0)"/>
     <use xlink:href="#DejaVuSerif-3" transform="translate(142.046875 0)"/>
     <use xlink:href="#DejaVuSerif-50" transform="translate(173.828125 0)"/>
     <use xlink:href="#DejaVuSerif-48" transform="translate(268.65625 0)"/>
     <use xlink:href="#DejaVuSerif-57" transform="translate(327.84375 0)"/>
     <use xlink:href="#DejaVuSerif-55" transform="translate(368.03125 0)"/>
     <use xlink:href="#DejaVuSerif-4c" transform="translate(415.828125 0)"/>
     <use xlink:href="#DejaVuSerif-46" transform="translate(447.8125 0)"/>
     <use xlink:href="#DejaVuSerif-3" transform="translate(503.8125 0)"/>
     <use xlink:href="#DejaVuSerif-4b" transform="translate(535.59375 0)"/>
     <use xlink:href="#DejaVuSerif-5c" transform="translate(600 0)"/>
     <use xlink:href="#DejaVuSerif-53" transform="translate(656.5 0)"/>
     <use xlink:href="#DejaVuSerif-52" transform="translate(720.515625 0)"/>
     <use xlink:href="#DejaVuSerif-57" transform="translate(780.71875 0)"/>
     <use xlink:href="#DejaVuSerif-4b" transform="translate(820.90625 0)"/>
     <use xlink:href="#DejaVuSerif-48" transform="translate(885.3125 0)"/>
     <use xlink:href="#DejaVuSerif-56" transform="translate(944.5 0)"/>
     <use xlink:href="#DejaVuSerif-4c" transform="translate(995.8125 0)"/>
     <use xlink:href="#DejaVuSerif-56" transform="translate(1027.796875 0)"/>
    </g>
   </g>
  </g>
  <g id="axes_3">
   <g id="patch_13">
    <path d="M 330.633942 173.016 
L 437.22625 173.016 
L 437.22625 37.188 
L 330.633942 37.188 
z
" style="fill: #ffffff"/>
   </g>
   <g id="matplotlib.axis_5">
    <g id="xtick_7">
     <g id="line2d_25"/>
     <g id="text_23">
      <!-- Accuracy -->
      <g transform="translate(329.256761 199.200342) rotate(-25) scale(0.085 -0.085)">
       <defs>
        <path id="DejaVuSerif-24" d="M 1281 1691 
L 2994 1691 
L 2138 3909 
L 1281 1691 
z
M -38 0 
L -38 331 
L 372 331 
L 2034 4666 
L 2559 4666 
L 4225 331 
L 4684 331 
L 4684 0 
L 2988 0 
L 2988 331 
L 3506 331 
L 3116 1356 
L 1153 1356 
L 763 331 
L 1275 331 
L 1275 0 
L -38 0 
z
" transform="scale(0.015625)"/>
       </defs>
       <use xlink:href="#DejaVuSerif-24"/>
       <use xlink:href="#DejaVuSerif-46" transform="translate(72.21875 0)"/>
       <use xlink:href="#DejaVuSerif-46" transform="translate(128.21875 0)"/>
       <use xlink:href="#DejaVuSerif-58" transform="translate(184.21875 0)"/>
       <use xlink:href="#DejaVuSerif-55" transform="translate(248.625 0)"/>
       <use xlink:href="#DejaVuSerif-44" transform="translate(296.421875 0)"/>
       <use xlink:href="#DejaVuSerif-46" transform="translate(356.046875 0)"/>
       <use xlink:href="#DejaVuSerif-5c" transform="translate(412.046875 0)"/>
      </g>
     </g>
    </g>
    <g id="xtick_8">
     <g id="line2d_26"/>
     <g id="text_24">
      <!-- Weighted-F1 -->
      <g transform="translate(360.041487 205.518823) rotate(-25) scale(0.085 -0.085)">
       <defs>
        <path id="DejaVuSerif-3a" d="M 4878 0 
L 4366 0 
L 3297 3794 
L 2228 0 
L 1716 0 
L 494 4331 
L 31 4331 
L 31 4666 
L 1734 4666 
L 1734 4331 
L 1153 4331 
L 2125 884 
L 3188 4666 
L 3694 4666 
L 4775 844 
L 5753 4331 
L 5216 4331 
L 5216 4666 
L 6559 4666 
L 6559 4331 
L 6100 4331 
L 4878 0 
z
" transform="scale(0.015625)"/>
        <path id="DejaVuSerif-29" d="M 353 0 
L 353 331 
L 947 331 
L 947 4331 
L 353 4331 
L 353 4666 
L 4172 4666 
L 4172 3628 
L 3788 3628 
L 3788 4281 
L 1581 4281 
L 1581 2719 
L 3175 2719 
L 3175 3303 
L 3559 3303 
L 3559 1753 
L 3175 1753 
L 3175 2338 
L 1581 2338 
L 1581 331 
L 2328 331 
L 2328 0 
L 353 0 
z
" transform="scale(0.015625)"/>
       </defs>
       <use xlink:href="#DejaVuSerif-3a"/>
       <use xlink:href="#DejaVuSerif-48" transform="translate(94.625 0)"/>
       <use xlink:href="#DejaVuSerif-4c" transform="translate(153.8125 0)"/>
       <use xlink:href="#DejaVuSerif-4a" transform="translate(185.796875 0)"/>
       <use xlink:href="#DejaVuSerif-4b" transform="translate(249.8125 0)"/>
       <use xlink:href="#DejaVuSerif-57" transform="translate(314.21875 0)"/>
       <use xlink:href="#DejaVuSerif-48" transform="translate(354.40625 0)"/>
       <use xlink:href="#DejaVuSerif-47" transform="translate(413.59375 0)"/>
       <use xlink:href="#DejaVuSerif-10" transform="translate(477.609375 0)"/>
       <use xlink:href="#DejaVuSerif-29" transform="translate(511.40625 0)"/>
       <use xlink:href="#DejaVuSerif-14" transform="translate(580.796875 0)"/>
      </g>
     </g>
    </g>
    <g id="xtick_9">
     <g id="line2d_27"/>
     <g id="text_25">
      <!-- Attack-F1 -->
      <g transform="translate(403.466623 200.047931) rotate(-25) scale(0.085 -0.085)">
       <use xlink:href="#DejaVuSerif-24"/>
       <use xlink:href="#DejaVuSerif-57" transform="translate(70.46875 0)"/>
       <use xlink:href="#DejaVuSerif-57" transform="translate(110.65625 0)"/>
       <use xlink:href="#DejaVuSerif-44" transform="translate(150.84375 0)"/>
       <use xlink:href="#DejaVuSerif-46" transform="translate(210.46875 0)"/>
       <use xlink:href="#DejaVuSerif-4e" transform="translate(266.46875 0)"/>
       <use xlink:href="#DejaVuSerif-10" transform="translate(325.3125 0)"/>
       <use xlink:href="#DejaVuSerif-29" transform="translate(359.109375 0)"/>
       <use xlink:href="#DejaVuSerif-14" transform="translate(428.5 0)"/>
      </g>
     </g>
    </g>
   </g>
   <g id="matplotlib.axis_6">
    <g id="ytick_10">
     <g id="line2d_28">
      <path d="M 330.633942 173.016 
L 437.22625 173.016 
" clip-path="url(#p690872b08b)" style="fill: none; stroke-dasharray: 2.59,1.12; stroke-dashoffset: 0; stroke: #e6e6e6; stroke-width: 0.7"/>
     </g>
     <g id="line2d_29"/>
     <g id="text_26">
      <!-- 0.0 -->
      <g transform="translate(313.616286 176.245004) scale(0.085 -0.085)">
       <defs>
        <path id="DejaVuSerif-11" d="M 603 325 
Q 603 500 722 622 
Q 841 744 1019 744 
Q 1191 744 1312 622 
Q 1434 500 1434 325 
Q 1434 153 1312 31 
Q 1191 -91 1019 -91 
Q 841 -91 722 29 
Q 603 150 603 325 
z
" transform="scale(0.015625)"/>
       </defs>
       <use xlink:href="#DejaVuSerif-13"/>
       <use xlink:href="#DejaVuSerif-11" transform="translate(63.625 0)"/>
       <use xlink:href="#DejaVuSerif-13" transform="translate(95.40625 0)"/>
      </g>
     </g>
    </g>
    <g id="ytick_11">
     <g id="line2d_30">
      <path d="M 330.633942 147.862667 
L 437.22625 147.862667 
" clip-path="url(#p690872b08b)" style="fill: none; stroke-dasharray: 2.59,1.12; stroke-dashoffset: 0; stroke: #e6e6e6; stroke-width: 0.7"/>
     </g>
     <g id="line2d_31"/>
     <g id="text_27">
      <!-- 0.2 -->
      <g transform="translate(313.616286 151.091671) scale(0.085 -0.085)">
       <use xlink:href="#DejaVuSerif-13"/>
       <use xlink:href="#DejaVuSerif-11" transform="translate(63.625 0)"/>
       <use xlink:href="#DejaVuSerif-15" transform="translate(95.40625 0)"/>
      </g>
     </g>
    </g>
    <g id="ytick_12">
     <g id="line2d_32">
      <path d="M 330.633942 122.709333 
L 437.22625 122.709333 
" clip-path="url(#p690872b08b)" style="fill: none; stroke-dasharray: 2.59,1.12; stroke-dashoffset: 0; stroke: #e6e6e6; stroke-width: 0.7"/>
     </g>
     <g id="line2d_33"/>
     <g id="text_28">
      <!-- 0.4 -->
      <g transform="translate(313.616286 125.938337) scale(0.085 -0.085)">
       <use xlink:href="#DejaVuSerif-13"/>
       <use xlink:href="#DejaVuSerif-11" transform="translate(63.625 0)"/>
       <use xlink:href="#DejaVuSerif-17" transform="translate(95.40625 0)"/>
      </g>
     </g>
    </g>
    <g id="ytick_13">
     <g id="line2d_34">
      <path d="M 330.633942 97.556 
L 437.22625 97.556 
" clip-path="url(#p690872b08b)" style="fill: none; stroke-dasharray: 2.59,1.12; stroke-dashoffset: 0; stroke: #e6e6e6; stroke-width: 0.7"/>
     </g>
     <g id="line2d_35"/>
     <g id="text_29">
      <!-- 0.6 -->
      <g transform="translate(313.616286 100.785004) scale(0.085 -0.085)">
       <use xlink:href="#DejaVuSerif-13"/>
       <use xlink:href="#DejaVuSerif-11" transform="translate(63.625 0)"/>
       <use xlink:href="#DejaVuSerif-19" transform="translate(95.40625 0)"/>
      </g>
     </g>
    </g>
    <g id="ytick_14">
     <g id="line2d_36">
      <path d="M 330.633942 72.402667 
L 437.22625 72.402667 
" clip-path="url(#p690872b08b)" style="fill: none; stroke-dasharray: 2.59,1.12; stroke-dashoffset: 0; stroke: #e6e6e6; stroke-width: 0.7"/>
     </g>
     <g id="line2d_37"/>
     <g id="text_30">
      <!-- 0.8 -->
      <g transform="translate(313.616286 75.631671) scale(0.085 -0.085)">
       <use xlink:href="#DejaVuSerif-13"/>
       <use xlink:href="#DejaVuSerif-11" transform="translate(63.625 0)"/>
       <use xlink:href="#DejaVuSerif-1b" transform="translate(95.40625 0)"/>
      </g>
     </g>
    </g>
    <g id="ytick_15">
     <g id="line2d_38">
      <path d="M 330.633942 47.249333 
L 437.22625 47.249333 
" clip-path="url(#p690872b08b)" style="fill: none; stroke-dasharray: 2.59,1.12; stroke-dashoffset: 0; stroke: #e6e6e6; stroke-width: 0.7"/>
     </g>
     <g id="line2d_39"/>
     <g id="text_31">
      <!-- 1.0 -->
      <g transform="translate(313.616286 50.478337) scale(0.085 -0.085)">
       <use xlink:href="#DejaVuSerif-14"/>
       <use xlink:href="#DejaVuSerif-11" transform="translate(63.625 0)"/>
       <use xlink:href="#DejaVuSerif-13" transform="translate(95.40625 0)"/>
      </g>
     </g>
    </g>
    <g id="text_32">
     <!-- Metric value -->
     <g transform="translate(307.574294 132.345828) rotate(-90) scale(0.085 -0.085)">
      <defs>
       <path id="DejaVuSerif-30" d="M 353 0 
L 353 331 
L 947 331 
L 947 4331 
L 319 4331 
L 319 4666 
L 1678 4666 
L 3316 1344 
L 4953 4666 
L 6228 4666 
L 6228 4331 
L 5606 4331 
L 5606 331 
L 6203 331 
L 6203 0 
L 4378 0 
L 4378 331 
L 4972 331 
L 4972 3938 
L 3372 684 
L 2931 684 
L 1331 3938 
L 1331 331 
L 1925 331 
L 1925 0 
L 353 0 
z
" transform="scale(0.015625)"/>
      </defs>
      <use xlink:href="#DejaVuSerif-30"/>
      <use xlink:href="#DejaVuSerif-48" transform="translate(102.390625 0)"/>
      <use xlink:href="#DejaVuSerif-57" transform="translate(161.578125 0)"/>
      <use xlink:href="#DejaVuSerif-55" transform="translate(201.765625 0)"/>
      <use xlink:href="#DejaVuSerif-4c" transform="translate(249.5625 0)"/>
      <use xlink:href="#DejaVuSerif-46" transform="translate(281.546875 0)"/>
      <use xlink:href="#DejaVuSerif-3" transform="translate(337.546875 0)"/>
      <use xlink:href="#DejaVuSerif-59" transform="translate(369.328125 0)"/>
      <use xlink:href="#DejaVuSerif-44" transform="translate(425.828125 0)"/>
      <use xlink:href="#DejaVuSerif-4f" transform="translate(485.453125 0)"/>
      <use xlink:href="#DejaVuSerif-58" transform="translate(517.4375 0)"/>
      <use xlink:href="#DejaVuSerif-48" transform="translate(581.84375 0)"/>
     </g>
    </g>
   </g>
   <g id="patch_14">
    <path d="M 335.479047 173.016 
L 357.26324 173.016 
L 357.26324 47.384836 
L 335.479047 47.384836 
z
" clip-path="url(#p690872b08b)" style="fill: #565656; stroke: #ffffff; stroke-linejoin: miter"/>
   </g>
   <g id="patch_15">
    <path d="M 373.038 173.016 
L 394.822192 173.016 
L 394.822192 47.452551 
L 373.038 47.452551 
z
" clip-path="url(#p690872b08b)" style="fill: #a9a9a9; stroke: #ffffff; stroke-linejoin: miter"/>
   </g>
   <g id="patch_16">
    <path d="M 410.596953 173.016 
L 432.381145 173.016 
L 432.381145 173.016 
L 410.596953 173.016 
z
" clip-path="url(#p690872b08b)" style="fill: url(#hba909714fa); stroke: #ffffff; stroke-linejoin: miter"/>
   </g>
   <g id="patch_17">
    <path d="M 330.633942 173.016 
L 330.633942 37.188 
" style="fill: none; stroke: #333333; stroke-width: 0.8; stroke-linejoin: miter; stroke-linecap: square"/>
   </g>
   <g id="patch_18">
    <path d="M 330.633942 173.016 
L 437.22625 173.016 
" style="fill: none; stroke: #333333; stroke-width: 0.8; stroke-linejoin: miter; stroke-linecap: square"/>
   </g>
   <g id="text_33">
    <!-- 0.999 -->
    <g transform="translate(335.206175 42.983003) scale(0.078 -0.078)">
     <defs>
      <path id="DejaVuSerif-1c" d="M 2994 2091 
Q 2784 1856 2512 1740 
Q 2241 1625 1900 1625 
Q 1206 1625 804 2044 
Q 403 2463 403 3188 
Q 403 3897 839 4323 
Q 1275 4750 2003 4750 
Q 2794 4750 3217 4161 
Q 3641 3572 3641 2478 
Q 3641 1253 3137 581 
Q 2634 -91 1722 -91 
Q 1475 -91 1203 -44 
Q 931 3 647 97 
L 647 872 
L 997 872 
Q 1038 556 1241 387 
Q 1444 219 1784 219 
Q 2391 219 2687 676 
Q 2984 1134 2994 2091 
z
M 1978 4441 
Q 1534 4441 1298 4117 
Q 1063 3794 1063 3188 
Q 1063 2581 1298 2256 
Q 1534 1931 1978 1931 
Q 2422 1931 2658 2245 
Q 2894 2559 2894 3150 
Q 2894 3772 2656 4106 
Q 2419 4441 1978 4441 
z
" transform="scale(0.015625)"/>
     </defs>
     <use xlink:href="#DejaVuSerif-13"/>
     <use xlink:href="#DejaVuSerif-11" transform="translate(63.625 0)"/>
     <use xlink:href="#DejaVuSerif-1c" transform="translate(95.40625 0)"/>
     <use xlink:href="#DejaVuSerif-1c" transform="translate(159.03125 0)"/>
     <use xlink:href="#DejaVuSerif-1c" transform="translate(222.65625 0)"/>
    </g>
   </g>
   <g id="text_34">
    <!-- 0.998 -->
    <g transform="translate(372.765127 43.050717) scale(0.078 -0.078)">
     <use xlink:href="#DejaVuSerif-13"/>
     <use xlink:href="#DejaVuSerif-11" transform="translate(63.625 0)"/>
     <use xlink:href="#DejaVuSerif-1c" transform="translate(95.40625 0)"/>
     <use xlink:href="#DejaVuSerif-1c" transform="translate(159.03125 0)"/>
     <use xlink:href="#DejaVuSerif-1b" transform="translate(222.65625 0)"/>
    </g>
   </g>
   <g id="text_35">
    <!-- 0.000 -->
    <g transform="translate(410.32408 168.614167) scale(0.078 -0.078)">
     <use xlink:href="#DejaVuSerif-13"/>
     <use xlink:href="#DejaVuSerif-11" transform="translate(63.625 0)"/>
     <use xlink:href="#DejaVuSerif-13" transform="translate(95.40625 0)"/>
     <use xlink:href="#DejaVuSerif-13" transform="translate(159.03125 0)"/>
     <use xlink:href="#DejaVuSerif-13" transform="translate(222.65625 0)"/>
    </g>
   </g>
   <g id="text_36">
    <!-- (c) all-normal trap -->
    <g transform="translate(339.971073 31.188) scale(0.095 -0.095)">
     <use xlink:href="#DejaVuSerif-b"/>
     <use xlink:href="#DejaVuSerif-46" transform="translate(39.015625 0)"/>
     <use xlink:href="#DejaVuSerif-c" transform="translate(95.015625 0)"/>
     <use xlink:href="#DejaVuSerif-3" transform="translate(134.03125 0)"/>
     <use xlink:href="#DejaVuSerif-44" transform="translate(165.8125 0)"/>
     <use xlink:href="#DejaVuSerif-4f" transform="translate(225.4375 0)"/>
     <use xlink:href="#DejaVuSerif-4f" transform="translate(257.421875 0)"/>
     <use xlink:href="#DejaVuSerif-10" transform="translate(289.40625 0)"/>
     <use xlink:href="#DejaVuSerif-51" transform="translate(323.203125 0)"/>
     <use xlink:href="#DejaVuSerif-52" transform="translate(387.609375 0)"/>
     <use xlink:href="#DejaVuSerif-55" transform="translate(447.8125 0)"/>
     <use xlink:href="#DejaVuSerif-50" transform="translate(495.609375 0)"/>
     <use xlink:href="#DejaVuSerif-44" transform="translate(590.4375 0)"/>
     <use xlink:href="#DejaVuSerif-4f" transform="translate(650.0625 0)"/>
     <use xlink:href="#DejaVuSerif-3" transform="translate(682.046875 0)"/>
     <use xlink:href="#DejaVuSerif-57" transform="translate(713.828125 0)"/>
     <use xlink:href="#DejaVuSerif-55" transform="translate(754.015625 0)"/>
     <use xlink:href="#DejaVuSerif-44" transform="translate(801.8125 0)"/>
     <use xlink:href="#DejaVuSerif-53" transform="translate(861.4375 0)"/>
    </g>
   </g>
  </g>
  <g id="text_37">
   <!-- Table-13 Metric Forensics -->
   <g transform="translate(148.6325 15.71025) scale(0.112 -0.112)">
    <defs>
     <path id="DejaVuSerif-37" d="M 1222 0 
L 1222 331 
L 1819 331 
L 1819 4294 
L 447 4294 
L 447 3566 
L 63 3566 
L 63 4666 
L 4206 4666 
L 4206 3566 
L 3822 3566 
L 3822 4294 
L 2450 4294 
L 2450 331 
L 3047 331 
L 3047 0 
L 1222 0 
z
" transform="scale(0.015625)"/>
    </defs>
    <use xlink:href="#DejaVuSerif-37"/>
    <use xlink:href="#DejaVuSerif-44" transform="translate(58.9375 0)"/>
    <use xlink:href="#DejaVuSerif-45" transform="translate(118.5625 0)"/>
    <use xlink:href="#DejaVuSerif-4f" transform="translate(182.578125 0)"/>
    <use xlink:href="#DejaVuSerif-48" transform="translate(214.5625 0)"/>
    <use xlink:href="#DejaVuSerif-10" transform="translate(273.75 0)"/>
    <use xlink:href="#DejaVuSerif-14" transform="translate(307.546875 0)"/>
    <use xlink:href="#DejaVuSerif-16" transform="translate(371.171875 0)"/>
    <use xlink:href="#DejaVuSerif-3" transform="translate(434.796875 0)"/>
    <use xlink:href="#DejaVuSerif-30" transform="translate(466.578125 0)"/>
    <use xlink:href="#DejaVuSerif-48" transform="translate(568.96875 0)"/>
    <use xlink:href="#DejaVuSerif-57" transform="translate(628.15625 0)"/>
    <use xlink:href="#DejaVuSerif-55" transform="translate(668.34375 0)"/>
    <use xlink:href="#DejaVuSerif-4c" transform="translate(716.140625 0)"/>
    <use xlink:href="#DejaVuSerif-46" transform="translate(748.125 0)"/>
    <use xlink:href="#DejaVuSerif-3" transform="translate(804.125 0)"/>
    <use xlink:href="#DejaVuSerif-29" transform="translate(835.90625 0)"/>
    <use xlink:href="#DejaVuSerif-52" transform="translate(899.828125 0)"/>
    <use xlink:href="#DejaVuSerif-55" transform="translate(960.03125 0)"/>
    <use xlink:href="#DejaVuSerif-48" transform="translate(1007.828125 0)"/>
    <use xlink:href="#DejaVuSerif-51" transform="translate(1067.015625 0)"/>
    <use xlink:href="#DejaVuSerif-56" transform="translate(1131.421875 0)"/>
    <use xlink:href="#DejaVuSerif-4c" transform="translate(1182.734375 0)"/>
    <use xlink:href="#DejaVuSerif-46" transform="translate(1214.71875 0)"/>
    <use xlink:href="#DejaVuSerif-56" transform="translate(1270.71875 0)"/>
   </g>
  </g>
 </g>
 <defs>
  <clipPath id="pcd21ae4cd7">
   <rect x="21.51625" y="37.188" width="106.592308" height="135.828"/>
  </clipPath>
  <clipPath id="p2757821c9f">
   <rect x="176.075096" y="37.188" width="106.592308" height="135.828"/>
  </clipPath>
  <clipPath id="p690872b08b">
   <rect x="330.633942" y="37.188" width="106.592308" height="135.828"/>
  </clipPath>
 </defs>
 <defs>
  <pattern id="hba909714fa" patternUnits="userSpaceOnUse" x="0" y="0" width="72" height="72">
   <rect x="0" y="0" width="73" height="73" fill="#c82127"/>
   <path d="M -36 36 
L 36 -36 
M -30 42 
L 42 -30 
M -24 48 
L 48 -24 
M -18 54 
L 54 -18 
M -12 60 
L 60 -12 
M -6 66 
L 66 -6 
M 0 72 
L 72 0 
M 6 78 
L 78 6 
M 12 84 
L 84 12 
M 18 90 
L 90 18 
M 24 96 
L 96 24 
M 30 102 
L 102 30 
M 36 108 
L 108 36 
" style="fill: #ffffff; stroke: #ffffff; stroke-width: 1.15; stroke-linecap: butt; stroke-linejoin: miter"/>
  </pattern>
 </defs>
</svg>
