<svg xmlns="http://www.w3.org/2000/svg" width="1120" height="620" viewBox="0 0 1120 620">

<defs>
  <pattern id="hatch" patternUnits="userSpaceOnUse" width="8" height="8" patternTransform="rotate(45)">
    <line x1="0" y1="0" x2="0" y2="8" stroke="#7d8894" stroke-width="1.1"/>
  </pattern>
  <style>
    .axis { stroke: #1f2937; stroke-width: 1.4; }
    .grid { stroke: #dfe4ea; stroke-width: 1.0; }
    .label { font-family: Arial, Helvetica, sans-serif; fill: #334155; }
  </style>
</defs>

<rect width="100%" height="100%" fill="white"/>
<text x="56.0" y="52.0" font-family="Arial, Helvetica, sans-serif" font-size="28" font-weight="700" text-anchor="start" fill="#17212f">ROAD Few-Label Behavior</text>
<text x="56.0" y="82.0" font-family="Arial, Helvetica, sans-serif" font-size="14" font-weight="400" text-anchor="start" fill="#475569">CMF-CAN metrics across label ratios; default-F1 winners are reported separately in tables</text>
<text x="96.0" y="117.0" font-family="Arial, Helvetica, sans-serif" font-size="18" font-weight="700" text-anchor="start" fill="#17212f">Metric value</text>
<line x1="96.0" y1="505.0" x2="996.0" y2="505.0" stroke="#dfe4ea" stroke-width="1"/>
<text x="84.0" y="509.0" font-family="Arial, Helvetica, sans-serif" font-size="10" font-weight="400" text-anchor="end" fill="#53606d">0.0</text>
<line x1="96.0" y1="433.0" x2="996.0" y2="433.0" stroke="#dfe4ea" stroke-width="1"/>
<text x="84.0" y="437.0" font-family="Arial, Helvetica, sans-serif" font-size="10" font-weight="400" text-anchor="end" fill="#53606d">0.2</text>
<line x1="96.0" y1="361.0" x2="996.0" y2="361.0" stroke="#dfe4ea" stroke-width="1"/>
<text x="84.0" y="365.0" font-family="Arial, Helvetica, sans-serif" font-size="10" font-weight="400" text-anchor="end" fill="#53606d">0.4</text>
<line x1="96.0" y1="289.0" x2="996.0" y2="289.0" stroke="#dfe4ea" stroke-width="1"/>
<text x="84.0" y="293.0" font-family="Arial, Helvetica, sans-serif" font-size="10" font-weight="400" text-anchor="end" fill="#53606d">0.6</text>
<line x1="96.0" y1="217.0" x2="996.0" y2="217.0" stroke="#dfe4ea" stroke-width="1"/>
<text x="84.0" y="221.0" font-family="Arial, Helvetica, sans-serif" font-size="10" font-weight="400" text-anchor="end" fill="#53606d">0.8</text>
<line x1="96.0" y1="145.0" x2="996.0" y2="145.0" stroke="#dfe4ea" stroke-width="1"/>
<text x="84.0" y="149.0" font-family="Arial, Helvetica, sans-serif" font-size="10" font-weight="400" text-anchor="end" fill="#53606d">1.0</text>
<line x1="96.0" y1="145.0" x2="96.0" y2="505.0" stroke="#111827" stroke-width="1.3"/>
<line x1="96.0" y1="505.0" x2="996.0" y2="505.0" stroke="#111827" stroke-width="1.3"/>
<polyline points="96.0,337.4 321.0,220.9 546.0,227.0 771.0,222.9 996.0,220.4" fill="none" stroke="#3b73c6" stroke-width="2.8" stroke-linejoin="round" stroke-linecap="round"/>
<circle cx="96.0" cy="337.4" r="4.5" fill="#3b73c6" stroke="white" stroke-width="1.5"/>
<circle cx="321.0" cy="220.9" r="4.5" fill="#3b73c6" stroke="white" stroke-width="1.5"/>
<circle cx="546.0" cy="227.0" r="4.5" fill="#3b73c6" stroke="white" stroke-width="1.5"/>
<circle cx="771.0" cy="222.9" r="4.5" fill="#3b73c6" stroke="white" stroke-width="1.5"/>
<circle cx="996.0" cy="220.4" r="4.5" fill="#3b73c6" stroke="white" stroke-width="1.5"/>
<line x1="680.0" y1="47.0" x2="708.0" y2="47.0" stroke="#3b73c6" stroke-width="3"/>
<circle cx="694.0" cy="47.0" r="4.5" fill="#3b73c6" stroke="white" stroke-width="1.5"/>
<text x="716.0" y="52.0" font-family="Arial, Helvetica, sans-serif" font-size="12" font-weight="400" text-anchor="start" fill="#334155">CMF F1</text>
<polyline points="96.0,339.5 321.0,223.1 546.0,226.0 771.0,214.8 996.0,212.1" fill="none" stroke="#2f9a61" stroke-width="2.8" stroke-linejoin="round" stroke-linecap="round"/>
<circle cx="96.0" cy="339.5" r="4.5" fill="#2f9a61" stroke="white" stroke-width="1.5"/>
<circle cx="321.0" cy="223.1" r="4.5" fill="#2f9a61" stroke="white" stroke-width="1.5"/>
<circle cx="546.0" cy="226.0" r="4.5" fill="#2f9a61" stroke="white" stroke-width="1.5"/>
<circle cx="771.0" cy="214.8" r="4.5" fill="#2f9a61" stroke="white" stroke-width="1.5"/>
<circle cx="996.0" cy="212.1" r="4.5" fill="#2f9a61" stroke="white" stroke-width="1.5"/>
<line x1="820.0" y1="47.0" x2="848.0" y2="47.0" stroke="#2f9a61" stroke-width="3"/>
<circle cx="834.0" cy="47.0" r="4.5" fill="#2f9a61" stroke="white" stroke-width="1.5"/>
<text x="856.0" y="52.0" font-family="Arial, Helvetica, sans-serif" font-size="12" font-weight="400" text-anchor="start" fill="#334155">CMF AUPR</text>
<polyline points="96.0,480.3 321.0,312.9 546.0,299.4 771.0,262.3 996.0,252.2" fill="none" stroke="#d9812b" stroke-width="2.8" stroke-linejoin="round" stroke-linecap="round"/>
<circle cx="96.0" cy="480.3" r="4.5" fill="#d9812b" stroke="white" stroke-width="1.5"/>
<circle cx="321.0" cy="312.9" r="4.5" fill="#d9812b" stroke="white" stroke-width="1.5"/>
<circle cx="546.0" cy="299.4" r="4.5" fill="#d9812b" stroke="white" stroke-width="1.5"/>
<circle cx="771.0" cy="262.3" r="4.5" fill="#d9812b" stroke="white" stroke-width="1.5"/>
<circle cx="996.0" cy="252.2" r="4.5" fill="#d9812b" stroke="white" stroke-width="1.5"/>
<line x1="960.0" y1="47.0" x2="988.0" y2="47.0" stroke="#d9812b" stroke-width="3"/>
<circle cx="974.0" cy="47.0" r="4.5" fill="#d9812b" stroke="white" stroke-width="1.5"/>
<text x="996.0" y="52.0" font-family="Arial, Helvetica, sans-serif" font-size="12" font-weight="400" text-anchor="start" fill="#334155">CMF Recall@FPR&lt;=1e-4</text>
<text x="96.0" y="531.0" font-family="Arial, Helvetica, sans-serif" font-size="12" font-weight="400" text-anchor="middle" fill="#334155">0.01</text>
<text x="321.0" y="531.0" font-family="Arial, Helvetica, sans-serif" font-size="12" font-weight="400" text-anchor="middle" fill="#334155">0.05</text>
<text x="546.0" y="531.0" font-family="Arial, Helvetica, sans-serif" font-size="12" font-weight="400" text-anchor="middle" fill="#334155">0.1</text>
<text x="771.0" y="531.0" font-family="Arial, Helvetica, sans-serif" font-size="12" font-weight="400" text-anchor="middle" fill="#334155">0.2</text>
<text x="996.0" y="531.0" font-family="Arial, Helvetica, sans-serif" font-size="12" font-weight="400" text-anchor="middle" fill="#334155">1</text>
<text x="546.0" y="561.0" font-family="Arial, Helvetica, sans-serif" font-size="13" font-weight="400" text-anchor="middle" fill="#334155">Label ratio</text>
</svg>
