<svg xmlns="http://www.w3.org/2000/svg" width="1320" height="620" viewBox="0 0 1320 620">

<defs>
  <pattern id="hatch" patternUnits="userSpaceOnUse" width="8" height="8" patternTransform="rotate(45)">
    <line x1="0" y1="0" x2="0" y2="8" stroke="#7d8894" stroke-width="1.1"/>
  </pattern>
  <style>
    .axis { stroke: #1f2937; stroke-width: 1.4; }
    .grid { stroke: #dfe4ea; stroke-width: 1.0; }
    .label { font-family: Arial, Helvetica, sans-serif; fill: #334155; }
  </style>
</defs>

<rect width="100%" height="100%" fill="white"/>
<text x="56.0" y="52.0" font-family="Arial, Helvetica, sans-serif" font-size="28" font-weight="700" text-anchor="start" fill="#17212f">Shifted / Unknown Attack Repair</text>
<text x="56.0" y="82.0" font-family="Arial, Helvetica, sans-serif" font-size="14" font-weight="400" text-anchor="start" fill="#475569">Baseline CMF-CAN vs final CMF-CAN+Anomaly, mean over 3 seeds</text>
<rect x="970.0" y="38.0" width="22.0" height="14.0" rx="0.0" fill="#aeb8c2" stroke="none" stroke-width="1.0"/>
<rect x="970.0" y="38.0" width="22.0" height="14.0" rx="0.0" fill="url(#hatch)" stroke="#aeb8c2" stroke-width="1.0"/>
<text x="1002.0" y="51.0" font-family="Arial, Helvetica, sans-serif" font-size="13" font-weight="400" text-anchor="start" fill="#334155">Baseline</text>
<rect x="1090.0" y="38.0" width="22.0" height="14.0" rx="0.0" fill="#3b73c6" stroke="none" stroke-width="1.0"/>
<text x="1122.0" y="51.0" font-family="Arial, Helvetica, sans-serif" font-size="13" font-weight="400" text-anchor="start" fill="#334155">Enhanced</text>
<text x="72.0" y="117.0" font-family="Arial, Helvetica, sans-serif" font-size="18" font-weight="700" text-anchor="start" fill="#17212f">F1</text>
<line x1="72.0" y1="505.0" x2="412.0" y2="505.0" stroke="#dfe4ea" stroke-width="1"/>
<text x="60.0" y="509.0" font-family="Arial, Helvetica, sans-serif" font-size="10" font-weight="400" text-anchor="end" fill="#53606d">0.0</text>
<line x1="72.0" y1="433.0" x2="412.0" y2="433.0" stroke="#dfe4ea" stroke-width="1"/>
<text x="60.0" y="437.0" font-family="Arial, Helvetica, sans-serif" font-size="10" font-weight="400" text-anchor="end" fill="#53606d">0.2</text>
<line x1="72.0" y1="361.0" x2="412.0" y2="361.0" stroke="#dfe4ea" stroke-width="1"/>
<text x="60.0" y="365.0" font-family="Arial, Helvetica, sans-serif" font-size="10" font-weight="400" text-anchor="end" fill="#53606d">0.4</text>
<line x1="72.0" y1="289.0" x2="412.0" y2="289.0" stroke="#dfe4ea" stroke-width="1"/>
<text x="60.0" y="293.0" font-family="Arial, Helvetica, sans-serif" font-size="10" font-weight="400" text-anchor="end" fill="#53606d">0.6</text>
<line x1="72.0" y1="217.0" x2="412.0" y2="217.0" stroke="#dfe4ea" stroke-width="1"/>
<text x="60.0" y="221.0" font-family="Arial, Helvetica, sans-serif" font-size="10" font-weight="400" text-anchor="end" fill="#53606d">0.8</text>
<line x1="72.0" y1="145.0" x2="412.0" y2="145.0" stroke="#dfe4ea" stroke-width="1"/>
<text x="60.0" y="149.0" font-family="Arial, Helvetica, sans-serif" font-size="10" font-weight="400" text-anchor="end" fill="#53606d">1.0</text>
<line x1="72.0" y1="145.0" x2="72.0" y2="505.0" stroke="#111827" stroke-width="1.3"/>
<line x1="72.0" y1="505.0" x2="412.0" y2="505.0" stroke="#111827" stroke-width="1.3"/>
<rect x="114.0" y="447.4" width="25.0" height="57.6" rx="0.0" fill="#aeb8c2" stroke="none" stroke-width="1.0"/>
<rect x="114.0" y="447.4" width="25.0" height="57.6" rx="0.0" fill="url(#hatch)" stroke="#aeb8c2" stroke-width="1.0"/>
<text x="126.5" y="440.4" font-family="Arial, Helvetica, sans-serif" font-size="10" font-weight="400" text-anchor="middle" fill="#17212f">0.16</text>
<rect x="145.0" y="385.1" width="25.0" height="119.9" rx="0.0" fill="#3b73c6" stroke="none" stroke-width="1.0"/>
<text x="157.5" y="378.1" font-family="Arial, Helvetica, sans-serif" font-size="10" font-weight="400" text-anchor="middle" fill="#17212f">0.33</text>
<text x="142.0" y="529.0" font-family="Arial, Helvetica, sans-serif" font-size="11" font-weight="400" text-anchor="middle" fill="#334155">test02</text>
<rect x="209.0" y="478.3" width="25.0" height="26.7" rx="0.0" fill="#aeb8c2" stroke="none" stroke-width="1.0"/>
<rect x="209.0" y="478.3" width="25.0" height="26.7" rx="0.0" fill="url(#hatch)" stroke="#aeb8c2" stroke-width="1.0"/>
<text x="221.5" y="471.3" font-family="Arial, Helvetica, sans-serif" font-size="10" font-weight="400" text-anchor="middle" fill="#17212f">0.07</text>
<rect x="240.0" y="196.6" width="25.0" height="308.4" rx="0.0" fill="#3b73c6" stroke="none" stroke-width="1.0"/>
<text x="252.5" y="189.6" font-family="Arial, Helvetica, sans-serif" font-size="10" font-weight="400" text-anchor="middle" fill="#17212f">0.86</text>
<text x="237.0" y="529.0" font-family="Arial, Helvetica, sans-serif" font-size="11" font-weight="400" text-anchor="middle" fill="#334155">test03</text>
<rect x="304.0" y="494.8" width="25.0" height="10.2" rx="0.0" fill="#aeb8c2" stroke="none" stroke-width="1.0"/>
<rect x="304.0" y="494.8" width="25.0" height="10.2" rx="0.0" fill="url(#hatch)" stroke="#aeb8c2" stroke-width="1.0"/>
<text x="316.5" y="487.8" font-family="Arial, Helvetica, sans-serif" font-size="10" font-weight="400" text-anchor="middle" fill="#17212f">0.03</text>
<rect x="335.0" y="344.5" width="25.0" height="160.5" rx="0.0" fill="#3b73c6" stroke="none" stroke-width="1.0"/>
<text x="347.5" y="337.5" font-family="Arial, Helvetica, sans-serif" font-size="10" font-weight="400" text-anchor="middle" fill="#17212f">0.45</text>
<text x="332.0" y="529.0" font-family="Arial, Helvetica, sans-serif" font-size="11" font-weight="400" text-anchor="middle" fill="#334155">test04</text>
<text x="482.0" y="117.0" font-family="Arial, Helvetica, sans-serif" font-size="18" font-weight="700" text-anchor="start" fill="#17212f">AUPR</text>
<line x1="482.0" y1="505.0" x2="822.0" y2="505.0" stroke="#dfe4ea" stroke-width="1"/>
<text x="470.0" y="509.0" font-family="Arial, Helvetica, sans-serif" font-size="10" font-weight="400" text-anchor="end" fill="#53606d">0.0</text>
<line x1="482.0" y1="433.0" x2="822.0" y2="433.0" stroke="#dfe4ea" stroke-width="1"/>
<text x="470.0" y="437.0" font-family="Arial, Helvetica, sans-serif" font-size="10" font-weight="400" text-anchor="end" fill="#53606d">0.2</text>
<line x1="482.0" y1="361.0" x2="822.0" y2="361.0" stroke="#dfe4ea" stroke-width="1"/>
<text x="470.0" y="365.0" font-family="Arial, Helvetica, sans-serif" font-size="10" font-weight="400" text-anchor="end" fill="#53606d">0.4</text>
<line x1="482.0" y1="289.0" x2="822.0" y2="289.0" stroke="#dfe4ea" stroke-width="1"/>
<text x="470.0" y="293.0" font-family="Arial, Helvetica, sans-serif" font-size="10" font-weight="400" text-anchor="end" fill="#53606d">0.6</text>
<line x1="482.0" y1="217.0" x2="822.0" y2="217.0" stroke="#dfe4ea" stroke-width="1"/>
<text x="470.0" y="221.0" font-family="Arial, Helvetica, sans-serif" font-size="10" font-weight="400" text-anchor="end" fill="#53606d">0.8</text>
<line x1="482.0" y1="145.0" x2="822.0" y2="145.0" stroke="#dfe4ea" stroke-width="1"/>
<text x="470.0" y="149.0" font-family="Arial, Helvetica, sans-serif" font-size="10" font-weight="400" text-anchor="end" fill="#53606d">1.0</text>
<line x1="482.0" y1="145.0" x2="482.0" y2="505.0" stroke="#111827" stroke-width="1.3"/>
<line x1="482.0" y1="505.0" x2="822.0" y2="505.0" stroke="#111827" stroke-width="1.3"/>
<rect x="524.0" y="172.5" width="25.0" height="332.5" rx="0.0" fill="#aeb8c2" stroke="none" stroke-width="1.0"/>
<rect x="524.0" y="172.5" width="25.0" height="332.5" rx="0.0" fill="url(#hatch)" stroke="#aeb8c2" stroke-width="1.0"/>
<text x="536.5" y="165.5" font-family="Arial, Helvetica, sans-serif" font-size="10" font-weight="400" text-anchor="middle" fill="#17212f">0.92</text>
<rect x="555.0" y="171.1" width="25.0" height="333.9" rx="0.0" fill="#3b73c6" stroke="none" stroke-width="1.0"/>
<text x="567.5" y="164.1" font-family="Arial, Helvetica, sans-serif" font-size="10" font-weight="400" text-anchor="middle" fill="#17212f">0.93</text>
<text x="552.0" y="529.0" font-family="Arial, Helvetica, sans-serif" font-size="11" font-weight="400" text-anchor="middle" fill="#334155">test02</text>
<rect x="619.0" y="414.8" width="25.0" height="90.2" rx="0.0" fill="#aeb8c2" stroke="none" stroke-width="1.0"/>
<rect x="619.0" y="414.8" width="25.0" height="90.2" rx="0.0" fill="url(#hatch)" stroke="#aeb8c2" stroke-width="1.0"/>
<text x="631.5" y="407.8" font-family="Arial, Helvetica, sans-serif" font-size="10" font-weight="400" text-anchor="middle" fill="#17212f">0.25</text>
<rect x="650.0" y="200.6" width="25.0" height="304.4" rx="0.0" fill="#3b73c6" stroke="none" stroke-width="1.0"/>
<text x="662.5" y="193.6" font-family="Arial, Helvetica, sans-serif" font-size="10" font-weight="400" text-anchor="middle" fill="#17212f">0.85</text>
<text x="647.0" y="529.0" font-family="Arial, Helvetica, sans-serif" font-size="11" font-weight="400" text-anchor="middle" fill="#334155">test03</text>
<rect x="714.0" y="425.4" width="25.0" height="79.6" rx="0.0" fill="#aeb8c2" stroke="none" stroke-width="1.0"/>
<rect x="714.0" y="425.4" width="25.0" height="79.6" rx="0.0" fill="url(#hatch)" stroke="#aeb8c2" stroke-width="1.0"/>
<text x="726.5" y="418.4" font-family="Arial, Helvetica, sans-serif" font-size="10" font-weight="400" text-anchor="middle" fill="#17212f">0.22</text>
<rect x="745.0" y="397.3" width="25.0" height="107.7" rx="0.0" fill="#3b73c6" stroke="none" stroke-width="1.0"/>
<text x="757.5" y="390.3" font-family="Arial, Helvetica, sans-serif" font-size="10" font-weight="400" text-anchor="middle" fill="#17212f">0.30</text>
<text x="742.0" y="529.0" font-family="Arial, Helvetica, sans-serif" font-size="11" font-weight="400" text-anchor="middle" fill="#334155">test04</text>
<text x="892.0" y="117.0" font-family="Arial, Helvetica, sans-serif" font-size="18" font-weight="700" text-anchor="start" fill="#17212f">Recall@FPR&lt;=1e-4</text>
<line x1="892.0" y1="505.0" x2="1232.0" y2="505.0" stroke="#dfe4ea" stroke-width="1"/>
<text x="880.0" y="509.0" font-family="Arial, Helvetica, sans-serif" font-size="10" font-weight="400" text-anchor="end" fill="#53606d">0.0</text>
<line x1="892.0" y1="433.0" x2="1232.0" y2="433.0" stroke="#dfe4ea" stroke-width="1"/>
<text x="880.0" y="437.0" font-family="Arial, Helvetica, sans-serif" font-size="10" font-weight="400" text-anchor="end" fill="#53606d">0.2</text>
<line x1="892.0" y1="361.0" x2="1232.0" y2="361.0" stroke="#dfe4ea" stroke-width="1"/>
<text x="880.0" y="365.0" font-family="Arial, Helvetica, sans-serif" font-size="10" font-weight="400" text-anchor="end" fill="#53606d">0.4</text>
<line x1="892.0" y1="289.0" x2="1232.0" y2="289.0" stroke="#dfe4ea" stroke-width="1"/>
<text x="880.0" y="293.0" font-family="Arial, Helvetica, sans-serif" font-size="10" font-weight="400" text-anchor="end" fill="#53606d">0.6</text>
<line x1="892.0" y1="217.0" x2="1232.0" y2="217.0" stroke="#dfe4ea" stroke-width="1"/>
<text x="880.0" y="221.0" font-family="Arial, Helvetica, sans-serif" font-size="10" font-weight="400" text-anchor="end" fill="#53606d">0.8</text>
<line x1="892.0" y1="145.0" x2="1232.0" y2="145.0" stroke="#dfe4ea" stroke-width="1"/>
<text x="880.0" y="149.0" font-family="Arial, Helvetica, sans-serif" font-size="10" font-weight="400" text-anchor="end" fill="#53606d">1.0</text>
<line x1="892.0" y1="145.0" x2="892.0" y2="505.0" stroke="#111827" stroke-width="1.3"/>
<line x1="892.0" y1="505.0" x2="1232.0" y2="505.0" stroke="#111827" stroke-width="1.3"/>
<rect x="934.0" y="225.4" width="25.0" height="279.6" rx="0.0" fill="#aeb8c2" stroke="none" stroke-width="1.0"/>
<rect x="934.0" y="225.4" width="25.0" height="279.6" rx="0.0" fill="url(#hatch)" stroke="#aeb8c2" stroke-width="1.0"/>
<text x="946.5" y="218.4" font-family="Arial, Helvetica, sans-serif" font-size="10" font-weight="400" text-anchor="middle" fill="#17212f">0.78</text>
<rect x="965.0" y="186.0" width="25.0" height="319.0" rx="0.0" fill="#3b73c6" stroke="none" stroke-width="1.0"/>
<text x="977.5" y="179.0" font-family="Arial, Helvetica, sans-serif" font-size="10" font-weight="400" text-anchor="middle" fill="#17212f">0.89</text>
<text x="962.0" y="529.0" font-family="Arial, Helvetica, sans-serif" font-size="11" font-weight="400" text-anchor="middle" fill="#334155">test02</text>
<rect x="1029.0" y="479.1" width="25.0" height="25.9" rx="0.0" fill="#aeb8c2" stroke="none" stroke-width="1.0"/>
<rect x="1029.0" y="479.1" width="25.0" height="25.9" rx="0.0" fill="url(#hatch)" stroke="#aeb8c2" stroke-width="1.0"/>
<text x="1041.5" y="472.1" font-family="Arial, Helvetica, sans-serif" font-size="10" font-weight="400" text-anchor="middle" fill="#17212f">0.07</text>
<rect x="1060.0" y="414.3" width="25.0" height="90.7" rx="0.0" fill="#3b73c6" stroke="none" stroke-width="1.0"/>
<text x="1072.5" y="407.3" font-family="Arial, Helvetica, sans-serif" font-size="10" font-weight="400" text-anchor="middle" fill="#17212f">0.25</text>
<text x="1057.0" y="529.0" font-family="Arial, Helvetica, sans-serif" font-size="11" font-weight="400" text-anchor="middle" fill="#334155">test03</text>
<rect x="1124.0" y="499.7" width="25.0" height="5.3" rx="0.0" fill="#aeb8c2" stroke="none" stroke-width="1.0"/>
<rect x="1124.0" y="499.7" width="25.0" height="5.3" rx="0.0" fill="url(#hatch)" stroke="#aeb8c2" stroke-width="1.0"/>
<text x="1136.5" y="492.7" font-family="Arial, Helvetica, sans-serif" font-size="10" font-weight="400" text-anchor="middle" fill="#17212f">0.01</text>
<rect x="1155.0" y="457.2" width="25.0" height="47.8" rx="0.0" fill="#3b73c6" stroke="none" stroke-width="1.0"/>
<text x="1167.5" y="450.2" font-family="Arial, Helvetica, sans-serif" font-size="10" font-weight="400" text-anchor="middle" fill="#17212f">0.13</text>
<text x="1152.0" y="529.0" font-family="Arial, Helvetica, sans-serif" font-size="11" font-weight="400" text-anchor="middle" fill="#334155">test04</text>
</svg>
