<?xml version="1.0" encoding="utf-8" standalone="no"?>
<!DOCTYPE svg PUBLIC "-//W3C//DTD SVG 1.1//EN"
  "http://www.w3.org/Graphics/SVG/1.1/DTD/svg11.dtd">
<svg xmlns:xlink="http://www.w3.org/1999/xlink" width="415.4025pt" height="244.313375pt" viewBox="0 0 415.4025 244.313375" xmlns="http://www.w3.org/2000/svg" version="1.1">
 <metadata>
  <rdf:RDF xmlns:dc="http://purl.org/dc/elements/1.1/" xmlns:cc="http://creativecommons.org/ns#" xmlns:rdf="http://www.w3.org/1999/02/22-rdf-syntax-ns#">
   <cc:Work>
    <dc:type rdf:resource="http://purl.org/dc/dcmitype/StillImage"/>
    <dc:date>2026-06-29T11:18:08.970673</dc:date>
    <dc:format>image/svg+xml</dc:format>
    <dc:creator>
     <cc:Agent>
      <dc:title>Matplotlib v3.11.0, https://matplotlib.org/</dc:title>
     </cc:Agent>
    </dc:creator>
   </cc:Work>
  </rdf:RDF>
 </metadata>
 <defs>
  <style type="text/css">*{stroke-linejoin: round; stroke-linecap: butt}</style>
 </defs>
 <g id="figure_1">
  <g id="patch_1">
   <path d="M -0 244.313375 
L 415.4025 244.313375 
L 415.4025 0 
L -0 0 
z
" style="fill: #ffffff"/>
  </g>
  <g id="axes_1">
   <g id="patch_2">
    <path d="M 39.9225 182.103063 
L 408.2025 182.103063 
L 408.2025 10.239063 
L 39.9225 10.239063 
z
" style="fill: #ffffff"/>
   </g>
   <g id="patch_3">
    <path d="M 56.6625 182.103063 
L 77.733829 182.103063 
L 77.733829 154.598152 
L 56.6625 154.598152 
z
" clip-path="url(#pf7fc7cfab2)" style="fill: url(#hb32763e84c); stroke: #222222; stroke-linejoin: miter"/>
   </g>
   <g id="patch_4">
    <path d="M 115.193969 182.103063 
L 136.265297 182.103063 
L 136.265297 178.479629 
L 115.193969 178.479629 
z
" clip-path="url(#pf7fc7cfab2)" style="fill: url(#hb32763e84c); stroke: #222222; stroke-linejoin: miter"/>
   </g>
   <g id="patch_5">
    <path d="M 173.725437 182.103063 
L 194.796766 182.103063 
L 194.796766 176.373976 
L 173.725437 176.373976 
z
" clip-path="url(#pf7fc7cfab2)" style="fill: url(#hb32763e84c); stroke: #222222; stroke-linejoin: miter"/>
   </g>
   <g id="patch_6">
    <path d="M 232.256906 182.103063 
L 253.328234 182.103063 
L 253.328234 154.598152 
L 232.256906 154.598152 
z
" clip-path="url(#pf7fc7cfab2)" style="fill: url(#hb32763e84c); stroke: #222222; stroke-linejoin: miter"/>
   </g>
   <g id="patch_7">
    <path d="M 290.788374 182.103063 
L 311.859703 182.103063 
L 311.859703 169.333341 
L 290.788374 169.333341 
z
" clip-path="url(#pf7fc7cfab2)" style="fill: url(#hb32763e84c); stroke: #222222; stroke-linejoin: miter"/>
   </g>
   <g id="patch_8">
    <path d="M 349.319843 182.103063 
L 370.391171 182.103063 
L 370.391171 177.216285 
L 349.319843 177.216285 
z
" clip-path="url(#pf7fc7cfab2)" style="fill: url(#hb32763e84c); stroke: #222222; stroke-linejoin: miter"/>
   </g>
   <g id="patch_9">
    <path d="M 77.733829 182.103063 
L 98.805157 182.103063 
L 98.805157 35.543661 
L 77.733829 35.543661 
z
" clip-path="url(#pf7fc7cfab2)" style="fill: url(#h39ab11e5d9); stroke: #222222; stroke-linejoin: miter"/>
   </g>
   <g id="patch_10">
    <path d="M 136.265297 182.103063 
L 157.336626 182.103063 
L 157.336626 165.858828 
L 136.265297 165.858828 
z
" clip-path="url(#pf7fc7cfab2)" style="fill: url(#h39ab11e5d9); stroke: #222222; stroke-linejoin: miter"/>
   </g>
   <g id="patch_11">
    <path d="M 194.796766 182.103063 
L 215.868094 182.103063 
L 215.868094 150.802368 
L 194.796766 150.802368 
z
" clip-path="url(#pf7fc7cfab2)" style="fill: url(#h39ab11e5d9); stroke: #222222; stroke-linejoin: miter"/>
   </g>
   <g id="patch_12">
    <path d="M 253.328234 182.103063 
L 274.399563 182.103063 
L 274.399563 124.88139 
L 253.328234 124.88139 
z
" clip-path="url(#pf7fc7cfab2)" style="fill: url(#h39ab11e5d9); stroke: #222222; stroke-linejoin: miter"/>
   </g>
   <g id="patch_13">
    <path d="M 311.859703 182.103063 
L 332.931031 182.103063 
L 332.931031 34.87192 
L 311.859703 34.87192 
z
" clip-path="url(#pf7fc7cfab2)" style="fill: url(#h39ab11e5d9); stroke: #222222; stroke-linejoin: miter"/>
   </g>
   <g id="patch_14">
    <path d="M 370.391171 182.103063 
L 391.4625 182.103063 
L 391.4625 105.496625 
L 370.391171 105.496625 
z
" clip-path="url(#pf7fc7cfab2)" style="fill: url(#h39ab11e5d9); stroke: #222222; stroke-linejoin: miter"/>
   </g>
   <g id="matplotlib.axis_1">
    <g id="xtick_1">
     <g id="line2d_1">
      <defs>
       <path id="mf1559906ad" d="M 0 0 
L 0 3.5 
" style="stroke: #000000; stroke-width: 0.8"/>
      </defs>
      <g>
       <use xlink:href="#mf1559906ad" x="77.733829" y="182.103063" style="stroke: #000000; stroke-width: 0.8"/>
      </g>
     </g>
     <g id="text_1">
      <text style="font-size: 8px; font-family: 'DejaVu Sans'" transform="translate(65.571954 195.981969)">UV-KA</text>
      <text style="font-size: 8px; font-family: 'DejaVu Sans'" transform="translate(54.903204 205.584156)">single-seed</text>
      <text style="font-size: 8px; font-family: 'DejaVu Sans'" transform="translate(57.756954 215.186344)">controlled</text>
      <text style="font-size: 8px; font-family: 'DejaVu Sans'" transform="translate(61.518829 224.788531)">ablation</text>
     </g>
    </g>
    <g id="xtick_2">
     <g id="line2d_2">
      <g>
       <use xlink:href="#mf1559906ad" x="136.265297" y="182.103063" style="stroke: #000000; stroke-width: 0.8"/>
      </g>
     </g>
     <g id="text_2">
      <text style="font-size: 8px; font-family: 'DejaVu Sans'" transform="translate(124.033422 195.981969)">KV-UA</text>
      <text style="font-size: 8px; font-family: 'DejaVu Sans'" transform="translate(113.434672 205.584156)">single-seed</text>
      <text style="font-size: 8px; font-family: 'DejaVu Sans'" transform="translate(116.288422 215.186344)">controlled</text>
      <text style="font-size: 8px; font-family: 'DejaVu Sans'" transform="translate(120.050297 224.788531)">ablation</text>
     </g>
    </g>
    <g id="xtick_3">
     <g id="line2d_3">
      <g>
       <use xlink:href="#mf1559906ad" x="194.796766" y="182.103063" style="stroke: #000000; stroke-width: 0.8"/>
      </g>
     </g>
     <g id="text_3">
      <text style="font-size: 8px; font-family: 'DejaVu Sans'" transform="translate(182.260516 195.981969)">UV-UA</text>
      <text style="font-size: 8px; font-family: 'DejaVu Sans'" transform="translate(171.966141 205.584156)">single-seed</text>
      <text style="font-size: 8px; font-family: 'DejaVu Sans'" transform="translate(174.819891 215.186344)">controlled</text>
      <text style="font-size: 8px; font-family: 'DejaVu Sans'" transform="translate(178.581766 224.788531)">ablation</text>
     </g>
    </g>
    <g id="xtick_4">
     <g id="line2d_4">
      <g>
       <use xlink:href="#mf1559906ad" x="253.328234" y="182.103063" style="stroke: #000000; stroke-width: 0.8"/>
      </g>
     </g>
     <g id="text_4">
      <text style="font-size: 8px; font-family: 'DejaVu Sans'" transform="translate(241.166359 195.981969)">UV-KA</text>
      <text style="font-size: 8px; font-family: 'DejaVu Sans'" transform="translate(231.757609 205.584156)">three-seed</text>
      <text style="font-size: 8px; font-family: 'DejaVu Sans'" transform="translate(223.267609 215.186344)">shifted-domain</text>
      <text style="font-size: 8px; font-family: 'DejaVu Sans'" transform="translate(236.068234 224.788531)">anomaly</text>
      <text style="font-size: 8px; font-family: 'DejaVu Sans'" transform="translate(241.564484 234.390719)">repair</text>
     </g>
    </g>
    <g id="xtick_5">
     <g id="line2d_5">
      <g>
       <use xlink:href="#mf1559906ad" x="311.859703" y="182.103063" style="stroke: #000000; stroke-width: 0.8"/>
      </g>
     </g>
     <g id="text_5">
      <text style="font-size: 8px; font-family: 'DejaVu Sans'" transform="translate(299.627828 195.981969)">KV-UA</text>
      <text style="font-size: 8px; font-family: 'DejaVu Sans'" transform="translate(290.289078 205.584156)">three-seed</text>
      <text style="font-size: 8px; font-family: 'DejaVu Sans'" transform="translate(281.799078 215.186344)">shifted-domain</text>
      <text style="font-size: 8px; font-family: 'DejaVu Sans'" transform="translate(294.599703 224.788531)">anomaly</text>
      <text style="font-size: 8px; font-family: 'DejaVu Sans'" transform="translate(300.095953 234.390719)">repair</text>
     </g>
    </g>
    <g id="xtick_6">
     <g id="line2d_6">
      <g>
       <use xlink:href="#mf1559906ad" x="370.391171" y="182.103063" style="stroke: #000000; stroke-width: 0.8"/>
      </g>
     </g>
     <g id="text_6">
      <text style="font-size: 8px; font-family: 'DejaVu Sans'" transform="translate(357.854921 195.981969)">UV-UA</text>
      <text style="font-size: 8px; font-family: 'DejaVu Sans'" transform="translate(348.820546 205.584156)">three-seed</text>
      <text style="font-size: 8px; font-family: 'DejaVu Sans'" transform="translate(340.330546 215.186344)">shifted-domain</text>
      <text style="font-size: 8px; font-family: 'DejaVu Sans'" transform="translate(353.131171 224.788531)">anomaly</text>
      <text style="font-size: 8px; font-family: 'DejaVu Sans'" transform="translate(358.627421 234.390719)">repair</text>
     </g>
    </g>
   </g>
   <g id="matplotlib.axis_2">
    <g id="ytick_1">
     <g id="line2d_7">
      <path d="M 39.9225 182.103063 
L 408.2025 182.103063 
" clip-path="url(#pf7fc7cfab2)" style="fill: none; stroke: #e5e7eb; stroke-width: 0.7; stroke-linecap: square"/>
     </g>
     <g id="line2d_8">
      <defs>
       <path id="m29919affa0" d="M 0 0 
L -3.5 0 
" style="stroke: #000000; stroke-width: 0.8"/>
      </defs>
      <g>
       <use xlink:href="#m29919affa0" x="39.9225" y="182.103063" style="stroke: #000000; stroke-width: 0.8"/>
      </g>
     </g>
     <g id="text_7">
      <text style="font-size: 8px; font-family: 'DejaVu Sans'; text-anchor: end" x="32.9225" y="185.142125" transform="rotate(-0 32.9225 185.142125)">0.0</text>
     </g>
    </g>
    <g id="ytick_2">
     <g id="line2d_9">
      <path d="M 39.9225 147.730263 
L 408.2025 147.730263 
" clip-path="url(#pf7fc7cfab2)" style="fill: none; stroke: #e5e7eb; stroke-width: 0.7; stroke-linecap: square"/>
     </g>
     <g id="line2d_10">
      <g>
       <use xlink:href="#m29919affa0" x="39.9225" y="147.730263" style="stroke: #000000; stroke-width: 0.8"/>
      </g>
     </g>
     <g id="text_8">
      <text style="font-size: 8px; font-family: 'DejaVu Sans'; text-anchor: end" x="32.9225" y="150.769325" transform="rotate(-0 32.9225 150.769325)">0.2</text>
     </g>
    </g>
    <g id="ytick_3">
     <g id="line2d_11">
      <path d="M 39.9225 113.357463 
L 408.2025 113.357463 
" clip-path="url(#pf7fc7cfab2)" style="fill: none; stroke: #e5e7eb; stroke-width: 0.7; stroke-linecap: square"/>
     </g>
     <g id="line2d_12">
      <g>
       <use xlink:href="#m29919affa0" x="39.9225" y="113.357463" style="stroke: #000000; stroke-width: 0.8"/>
      </g>
     </g>
     <g id="text_9">
      <text style="font-size: 8px; font-family: 'DejaVu Sans'; text-anchor: end" x="32.9225" y="116.396525" transform="rotate(-0 32.9225 116.396525)">0.4</text>
     </g>
    </g>
    <g id="ytick_4">
     <g id="line2d_13">
      <path d="M 39.9225 78.984663 
L 408.2025 78.984663 
" clip-path="url(#pf7fc7cfab2)" style="fill: none; stroke: #e5e7eb; stroke-width: 0.7; stroke-linecap: square"/>
     </g>
     <g id="line2d_14">
      <g>
       <use xlink:href="#m29919affa0" x="39.9225" y="78.984663" style="stroke: #000000; stroke-width: 0.8"/>
      </g>
     </g>
     <g id="text_10">
      <text style="font-size: 8px; font-family: 'DejaVu Sans'; text-anchor: end" x="32.9225" y="82.023725" transform="rotate(-0 32.9225 82.023725)">0.6</text>
     </g>
    </g>
    <g id="ytick_5">
     <g id="line2d_15">
      <path d="M 39.9225 44.611863 
L 408.2025 44.611863 
" clip-path="url(#pf7fc7cfab2)" style="fill: none; stroke: #e5e7eb; stroke-width: 0.7; stroke-linecap: square"/>
     </g>
     <g id="line2d_16">
      <g>
       <use xlink:href="#m29919affa0" x="39.9225" y="44.611863" style="stroke: #000000; stroke-width: 0.8"/>
      </g>
     </g>
     <g id="text_11">
      <text style="font-size: 8px; font-family: 'DejaVu Sans'; text-anchor: end" x="32.9225" y="47.650925" transform="rotate(-0 32.9225 47.650925)">0.8</text>
     </g>
    </g>
    <g id="ytick_6">
     <g id="line2d_17">
      <path d="M 39.9225 10.239063 
L 408.2025 10.239063 
" clip-path="url(#pf7fc7cfab2)" style="fill: none; stroke: #e5e7eb; stroke-width: 0.7; stroke-linecap: square"/>
     </g>
     <g id="line2d_18">
      <g>
       <use xlink:href="#m29919affa0" x="39.9225" y="10.239063" style="stroke: #000000; stroke-width: 0.8"/>
      </g>
     </g>
     <g id="text_12">
      <text style="font-size: 8px; font-family: 'DejaVu Sans'; text-anchor: end" x="32.9225" y="13.278125" transform="rotate(-0 32.9225 13.278125)">1.0</text>
     </g>
    </g>
    <g id="text_13">
     <text style="font-size: 9px; font-family: 'DejaVu Sans'; text-anchor: middle" x="14.037891" y="96.171063" transform="rotate(-90 14.037891 96.171063)">F1</text>
    </g>
   </g>
   <g id="patch_15">
    <path d="M 39.9225 182.103063 
L 39.9225 10.239063 
" style="fill: none; stroke: #000000; stroke-width: 0.9; stroke-linejoin: miter; stroke-linecap: square"/>
   </g>
   <g id="patch_16">
    <path d="M 408.2025 182.103063 
L 408.2025 10.239063 
" style="fill: none; stroke: #000000; stroke-width: 0.9; stroke-linejoin: miter; stroke-linecap: square"/>
   </g>
   <g id="patch_17">
    <path d="M 39.9225 182.103063 
L 408.2025 182.103063 
" style="fill: none; stroke: #000000; stroke-width: 0.9; stroke-linejoin: miter; stroke-linecap: square"/>
   </g>
   <g id="patch_18">
    <path d="M 39.9225 10.239063 
L 408.2025 10.239063 
" style="fill: none; stroke: #000000; stroke-width: 0.9; stroke-linejoin: miter; stroke-linecap: square"/>
   </g>
   <g id="legend_1">
    <g id="patch_19">
     <path d="M 47.1225 23.517813 
L 63.1225 23.517813 
L 63.1225 17.917813 
L 47.1225 17.917813 
z
" style="fill: url(#hb32763e84c); stroke: #222222; stroke-linejoin: miter"/>
    </g>
    <g id="text_14">
     <text style="font-size: 8px; font-family: 'DejaVu Sans'; text-anchor: start" x="69.5225" y="23.517813" transform="rotate(-0 69.5225 23.517813)">Full CMF-CAN</text>
    </g>
    <g id="patch_20">
     <path d="M 138.76375 23.517813 
L 154.76375 23.517813 
L 154.76375 17.917813 
L 138.76375 17.917813 
z
" style="fill: url(#h39ab11e5d9); stroke: #222222; stroke-linejoin: miter"/>
    </g>
    <g id="text_15">
     <text style="font-size: 8px; font-family: 'DejaVu Sans'; text-anchor: start" x="161.16375" y="23.517813" transform="rotate(-0 161.16375 23.517813)">Improved policy/variant</text>
    </g>
   </g>
  </g>
 </g>
 <defs>
  <clipPath id="pf7fc7cfab2">
   <rect x="39.9225" y="10.239063" width="368.28" height="171.864"/>
  </clipPath>
 </defs>
 <defs>
  <pattern id="hb32763e84c" patternUnits="userSpaceOnUse" x="0" y="0" width="72" height="72">
   <rect x="0" y="0" width="73" height="73" fill="#6b7280"/>
   <path d="M -36 36 
L 36 -36 
M -30 42 
L 42 -30 
M -24 48 
L 48 -24 
M -18 54 
L 54 -18 
M -12 60 
L 60 -12 
M -6 66 
L 66 -6 
M 0 72 
L 72 0 
M 6 78 
L 78 6 
M 12 84 
L 84 12 
M 18 90 
L 90 18 
M 24 96 
L 96 24 
M 30 102 
L 102 30 
M 36 108 
L 108 36 
" style="fill: #222222; stroke: #222222; stroke-width: 1.0; stroke-linecap: butt; stroke-linejoin: miter"/>
  </pattern>
  <pattern id="h39ab11e5d9" patternUnits="userSpaceOnUse" x="0" y="0" width="72" height="72">
   <rect x="0" y="0" width="73" height="73" fill="#2563eb"/>
   <path d="M -36 36 
L 36 -36 
M -30 42 
L 42 -30 
M -24 48 
L 48 -24 
M -18 54 
L 54 -18 
M -12 60 
L 60 -12 
M -6 66 
L 66 -6 
M 0 72 
L 72 0 
M 6 78 
L 78 6 
M 12 84 
L 84 12 
M 18 90 
L 90 18 
M 24 96 
L 96 24 
M 30 102 
L 102 30 
M 36 108 
L 108 36 
M -36 36 
L 36 108 
M -30 30 
L 42 102 
M -24 24 
L 48 96 
M -18 18 
L 54 90 
M -12 12 
L 60 84 
M -6 6 
L 66 78 
M 0 0 
L 72 72 
M 6 -6 
L 78 66 
M 12 -12 
L 84 60 
M 18 -18 
L 90 54 
M 24 -24 
L 96 48 
M 30 -30 
L 102 42 
M 36 -36 
L 108 36 
" style="fill: #222222; stroke: #222222; stroke-width: 1.0; stroke-linecap: butt; stroke-linejoin: miter"/>
  </pattern>
 </defs>
</svg>
