<?xml version="1.0" encoding="utf-8" standalone="no"?>
<!DOCTYPE svg PUBLIC "-//W3C//DTD SVG 1.1//EN"
  "http://www.w3.org/Graphics/SVG/1.1/DTD/svg11.dtd">
<svg xmlns:xlink="http://www.w3.org/1999/xlink" width="441.5425pt" height="203.104pt" viewBox="0 0 441.5425 203.104" xmlns="http://www.w3.org/2000/svg" version="1.1">
 <metadata>
  <rdf:RDF xmlns:dc="http://purl.org/dc/elements/1.1/" xmlns:cc="http://creativecommons.org/ns#" xmlns:rdf="http://www.w3.org/1999/02/22-rdf-syntax-ns#">
   <cc:Work>
    <dc:type rdf:resource="http://purl.org/dc/dcmitype/StillImage"/>
    <dc:date>2026-06-28T12:46:34.817653</dc:date>
    <dc:format>image/svg+xml</dc:format>
    <dc:creator>
     <cc:Agent>
      <dc:title>Matplotlib v3.11.0, https://matplotlib.org/</dc:title>
     </cc:Agent>
    </dc:creator>
   </cc:Work>
  </rdf:RDF>
 </metadata>
 <defs>
  <style type="text/css">*{stroke-linejoin: round; stroke-linecap: butt}</style>
 </defs>
 <g id="figure_1">
  <g id="patch_1">
   <path d="M 0 203.104 
L 441.5425 203.104 
L 441.5425 0 
L 0 0 
z
" style="fill: #ffffff"/>
  </g>
  <g id="axes_1">
   <g id="patch_2">
    <path d="M 36.9025 183.924 
L 155.067206 183.924 
L 155.067206 53.64 
L 36.9025 53.64 
z
" style="fill: #ffffff"/>
   </g>
   <g id="matplotlib.axis_1">
    <g id="xtick_1">
     <g id="text_1">
      <text style="font-size: 8px; font-family: 'DejaVu Sans'; text-anchor: middle; fill: #262626" x="57.619689" y="198.302125" transform="rotate(-0 57.619689 198.302125)">test02</text>
     </g>
    </g>
    <g id="xtick_2">
     <g id="text_2">
      <text style="font-size: 8px; font-family: 'DejaVu Sans'; text-anchor: middle; fill: #262626" x="95.984853" y="198.302125" transform="rotate(-0 95.984853 198.302125)">test03</text>
     </g>
    </g>
    <g id="xtick_3">
     <g id="text_3">
      <text style="font-size: 8px; font-family: 'DejaVu Sans'; text-anchor: middle; fill: #262626" x="134.350017" y="198.302125" transform="rotate(-0 134.350017 198.302125)">test04</text>
     </g>
    </g>
   </g>
   <g id="matplotlib.axis_2">
    <g id="ytick_1">
     <g id="line2d_1">
      <path d="M 36.9025 183.924 
L 155.067206 183.924 
" clip-path="url(#pe6da4c7c46)" style="fill: none; stroke: #e5e7eb; stroke-width: 0.8; stroke-linecap: round"/>
     </g>
     <g id="text_4">
      <text style="font-size: 8px; font-family: 'DejaVu Sans'; text-anchor: end; fill: #262626" x="28.6025" y="186.963063" transform="rotate(-0 28.6025 186.963063)">0.0</text>
     </g>
    </g>
    <g id="ytick_2">
     <g id="line2d_2">
      <path d="M 36.9025 158.378118 
L 155.067206 158.378118 
" clip-path="url(#pe6da4c7c46)" style="fill: none; stroke: #e5e7eb; stroke-width: 0.8; stroke-linecap: round"/>
     </g>
     <g id="text_5">
      <text style="font-size: 8px; font-family: 'DejaVu Sans'; text-anchor: end; fill: #262626" x="28.6025" y="161.41718" transform="rotate(-0 28.6025 161.41718)">0.2</text>
     </g>
    </g>
    <g id="ytick_3">
     <g id="line2d_3">
      <path d="M 36.9025 132.832235 
L 155.067206 132.832235 
" clip-path="url(#pe6da4c7c46)" style="fill: none; stroke: #e5e7eb; stroke-width: 0.8; stroke-linecap: round"/>
     </g>
     <g id="text_6">
      <text style="font-size: 8px; font-family: 'DejaVu Sans'; text-anchor: end; fill: #262626" x="28.6025" y="135.871298" transform="rotate(-0 28.6025 135.871298)">0.4</text>
     </g>
    </g>
    <g id="ytick_4">
     <g id="line2d_4">
      <path d="M 36.9025 107.286353 
L 155.067206 107.286353 
" clip-path="url(#pe6da4c7c46)" style="fill: none; stroke: #e5e7eb; stroke-width: 0.8; stroke-linecap: round"/>
     </g>
     <g id="text_7">
      <text style="font-size: 8px; font-family: 'DejaVu Sans'; text-anchor: end; fill: #262626" x="28.6025" y="110.325415" transform="rotate(-0 28.6025 110.325415)">0.6</text>
     </g>
    </g>
    <g id="ytick_5">
     <g id="line2d_5">
      <path d="M 36.9025 81.740471 
L 155.067206 81.740471 
" clip-path="url(#pe6da4c7c46)" style="fill: none; stroke: #e5e7eb; stroke-width: 0.8; stroke-linecap: round"/>
     </g>
     <g id="text_8">
      <text style="font-size: 8px; font-family: 'DejaVu Sans'; text-anchor: end; fill: #262626" x="28.6025" y="84.779533" transform="rotate(-0 28.6025 84.779533)">0.8</text>
     </g>
    </g>
    <g id="ytick_6">
     <g id="line2d_6">
      <path d="M 36.9025 56.194588 
L 155.067206 56.194588 
" clip-path="url(#pe6da4c7c46)" style="fill: none; stroke: #e5e7eb; stroke-width: 0.8; stroke-linecap: round"/>
     </g>
     <g id="text_9">
      <text style="font-size: 8px; font-family: 'DejaVu Sans'; text-anchor: end; fill: #262626" x="28.6025" y="59.233651" transform="rotate(-0 28.6025 59.233651)">1.0</text>
     </g>
    </g>
    <g id="text_10">
     <text style="font-size: 9px; font-family: 'DejaVu Sans'; text-anchor: middle; fill: #262626" x="9.717891" y="118.782" transform="rotate(-90 9.717891 118.782)">Score</text>
    </g>
   </g>
   <g id="patch_3">
    <path d="M 42.273623 183.924 
L 57.619689 183.924 
L 57.619689 163.482337 
L 42.273623 163.482337 
z
" clip-path="url(#pe6da4c7c46)" style="fill: url(#he8e602a851); stroke: #263238; stroke-width: 0.4; stroke-linejoin: miter"/>
   </g>
   <g id="patch_4">
    <path d="M 80.638787 183.924 
L 95.984853 183.924 
L 95.984853 174.433536 
L 80.638787 174.433536 
z
" clip-path="url(#pe6da4c7c46)" style="fill: #bac2ca; stroke: #263238; stroke-width: 0.4; stroke-linejoin: miter"/>
   </g>
   <g id="patch_5">
    <path d="M 119.003951 183.924 
L 134.350017 183.924 
L 134.350017 180.292144 
L 119.003951 180.292144 
z
" clip-path="url(#pe6da4c7c46)" style="fill: url(#he8e602a851); stroke: #263238; stroke-width: 0.4; stroke-linejoin: miter"/>
   </g>
   <g id="patch_6">
    <path d="M 57.619689 183.924 
L 72.965754 183.924 
L 72.965754 141.396824 
L 57.619689 141.396824 
z
" clip-path="url(#pe6da4c7c46)" style="fill: #4c76b5; stroke: #263238; stroke-width: 0.4; stroke-linejoin: miter"/>
   </g>
   <g id="patch_7">
    <path d="M 95.984853 183.924 
L 111.330919 183.924 
L 111.330919 74.50174 
L 95.984853 74.50174 
z
" clip-path="url(#pe6da4c7c46)" style="fill: url(#heb0f573fb7); stroke: #263238; stroke-width: 0.4; stroke-linejoin: miter"/>
   </g>
   <g id="patch_8">
    <path d="M 134.350017 183.924 
L 149.696083 183.924 
L 149.696083 126.990057 
L 134.350017 126.990057 
z
" clip-path="url(#pe6da4c7c46)" style="fill: #4c76b5; stroke: #263238; stroke-width: 0.4; stroke-linejoin: miter"/>
   </g>
   <g id="patch_9">
    <path d="M 57.619689 183.924 
L 57.619689 183.924 
L 57.619689 183.924 
L 57.619689 183.924 
z
" clip-path="url(#pe6da4c7c46)" style="fill: #bac2ca; stroke: #263238; stroke-width: 0.4; stroke-linejoin: miter"/>
   </g>
   <g id="patch_10">
    <path d="M 57.619689 183.924 
L 57.619689 183.924 
L 57.619689 183.924 
L 57.619689 183.924 
z
" clip-path="url(#pe6da4c7c46)" style="fill: #4c76b5; stroke: #263238; stroke-width: 0.4; stroke-linejoin: miter"/>
   </g>
   <g id="LineCollection_1">
    <path d="M 49.946656 163.482337 
L 49.946656 163.482337 
" clip-path="url(#pe6da4c7c46)" style="fill: none; stroke: #334155; stroke-width: 0.7"/>
   </g>
   <g id="line2d_7">
    <defs>
     <path id="m02f76e35df" d="M 2 0 
L -2 -0 
" style="stroke: #334155"/>
    </defs>
    <g clip-path="url(#pe6da4c7c46)">
     <use xlink:href="#m02f76e35df" x="49.946656" y="163.482337" style="fill: #4c72b0; stroke: #334155"/>
    </g>
   </g>
   <g id="line2d_8">
    <g clip-path="url(#pe6da4c7c46)">
     <use xlink:href="#m02f76e35df" x="49.946656" y="163.482337" style="fill: #4c72b0; stroke: #334155"/>
    </g>
   </g>
   <g id="LineCollection_2">
    <path d="M 65.292722 151.789736 
L 65.292722 131.003912 
" clip-path="url(#pe6da4c7c46)" style="fill: none; stroke: #334155; stroke-width: 0.7"/>
   </g>
   <g id="line2d_9">
    <g clip-path="url(#pe6da4c7c46)">
     <use xlink:href="#m02f76e35df" x="65.292722" y="151.789736" style="fill: #4c72b0; stroke: #334155"/>
    </g>
   </g>
   <g id="line2d_10">
    <g clip-path="url(#pe6da4c7c46)">
     <use xlink:href="#m02f76e35df" x="65.292722" y="131.003912" style="fill: #4c72b0; stroke: #334155"/>
    </g>
   </g>
   <g id="LineCollection_3">
    <path d="M 88.31182 175.889077 
L 88.31182 172.977996 
" clip-path="url(#pe6da4c7c46)" style="fill: none; stroke: #334155; stroke-width: 0.7"/>
   </g>
   <g id="line2d_11">
    <g clip-path="url(#pe6da4c7c46)">
     <use xlink:href="#m02f76e35df" x="88.31182" y="175.889077" style="fill: #4c72b0; stroke: #334155"/>
    </g>
   </g>
   <g id="line2d_12">
    <g clip-path="url(#pe6da4c7c46)">
     <use xlink:href="#m02f76e35df" x="88.31182" y="172.977996" style="fill: #4c72b0; stroke: #334155"/>
    </g>
   </g>
   <g id="LineCollection_4">
    <path d="M 103.657886 74.50174 
L 103.657886 74.50174 
" clip-path="url(#pe6da4c7c46)" style="fill: none; stroke: #334155; stroke-width: 0.7"/>
   </g>
   <g id="line2d_13">
    <g clip-path="url(#pe6da4c7c46)">
     <use xlink:href="#m02f76e35df" x="103.657886" y="74.50174" style="fill: #4c72b0; stroke: #334155"/>
    </g>
   </g>
   <g id="line2d_14">
    <g clip-path="url(#pe6da4c7c46)">
     <use xlink:href="#m02f76e35df" x="103.657886" y="74.50174" style="fill: #4c72b0; stroke: #334155"/>
    </g>
   </g>
   <g id="LineCollection_5">
    <path d="M 126.676984 181.059919 
L 126.676984 179.524369 
" clip-path="url(#pe6da4c7c46)" style="fill: none; stroke: #334155; stroke-width: 0.7"/>
   </g>
   <g id="line2d_15">
    <g clip-path="url(#pe6da4c7c46)">
     <use xlink:href="#m02f76e35df" x="126.676984" y="181.059919" style="fill: #4c72b0; stroke: #334155"/>
    </g>
   </g>
   <g id="line2d_16">
    <g clip-path="url(#pe6da4c7c46)">
     <use xlink:href="#m02f76e35df" x="126.676984" y="179.524369" style="fill: #4c72b0; stroke: #334155"/>
    </g>
   </g>
   <g id="LineCollection_6">
    <path d="M 142.02305 131.569581 
L 142.02305 122.410533 
" clip-path="url(#pe6da4c7c46)" style="fill: none; stroke: #334155; stroke-width: 0.7"/>
   </g>
   <g id="line2d_17">
    <g clip-path="url(#pe6da4c7c46)">
     <use xlink:href="#m02f76e35df" x="142.02305" y="131.569581" style="fill: #4c72b0; stroke: #334155"/>
    </g>
   </g>
   <g id="line2d_18">
    <g clip-path="url(#pe6da4c7c46)">
     <use xlink:href="#m02f76e35df" x="142.02305" y="122.410533" style="fill: #4c72b0; stroke: #334155"/>
    </g>
   </g>
   <g id="patch_11">
    <path d="M 36.9025 183.924 
L 36.9025 53.64 
" style="fill: none; stroke: #cccccc; stroke-linejoin: miter; stroke-linecap: square"/>
   </g>
   <g id="patch_12">
    <path d="M 36.9025 183.924 
L 155.067206 183.924 
" style="fill: none; stroke: #cccccc; stroke-linejoin: miter; stroke-linecap: square"/>
   </g>
   <g id="text_11">
    <text style="font-size: 10px; font-family: 'DejaVu Sans'; text-anchor: middle; fill: #262626" x="95.984853" y="47.64" transform="rotate(-0 95.984853 47.64)">F1</text>
   </g>
  </g>
  <g id="axes_2">
   <g id="patch_13">
    <path d="M 178.700147 183.924 
L 296.864853 183.924 
L 296.864853 53.64 
L 178.700147 53.64 
z
" style="fill: #ffffff"/>
   </g>
   <g id="matplotlib.axis_3">
    <g id="xtick_4">
     <g id="text_12">
      <text style="font-size: 8px; font-family: 'DejaVu Sans'; text-anchor: middle; fill: #262626" x="199.417336" y="198.302125" transform="rotate(-0 199.417336 198.302125)">test02</text>
     </g>
    </g>
    <g id="xtick_5">
     <g id="text_13">
      <text style="font-size: 8px; font-family: 'DejaVu Sans'; text-anchor: middle; fill: #262626" x="237.7825" y="198.302125" transform="rotate(-0 237.7825 198.302125)">test03</text>
     </g>
    </g>
    <g id="xtick_6">
     <g id="text_14">
      <text style="font-size: 8px; font-family: 'DejaVu Sans'; text-anchor: middle; fill: #262626" x="276.147664" y="198.302125" transform="rotate(-0 276.147664 198.302125)">test04</text>
     </g>
    </g>
   </g>
   <g id="matplotlib.axis_4">
    <g id="ytick_7">
     <g id="line2d_19">
      <path d="M 178.700147 183.924 
L 296.864853 183.924 
" clip-path="url(#p1af0d82fbc)" style="fill: none; stroke: #e5e7eb; stroke-width: 0.8; stroke-linecap: round"/>
     </g>
    </g>
    <g id="ytick_8">
     <g id="line2d_20">
      <path d="M 178.700147 158.378118 
L 296.864853 158.378118 
" clip-path="url(#p1af0d82fbc)" style="fill: none; stroke: #e5e7eb; stroke-width: 0.8; stroke-linecap: round"/>
     </g>
    </g>
    <g id="ytick_9">
     <g id="line2d_21">
      <path d="M 178.700147 132.832235 
L 296.864853 132.832235 
" clip-path="url(#p1af0d82fbc)" style="fill: none; stroke: #e5e7eb; stroke-width: 0.8; stroke-linecap: round"/>
     </g>
    </g>
    <g id="ytick_10">
     <g id="line2d_22">
      <path d="M 178.700147 107.286353 
L 296.864853 107.286353 
" clip-path="url(#p1af0d82fbc)" style="fill: none; stroke: #e5e7eb; stroke-width: 0.8; stroke-linecap: round"/>
     </g>
    </g>
    <g id="ytick_11">
     <g id="line2d_23">
      <path d="M 178.700147 81.740471 
L 296.864853 81.740471 
" clip-path="url(#p1af0d82fbc)" style="fill: none; stroke: #e5e7eb; stroke-width: 0.8; stroke-linecap: round"/>
     </g>
    </g>
    <g id="ytick_12">
     <g id="line2d_24">
      <path d="M 178.700147 56.194588 
L 296.864853 56.194588 
" clip-path="url(#p1af0d82fbc)" style="fill: none; stroke: #e5e7eb; stroke-width: 0.8; stroke-linecap: round"/>
     </g>
    </g>
   </g>
   <g id="patch_14">
    <path d="M 184.07127 183.924 
L 199.417336 183.924 
L 199.417336 65.937197 
L 184.07127 65.937197 
z
" clip-path="url(#p1af0d82fbc)" style="fill: url(#he8e602a851); stroke: #263238; stroke-width: 0.4; stroke-linejoin: miter"/>
   </g>
   <g id="patch_15">
    <path d="M 222.436434 183.924 
L 237.7825 183.924 
L 237.7825 151.922664 
L 222.436434 151.922664 
z
" clip-path="url(#p1af0d82fbc)" style="fill: #bac2ca; stroke: #263238; stroke-width: 0.4; stroke-linejoin: miter"/>
   </g>
   <g id="patch_16">
    <path d="M 260.801599 183.924 
L 276.147664 183.924 
L 276.147664 155.693546 
L 260.801599 155.693546 
z
" clip-path="url(#p1af0d82fbc)" style="fill: url(#he8e602a851); stroke: #263238; stroke-width: 0.4; stroke-linejoin: miter"/>
   </g>
   <g id="patch_17">
    <path d="M 199.417336 183.924 
L 214.763401 183.924 
L 214.763401 65.450383 
L 199.417336 65.450383 
z
" clip-path="url(#p1af0d82fbc)" style="fill: #4c76b5; stroke: #263238; stroke-width: 0.4; stroke-linejoin: miter"/>
   </g>
   <g id="patch_18">
    <path d="M 237.7825 183.924 
L 253.128566 183.924 
L 253.128566 75.909591 
L 237.7825 75.909591 
z
" clip-path="url(#p1af0d82fbc)" style="fill: url(#heb0f573fb7); stroke: #263238; stroke-width: 0.4; stroke-linejoin: miter"/>
   </g>
   <g id="patch_19">
    <path d="M 276.147664 183.924 
L 291.49373 183.924 
L 291.49373 145.712109 
L 276.147664 145.712109 
z
" clip-path="url(#p1af0d82fbc)" style="fill: #4c76b5; stroke: #263238; stroke-width: 0.4; stroke-linejoin: miter"/>
   </g>
   <g id="patch_20">
    <path d="M 199.417336 183.924 
L 199.417336 183.924 
L 199.417336 183.924 
L 199.417336 183.924 
z
" clip-path="url(#p1af0d82fbc)" style="fill: #bac2ca; stroke: #263238; stroke-width: 0.4; stroke-linejoin: miter"/>
   </g>
   <g id="patch_21">
    <path d="M 199.417336 183.924 
L 199.417336 183.924 
L 199.417336 183.924 
L 199.417336 183.924 
z
" clip-path="url(#p1af0d82fbc)" style="fill: #4c76b5; stroke: #263238; stroke-width: 0.4; stroke-linejoin: miter"/>
   </g>
   <g id="LineCollection_7">
    <path d="M 191.744303 67.421662 
L 191.744303 64.452732 
" clip-path="url(#p1af0d82fbc)" style="fill: none; stroke: #334155; stroke-width: 0.7"/>
   </g>
   <g id="line2d_25">
    <g clip-path="url(#p1af0d82fbc)">
     <use xlink:href="#m02f76e35df" x="191.744303" y="67.421662" style="fill: #4c72b0; stroke: #334155"/>
    </g>
   </g>
   <g id="line2d_26">
    <g clip-path="url(#p1af0d82fbc)">
     <use xlink:href="#m02f76e35df" x="191.744303" y="64.452732" style="fill: #4c72b0; stroke: #334155"/>
    </g>
   </g>
   <g id="LineCollection_8">
    <path d="M 207.090369 66.126831 
L 207.090369 64.773935 
" clip-path="url(#p1af0d82fbc)" style="fill: none; stroke: #334155; stroke-width: 0.7"/>
   </g>
   <g id="line2d_27">
    <g clip-path="url(#p1af0d82fbc)">
     <use xlink:href="#m02f76e35df" x="207.090369" y="66.126831" style="fill: #4c72b0; stroke: #334155"/>
    </g>
   </g>
   <g id="line2d_28">
    <g clip-path="url(#p1af0d82fbc)">
     <use xlink:href="#m02f76e35df" x="207.090369" y="64.773935" style="fill: #4c72b0; stroke: #334155"/>
    </g>
   </g>
   <g id="LineCollection_9">
    <path d="M 230.109467 157.485955 
L 230.109467 146.359373 
" clip-path="url(#p1af0d82fbc)" style="fill: none; stroke: #334155; stroke-width: 0.7"/>
   </g>
   <g id="line2d_29">
    <g clip-path="url(#p1af0d82fbc)">
     <use xlink:href="#m02f76e35df" x="230.109467" y="157.485955" style="fill: #4c72b0; stroke: #334155"/>
    </g>
   </g>
   <g id="line2d_30">
    <g clip-path="url(#p1af0d82fbc)">
     <use xlink:href="#m02f76e35df" x="230.109467" y="146.359373" style="fill: #4c72b0; stroke: #334155"/>
    </g>
   </g>
   <g id="LineCollection_10">
    <path d="M 245.455533 75.909591 
L 245.455533 75.909591 
" clip-path="url(#p1af0d82fbc)" style="fill: none; stroke: #334155; stroke-width: 0.7"/>
   </g>
   <g id="line2d_31">
    <g clip-path="url(#p1af0d82fbc)">
     <use xlink:href="#m02f76e35df" x="245.455533" y="75.909591" style="fill: #4c72b0; stroke: #334155"/>
    </g>
   </g>
   <g id="line2d_32">
    <g clip-path="url(#p1af0d82fbc)">
     <use xlink:href="#m02f76e35df" x="245.455533" y="75.909591" style="fill: #4c72b0; stroke: #334155"/>
    </g>
   </g>
   <g id="LineCollection_11">
    <path d="M 268.474631 161.524209 
L 268.474631 149.862883 
" clip-path="url(#p1af0d82fbc)" style="fill: none; stroke: #334155; stroke-width: 0.7"/>
   </g>
   <g id="line2d_33">
    <g clip-path="url(#p1af0d82fbc)">
     <use xlink:href="#m02f76e35df" x="268.474631" y="161.524209" style="fill: #4c72b0; stroke: #334155"/>
    </g>
   </g>
   <g id="line2d_34">
    <g clip-path="url(#p1af0d82fbc)">
     <use xlink:href="#m02f76e35df" x="268.474631" y="149.862883" style="fill: #4c72b0; stroke: #334155"/>
    </g>
   </g>
   <g id="LineCollection_12">
    <path d="M 283.820697 151.258022 
L 283.820697 140.166195 
" clip-path="url(#p1af0d82fbc)" style="fill: none; stroke: #334155; stroke-width: 0.7"/>
   </g>
   <g id="line2d_35">
    <g clip-path="url(#p1af0d82fbc)">
     <use xlink:href="#m02f76e35df" x="283.820697" y="151.258022" style="fill: #4c72b0; stroke: #334155"/>
    </g>
   </g>
   <g id="line2d_36">
    <g clip-path="url(#p1af0d82fbc)">
     <use xlink:href="#m02f76e35df" x="283.820697" y="140.166195" style="fill: #4c72b0; stroke: #334155"/>
    </g>
   </g>
   <g id="patch_22">
    <path d="M 178.700147 183.924 
L 178.700147 53.64 
" style="fill: none; stroke: #cccccc; stroke-linejoin: miter; stroke-linecap: square"/>
   </g>
   <g id="patch_23">
    <path d="M 178.700147 183.924 
L 296.864853 183.924 
" style="fill: none; stroke: #cccccc; stroke-linejoin: miter; stroke-linecap: square"/>
   </g>
   <g id="text_15">
    <text style="font-size: 10px; font-family: 'DejaVu Sans'; text-anchor: middle; fill: #262626" x="237.7825" y="47.64" transform="rotate(-0 237.7825 47.64)">AUPR</text>
   </g>
  </g>
  <g id="axes_3">
   <g id="patch_24">
    <path d="M 320.497794 183.924 
L 438.6625 183.924 
L 438.6625 53.64 
L 320.497794 53.64 
z
" style="fill: #ffffff"/>
   </g>
   <g id="matplotlib.axis_5">
    <g id="xtick_7">
     <g id="text_16">
      <text style="font-size: 8px; font-family: 'DejaVu Sans'; text-anchor: middle; fill: #262626" x="341.214983" y="198.302125" transform="rotate(-0 341.214983 198.302125)">test02</text>
     </g>
    </g>
    <g id="xtick_8">
     <g id="text_17">
      <text style="font-size: 8px; font-family: 'DejaVu Sans'; text-anchor: middle; fill: #262626" x="379.580147" y="198.302125" transform="rotate(-0 379.580147 198.302125)">test03</text>
     </g>
    </g>
    <g id="xtick_9">
     <g id="text_18">
      <text style="font-size: 8px; font-family: 'DejaVu Sans'; text-anchor: middle; fill: #262626" x="417.945311" y="198.302125" transform="rotate(-0 417.945311 198.302125)">test04</text>
     </g>
    </g>
   </g>
   <g id="matplotlib.axis_6">
    <g id="ytick_13">
     <g id="line2d_37">
      <path d="M 320.497794 183.924 
L 438.6625 183.924 
" clip-path="url(#pb2c3c69465)" style="fill: none; stroke: #e5e7eb; stroke-width: 0.8; stroke-linecap: round"/>
     </g>
    </g>
    <g id="ytick_14">
     <g id="line2d_38">
      <path d="M 320.497794 158.378118 
L 438.6625 158.378118 
" clip-path="url(#pb2c3c69465)" style="fill: none; stroke: #e5e7eb; stroke-width: 0.8; stroke-linecap: round"/>
     </g>
    </g>
    <g id="ytick_15">
     <g id="line2d_39">
      <path d="M 320.497794 132.832235 
L 438.6625 132.832235 
" clip-path="url(#pb2c3c69465)" style="fill: none; stroke: #e5e7eb; stroke-width: 0.8; stroke-linecap: round"/>
     </g>
    </g>
    <g id="ytick_16">
     <g id="line2d_40">
      <path d="M 320.497794 107.286353 
L 438.6625 107.286353 
" clip-path="url(#pb2c3c69465)" style="fill: none; stroke: #e5e7eb; stroke-width: 0.8; stroke-linecap: round"/>
     </g>
    </g>
    <g id="ytick_17">
     <g id="line2d_41">
      <path d="M 320.497794 81.740471 
L 438.6625 81.740471 
" clip-path="url(#pb2c3c69465)" style="fill: none; stroke: #e5e7eb; stroke-width: 0.8; stroke-linecap: round"/>
     </g>
    </g>
    <g id="ytick_18">
     <g id="line2d_42">
      <path d="M 320.497794 56.194588 
L 438.6625 56.194588 
" clip-path="url(#pb2c3c69465)" style="fill: none; stroke: #e5e7eb; stroke-width: 0.8; stroke-linecap: round"/>
     </g>
    </g>
   </g>
   <g id="patch_25">
    <path d="M 325.868917 183.924 
L 341.214983 183.924 
L 341.214983 84.710498 
L 325.868917 84.710498 
z
" clip-path="url(#pb2c3c69465)" style="fill: url(#he8e602a851); stroke: #263238; stroke-width: 0.4; stroke-linejoin: miter"/>
   </g>
   <g id="patch_26">
    <path d="M 364.234081 183.924 
L 379.580147 183.924 
L 379.580147 174.738505 
L 364.234081 174.738505 
z
" clip-path="url(#pb2c3c69465)" style="fill: #bac2ca; stroke: #263238; stroke-width: 0.4; stroke-linejoin: miter"/>
   </g>
   <g id="patch_27">
    <path d="M 402.599246 183.924 
L 417.945311 183.924 
L 417.945311 182.028569 
L 402.599246 182.028569 
z
" clip-path="url(#pb2c3c69465)" style="fill: url(#he8e602a851); stroke: #263238; stroke-width: 0.4; stroke-linejoin: miter"/>
   </g>
   <g id="patch_28">
    <path d="M 341.214983 183.924 
L 356.561049 183.924 
L 356.561049 70.748635 
L 341.214983 70.748635 
z
" clip-path="url(#pb2c3c69465)" style="fill: #4c76b5; stroke: #263238; stroke-width: 0.4; stroke-linejoin: miter"/>
   </g>
   <g id="patch_29">
    <path d="M 379.580147 183.924 
L 394.926213 183.924 
L 394.926213 151.757757 
L 379.580147 151.757757 
z
" clip-path="url(#pb2c3c69465)" style="fill: url(#heb0f573fb7); stroke: #263238; stroke-width: 0.4; stroke-linejoin: miter"/>
   </g>
   <g id="patch_30">
    <path d="M 417.945311 183.924 
L 433.291377 183.924 
L 433.291377 166.949992 
L 417.945311 166.949992 
z
" clip-path="url(#pb2c3c69465)" style="fill: #4c76b5; stroke: #263238; stroke-width: 0.4; stroke-linejoin: miter"/>
   </g>
   <g id="patch_31">
    <path d="M 341.214983 183.924 
L 341.214983 183.924 
L 341.214983 183.924 
L 341.214983 183.924 
z
" clip-path="url(#pb2c3c69465)" style="fill: #bac2ca; stroke: #263238; stroke-width: 0.4; stroke-linejoin: miter"/>
   </g>
   <g id="patch_32">
    <path d="M 341.214983 183.924 
L 341.214983 183.924 
L 341.214983 183.924 
L 341.214983 183.924 
z
" clip-path="url(#pb2c3c69465)" style="fill: #4c76b5; stroke: #263238; stroke-width: 0.4; stroke-linejoin: miter"/>
   </g>
   <g id="LineCollection_13">
    <path d="M 333.54195 87.85181 
L 333.54195 81.569187 
" clip-path="url(#pb2c3c69465)" style="fill: none; stroke: #334155; stroke-width: 0.7"/>
   </g>
   <g id="line2d_43">
    <g clip-path="url(#pb2c3c69465)">
     <use xlink:href="#m02f76e35df" x="333.54195" y="87.85181" style="fill: #4c72b0; stroke: #334155"/>
    </g>
   </g>
   <g id="line2d_44">
    <g clip-path="url(#pb2c3c69465)">
     <use xlink:href="#m02f76e35df" x="333.54195" y="81.569187" style="fill: #4c72b0; stroke: #334155"/>
    </g>
   </g>
   <g id="LineCollection_14">
    <path d="M 348.888016 71.476764 
L 348.888016 70.020506 
" clip-path="url(#pb2c3c69465)" style="fill: none; stroke: #334155; stroke-width: 0.7"/>
   </g>
   <g id="line2d_45">
    <g clip-path="url(#pb2c3c69465)">
     <use xlink:href="#m02f76e35df" x="348.888016" y="71.476764" style="fill: #4c72b0; stroke: #334155"/>
    </g>
   </g>
   <g id="line2d_46">
    <g clip-path="url(#pb2c3c69465)">
     <use xlink:href="#m02f76e35df" x="348.888016" y="70.020506" style="fill: #4c72b0; stroke: #334155"/>
    </g>
   </g>
   <g id="LineCollection_15">
    <path d="M 371.907114 175.892275 
L 371.907114 173.584735 
" clip-path="url(#pb2c3c69465)" style="fill: none; stroke: #334155; stroke-width: 0.7"/>
   </g>
   <g id="line2d_47">
    <g clip-path="url(#pb2c3c69465)">
     <use xlink:href="#m02f76e35df" x="371.907114" y="175.892275" style="fill: #4c72b0; stroke: #334155"/>
    </g>
   </g>
   <g id="line2d_48">
    <g clip-path="url(#pb2c3c69465)">
     <use xlink:href="#m02f76e35df" x="371.907114" y="173.584735" style="fill: #4c72b0; stroke: #334155"/>
    </g>
   </g>
   <g id="LineCollection_16">
    <path d="M 387.25318 151.757757 
L 387.25318 151.757757 
" clip-path="url(#pb2c3c69465)" style="fill: none; stroke: #334155; stroke-width: 0.7"/>
   </g>
   <g id="line2d_49">
    <g clip-path="url(#pb2c3c69465)">
     <use xlink:href="#m02f76e35df" x="387.25318" y="151.757757" style="fill: #4c72b0; stroke: #334155"/>
    </g>
   </g>
   <g id="line2d_50">
    <g clip-path="url(#pb2c3c69465)">
     <use xlink:href="#m02f76e35df" x="387.25318" y="151.757757" style="fill: #4c72b0; stroke: #334155"/>
    </g>
   </g>
   <g id="LineCollection_17">
    <path d="M 410.272278 184.415348 
L 410.272278 179.64179 
" clip-path="url(#pb2c3c69465)" style="fill: none; stroke: #334155; stroke-width: 0.7"/>
   </g>
   <g id="line2d_51">
    <g clip-path="url(#pb2c3c69465)">
     <use xlink:href="#m02f76e35df" x="410.272278" y="184.415348" style="fill: #4c72b0; stroke: #334155"/>
    </g>
   </g>
   <g id="line2d_52">
    <g clip-path="url(#pb2c3c69465)">
     <use xlink:href="#m02f76e35df" x="410.272278" y="179.64179" style="fill: #4c72b0; stroke: #334155"/>
    </g>
   </g>
   <g id="LineCollection_18">
    <path d="M 425.618344 166.949992 
L 425.618344 166.949992 
" clip-path="url(#pb2c3c69465)" style="fill: none; stroke: #334155; stroke-width: 0.7"/>
   </g>
   <g id="line2d_53">
    <g clip-path="url(#pb2c3c69465)">
     <use xlink:href="#m02f76e35df" x="425.618344" y="166.949992" style="fill: #4c72b0; stroke: #334155"/>
    </g>
   </g>
   <g id="line2d_54">
    <g clip-path="url(#pb2c3c69465)">
     <use xlink:href="#m02f76e35df" x="425.618344" y="166.949992" style="fill: #4c72b0; stroke: #334155"/>
    </g>
   </g>
   <g id="patch_33">
    <path d="M 320.497794 183.924 
L 320.497794 53.64 
" style="fill: none; stroke: #cccccc; stroke-linejoin: miter; stroke-linecap: square"/>
   </g>
   <g id="patch_34">
    <path d="M 320.497794 183.924 
L 438.6625 183.924 
" style="fill: none; stroke: #cccccc; stroke-linejoin: miter; stroke-linecap: square"/>
   </g>
   <g id="text_19">
    <text style="font-size: 10px; font-family: 'DejaVu Sans'; text-anchor: middle; fill: #262626" x="379.580147" y="47.64" transform="rotate(-0 379.580147 47.64)">Recall@FPR&lt;=1e-4</text>
   </g>
  </g>
  <g id="text_20">
   <text style="font-weight: 700; font-size: 12px; font-family: 'DejaVu Sans'; text-anchor: middle; fill: #262626" x="231.3025" y="11.998125" transform="rotate(-0 231.3025 11.998125)">Shifted / Unknown Attack Repair</text>
  </g>
  <g id="legend_1">
   <g id="patch_35">
    <path d="M 179.711375 33.07875 
L 195.711375 33.07875 
L 195.711375 27.47875 
L 179.711375 27.47875 
z
" style="fill: #bac2ca; stroke: #263238; stroke-width: 0.4; stroke-linejoin: miter"/>
   </g>
   <g id="text_21">
    <text style="font-size: 8px; font-family: 'DejaVu Sans'; text-anchor: start; fill: #262626" x="202.111375" y="33.07875" transform="rotate(-0 202.111375 33.07875)">Baseline</text>
   </g>
   <g id="patch_36">
    <path d="M 252.030125 33.07875 
L 268.030125 33.07875 
L 268.030125 27.47875 
L 252.030125 27.47875 
z
" style="fill: #4c76b5; stroke: #263238; stroke-width: 0.4; stroke-linejoin: miter"/>
   </g>
   <g id="text_22">
    <text style="font-size: 8px; font-family: 'DejaVu Sans'; text-anchor: start; fill: #262626" x="274.430125" y="33.07875" transform="rotate(-0 274.430125 33.07875)">Enhanced</text>
   </g>
  </g>
 </g>
 <defs>
  <clipPath id="pe6da4c7c46">
   <rect x="36.9025" y="53.64" width="118.164706" height="130.284"/>
  </clipPath>
  <clipPath id="p1af0d82fbc">
   <rect x="178.700147" y="53.64" width="118.164706" height="130.284"/>
  </clipPath>
  <clipPath id="pb2c3c69465">
   <rect x="320.497794" y="53.64" width="118.164706" height="130.284"/>
  </clipPath>
 </defs>
 <defs>
  <pattern id="he8e602a851" patternUnits="userSpaceOnUse" x="0" y="0" width="72" height="72">
   <rect x="0" y="0" width="73" height="73" fill="#bac2ca"/>
   <path d="M -36 36 
L 36 -36 
M -32 40 
L 40 -32 
M -28 44 
L 44 -28 
M -24 48 
L 48 -24 
M -20 52 
L 52 -20 
M -16 56 
L 56 -16 
M -12 60 
L 60 -12 
M -8 64 
L 64 -8 
M -4 68 
L 68 -4 
M 0 72 
L 72 0 
M 4 76 
L 76 4 
M 8 80 
L 80 8 
M 12 84 
L 84 12 
M 16 88 
L 88 16 
M 20 92 
L 92 20 
M 24 96 
L 96 24 
M 28 100 
L 100 28 
M 32 104 
L 104 32 
M 36 108 
L 108 36 
" style="fill: #263238; stroke: #263238; stroke-width: 1.0; stroke-linecap: butt; stroke-linejoin: miter"/>
  </pattern>
  <pattern id="heb0f573fb7" patternUnits="userSpaceOnUse" x="0" y="0" width="72" height="72">
   <rect x="0" y="0" width="73" height="73" fill="#4c76b5"/>
   <path d="M -36 36 
L 36 -36 
M -32 40 
L 40 -32 
M -28 44 
L 44 -28 
M -24 48 
L 48 -24 
M -20 52 
L 52 -20 
M -16 56 
L 56 -16 
M -12 60 
L 60 -12 
M -8 64 
L 64 -8 
M -4 68 
L 68 -4 
M 0 72 
L 72 0 
M 4 76 
L 76 4 
M 8 80 
L 80 8 
M 12 84 
L 84 12 
M 16 88 
L 88 16 
M 20 92 
L 92 20 
M 24 96 
L 96 24 
M 28 100 
L 100 28 
M 32 104 
L 104 32 
M 36 108 
L 108 36 
" style="fill: #263238; stroke: #263238; stroke-width: 1.0; stroke-linecap: butt; stroke-linejoin: miter"/>
  </pattern>
 </defs>
</svg>
