<?xml version="1.0" encoding="utf-8" standalone="no"?>
<!DOCTYPE svg PUBLIC "-//W3C//DTD SVG 1.1//EN"
  "http://www.w3.org/Graphics/SVG/1.1/DTD/svg11.dtd">
<svg xmlns:xlink="http://www.w3.org/1999/xlink" width="452.46625pt" height="190.634102pt" viewBox="0 0 452.46625 190.634102" xmlns="http://www.w3.org/2000/svg" version="1.1">
 <metadata>
  <rdf:RDF xmlns:dc="http://purl.org/dc/elements/1.1/" xmlns:cc="http://creativecommons.org/ns#" xmlns:rdf="http://www.w3.org/1999/02/22-rdf-syntax-ns#">
   <cc:Work>
    <dc:type rdf:resource="http://purl.org/dc/dcmitype/StillImage"/>
    <dc:date>2026-06-28T13:17:15.935546</dc:date>
    <dc:format>image/svg+xml</dc:format>
    <dc:creator>
     <cc:Agent>
      <dc:title>Matplotlib v3.11.0, https://matplotlib.org/</dc:title>
     </cc:Agent>
    </dc:creator>
   </cc:Work>
  </rdf:RDF>
 </metadata>
 <defs>
  <style type="text/css">*{stroke-linejoin: round; stroke-linecap: butt}</style>
 </defs>
 <g id="figure_1">
  <g id="patch_1">
   <path d="M 0 190.634102 
L 452.46625 190.634102 
L 452.46625 0 
L 0 0 
z
" style="fill: #ffffff"/>
  </g>
  <g id="axes_1">
   <g id="patch_2">
    <path d="M 36.9025 142.474437 
L 444.2425 142.474437 
L 444.2425 30.478437 
L 36.9025 30.478437 
z
" style="fill: #ffffff"/>
   </g>
   <g id="matplotlib.axis_1">
    <g id="xtick_1">
     <g id="text_1">
      <text style="font-size: 8px; font-family: 'DejaVu Sans'; fill: #262626" transform="translate(60.861995 163.770238) rotate(-18)">ROAD</text>
     </g>
    </g>
    <g id="xtick_2">
     <g id="text_2">
      <text style="font-size: 8px; font-family: 'DejaVu Sans'; fill: #262626" transform="translate(114.272427 171.907815) rotate(-18)">CT&amp;T test01</text>
     </g>
    </g>
    <g id="xtick_3">
     <g id="text_3">
      <text style="font-size: 8px; font-family: 'DejaVu Sans'; fill: #262626" transform="translate(219.417955 163.235639) rotate(-18)">HCRL</text>
     </g>
    </g>
    <g id="xtick_4">
     <g id="text_4">
      <text style="font-size: 8px; font-family: 'DejaVu Sans'; fill: #262626" transform="translate(272.332648 171.534885) rotate(-18)">Car-Hacking</text>
     </g>
    </g>
    <g id="xtick_5">
     <g id="text_5">
      <text style="font-size: 8px; font-family: 'DejaVu Sans'; fill: #262626" transform="translate(369.781751 165.362835) rotate(-18)">CrySyS</text>
     </g>
    </g>
   </g>
   <g id="matplotlib.axis_2">
    <g id="ytick_1">
     <g id="line2d_1">
      <path d="M 36.9025 142.474437 
L 444.2425 142.474437 
" clip-path="url(#p7308a8ea08)" style="fill: none; stroke: #e6e8f0; stroke-width: 0.8; stroke-linecap: round"/>
     </g>
     <g id="text_6">
      <text style="font-size: 8px; font-family: 'DejaVu Sans'; text-anchor: end; fill: #262626" x="28.6025" y="145.5135" transform="rotate(-0 28.6025 145.5135)">0.0</text>
     </g>
    </g>
    <g id="ytick_2">
     <g id="line2d_2">
      <path d="M 36.9025 121.141866 
L 444.2425 121.141866 
" clip-path="url(#p7308a8ea08)" style="fill: none; stroke: #e6e8f0; stroke-width: 0.8; stroke-linecap: round"/>
     </g>
     <g id="text_7">
      <text style="font-size: 8px; font-family: 'DejaVu Sans'; text-anchor: end; fill: #262626" x="28.6025" y="124.180929" transform="rotate(-0 28.6025 124.180929)">0.2</text>
     </g>
    </g>
    <g id="ytick_3">
     <g id="line2d_3">
      <path d="M 36.9025 99.809295 
L 444.2425 99.809295 
" clip-path="url(#p7308a8ea08)" style="fill: none; stroke: #e6e8f0; stroke-width: 0.8; stroke-linecap: round"/>
     </g>
     <g id="text_8">
      <text style="font-size: 8px; font-family: 'DejaVu Sans'; text-anchor: end; fill: #262626" x="28.6025" y="102.848357" transform="rotate(-0 28.6025 102.848357)">0.4</text>
     </g>
    </g>
    <g id="ytick_4">
     <g id="line2d_4">
      <path d="M 36.9025 78.476723 
L 444.2425 78.476723 
" clip-path="url(#p7308a8ea08)" style="fill: none; stroke: #e6e8f0; stroke-width: 0.8; stroke-linecap: round"/>
     </g>
     <g id="text_9">
      <text style="font-size: 8px; font-family: 'DejaVu Sans'; text-anchor: end; fill: #262626" x="28.6025" y="81.515786" transform="rotate(-0 28.6025 81.515786)">0.6</text>
     </g>
    </g>
    <g id="ytick_5">
     <g id="line2d_5">
      <path d="M 36.9025 57.144152 
L 444.2425 57.144152 
" clip-path="url(#p7308a8ea08)" style="fill: none; stroke: #e6e8f0; stroke-width: 0.8; stroke-linecap: round"/>
     </g>
     <g id="text_10">
      <text style="font-size: 8px; font-family: 'DejaVu Sans'; text-anchor: end; fill: #262626" x="28.6025" y="60.183214" transform="rotate(-0 28.6025 60.183214)">0.8</text>
     </g>
    </g>
    <g id="ytick_6">
     <g id="line2d_6">
      <path d="M 36.9025 35.81158 
L 444.2425 35.81158 
" clip-path="url(#p7308a8ea08)" style="fill: none; stroke: #e6e8f0; stroke-width: 0.8; stroke-linecap: round"/>
     </g>
     <g id="text_11">
      <text style="font-size: 8px; font-family: 'DejaVu Sans'; text-anchor: end; fill: #262626" x="28.6025" y="38.850643" transform="rotate(-0 28.6025 38.850643)">1.0</text>
     </g>
    </g>
    <g id="text_12">
     <text style="font-size: 9px; font-family: 'DejaVu Sans'; text-anchor: middle; fill: #262626" x="9.717891" y="86.476437" transform="rotate(-90 9.717891 86.476437)">F1</text>
    </g>
   </g>
   <g id="patch_3">
    <path d="M 55.417955 142.474437 
L 74.24723 142.474437 
L 74.24723 54.407008 
L 55.417955 54.407008 
z
" clip-path="url(#p7308a8ea08)" style="fill: url(#hcb52555c7a); stroke: #263238; stroke-width: 0.45; stroke-linejoin: miter"/>
   </g>
   <g id="patch_4">
    <path d="M 133.87327 142.474437 
L 152.702546 142.474437 
L 152.702546 45.598326 
L 133.87327 45.598326 
z
" clip-path="url(#p7308a8ea08)" style="fill: url(#hcb52555c7a); stroke: #263238; stroke-width: 0.45; stroke-linejoin: miter"/>
   </g>
   <g id="patch_5">
    <path d="M 212.328586 142.474437 
L 231.157862 142.474437 
L 231.157862 35.81158 
L 212.328586 35.81158 
z
" clip-path="url(#p7308a8ea08)" style="fill: url(#hcb52555c7a); stroke: #263238; stroke-width: 0.45; stroke-linejoin: miter"/>
   </g>
   <g id="patch_6">
    <path d="M 290.783902 142.474437 
L 309.613178 142.474437 
L 309.613178 35.832594 
L 290.783902 35.832594 
z
" clip-path="url(#p7308a8ea08)" style="fill: url(#hcb52555c7a); stroke: #263238; stroke-width: 0.45; stroke-linejoin: miter"/>
   </g>
   <g id="patch_7">
    <path d="M 369.239218 142.474437 
L 388.068494 142.474437 
L 388.068494 43.094383 
L 369.239218 43.094383 
z
" clip-path="url(#p7308a8ea08)" style="fill: url(#hcb52555c7a); stroke: #263238; stroke-width: 0.45; stroke-linejoin: miter"/>
   </g>
   <g id="patch_8">
    <path d="M 74.24723 142.474437 
L 93.076506 142.474437 
L 93.076506 58.099703 
L 74.24723 58.099703 
z
" clip-path="url(#p7308a8ea08)" style="fill: url(#h918a953f87); stroke: #263238; stroke-width: 0.45; stroke-linejoin: miter"/>
   </g>
   <g id="patch_9">
    <path d="M 152.702546 142.474437 
L 171.531822 142.474437 
L 171.531822 42.558358 
L 152.702546 42.558358 
z
" clip-path="url(#p7308a8ea08)" style="fill: url(#h918a953f87); stroke: #263238; stroke-width: 0.45; stroke-linejoin: miter"/>
   </g>
   <g id="patch_10">
    <path d="M 231.157862 142.474437 
L 249.987138 142.474437 
L 249.987138 35.835352 
L 231.157862 35.835352 
z
" clip-path="url(#p7308a8ea08)" style="fill: url(#h918a953f87); stroke: #263238; stroke-width: 0.45; stroke-linejoin: miter"/>
   </g>
   <g id="patch_11">
    <path d="M 309.613178 142.474437 
L 328.442454 142.474437 
L 328.442454 35.988314 
L 309.613178 35.988314 
z
" clip-path="url(#p7308a8ea08)" style="fill: url(#h918a953f87); stroke: #263238; stroke-width: 0.45; stroke-linejoin: miter"/>
   </g>
   <g id="patch_12">
    <path d="M 388.068494 142.474437 
L 406.89777 142.474437 
L 406.89777 43.200594 
L 388.068494 43.200594 
z
" clip-path="url(#p7308a8ea08)" style="fill: url(#h918a953f87); stroke: #263238; stroke-width: 0.45; stroke-linejoin: miter"/>
   </g>
   <g id="patch_13">
    <path d="M 93.076506 142.474437 
L 111.905782 142.474437 
L 111.905782 58.161141 
L 93.076506 58.161141 
z
" clip-path="url(#p7308a8ea08)" style="fill: #f0986e; stroke: #263238; stroke-width: 0.45; stroke-linejoin: miter"/>
   </g>
   <g id="patch_14">
    <path d="M 171.531822 142.474437 
L 190.361098 142.474437 
L 190.361098 57.015046 
L 171.531822 57.015046 
z
" clip-path="url(#p7308a8ea08)" style="fill: #f0986e; stroke: #263238; stroke-width: 0.45; stroke-linejoin: miter"/>
   </g>
   <g id="patch_15">
    <path d="M 249.987138 142.474437 
L 268.816414 142.474437 
L 268.816414 36.167044 
L 249.987138 36.167044 
z
" clip-path="url(#p7308a8ea08)" style="fill: #f0986e; stroke: #263238; stroke-width: 0.45; stroke-linejoin: miter"/>
   </g>
   <g id="patch_16">
    <path d="M 328.442454 142.474437 
L 347.27173 142.474437 
L 347.27173 35.996788 
L 328.442454 35.996788 
z
" clip-path="url(#p7308a8ea08)" style="fill: #f0986e; stroke: #263238; stroke-width: 0.45; stroke-linejoin: miter"/>
   </g>
   <g id="patch_17">
    <path d="M 406.89777 142.474437 
L 425.727045 142.474437 
L 425.727045 43.07782 
L 406.89777 43.07782 
z
" clip-path="url(#p7308a8ea08)" style="fill: #f0986e; stroke: #263238; stroke-width: 0.45; stroke-linejoin: miter"/>
   </g>
   <g id="LineCollection_1">
    <path d="M 64.832592 54.640009 
L 64.832592 54.174007 
" clip-path="url(#p7308a8ea08)" style="fill: none; stroke: #334155; stroke-width: 0.75"/>
    <path d="M 143.287908 48.31543 
L 143.287908 42.881223 
" clip-path="url(#p7308a8ea08)" style="fill: none; stroke: #334155; stroke-width: 0.75"/>
    <path d="M 221.743224 35.81158 
L 221.743224 35.81158 
" clip-path="url(#p7308a8ea08)" style="fill: none; stroke: #334155; stroke-width: 0.75"/>
    <path d="M 300.19854 35.832594 
L 300.19854 35.832594 
" clip-path="url(#p7308a8ea08)" style="fill: none; stroke: #334155; stroke-width: 0.75"/>
    <path d="M 378.653856 43.415976 
L 378.653856 42.772789 
" clip-path="url(#p7308a8ea08)" style="fill: none; stroke: #334155; stroke-width: 0.75"/>
   </g>
   <g id="line2d_7">
    <defs>
     <path id="m27119cb742" d="M 2 0 
L -2 -0 
" style="stroke: #334155; stroke-width: 0.75"/>
    </defs>
    <g clip-path="url(#p7308a8ea08)">
     <use xlink:href="#m27119cb742" x="64.832592" y="54.640009" style="fill: #4c72b0; stroke: #334155; stroke-width: 0.75"/>
     <use xlink:href="#m27119cb742" x="143.287908" y="48.31543" style="fill: #4c72b0; stroke: #334155; stroke-width: 0.75"/>
     <use xlink:href="#m27119cb742" x="221.743224" y="35.81158" style="fill: #4c72b0; stroke: #334155; stroke-width: 0.75"/>
     <use xlink:href="#m27119cb742" x="300.19854" y="35.832594" style="fill: #4c72b0; stroke: #334155; stroke-width: 0.75"/>
     <use xlink:href="#m27119cb742" x="378.653856" y="43.415976" style="fill: #4c72b0; stroke: #334155; stroke-width: 0.75"/>
    </g>
   </g>
   <g id="line2d_8">
    <g clip-path="url(#p7308a8ea08)">
     <use xlink:href="#m27119cb742" x="64.832592" y="54.174007" style="fill: #4c72b0; stroke: #334155; stroke-width: 0.75"/>
     <use xlink:href="#m27119cb742" x="143.287908" y="42.881223" style="fill: #4c72b0; stroke: #334155; stroke-width: 0.75"/>
     <use xlink:href="#m27119cb742" x="221.743224" y="35.81158" style="fill: #4c72b0; stroke: #334155; stroke-width: 0.75"/>
     <use xlink:href="#m27119cb742" x="300.19854" y="35.832594" style="fill: #4c72b0; stroke: #334155; stroke-width: 0.75"/>
     <use xlink:href="#m27119cb742" x="378.653856" y="42.772789" style="fill: #4c72b0; stroke: #334155; stroke-width: 0.75"/>
    </g>
   </g>
   <g id="LineCollection_2">
    <path d="M 83.661868 59.876669 
L 83.661868 56.322737 
" clip-path="url(#p7308a8ea08)" style="fill: none; stroke: #334155; stroke-width: 0.75"/>
    <path d="M 162.117184 44.88513 
L 162.117184 40.231585 
" clip-path="url(#p7308a8ea08)" style="fill: none; stroke: #334155; stroke-width: 0.75"/>
    <path d="M 240.5725 35.835352 
L 240.5725 35.835352 
" clip-path="url(#p7308a8ea08)" style="fill: none; stroke: #334155; stroke-width: 0.75"/>
    <path d="M 319.027816 35.988314 
L 319.027816 35.988314 
" clip-path="url(#p7308a8ea08)" style="fill: none; stroke: #334155; stroke-width: 0.75"/>
    <path d="M 397.483132 43.202535 
L 397.483132 43.198654 
" clip-path="url(#p7308a8ea08)" style="fill: none; stroke: #334155; stroke-width: 0.75"/>
   </g>
   <g id="line2d_9">
    <g clip-path="url(#p7308a8ea08)">
     <use xlink:href="#m27119cb742" x="83.661868" y="59.876669" style="fill: #4c72b0; stroke: #334155; stroke-width: 0.75"/>
     <use xlink:href="#m27119cb742" x="162.117184" y="44.88513" style="fill: #4c72b0; stroke: #334155; stroke-width: 0.75"/>
     <use xlink:href="#m27119cb742" x="240.5725" y="35.835352" style="fill: #4c72b0; stroke: #334155; stroke-width: 0.75"/>
     <use xlink:href="#m27119cb742" x="319.027816" y="35.988314" style="fill: #4c72b0; stroke: #334155; stroke-width: 0.75"/>
     <use xlink:href="#m27119cb742" x="397.483132" y="43.202535" style="fill: #4c72b0; stroke: #334155; stroke-width: 0.75"/>
    </g>
   </g>
   <g id="line2d_10">
    <g clip-path="url(#p7308a8ea08)">
     <use xlink:href="#m27119cb742" x="83.661868" y="56.322737" style="fill: #4c72b0; stroke: #334155; stroke-width: 0.75"/>
     <use xlink:href="#m27119cb742" x="162.117184" y="40.231585" style="fill: #4c72b0; stroke: #334155; stroke-width: 0.75"/>
     <use xlink:href="#m27119cb742" x="240.5725" y="35.835352" style="fill: #4c72b0; stroke: #334155; stroke-width: 0.75"/>
     <use xlink:href="#m27119cb742" x="319.027816" y="35.988314" style="fill: #4c72b0; stroke: #334155; stroke-width: 0.75"/>
     <use xlink:href="#m27119cb742" x="397.483132" y="43.198654" style="fill: #4c72b0; stroke: #334155; stroke-width: 0.75"/>
    </g>
   </g>
   <g id="LineCollection_3">
    <path d="M 102.491144 60.730183 
L 102.491144 55.5921 
" clip-path="url(#p7308a8ea08)" style="fill: none; stroke: #334155; stroke-width: 0.75"/>
    <path d="M 180.94646 73.308638 
L 180.94646 40.721455 
" clip-path="url(#p7308a8ea08)" style="fill: none; stroke: #334155; stroke-width: 0.75"/>
    <path d="M 259.401776 36.167044 
L 259.401776 36.167044 
" clip-path="url(#p7308a8ea08)" style="fill: none; stroke: #334155; stroke-width: 0.75"/>
    <path d="M 337.857092 35.996788 
L 337.857092 35.996788 
" clip-path="url(#p7308a8ea08)" style="fill: none; stroke: #334155; stroke-width: 0.75"/>
    <path d="M 416.312408 43.384664 
L 416.312408 42.770976 
" clip-path="url(#p7308a8ea08)" style="fill: none; stroke: #334155; stroke-width: 0.75"/>
   </g>
   <g id="line2d_11">
    <g clip-path="url(#p7308a8ea08)">
     <use xlink:href="#m27119cb742" x="102.491144" y="60.730183" style="fill: #4c72b0; stroke: #334155; stroke-width: 0.75"/>
     <use xlink:href="#m27119cb742" x="180.94646" y="73.308638" style="fill: #4c72b0; stroke: #334155; stroke-width: 0.75"/>
     <use xlink:href="#m27119cb742" x="259.401776" y="36.167044" style="fill: #4c72b0; stroke: #334155; stroke-width: 0.75"/>
     <use xlink:href="#m27119cb742" x="337.857092" y="35.996788" style="fill: #4c72b0; stroke: #334155; stroke-width: 0.75"/>
     <use xlink:href="#m27119cb742" x="416.312408" y="43.384664" style="fill: #4c72b0; stroke: #334155; stroke-width: 0.75"/>
    </g>
   </g>
   <g id="line2d_12">
    <g clip-path="url(#p7308a8ea08)">
     <use xlink:href="#m27119cb742" x="102.491144" y="55.5921" style="fill: #4c72b0; stroke: #334155; stroke-width: 0.75"/>
     <use xlink:href="#m27119cb742" x="180.94646" y="40.721455" style="fill: #4c72b0; stroke: #334155; stroke-width: 0.75"/>
     <use xlink:href="#m27119cb742" x="259.401776" y="36.167044" style="fill: #4c72b0; stroke: #334155; stroke-width: 0.75"/>
     <use xlink:href="#m27119cb742" x="337.857092" y="35.996788" style="fill: #4c72b0; stroke: #334155; stroke-width: 0.75"/>
     <use xlink:href="#m27119cb742" x="416.312408" y="42.770976" style="fill: #4c72b0; stroke: #334155; stroke-width: 0.75"/>
    </g>
   </g>
   <g id="patch_18">
    <path d="M 36.9025 142.474437 
L 36.9025 30.478437 
" style="fill: none; stroke: #cccccc; stroke-linejoin: miter; stroke-linecap: square"/>
   </g>
   <g id="patch_19">
    <path d="M 36.9025 142.474437 
L 444.2425 142.474437 
" style="fill: none; stroke: #cccccc; stroke-linejoin: miter; stroke-linecap: square"/>
   </g>
   <g id="text_13">
    <text style="font-size: 8px; font-family: 'DejaVu Sans'; text-anchor: start; fill: #6f768a" x="36.9025" y="25.756662" transform="rotate(-0 36.9025 25.756662)">Mean F1 at full-label setting; error bars show standard deviation when multi-seed results are available.</text>
   </g>
   <g id="text_14">
    <text style="font-weight: 700; font-size: 10px; font-family: 'DejaVu Sans'; text-anchor: start; fill: #262626" x="36.9025" y="10.478437" transform="rotate(-0 36.9025 10.478437)">Model comparison across evaluated datasets</text>
   </g>
   <g id="legend_1">
    <g id="patch_20">
     <path d="M 126.466875 182.632227 
L 148.866875 182.632227 
L 148.866875 177.032228 
L 126.466875 177.032228 
z
" style="fill: url(#hcb52555c7a); stroke: #263238; stroke-width: 0.45; stroke-linejoin: miter"/>
    </g>
    <g id="text_15">
     <text style="font-size: 8px; font-family: 'DejaVu Sans'; text-anchor: start; fill: #262626" x="155.266875" y="182.632227" transform="rotate(-0 155.266875 182.632227)">Transformer</text>
    </g>
    <g id="patch_21">
     <path d="M 217.669375 182.632227 
L 240.069375 182.632227 
L 240.069375 177.032228 
L 217.669375 177.032228 
z
" style="fill: url(#h918a953f87); stroke: #263238; stroke-width: 0.45; stroke-linejoin: miter"/>
    </g>
    <g id="text_16">
     <text style="font-size: 8px; font-family: 'DejaVu Sans'; text-anchor: start; fill: #262626" x="246.469375" y="182.632227" transform="rotate(-0 246.469375 182.632227)">Concat</text>
    </g>
    <g id="patch_22">
     <path d="M 288.858125 182.632227 
L 311.258125 182.632227 
L 311.258125 177.032228 
L 288.858125 177.032228 
z
" style="fill: #f0986e; stroke: #263238; stroke-width: 0.45; stroke-linejoin: miter"/>
    </g>
    <g id="text_17">
     <text style="font-size: 8px; font-family: 'DejaVu Sans'; text-anchor: start; fill: #262626" x="317.658125" y="182.632227" transform="rotate(-0 317.658125 182.632227)">CMF-CAN</text>
    </g>
   </g>
  </g>
 </g>
 <defs>
  <clipPath id="p7308a8ea08">
   <rect x="36.9025" y="30.478437" width="407.34" height="111.996"/>
  </clipPath>
 </defs>
 <defs>
  <pattern id="hcb52555c7a" patternUnits="userSpaceOnUse" x="0" y="0" width="72" height="72">
   <rect x="0" y="0" width="73" height="73" fill="#a3befa"/>
   <path d="M -36 36 
L 36 -36 
M -32 40 
L 40 -32 
M -28 44 
L 44 -28 
M -24 48 
L 48 -24 
M -20 52 
L 52 -20 
M -16 56 
L 56 -16 
M -12 60 
L 60 -12 
M -8 64 
L 64 -8 
M -4 68 
L 68 -4 
M 0 72 
L 72 0 
M 4 76 
L 76 4 
M 8 80 
L 80 8 
M 12 84 
L 84 12 
M 16 88 
L 88 16 
M 20 92 
L 92 20 
M 24 96 
L 96 24 
M 28 100 
L 100 28 
M 32 104 
L 104 32 
M 36 108 
L 108 36 
" style="fill: #263238; stroke: #263238; stroke-width: 1.0; stroke-linecap: butt; stroke-linejoin: miter"/>
  </pattern>
  <pattern id="h918a953f87" patternUnits="userSpaceOnUse" x="0" y="0" width="72" height="72">
   <rect x="0" y="0" width="73" height="73" fill="#ffe15b"/>
   <path d="M -36 36 
L 36 108 
M -32 32 
L 40 104 
M -28 28 
L 44 100 
M -24 24 
L 48 96 
M -20 20 
L 52 92 
M -16 16 
L 56 88 
M -12 12 
L 60 84 
M -8 8 
L 64 80 
M -4 4 
L 68 76 
M 0 0 
L 72 72 
M 4 -4 
L 76 68 
M 8 -8 
L 80 64 
M 12 -12 
L 84 60 
M 16 -16 
L 88 56 
M 20 -20 
L 92 52 
M 24 -24 
L 96 48 
M 28 -28 
L 100 44 
M 32 -32 
L 104 40 
M 36 -36 
L 108 36 
" style="fill: #263238; stroke: #263238; stroke-width: 1.0; stroke-linecap: butt; stroke-linejoin: miter"/>
  </pattern>
 </defs>
</svg>
