<?xml version="1.0" encoding="utf-8" standalone="no"?>
<!DOCTYPE svg PUBLIC "-//W3C//DTD SVG 1.1//EN"
  "http://www.w3.org/Graphics/SVG/1.1/DTD/svg11.dtd">
<svg xmlns:xlink="http://www.w3.org/1999/xlink" width="439.425102pt" height="243.243009pt" viewBox="0 0 439.425102 243.243009" xmlns="http://www.w3.org/2000/svg" version="1.1">
 <metadata>
  <rdf:RDF xmlns:dc="http://purl.org/dc/elements/1.1/" xmlns:cc="http://creativecommons.org/ns#" xmlns:rdf="http://www.w3.org/1999/02/22-rdf-syntax-ns#">
   <cc:Work>
    <dc:type rdf:resource="http://purl.org/dc/dcmitype/StillImage"/>
    <dc:date>2026-06-28T19:13:02.731192</dc:date>
    <dc:format>image/svg+xml</dc:format>
    <dc:creator>
     <cc:Agent>
      <dc:title>Matplotlib v3.11.0, https://matplotlib.org/</dc:title>
     </cc:Agent>
    </dc:creator>
   </cc:Work>
  </rdf:RDF>
 </metadata>
 <defs>
  <style type="text/css">*{stroke-linejoin: round; stroke-linecap: butt}</style>
 </defs>
 <g id="figure_1">
  <g id="patch_1">
   <path d="M 0 243.243009 
L 439.425102 243.243009 
L 439.425102 0 
L 0 0 
z
" style="fill: #ffffff"/>
  </g>
  <g id="axes_1">
   <g id="patch_2">
    <path d="M 34.785102 169.2 
L 436.545102 169.2 
L 436.545102 2.88 
L 34.785102 2.88 
z
" style="fill: #ffffff"/>
   </g>
   <g id="patch_3">
    <path d="M 53.04692 169.2 
L 62.065102 169.2 
L 62.065102 10.8 
L 53.04692 10.8 
z
" clip-path="url(#p03d758bfc2)" style="fill: url(#h97aca3d5a4); stroke: #222222; stroke-width: 0.8; stroke-linejoin: miter"/>
   </g>
   <g id="patch_4">
    <path d="M 90.622677 169.2 
L 99.640859 169.2 
L 99.640859 10.8 
L 90.622677 10.8 
z
" clip-path="url(#p03d758bfc2)" style="fill: url(#h97aca3d5a4); stroke: #222222; stroke-width: 0.8; stroke-linejoin: miter"/>
   </g>
   <g id="patch_5">
    <path d="M 128.198435 169.2 
L 137.216617 169.2 
L 137.216617 10.8 
L 128.198435 10.8 
z
" clip-path="url(#p03d758bfc2)" style="fill: url(#h97aca3d5a4); stroke: #222222; stroke-width: 0.8; stroke-linejoin: miter"/>
   </g>
   <g id="patch_6">
    <path d="M 165.774192 169.2 
L 174.792374 169.2 
L 174.792374 10.8 
L 165.774192 10.8 
z
" clip-path="url(#p03d758bfc2)" style="fill: url(#h97aca3d5a4); stroke: #222222; stroke-width: 0.8; stroke-linejoin: miter"/>
   </g>
   <g id="patch_7">
    <path d="M 203.34995 169.2 
L 212.368132 169.2 
L 212.368132 10.8 
L 203.34995 10.8 
z
" clip-path="url(#p03d758bfc2)" style="fill: url(#h97aca3d5a4); stroke: #222222; stroke-width: 0.8; stroke-linejoin: miter"/>
   </g>
   <g id="patch_8">
    <path d="M 240.925708 169.2 
L 249.943889 169.2 
L 249.943889 10.8 
L 240.925708 10.8 
z
" clip-path="url(#p03d758bfc2)" style="fill: url(#h97aca3d5a4); stroke: #222222; stroke-width: 0.8; stroke-linejoin: miter"/>
   </g>
   <g id="patch_9">
    <path d="M 278.501465 169.2 
L 287.519647 169.2 
L 287.519647 10.8 
L 278.501465 10.8 
z
" clip-path="url(#p03d758bfc2)" style="fill: url(#h97aca3d5a4); stroke: #222222; stroke-width: 0.8; stroke-linejoin: miter"/>
   </g>
   <g id="patch_10">
    <path d="M 316.077223 169.2 
L 325.095405 169.2 
L 325.095405 169.2 
L 316.077223 169.2 
z
" clip-path="url(#p03d758bfc2)" style="fill: url(#h97aca3d5a4); stroke: #222222; stroke-width: 0.8; stroke-linejoin: miter"/>
   </g>
   <g id="patch_11">
    <path d="M 353.65298 169.2 
L 362.671162 169.2 
L 362.671162 169.2 
L 353.65298 169.2 
z
" clip-path="url(#p03d758bfc2)" style="fill: url(#h97aca3d5a4); stroke: #222222; stroke-width: 0.8; stroke-linejoin: miter"/>
   </g>
   <g id="patch_12">
    <path d="M 391.228738 169.2 
L 400.24692 169.2 
L 400.24692 169.2 
L 391.228738 169.2 
z
" clip-path="url(#p03d758bfc2)" style="fill: url(#h97aca3d5a4); stroke: #222222; stroke-width: 0.8; stroke-linejoin: miter"/>
   </g>
   <g id="patch_13">
    <path d="M 62.065102 169.2 
L 71.083283 169.2 
L 71.083283 10.8 
L 62.065102 10.8 
z
" clip-path="url(#p03d758bfc2)" style="fill: url(#hb9e617cfb5); stroke: #222222; stroke-width: 0.8; stroke-linejoin: miter"/>
   </g>
   <g id="patch_14">
    <path d="M 99.640859 169.2 
L 108.659041 169.2 
L 108.659041 10.8 
L 99.640859 10.8 
z
" clip-path="url(#p03d758bfc2)" style="fill: url(#hb9e617cfb5); stroke: #222222; stroke-width: 0.8; stroke-linejoin: miter"/>
   </g>
   <g id="patch_15">
    <path d="M 137.216617 169.2 
L 146.234799 169.2 
L 146.234799 10.8 
L 137.216617 10.8 
z
" clip-path="url(#p03d758bfc2)" style="fill: url(#hb9e617cfb5); stroke: #222222; stroke-width: 0.8; stroke-linejoin: miter"/>
   </g>
   <g id="patch_16">
    <path d="M 174.792374 169.2 
L 183.810556 169.2 
L 183.810556 10.8 
L 174.792374 10.8 
z
" clip-path="url(#p03d758bfc2)" style="fill: url(#hb9e617cfb5); stroke: #222222; stroke-width: 0.8; stroke-linejoin: miter"/>
   </g>
   <g id="patch_17">
    <path d="M 212.368132 169.2 
L 221.386314 169.2 
L 221.386314 10.8 
L 212.368132 10.8 
z
" clip-path="url(#p03d758bfc2)" style="fill: url(#hb9e617cfb5); stroke: #222222; stroke-width: 0.8; stroke-linejoin: miter"/>
   </g>
   <g id="patch_18">
    <path d="M 249.943889 169.2 
L 258.962071 169.2 
L 258.962071 10.8 
L 249.943889 10.8 
z
" clip-path="url(#p03d758bfc2)" style="fill: url(#hb9e617cfb5); stroke: #222222; stroke-width: 0.8; stroke-linejoin: miter"/>
   </g>
   <g id="patch_19">
    <path d="M 287.519647 169.2 
L 296.537829 169.2 
L 296.537829 10.8 
L 287.519647 10.8 
z
" clip-path="url(#p03d758bfc2)" style="fill: url(#hb9e617cfb5); stroke: #222222; stroke-width: 0.8; stroke-linejoin: miter"/>
   </g>
   <g id="patch_20">
    <path d="M 325.095405 169.2 
L 334.113586 169.2 
L 334.113586 122.150495 
L 325.095405 122.150495 
z
" clip-path="url(#p03d758bfc2)" style="fill: url(#hb9e617cfb5); stroke: #222222; stroke-width: 0.8; stroke-linejoin: miter"/>
   </g>
   <g id="patch_21">
    <path d="M 362.671162 169.2 
L 371.689344 169.2 
L 371.689344 145.608511 
L 362.671162 145.608511 
z
" clip-path="url(#p03d758bfc2)" style="fill: url(#hb9e617cfb5); stroke: #222222; stroke-width: 0.8; stroke-linejoin: miter"/>
   </g>
   <g id="patch_22">
    <path d="M 400.24692 169.2 
L 409.265102 169.2 
L 409.265102 169.2 
L 400.24692 169.2 
z
" clip-path="url(#p03d758bfc2)" style="fill: url(#hb9e617cfb5); stroke: #222222; stroke-width: 0.8; stroke-linejoin: miter"/>
   </g>
   <g id="patch_23">
    <path d="M 71.083283 169.2 
L 80.101465 169.2 
L 80.101465 10.8 
L 71.083283 10.8 
z
" clip-path="url(#p03d758bfc2)" style="fill: #e45756; stroke: #222222; stroke-width: 1.25; stroke-linejoin: miter"/>
   </g>
   <g id="patch_24">
    <path d="M 108.659041 169.2 
L 117.677223 169.2 
L 117.677223 10.8 
L 108.659041 10.8 
z
" clip-path="url(#p03d758bfc2)" style="fill: #e45756; stroke: #222222; stroke-width: 1.25; stroke-linejoin: miter"/>
   </g>
   <g id="patch_25">
    <path d="M 146.234799 169.2 
L 155.25298 169.2 
L 155.25298 10.8 
L 146.234799 10.8 
z
" clip-path="url(#p03d758bfc2)" style="fill: #e45756; stroke: #222222; stroke-width: 1.25; stroke-linejoin: miter"/>
   </g>
   <g id="patch_26">
    <path d="M 183.810556 169.2 
L 192.828738 169.2 
L 192.828738 10.8 
L 183.810556 10.8 
z
" clip-path="url(#p03d758bfc2)" style="fill: #e45756; stroke: #222222; stroke-width: 1.25; stroke-linejoin: miter"/>
   </g>
   <g id="patch_27">
    <path d="M 221.386314 169.2 
L 230.404496 169.2 
L 230.404496 10.8 
L 221.386314 10.8 
z
" clip-path="url(#p03d758bfc2)" style="fill: #e45756; stroke: #222222; stroke-width: 1.25; stroke-linejoin: miter"/>
   </g>
   <g id="patch_28">
    <path d="M 258.962071 169.2 
L 267.980253 169.2 
L 267.980253 10.8 
L 258.962071 10.8 
z
" clip-path="url(#p03d758bfc2)" style="fill: #e45756; stroke: #222222; stroke-width: 1.25; stroke-linejoin: miter"/>
   </g>
   <g id="patch_29">
    <path d="M 296.537829 169.2 
L 305.556011 169.2 
L 305.556011 10.8 
L 296.537829 10.8 
z
" clip-path="url(#p03d758bfc2)" style="fill: #e45756; stroke: #222222; stroke-width: 1.25; stroke-linejoin: miter"/>
   </g>
   <g id="patch_30">
    <path d="M 334.113586 169.2 
L 343.131768 169.2 
L 343.131768 62.554455 
L 334.113586 62.554455 
z
" clip-path="url(#p03d758bfc2)" style="fill: #e45756; stroke: #222222; stroke-width: 1.25; stroke-linejoin: miter"/>
   </g>
   <g id="patch_31">
    <path d="M 371.689344 169.2 
L 380.707526 169.2 
L 380.707526 145.608511 
L 371.689344 145.608511 
z
" clip-path="url(#p03d758bfc2)" style="fill: #e45756; stroke: #222222; stroke-width: 1.25; stroke-linejoin: miter"/>
   </g>
   <g id="patch_32">
    <path d="M 409.265102 169.2 
L 418.283283 169.2 
L 418.283283 169.2 
L 409.265102 169.2 
z
" clip-path="url(#p03d758bfc2)" style="fill: #e45756; stroke: #222222; stroke-width: 1.25; stroke-linejoin: miter"/>
   </g>
   <g id="matplotlib.axis_1">
    <g id="xtick_1">
     <g id="line2d_1">
      <defs>
       <path id="m3248d08673" d="M 0 0 
L 0 3.5 
" style="stroke: #000000; stroke-width: 0.8"/>
      </defs>
      <g>
       <use xlink:href="#m3248d08673" x="66.574192" y="169.2" style="stroke: #000000; stroke-width: 0.8"/>
      </g>
     </g>
     <g id="text_1">
      <text style="font-size: 7.8px; font-family: 'DejaVu Sans'" transform="translate(12.92343 199.080171) rotate(-18)">Ttest02:DoS-3</text>
     </g>
    </g>
    <g id="xtick_2">
     <g id="line2d_2">
      <g>
       <use xlink:href="#m3248d08673" x="104.14995" y="169.2" style="stroke: #000000; stroke-width: 0.8"/>
      </g>
     </g>
     <g id="text_2">
      <text style="font-size: 7.8px; font-family: 'DejaVu Sans'" transform="translate(50.499188 199.080171) rotate(-18)">Ttest02:DoS-4</text>
     </g>
    </g>
    <g id="xtick_3">
     <g id="line2d_3">
      <g>
       <use xlink:href="#m3248d08673" x="141.725708" y="169.2" style="stroke: #000000; stroke-width: 0.8"/>
      </g>
     </g>
     <g id="text_3">
      <text style="font-size: 7.8px; font-family: 'DejaVu Sans'" transform="translate(59.867085 208.24604) rotate(-18)">Ttest02:force-neutral-</text>
     </g>
    </g>
    <g id="xtick_4">
     <g id="line2d_4">
      <g>
       <use xlink:href="#m3248d08673" x="179.301465" y="169.2" style="stroke: #000000; stroke-width: 0.8"/>
      </g>
     </g>
     <g id="text_4">
      <text style="font-size: 7.8px; font-family: 'DejaVu Sans'" transform="translate(125.626362 199.08808) rotate(-18)">Ttest02:rpm-3</text>
     </g>
    </g>
    <g id="xtick_5">
     <g id="line2d_5">
      <g>
       <use xlink:href="#m3248d08673" x="216.877223" y="169.2" style="stroke: #000000; stroke-width: 0.8"/>
      </g>
     </g>
     <g id="text_5">
      <text style="font-size: 7.8px; font-family: 'DejaVu Sans'" transform="translate(163.202119 199.08808) rotate(-18)">Ttest02:rpm-4</text>
     </g>
    </g>
    <g id="xtick_6">
     <g id="line2d_6">
      <g>
       <use xlink:href="#m3248d08673" x="254.45298" y="169.2" style="stroke: #000000; stroke-width: 0.8"/>
      </g>
     </g>
     <g id="text_6">
      <text style="font-size: 7.8px; font-family: 'DejaVu Sans'" transform="translate(182.078115 205.16458) rotate(-18)">Ttest02:standstill-3</text>
     </g>
    </g>
    <g id="xtick_7">
     <g id="line2d_7">
      <g>
       <use xlink:href="#m3248d08673" x="292.028738" y="169.2" style="stroke: #000000; stroke-width: 0.8"/>
      </g>
     </g>
     <g id="text_7">
      <text style="font-size: 7.8px; font-family: 'DejaVu Sans'" transform="translate(219.653872 205.16458) rotate(-18)">Ttest02:standstill-4</text>
     </g>
    </g>
    <g id="xtick_8">
     <g id="line2d_8">
      <g>
       <use xlink:href="#m3248d08673" x="329.604496" y="169.2" style="stroke: #000000; stroke-width: 0.8"/>
      </g>
     </g>
     <g id="text_8">
      <text style="font-size: 7.8px; font-family: 'DejaVu Sans'" transform="translate(265.629628 202.435255) rotate(-18)">Ttest03:double-3</text>
     </g>
    </g>
    <g id="xtick_9">
     <g id="line2d_9">
      <g>
       <use xlink:href="#m3248d08673" x="367.180253" y="169.2" style="stroke: #000000; stroke-width: 0.8"/>
      </g>
     </g>
     <g id="text_9">
      <text style="font-size: 7.8px; font-family: 'DejaVu Sans'" transform="translate(303.205386 202.435255) rotate(-18)">Ttest03:double-4</text>
     </g>
    </g>
    <g id="xtick_10">
     <g id="line2d_10">
      <g>
       <use xlink:href="#m3248d08673" x="404.756011" y="169.2" style="stroke: #000000; stroke-width: 0.8"/>
      </g>
     </g>
     <g id="text_10">
      <text style="font-size: 7.8px; font-family: 'DejaVu Sans'" transform="translate(339.494542 202.853297) rotate(-18)">Ttest03:fuzzing-3</text>
     </g>
    </g>
   </g>
   <g id="matplotlib.axis_2">
    <g id="ytick_1">
     <g id="line2d_11">
      <path d="M 34.785102 169.2 
L 436.545102 169.2 
" clip-path="url(#p03d758bfc2)" style="fill: none; stroke: #e5e7eb; stroke-width: 0.7; stroke-linecap: square"/>
     </g>
     <g id="line2d_12">
      <defs>
       <path id="m7405b9c181" d="M 0 0 
L -3.5 0 
" style="stroke: #000000; stroke-width: 0.8"/>
      </defs>
      <g>
       <use xlink:href="#m7405b9c181" x="34.785102" y="169.2" style="stroke: #000000; stroke-width: 0.8"/>
      </g>
     </g>
     <g id="text_11">
      <text style="font-size: 7.8px; font-family: 'DejaVu Sans'; text-anchor: end" x="27.785102" y="172.163086" transform="rotate(-0 27.785102 172.163086)">0.0</text>
     </g>
    </g>
    <g id="ytick_2">
     <g id="line2d_13">
      <path d="M 34.785102 137.52 
L 436.545102 137.52 
" clip-path="url(#p03d758bfc2)" style="fill: none; stroke: #e5e7eb; stroke-width: 0.7; stroke-linecap: square"/>
     </g>
     <g id="line2d_14">
      <g>
       <use xlink:href="#m7405b9c181" x="34.785102" y="137.52" style="stroke: #000000; stroke-width: 0.8"/>
      </g>
     </g>
     <g id="text_12">
      <text style="font-size: 7.8px; font-family: 'DejaVu Sans'; text-anchor: end" x="27.785102" y="140.483086" transform="rotate(-0 27.785102 140.483086)">0.2</text>
     </g>
    </g>
    <g id="ytick_3">
     <g id="line2d_15">
      <path d="M 34.785102 105.84 
L 436.545102 105.84 
" clip-path="url(#p03d758bfc2)" style="fill: none; stroke: #e5e7eb; stroke-width: 0.7; stroke-linecap: square"/>
     </g>
     <g id="line2d_16">
      <g>
       <use xlink:href="#m7405b9c181" x="34.785102" y="105.84" style="stroke: #000000; stroke-width: 0.8"/>
      </g>
     </g>
     <g id="text_13">
      <text style="font-size: 7.8px; font-family: 'DejaVu Sans'; text-anchor: end" x="27.785102" y="108.803086" transform="rotate(-0 27.785102 108.803086)">0.4</text>
     </g>
    </g>
    <g id="ytick_4">
     <g id="line2d_17">
      <path d="M 34.785102 74.16 
L 436.545102 74.16 
" clip-path="url(#p03d758bfc2)" style="fill: none; stroke: #e5e7eb; stroke-width: 0.7; stroke-linecap: square"/>
     </g>
     <g id="line2d_18">
      <g>
       <use xlink:href="#m7405b9c181" x="34.785102" y="74.16" style="stroke: #000000; stroke-width: 0.8"/>
      </g>
     </g>
     <g id="text_14">
      <text style="font-size: 7.8px; font-family: 'DejaVu Sans'; text-anchor: end" x="27.785102" y="77.123086" transform="rotate(-0 27.785102 77.123086)">0.6</text>
     </g>
    </g>
    <g id="ytick_5">
     <g id="line2d_19">
      <path d="M 34.785102 42.48 
L 436.545102 42.48 
" clip-path="url(#p03d758bfc2)" style="fill: none; stroke: #e5e7eb; stroke-width: 0.7; stroke-linecap: square"/>
     </g>
     <g id="line2d_20">
      <g>
       <use xlink:href="#m7405b9c181" x="34.785102" y="42.48" style="stroke: #000000; stroke-width: 0.8"/>
      </g>
     </g>
     <g id="text_15">
      <text style="font-size: 7.8px; font-family: 'DejaVu Sans'; text-anchor: end" x="27.785102" y="45.443086" transform="rotate(-0 27.785102 45.443086)">0.8</text>
     </g>
    </g>
    <g id="ytick_6">
     <g id="line2d_21">
      <path d="M 34.785102 10.8 
L 436.545102 10.8 
" clip-path="url(#p03d758bfc2)" style="fill: none; stroke: #e5e7eb; stroke-width: 0.7; stroke-linecap: square"/>
     </g>
     <g id="line2d_22">
      <g>
       <use xlink:href="#m7405b9c181" x="34.785102" y="10.8" style="stroke: #000000; stroke-width: 0.8"/>
      </g>
     </g>
     <g id="text_16">
      <text style="font-size: 7.8px; font-family: 'DejaVu Sans'; text-anchor: end" x="27.785102" y="13.763086" transform="rotate(-0 27.785102 13.763086)">1.0</text>
     </g>
    </g>
    <g id="text_17">
     <text style="font-size: 8.5px; font-family: 'DejaVu Sans'; text-anchor: middle" x="9.338672" y="86.04" transform="rotate(-90 9.338672 86.04)">Recall</text>
    </g>
   </g>
   <g id="patch_33">
    <path d="M 34.785102 169.2 
L 34.785102 2.88 
" style="fill: none; stroke: #333333; stroke-width: 0.9; stroke-linejoin: miter; stroke-linecap: square"/>
   </g>
   <g id="patch_34">
    <path d="M 34.785102 169.2 
L 436.545102 169.2 
" style="fill: none; stroke: #333333; stroke-width: 0.9; stroke-linejoin: miter; stroke-linecap: square"/>
   </g>
   <g id="legend_1">
    <g id="patch_35">
     <path d="M 118.330555 235.369181 
L 133.930555 235.369181 
L 133.930555 229.909181 
L 118.330555 229.909181 
z
" style="fill: url(#h97aca3d5a4); stroke: #222222; stroke-width: 0.8; stroke-linejoin: miter"/>
    </g>
    <g id="text_18">
     <text style="font-size: 7.8px; font-family: 'DejaVu Sans'; text-anchor: start" x="140.170555" y="235.369181" transform="rotate(-0 140.170555 235.369181)">Transformer</text>
    </g>
    <g id="patch_36">
     <path d="M 202.572992 235.369181 
L 218.172992 235.369181 
L 218.172992 229.909181 
L 202.572992 229.909181 
z
" style="fill: url(#hb9e617cfb5); stroke: #222222; stroke-width: 0.8; stroke-linejoin: miter"/>
    </g>
    <g id="text_19">
     <text style="font-size: 7.8px; font-family: 'DejaVu Sans'; text-anchor: start" x="224.412992" y="235.369181" transform="rotate(-0 224.412992 235.369181)">Concat-Fusion</text>
    </g>
    <g id="patch_37">
     <path d="M 295.065148 235.369181 
L 310.665148 235.369181 
L 310.665148 229.909181 
L 295.065148 229.909181 
z
" style="fill: #e45756; stroke: #222222; stroke-width: 1.25; stroke-linejoin: miter"/>
    </g>
    <g id="text_20">
     <text style="font-size: 7.8px; font-family: 'DejaVu Sans'; text-anchor: start" x="316.905148" y="235.369181" transform="rotate(-0 316.905148 235.369181)">CMF-CAN</text>
    </g>
   </g>
  </g>
 </g>
 <defs>
  <clipPath id="p03d758bfc2">
   <rect x="34.785102" y="2.88" width="401.76" height="166.32"/>
  </clipPath>
 </defs>
 <defs>
  <pattern id="h97aca3d5a4" patternUnits="userSpaceOnUse" x="0" y="0" width="72" height="72">
   <rect x="0" y="0" width="73" height="73" fill="#4c78a8"/>
   <path d="M -36 36 
L 36 -36 
M -32 40 
L 40 -32 
M -28 44 
L 44 -28 
M -24 48 
L 48 -24 
M -20 52 
L 52 -20 
M -16 56 
L 56 -16 
M -12 60 
L 60 -12 
M -8 64 
L 64 -8 
M -4 68 
L 68 -4 
M 0 72 
L 72 0 
M 4 76 
L 76 4 
M 8 80 
L 80 8 
M 12 84 
L 84 12 
M 16 88 
L 88 16 
M 20 92 
L 92 20 
M 24 96 
L 96 24 
M 28 100 
L 100 28 
M 32 104 
L 104 32 
M 36 108 
L 108 36 
" style="fill: #222222; stroke: #222222; stroke-width: 1.0; stroke-linecap: butt; stroke-linejoin: miter"/>
  </pattern>
  <pattern id="hb9e617cfb5" patternUnits="userSpaceOnUse" x="0" y="0" width="72" height="72">
   <rect x="0" y="0" width="73" height="73" fill="#f2be3e"/>
   <path d="M -36 36 
L 36 108 
M -32 32 
L 40 104 
M -28 28 
L 44 100 
M -24 24 
L 48 96 
M -20 20 
L 52 92 
M -16 16 
L 56 88 
M -12 12 
L 60 84 
M -8 8 
L 64 80 
M -4 4 
L 68 76 
M 0 0 
L 72 72 
M 4 -4 
L 76 68 
M 8 -8 
L 80 64 
M 12 -12 
L 84 60 
M 16 -16 
L 88 56 
M 20 -20 
L 92 52 
M 24 -24 
L 96 48 
M 28 -28 
L 100 44 
M 32 -32 
L 104 40 
M 36 -36 
L 108 36 
" style="fill: #222222; stroke: #222222; stroke-width: 1.0; stroke-linecap: butt; stroke-linejoin: miter"/>
  </pattern>
 </defs>
</svg>
