<?xml version="1.0" encoding="utf-8" standalone="no"?>
<!DOCTYPE svg PUBLIC "-//W3C//DTD SVG 1.1//EN"
  "http://www.w3.org/Graphics/SVG/1.1/DTD/svg11.dtd">
<svg xmlns:xlink="http://www.w3.org/1999/xlink" width="433.845102pt" height="233.263809pt" viewBox="0 0 433.845102 233.263809" xmlns="http://www.w3.org/2000/svg" version="1.1">
 <metadata>
  <rdf:RDF xmlns:dc="http://purl.org/dc/elements/1.1/" xmlns:cc="http://creativecommons.org/ns#" xmlns:rdf="http://www.w3.org/1999/02/22-rdf-syntax-ns#">
   <cc:Work>
    <dc:type rdf:resource="http://purl.org/dc/dcmitype/StillImage"/>
    <dc:date>2026-06-28T19:12:38.728615</dc:date>
    <dc:format>image/svg+xml</dc:format>
    <dc:creator>
     <cc:Agent>
      <dc:title>Matplotlib v3.11.0, https://matplotlib.org/</dc:title>
     </cc:Agent>
    </dc:creator>
   </cc:Work>
  </rdf:RDF>
 </metadata>
 <defs>
  <style type="text/css">*{stroke-linejoin: round; stroke-linecap: butt}</style>
 </defs>
 <g id="figure_1">
  <g id="patch_1">
   <path d="M 0 233.263809 
L 433.845102 233.263809 
L 433.845102 0 
L 0 0 
z
" style="fill: #ffffff"/>
  </g>
  <g id="axes_1">
   <g id="patch_2">
    <path d="M 34.785102 169.2 
L 430.965102 169.2 
L 430.965102 2.88 
L 34.785102 2.88 
z
" style="fill: #ffffff"/>
   </g>
   <g id="patch_3">
    <path d="M 52.793283 169.2 
L 67.905044 169.2 
L 67.905044 25.018147 
L 52.793283 25.018147 
z
" clip-path="url(#p4a317b0bf7)" style="fill: url(#h04c3adb07e); stroke: #222222; stroke-width: 0.8; stroke-linejoin: miter"/>
   </g>
   <g id="patch_4">
    <path d="M 115.758954 169.2 
L 130.870715 169.2 
L 130.870715 13.739937 
L 115.758954 13.739937 
z
" clip-path="url(#p4a317b0bf7)" style="fill: url(#h04c3adb07e); stroke: #222222; stroke-width: 0.8; stroke-linejoin: miter"/>
   </g>
   <g id="patch_5">
    <path d="M 178.724625 169.2 
L 193.836386 169.2 
L 193.836386 156.524926 
L 178.724625 156.524926 
z
" clip-path="url(#p4a317b0bf7)" style="fill: url(#h04c3adb07e); stroke: #222222; stroke-width: 0.8; stroke-linejoin: miter"/>
   </g>
   <g id="patch_6">
    <path d="M 241.690295 169.2 
L 256.802056 169.2 
L 256.802056 91.472744 
L 241.690295 91.472744 
z
" clip-path="url(#p4a317b0bf7)" style="fill: url(#h04c3adb07e); stroke: #222222; stroke-width: 0.8; stroke-linejoin: miter"/>
   </g>
   <g id="patch_7">
    <path d="M 304.655966 169.2 
L 319.767727 169.2 
L 319.767727 165.037571 
L 304.655966 165.037571 
z
" clip-path="url(#p4a317b0bf7)" style="fill: url(#h04c3adb07e); stroke: #222222; stroke-width: 0.8; stroke-linejoin: miter"/>
   </g>
   <g id="patch_8">
    <path d="M 367.621637 169.2 
L 382.733398 169.2 
L 382.733398 17.41867 
L 367.621637 17.41867 
z
" clip-path="url(#p4a317b0bf7)" style="fill: url(#h04c3adb07e); stroke: #222222; stroke-width: 0.8; stroke-linejoin: miter"/>
   </g>
   <g id="patch_9">
    <path d="M 67.905044 169.2 
L 83.016805 169.2 
L 83.016805 28.243 
L 67.905044 28.243 
z
" clip-path="url(#p4a317b0bf7)" style="fill: url(#h508c2761d8); stroke: #222222; stroke-width: 0.8; stroke-linejoin: miter"/>
   </g>
   <g id="patch_10">
    <path d="M 130.870715 169.2 
L 145.982476 169.2 
L 145.982476 25.867201 
L 130.870715 25.867201 
z
" clip-path="url(#p4a317b0bf7)" style="fill: url(#h508c2761d8); stroke: #222222; stroke-width: 0.8; stroke-linejoin: miter"/>
   </g>
   <g id="patch_11">
    <path d="M 193.836386 169.2 
L 208.948147 169.2 
L 208.948147 156.524926 
L 193.836386 156.524926 
z
" clip-path="url(#p4a317b0bf7)" style="fill: url(#h508c2761d8); stroke: #222222; stroke-width: 0.8; stroke-linejoin: miter"/>
   </g>
   <g id="patch_12">
    <path d="M 256.802056 169.2 
L 271.913817 169.2 
L 271.913817 89.11304 
L 256.802056 89.11304 
z
" clip-path="url(#p4a317b0bf7)" style="fill: url(#h508c2761d8); stroke: #222222; stroke-width: 0.8; stroke-linejoin: miter"/>
   </g>
   <g id="patch_13">
    <path d="M 319.767727 169.2 
L 334.879488 169.2 
L 334.879488 148.116936 
L 319.767727 148.116936 
z
" clip-path="url(#p4a317b0bf7)" style="fill: url(#h508c2761d8); stroke: #222222; stroke-width: 0.8; stroke-linejoin: miter"/>
   </g>
   <g id="patch_14">
    <path d="M 382.733398 169.2 
L 397.845159 169.2 
L 397.845159 17.518744 
L 382.733398 17.518744 
z
" clip-path="url(#p4a317b0bf7)" style="fill: url(#h508c2761d8); stroke: #222222; stroke-width: 0.8; stroke-linejoin: miter"/>
   </g>
   <g id="patch_15">
    <path d="M 83.016805 169.2 
L 98.128566 169.2 
L 98.128566 28.177146 
L 83.016805 28.177146 
z
" clip-path="url(#p4a317b0bf7)" style="fill: #e45756; stroke: #222222; stroke-width: 1.25; stroke-linejoin: miter"/>
   </g>
   <g id="patch_16">
    <path d="M 145.982476 169.2 
L 161.094237 169.2 
L 161.094237 13.355714 
L 145.982476 13.355714 
z
" clip-path="url(#p4a317b0bf7)" style="fill: #e45756; stroke: #222222; stroke-width: 1.25; stroke-linejoin: miter"/>
   </g>
   <g id="patch_17">
    <path d="M 208.948147 169.2 
L 224.059908 169.2 
L 224.059908 156.524926 
L 208.948147 156.524926 
z
" clip-path="url(#p4a317b0bf7)" style="fill: #e45756; stroke: #222222; stroke-width: 1.25; stroke-linejoin: miter"/>
   </g>
   <g id="patch_18">
    <path d="M 271.913817 169.2 
L 287.025578 169.2 
L 287.025578 86.741132 
L 271.913817 86.741132 
z
" clip-path="url(#p4a317b0bf7)" style="fill: #e45756; stroke: #222222; stroke-width: 1.25; stroke-linejoin: miter"/>
   </g>
   <g id="patch_19">
    <path d="M 334.879488 169.2 
L 349.991249 169.2 
L 349.991249 120.073088 
L 334.879488 120.073088 
z
" clip-path="url(#p4a317b0bf7)" style="fill: #e45756; stroke: #222222; stroke-width: 1.25; stroke-linejoin: miter"/>
   </g>
   <g id="patch_20">
    <path d="M 397.845159 169.2 
L 412.95692 169.2 
L 412.95692 17.40724 
L 397.845159 17.40724 
z
" clip-path="url(#p4a317b0bf7)" style="fill: #e45756; stroke: #222222; stroke-width: 1.25; stroke-linejoin: miter"/>
   </g>
   <g id="matplotlib.axis_1">
    <g id="xtick_1">
     <g id="line2d_1">
      <defs>
       <path id="m9d05135aa8" d="M 0 0 
L 0 3.5 
" style="stroke: #000000; stroke-width: 0.8"/>
      </defs>
      <g>
       <use xlink:href="#m9d05135aa8" x="75.460925" y="169.2" style="stroke: #000000; stroke-width: 0.8"/>
      </g>
     </g>
     <g id="text_1">
      <text style="font-size: 7.8px; font-family: 'DejaVu Sans'" transform="translate(53.231049 188.870906) rotate(-18)">ROAD</text>
     </g>
    </g>
    <g id="xtick_2">
     <g id="line2d_2">
      <g>
       <use xlink:href="#m9d05135aa8" x="138.426596" y="169.2" style="stroke: #000000; stroke-width: 0.8"/>
      </g>
     </g>
     <g id="text_2">
      <text style="font-size: 7.8px; font-family: 'DejaVu Sans'" transform="translate(93.472561 196.254432) rotate(-18)">CT&amp;T KV-KA</text>
     </g>
    </g>
    <g id="xtick_3">
     <g id="line2d_3">
      <g>
       <use xlink:href="#m9d05135aa8" x="201.392266" y="169.2" style="stroke: #000000; stroke-width: 0.8"/>
      </g>
     </g>
     <g id="text_3">
      <text style="font-size: 7.8px; font-family: 'DejaVu Sans'" transform="translate(155.87375 196.437844) rotate(-18)">CT&amp;T UV-KA</text>
     </g>
    </g>
    <g id="xtick_4">
     <g id="line2d_4">
      <g>
       <use xlink:href="#m9d05135aa8" x="264.357937" y="169.2" style="stroke: #000000; stroke-width: 0.8"/>
      </g>
     </g>
     <g id="text_4">
      <text style="font-size: 7.8px; font-family: 'DejaVu Sans'" transform="translate(218.709602 196.480025) rotate(-18)">CT&amp;T KV-UA</text>
     </g>
    </g>
    <g id="xtick_5">
     <g id="line2d_5">
      <g>
       <use xlink:href="#m9d05135aa8" x="327.323608" y="169.2" style="stroke: #000000; stroke-width: 0.8"/>
      </g>
     </g>
     <g id="text_5">
      <text style="font-size: 7.8px; font-family: 'DejaVu Sans'" transform="translate(281.110791 196.663436) rotate(-18)">CT&amp;T UV-UA</text>
     </g>
    </g>
    <g id="xtick_6">
     <g id="line2d_6">
      <g>
       <use xlink:href="#m9d05135aa8" x="390.289278" y="169.2" style="stroke: #000000; stroke-width: 0.8"/>
      </g>
     </g>
     <g id="text_6">
      <text style="font-size: 7.8px; font-family: 'DejaVu Sans'" transform="translate(335.991738 199.290901) rotate(-18)">CrySyS-subset</text>
     </g>
    </g>
   </g>
   <g id="matplotlib.axis_2">
    <g id="ytick_1">
     <g id="line2d_7">
      <path d="M 34.785102 169.2 
L 430.965102 169.2 
" clip-path="url(#p4a317b0bf7)" style="fill: none; stroke: #e5e7eb; stroke-width: 0.7; stroke-linecap: square"/>
     </g>
     <g id="line2d_8">
      <defs>
       <path id="mdbc2319f71" d="M 0 0 
L -3.5 0 
" style="stroke: #000000; stroke-width: 0.8"/>
      </defs>
      <g>
       <use xlink:href="#mdbc2319f71" x="34.785102" y="169.2" style="stroke: #000000; stroke-width: 0.8"/>
      </g>
     </g>
     <g id="text_7">
      <text style="font-size: 7.8px; font-family: 'DejaVu Sans'; text-anchor: end" x="27.785102" y="172.163086" transform="rotate(-0 27.785102 172.163086)">0.0</text>
     </g>
    </g>
    <g id="ytick_2">
     <g id="line2d_9">
      <path d="M 34.785102 137.52 
L 430.965102 137.52 
" clip-path="url(#p4a317b0bf7)" style="fill: none; stroke: #e5e7eb; stroke-width: 0.7; stroke-linecap: square"/>
     </g>
     <g id="line2d_10">
      <g>
       <use xlink:href="#mdbc2319f71" x="34.785102" y="137.52" style="stroke: #000000; stroke-width: 0.8"/>
      </g>
     </g>
     <g id="text_8">
      <text style="font-size: 7.8px; font-family: 'DejaVu Sans'; text-anchor: end" x="27.785102" y="140.483086" transform="rotate(-0 27.785102 140.483086)">0.2</text>
     </g>
    </g>
    <g id="ytick_3">
     <g id="line2d_11">
      <path d="M 34.785102 105.84 
L 430.965102 105.84 
" clip-path="url(#p4a317b0bf7)" style="fill: none; stroke: #e5e7eb; stroke-width: 0.7; stroke-linecap: square"/>
     </g>
     <g id="line2d_12">
      <g>
       <use xlink:href="#mdbc2319f71" x="34.785102" y="105.84" style="stroke: #000000; stroke-width: 0.8"/>
      </g>
     </g>
     <g id="text_9">
      <text style="font-size: 7.8px; font-family: 'DejaVu Sans'; text-anchor: end" x="27.785102" y="108.803086" transform="rotate(-0 27.785102 108.803086)">0.4</text>
     </g>
    </g>
    <g id="ytick_4">
     <g id="line2d_13">
      <path d="M 34.785102 74.16 
L 430.965102 74.16 
" clip-path="url(#p4a317b0bf7)" style="fill: none; stroke: #e5e7eb; stroke-width: 0.7; stroke-linecap: square"/>
     </g>
     <g id="line2d_14">
      <g>
       <use xlink:href="#mdbc2319f71" x="34.785102" y="74.16" style="stroke: #000000; stroke-width: 0.8"/>
      </g>
     </g>
     <g id="text_10">
      <text style="font-size: 7.8px; font-family: 'DejaVu Sans'; text-anchor: end" x="27.785102" y="77.123086" transform="rotate(-0 27.785102 77.123086)">0.6</text>
     </g>
    </g>
    <g id="ytick_5">
     <g id="line2d_15">
      <path d="M 34.785102 42.48 
L 430.965102 42.48 
" clip-path="url(#p4a317b0bf7)" style="fill: none; stroke: #e5e7eb; stroke-width: 0.7; stroke-linecap: square"/>
     </g>
     <g id="line2d_16">
      <g>
       <use xlink:href="#mdbc2319f71" x="34.785102" y="42.48" style="stroke: #000000; stroke-width: 0.8"/>
      </g>
     </g>
     <g id="text_11">
      <text style="font-size: 7.8px; font-family: 'DejaVu Sans'; text-anchor: end" x="27.785102" y="45.443086" transform="rotate(-0 27.785102 45.443086)">0.8</text>
     </g>
    </g>
    <g id="ytick_6">
     <g id="line2d_17">
      <path d="M 34.785102 10.8 
L 430.965102 10.8 
" clip-path="url(#p4a317b0bf7)" style="fill: none; stroke: #e5e7eb; stroke-width: 0.7; stroke-linecap: square"/>
     </g>
     <g id="line2d_18">
      <g>
       <use xlink:href="#mdbc2319f71" x="34.785102" y="10.8" style="stroke: #000000; stroke-width: 0.8"/>
      </g>
     </g>
     <g id="text_12">
      <text style="font-size: 7.8px; font-family: 'DejaVu Sans'; text-anchor: end" x="27.785102" y="13.763086" transform="rotate(-0 27.785102 13.763086)">1.0</text>
     </g>
    </g>
    <g id="text_13">
     <text style="font-size: 8.5px; font-family: 'DejaVu Sans'; text-anchor: middle" x="9.338672" y="86.04" transform="rotate(-90 9.338672 86.04)">Macro-F1 (fallback: F1)</text>
    </g>
   </g>
   <g id="patch_21">
    <path d="M 34.785102 169.2 
L 34.785102 2.88 
" style="fill: none; stroke: #333333; stroke-width: 0.9; stroke-linejoin: miter; stroke-linecap: square"/>
   </g>
   <g id="patch_22">
    <path d="M 34.785102 169.2 
L 430.965102 169.2 
" style="fill: none; stroke: #333333; stroke-width: 0.9; stroke-linejoin: miter; stroke-linecap: square"/>
   </g>
   <g id="legend_1">
    <g id="patch_23">
     <path d="M 115.540555 225.389981 
L 131.140555 225.389981 
L 131.140555 219.929981 
L 115.540555 219.929981 
z
" style="fill: url(#h04c3adb07e); stroke: #222222; stroke-width: 0.8; stroke-linejoin: miter"/>
    </g>
    <g id="text_14">
     <text style="font-size: 7.8px; font-family: 'DejaVu Sans'; text-anchor: start" x="137.380555" y="225.389981" transform="rotate(-0 137.380555 225.389981)">Transformer</text>
    </g>
    <g id="patch_24">
     <path d="M 199.782992 225.389981 
L 215.382992 225.389981 
L 215.382992 219.929981 
L 199.782992 219.929981 
z
" style="fill: url(#h508c2761d8); stroke: #222222; stroke-width: 0.8; stroke-linejoin: miter"/>
    </g>
    <g id="text_15">
     <text style="font-size: 7.8px; font-family: 'DejaVu Sans'; text-anchor: start" x="221.622992" y="225.389981" transform="rotate(-0 221.622992 225.389981)">Concat-Fusion</text>
    </g>
    <g id="patch_25">
     <path d="M 292.275148 225.389981 
L 307.875148 225.389981 
L 307.875148 219.929981 
L 292.275148 219.929981 
z
" style="fill: #e45756; stroke: #222222; stroke-width: 1.25; stroke-linejoin: miter"/>
    </g>
    <g id="text_16">
     <text style="font-size: 7.8px; font-family: 'DejaVu Sans'; text-anchor: start" x="314.115148" y="225.389981" transform="rotate(-0 314.115148 225.389981)">CMF-CAN</text>
    </g>
   </g>
  </g>
 </g>
 <defs>
  <clipPath id="p4a317b0bf7">
   <rect x="34.785102" y="2.88" width="396.18" height="166.32"/>
  </clipPath>
 </defs>
 <defs>
  <pattern id="h04c3adb07e" patternUnits="userSpaceOnUse" x="0" y="0" width="72" height="72">
   <rect x="0" y="0" width="73" height="73" fill="#4c78a8"/>
   <path d="M -36 36 
L 36 -36 
M -32 40 
L 40 -32 
M -28 44 
L 44 -28 
M -24 48 
L 48 -24 
M -20 52 
L 52 -20 
M -16 56 
L 56 -16 
M -12 60 
L 60 -12 
M -8 64 
L 64 -8 
M -4 68 
L 68 -4 
M 0 72 
L 72 0 
M 4 76 
L 76 4 
M 8 80 
L 80 8 
M 12 84 
L 84 12 
M 16 88 
L 88 16 
M 20 92 
L 92 20 
M 24 96 
L 96 24 
M 28 100 
L 100 28 
M 32 104 
L 104 32 
M 36 108 
L 108 36 
" style="fill: #222222; stroke: #222222; stroke-width: 1.0; stroke-linecap: butt; stroke-linejoin: miter"/>
  </pattern>
  <pattern id="h508c2761d8" patternUnits="userSpaceOnUse" x="0" y="0" width="72" height="72">
   <rect x="0" y="0" width="73" height="73" fill="#f2be3e"/>
   <path d="M -36 36 
L 36 108 
M -32 32 
L 40 104 
M -28 28 
L 44 100 
M -24 24 
L 48 96 
M -20 20 
L 52 92 
M -16 16 
L 56 88 
M -12 12 
L 60 84 
M -8 8 
L 64 80 
M -4 4 
L 68 76 
M 0 0 
L 72 72 
M 4 -4 
L 76 68 
M 8 -8 
L 80 64 
M 12 -12 
L 84 60 
M 16 -16 
L 88 56 
M 20 -20 
L 92 52 
M 24 -24 
L 96 48 
M 28 -28 
L 100 44 
M 32 -32 
L 104 40 
M 36 -36 
L 108 36 
" style="fill: #222222; stroke: #222222; stroke-width: 1.0; stroke-linecap: butt; stroke-linejoin: miter"/>
  </pattern>
 </defs>
</svg>
