<?xml version="1.0" encoding="utf-8" standalone="no"?>
<!DOCTYPE svg PUBLIC "-//W3C//DTD SVG 1.1//EN"
  "http://www.w3.org/Graphics/SVG/1.1/DTD/svg11.dtd">
<svg xmlns:xlink="http://www.w3.org/1999/xlink" width="507.261578pt" height="184.203009pt" viewBox="0 0 507.261578 184.203009" xmlns="http://www.w3.org/2000/svg" version="1.1">
 <metadata>
  <rdf:RDF xmlns:dc="http://purl.org/dc/elements/1.1/" xmlns:cc="http://creativecommons.org/ns#" xmlns:rdf="http://www.w3.org/1999/02/22-rdf-syntax-ns#">
   <cc:Work>
    <dc:type rdf:resource="http://purl.org/dc/dcmitype/StillImage"/>
    <dc:date>2026-06-28T13:37:19.233472</dc:date>
    <dc:format>image/svg+xml</dc:format>
    <dc:creator>
     <cc:Agent>
      <dc:title>Matplotlib v3.11.0, https://matplotlib.org/</dc:title>
     </cc:Agent>
    </dc:creator>
   </cc:Work>
  </rdf:RDF>
 </metadata>
 <defs>
  <style type="text/css">*{stroke-linejoin: round; stroke-linecap: butt}</style>
 </defs>
 <g id="figure_1">
  <g id="patch_1">
   <path d="M 0 184.203009 
L 507.261578 184.203009 
L 507.261578 0 
L 0 0 
z
" style="fill: #fcfcfd"/>
  </g>
  <g id="axes_1">
   <g id="patch_2">
    <path d="M 40.687188 140.76 
L 240.724923 140.76 
L 240.724923 58.68 
L 40.687188 58.68 
z
" style="fill: #ffffff"/>
   </g>
   <g id="matplotlib.axis_1">
    <g id="xtick_1">
     <g id="text_1">
      <text style="font-size: 7.8px; font-family: 'DejaVu Sans'; fill: #1f2430" transform="translate(23.90999 168.438033) rotate(-18)">T01 KV+KA</text>
     </g>
    </g>
    <g id="xtick_2">
     <g id="text_2">
      <text style="font-size: 7.8px; font-family: 'DejaVu Sans'; fill: #1f2430" transform="translate(72.628025 168.621444) rotate(-18)">T02 UV+KA</text>
     </g>
    </g>
    <g id="xtick_3">
     <g id="text_3">
      <text style="font-size: 7.8px; font-family: 'DejaVu Sans'; fill: #1f2430" transform="translate(121.780723 168.663625) rotate(-18)">T03 KV+UA</text>
     </g>
    </g>
    <g id="xtick_4">
     <g id="text_4">
      <text style="font-size: 7.8px; font-family: 'DejaVu Sans'; fill: #1f2430" transform="translate(170.498758 168.847036) rotate(-18)">T04 UV+UA</text>
     </g>
    </g>
   </g>
   <g id="matplotlib.axis_2">
    <g id="ytick_1">
     <g id="line2d_1">
      <path d="M 40.687188 140.76 
L 240.724923 140.76 
" clip-path="url(#p20c8e8b573)" style="fill: none; stroke: #e6e8f0; stroke-width: 0.8; stroke-linecap: round"/>
     </g>
     <g id="text_5">
      <text style="font-size: 7.8px; font-family: 'DejaVu Sans'; text-anchor: end; fill: #1f2430" x="32.387188" y="143.723086" transform="rotate(-0 32.387188 143.723086)">0.00</text>
     </g>
    </g>
    <g id="ytick_2">
     <g id="line2d_2">
      <path d="M 40.687188 121.217143 
L 240.724923 121.217143 
" clip-path="url(#p20c8e8b573)" style="fill: none; stroke: #e6e8f0; stroke-width: 0.8; stroke-linecap: round"/>
     </g>
     <g id="text_6">
      <text style="font-size: 7.8px; font-family: 'DejaVu Sans'; text-anchor: end; fill: #1f2430" x="32.387188" y="124.180229" transform="rotate(-0 32.387188 124.180229)">0.25</text>
     </g>
    </g>
    <g id="ytick_3">
     <g id="line2d_3">
      <path d="M 40.687188 101.674286 
L 240.724923 101.674286 
" clip-path="url(#p20c8e8b573)" style="fill: none; stroke: #e6e8f0; stroke-width: 0.8; stroke-linecap: round"/>
     </g>
     <g id="text_7">
      <text style="font-size: 7.8px; font-family: 'DejaVu Sans'; text-anchor: end; fill: #1f2430" x="32.387188" y="104.637372" transform="rotate(-0 32.387188 104.637372)">0.50</text>
     </g>
    </g>
    <g id="ytick_4">
     <g id="line2d_4">
      <path d="M 40.687188 82.131429 
L 240.724923 82.131429 
" clip-path="url(#p20c8e8b573)" style="fill: none; stroke: #e6e8f0; stroke-width: 0.8; stroke-linecap: round"/>
     </g>
     <g id="text_8">
      <text style="font-size: 7.8px; font-family: 'DejaVu Sans'; text-anchor: end; fill: #1f2430" x="32.387188" y="85.094515" transform="rotate(-0 32.387188 85.094515)">0.75</text>
     </g>
    </g>
    <g id="ytick_5">
     <g id="line2d_5">
      <path d="M 40.687188 62.588571 
L 240.724923 62.588571 
" clip-path="url(#p20c8e8b573)" style="fill: none; stroke: #e6e8f0; stroke-width: 0.8; stroke-linecap: round"/>
     </g>
     <g id="text_9">
      <text style="font-size: 7.8px; font-family: 'DejaVu Sans'; text-anchor: end; fill: #1f2430" x="32.387188" y="65.551657" transform="rotate(-0 32.387188 65.551657)">1.00</text>
     </g>
    </g>
    <g id="text_10">
     <text style="font-size: 8.5px; font-family: 'DejaVu Sans'; text-anchor: middle; fill: #1f2430" x="8.978008" y="99.72" transform="rotate(-90 8.978008 99.72)">Score</text>
    </g>
   </g>
   <g id="patch_3">
    <path d="M 49.779812 140.76 
L 61.114791 140.76 
L 61.114791 65.39537 
L 49.779812 65.39537 
z
" clip-path="url(#p20c8e8b573)" style="fill: url(#h2615c64c1c); stroke: #2e4780; stroke-width: 0.8; stroke-linejoin: miter"/>
   </g>
   <g id="patch_4">
    <path d="M 99.062329 140.76 
L 110.397308 140.76 
L 110.397308 128.249538 
L 99.062329 128.249538 
z
" clip-path="url(#p20c8e8b573)" style="fill: url(#h2615c64c1c); stroke: #2e4780; stroke-width: 0.8; stroke-linejoin: miter"/>
   </g>
   <g id="patch_5">
    <path d="M 148.344846 140.76 
L 159.679824 140.76 
L 159.679824 138.70529 
L 148.344846 138.70529 
z
" clip-path="url(#p20c8e8b573)" style="fill: url(#h2615c64c1c); stroke: #2e4780; stroke-width: 0.8; stroke-linejoin: miter"/>
   </g>
   <g id="patch_6">
    <path d="M 197.627362 140.76 
L 208.962341 140.76 
L 208.962341 139.009823 
L 197.627362 139.009823 
z
" clip-path="url(#p20c8e8b573)" style="fill: url(#h2615c64c1c); stroke: #2e4780; stroke-width: 0.8; stroke-linejoin: miter"/>
   </g>
   <g id="patch_7">
    <path d="M 61.114791 140.76 
L 72.44977 140.76 
L 72.44977 77.034594 
L 61.114791 77.034594 
z
" clip-path="url(#p20c8e8b573)" style="fill: url(#hce33f97e89); stroke: #736422; stroke-width: 0.8; stroke-linejoin: miter"/>
   </g>
   <g id="patch_8">
    <path d="M 110.397308 140.76 
L 121.732286 140.76 
L 121.732286 128.249538 
L 110.397308 128.249538 
z
" clip-path="url(#p20c8e8b573)" style="fill: url(#hce33f97e89); stroke: #736422; stroke-width: 0.8; stroke-linejoin: miter"/>
   </g>
   <g id="patch_9">
    <path d="M 159.679824 140.76 
L 171.014803 140.76 
L 171.014803 136.427827 
L 159.679824 136.427827 
z
" clip-path="url(#p20c8e8b573)" style="fill: url(#hce33f97e89); stroke: #736422; stroke-width: 0.8; stroke-linejoin: miter"/>
   </g>
   <g id="patch_10">
    <path d="M 208.962341 140.76 
L 220.29732 140.76 
L 220.29732 138.897986 
L 208.962341 138.897986 
z
" clip-path="url(#p20c8e8b573)" style="fill: url(#hce33f97e89); stroke: #736422; stroke-width: 0.8; stroke-linejoin: miter"/>
   </g>
   <g id="patch_11">
    <path d="M 72.44977 140.76 
L 83.784748 140.76 
L 83.784748 65.028171 
L 72.44977 65.028171 
z
" clip-path="url(#p20c8e8b573)" style="fill: #f0986e; stroke: #804126; stroke-width: 1.1; stroke-linejoin: miter"/>
   </g>
   <g id="patch_12">
    <path d="M 121.732286 140.76 
L 133.067265 140.76 
L 133.067265 128.249538 
L 121.732286 128.249538 
z
" clip-path="url(#p20c8e8b573)" style="fill: #f0986e; stroke: #804126; stroke-width: 1.1; stroke-linejoin: miter"/>
   </g>
   <g id="patch_13">
    <path d="M 171.014803 140.76 
L 182.349782 140.76 
L 182.349782 134.140203 
L 171.014803 134.140203 
z
" clip-path="url(#p20c8e8b573)" style="fill: #f0986e; stroke: #804126; stroke-width: 1.1; stroke-linejoin: miter"/>
   </g>
   <g id="patch_14">
    <path d="M 220.29732 140.76 
L 231.632299 140.76 
L 231.632299 138.552186 
L 220.29732 138.552186 
z
" clip-path="url(#p20c8e8b573)" style="fill: #f0986e; stroke: #804126; stroke-width: 1.1; stroke-linejoin: miter"/>
   </g>
   <g id="patch_15">
    <path d="M 40.687188 140.76 
L 40.687188 58.68 
" style="fill: none; stroke: #d7dbe7; stroke-width: 0.9; stroke-linejoin: miter; stroke-linecap: square"/>
   </g>
   <g id="patch_16">
    <path d="M 40.687188 140.76 
L 240.724923 140.76 
" style="fill: none; stroke: #d7dbe7; stroke-width: 0.9; stroke-linejoin: miter; stroke-linecap: square"/>
   </g>
   <g id="text_11">
    <text style="font-size: 9.5px; font-family: 'DejaVu Sans'; text-anchor: middle; fill: #262626" x="140.706055" y="52.68" transform="rotate(-0 140.706055 52.68)">F1</text>
   </g>
  </g>
  <g id="axes_2">
   <g id="patch_17">
    <path d="M 264.729452 140.76 
L 464.767187 140.76 
L 464.767187 58.68 
L 264.729452 58.68 
z
" style="fill: #ffffff"/>
   </g>
   <g id="matplotlib.axis_3">
    <g id="xtick_5">
     <g id="text_12">
      <text style="font-size: 7.8px; font-family: 'DejaVu Sans'; fill: #1f2430" transform="translate(247.952254 168.438033) rotate(-18)">T01 KV+KA</text>
     </g>
    </g>
    <g id="xtick_6">
     <g id="text_13">
      <text style="font-size: 7.8px; font-family: 'DejaVu Sans'; fill: #1f2430" transform="translate(296.670289 168.621444) rotate(-18)">T02 UV+KA</text>
     </g>
    </g>
    <g id="xtick_7">
     <g id="text_14">
      <text style="font-size: 7.8px; font-family: 'DejaVu Sans'; fill: #1f2430" transform="translate(345.822987 168.663625) rotate(-18)">T03 KV+UA</text>
     </g>
    </g>
    <g id="xtick_8">
     <g id="text_15">
      <text style="font-size: 7.8px; font-family: 'DejaVu Sans'; fill: #1f2430" transform="translate(394.541022 168.847036) rotate(-18)">T04 UV+UA</text>
     </g>
    </g>
   </g>
   <g id="matplotlib.axis_4">
    <g id="ytick_6">
     <g id="line2d_6">
      <path d="M 264.729452 140.76 
L 464.767187 140.76 
" clip-path="url(#pad9a73fa03)" style="fill: none; stroke: #e6e8f0; stroke-width: 0.8; stroke-linecap: round"/>
     </g>
    </g>
    <g id="ytick_7">
     <g id="line2d_7">
      <path d="M 264.729452 121.217143 
L 464.767187 121.217143 
" clip-path="url(#pad9a73fa03)" style="fill: none; stroke: #e6e8f0; stroke-width: 0.8; stroke-linecap: round"/>
     </g>
    </g>
    <g id="ytick_8">
     <g id="line2d_8">
      <path d="M 264.729452 101.674286 
L 464.767187 101.674286 
" clip-path="url(#pad9a73fa03)" style="fill: none; stroke: #e6e8f0; stroke-width: 0.8; stroke-linecap: round"/>
     </g>
    </g>
    <g id="ytick_9">
     <g id="line2d_9">
      <path d="M 264.729452 82.131429 
L 464.767187 82.131429 
" clip-path="url(#pad9a73fa03)" style="fill: none; stroke: #e6e8f0; stroke-width: 0.8; stroke-linecap: round"/>
     </g>
    </g>
    <g id="ytick_10">
     <g id="line2d_10">
      <path d="M 264.729452 62.588571 
L 464.767187 62.588571 
" clip-path="url(#pad9a73fa03)" style="fill: none; stroke: #e6e8f0; stroke-width: 0.8; stroke-linecap: round"/>
     </g>
    </g>
   </g>
   <g id="patch_18">
    <path d="M 273.822076 140.76 
L 285.157055 140.76 
L 285.157055 64.039449 
L 273.822076 64.039449 
z
" clip-path="url(#pad9a73fa03)" style="fill: url(#h2615c64c1c); stroke: #2e4780; stroke-width: 0.8; stroke-linejoin: miter"/>
   </g>
   <g id="patch_19">
    <path d="M 323.104593 140.76 
L 334.439572 140.76 
L 334.439572 134.504769 
L 323.104593 134.504769 
z
" clip-path="url(#pad9a73fa03)" style="fill: url(#h2615c64c1c); stroke: #2e4780; stroke-width: 0.8; stroke-linejoin: miter"/>
   </g>
   <g id="patch_20">
    <path d="M 372.38711 140.76 
L 383.722089 140.76 
L 383.722089 102.401094 
L 372.38711 102.401094 
z
" clip-path="url(#pad9a73fa03)" style="fill: url(#h2615c64c1c); stroke: #2e4780; stroke-width: 0.8; stroke-linejoin: miter"/>
   </g>
   <g id="patch_21">
    <path d="M 421.669627 140.76 
L 433.004605 140.76 
L 433.004605 138.705814 
L 421.669627 138.705814 
z
" clip-path="url(#pad9a73fa03)" style="fill: url(#h2615c64c1c); stroke: #2e4780; stroke-width: 0.8; stroke-linejoin: miter"/>
   </g>
   <g id="patch_22">
    <path d="M 285.157055 140.76 
L 296.492034 140.76 
L 296.492034 70.024333 
L 285.157055 70.024333 
z
" clip-path="url(#pad9a73fa03)" style="fill: url(#hce33f97e89); stroke: #736422; stroke-width: 0.8; stroke-linejoin: miter"/>
   </g>
   <g id="patch_23">
    <path d="M 334.439572 140.76 
L 345.774551 140.76 
L 345.774551 134.504769 
L 334.439572 134.504769 
z
" clip-path="url(#pad9a73fa03)" style="fill: url(#hce33f97e89); stroke: #736422; stroke-width: 0.8; stroke-linejoin: miter"/>
   </g>
   <g id="patch_24">
    <path d="M 383.722089 140.76 
L 395.057067 140.76 
L 395.057067 101.236565 
L 383.722089 101.236565 
z
" clip-path="url(#pad9a73fa03)" style="fill: url(#hce33f97e89); stroke: #736422; stroke-width: 0.8; stroke-linejoin: miter"/>
   </g>
   <g id="patch_25">
    <path d="M 433.004605 140.76 
L 444.339584 140.76 
L 444.339584 130.355371 
L 433.004605 130.355371 
z
" clip-path="url(#pad9a73fa03)" style="fill: url(#hce33f97e89); stroke: #736422; stroke-width: 0.8; stroke-linejoin: miter"/>
   </g>
   <g id="patch_26">
    <path d="M 296.492034 140.76 
L 307.827013 140.76 
L 307.827013 63.849833 
L 296.492034 63.849833 
z
" clip-path="url(#pad9a73fa03)" style="fill: #f0986e; stroke: #804126; stroke-width: 1.1; stroke-linejoin: miter"/>
   </g>
   <g id="patch_27">
    <path d="M 345.774551 140.76 
L 357.109529 140.76 
L 357.109529 134.504769 
L 345.774551 134.504769 
z
" clip-path="url(#pad9a73fa03)" style="fill: #f0986e; stroke: #804126; stroke-width: 1.1; stroke-linejoin: miter"/>
   </g>
   <g id="patch_28">
    <path d="M 395.057067 140.76 
L 406.392046 140.76 
L 406.392046 100.066013 
L 395.057067 100.066013 
z
" clip-path="url(#pad9a73fa03)" style="fill: #f0986e; stroke: #804126; stroke-width: 1.1; stroke-linejoin: miter"/>
   </g>
   <g id="patch_29">
    <path d="M 444.339584 140.76 
L 455.674563 140.76 
L 455.674563 116.51555 
L 444.339584 116.51555 
z
" clip-path="url(#pad9a73fa03)" style="fill: #f0986e; stroke: #804126; stroke-width: 1.1; stroke-linejoin: miter"/>
   </g>
   <g id="patch_30">
    <path d="M 264.729452 140.76 
L 264.729452 58.68 
" style="fill: none; stroke: #d7dbe7; stroke-width: 0.9; stroke-linejoin: miter; stroke-linecap: square"/>
   </g>
   <g id="patch_31">
    <path d="M 264.729452 140.76 
L 464.767188 140.76 
" style="fill: none; stroke: #d7dbe7; stroke-width: 0.9; stroke-linejoin: miter; stroke-linecap: square"/>
   </g>
   <g id="text_16">
    <text style="font-size: 9.5px; font-family: 'DejaVu Sans'; text-anchor: middle; fill: #262626" x="364.74832" y="52.68" transform="rotate(-0 364.74832 52.68)">Macro-F1</text>
   </g>
   <g id="legend_1">
    <g id="patch_32">
     <path d="M 151.294905 176.689181 
L 166.894905 176.689181 
L 166.894905 171.229181 
L 151.294905 171.229181 
z
" style="fill: url(#h2615c64c1c); stroke: #2e4780; stroke-width: 0.8; stroke-linejoin: miter"/>
    </g>
    <g id="text_17">
     <text style="font-size: 7.8px; font-family: 'DejaVu Sans'; text-anchor: start; fill: #262626" x="173.134905" y="176.689181" transform="rotate(-0 173.134905 176.689181)">Transformer</text>
    </g>
    <g id="patch_33">
     <path d="M 231.637342 176.689181 
L 247.237342 176.689181 
L 247.237342 171.229181 
L 231.637342 171.229181 
z
" style="fill: url(#hce33f97e89); stroke: #736422; stroke-width: 0.8; stroke-linejoin: miter"/>
    </g>
    <g id="text_18">
     <text style="font-size: 7.8px; font-family: 'DejaVu Sans'; text-anchor: start; fill: #262626" x="253.477342" y="176.689181" transform="rotate(-0 253.477342 176.689181)">Concat-Fusion</text>
    </g>
    <g id="patch_34">
     <path d="M 320.229499 176.689181 
L 335.829499 176.689181 
L 335.829499 171.229181 
L 320.229499 171.229181 
z
" style="fill: #f0986e; stroke: #804126; stroke-width: 1.1; stroke-linejoin: miter"/>
    </g>
    <g id="text_19">
     <text style="font-size: 7.8px; font-family: 'DejaVu Sans'; text-anchor: start; fill: #262626" x="342.069499" y="176.689181" transform="rotate(-0 342.069499 176.689181)">CMF-CAN</text>
    </g>
   </g>
  </g>
  <g id="text_20">
   <text style="font-weight: 700; font-size: 11.5px; font-family: 'DejaVu Sans'; text-anchor: start; fill: #1f2430" x="5.119188" y="11.258203" transform="rotate(-0 5.119188 11.258203)">CT&amp;T known/unknown generalization</text>
  </g>
  <g id="text_21">
   <text style="font-size: 8.3px; font-family: 'DejaVu Sans'; text-anchor: start; fill: #6f768a" x="5.119188" y="25.026703" transform="rotate(-0 5.119188 25.026703)">KV/UV = known/unknown vehicle; KA/UA = known/unknown attack. Table includes relative improvement vs Transformer.</text>
  </g>
 </g>
 <defs>
  <clipPath id="p20c8e8b573">
   <rect x="40.687188" y="58.68" width="200.037736" height="82.08"/>
  </clipPath>
  <clipPath id="pad9a73fa03">
   <rect x="264.729452" y="58.68" width="200.037736" height="82.08"/>
  </clipPath>
 </defs>
 <defs>
  <pattern id="h2615c64c1c" patternUnits="userSpaceOnUse" x="0" y="0" width="72" height="72">
   <rect x="0" y="0" width="73" height="73" fill="#a3befa"/>
   <path d="M -36 36 
L 36 -36 
M -32 40 
L 40 -32 
M -28 44 
L 44 -28 
M -24 48 
L 48 -24 
M -20 52 
L 52 -20 
M -16 56 
L 56 -16 
M -12 60 
L 60 -12 
M -8 64 
L 64 -8 
M -4 68 
L 68 -4 
M 0 72 
L 72 0 
M 4 76 
L 76 4 
M 8 80 
L 80 8 
M 12 84 
L 84 12 
M 16 88 
L 88 16 
M 20 92 
L 92 20 
M 24 96 
L 96 24 
M 28 100 
L 100 28 
M 32 104 
L 104 32 
M 36 108 
L 108 36 
" style="fill: #2e4780; stroke: #2e4780; stroke-width: 1.0; stroke-linecap: butt; stroke-linejoin: miter"/>
  </pattern>
  <pattern id="hce33f97e89" patternUnits="userSpaceOnUse" x="0" y="0" width="72" height="72">
   <rect x="0" y="0" width="73" height="73" fill="#ffe15b"/>
   <path d="M -36 36 
L 36 108 
M -32 32 
L 40 104 
M -28 28 
L 44 100 
M -24 24 
L 48 96 
M -20 20 
L 52 92 
M -16 16 
L 56 88 
M -12 12 
L 60 84 
M -8 8 
L 64 80 
M -4 4 
L 68 76 
M 0 0 
L 72 72 
M 4 -4 
L 76 68 
M 8 -8 
L 80 64 
M 12 -12 
L 84 60 
M 16 -16 
L 88 56 
M 20 -20 
L 92 52 
M 24 -24 
L 96 48 
M 28 -28 
L 100 44 
M 32 -32 
L 104 40 
M 36 -36 
L 108 36 
" style="fill: #736422; stroke: #736422; stroke-width: 1.0; stroke-linecap: butt; stroke-linejoin: miter"/>
  </pattern>
 </defs>
</svg>
