<?xml version="1.0" encoding="utf-8" standalone="no"?>
<!DOCTYPE svg PUBLIC "-//W3C//DTD SVG 1.1//EN"
  "http://www.w3.org/Graphics/SVG/1.1/DTD/svg11.dtd">
<svg xmlns:xlink="http://www.w3.org/1999/xlink" width="445.637164pt" height="229.493889pt" viewBox="0 0 445.637164 229.493889" xmlns="http://www.w3.org/2000/svg" version="1.1">
 <metadata>
  <rdf:RDF xmlns:dc="http://purl.org/dc/elements/1.1/" xmlns:cc="http://creativecommons.org/ns#" xmlns:rdf="http://www.w3.org/1999/02/22-rdf-syntax-ns#">
   <cc:Work>
    <dc:type rdf:resource="http://purl.org/dc/dcmitype/StillImage"/>
    <dc:date>2026-06-28T19:13:03.132780</dc:date>
    <dc:format>image/svg+xml</dc:format>
    <dc:creator>
     <cc:Agent>
      <dc:title>Matplotlib v3.11.0, https://matplotlib.org/</dc:title>
     </cc:Agent>
    </dc:creator>
   </cc:Work>
  </rdf:RDF>
 </metadata>
 <defs>
  <style type="text/css">*{stroke-linejoin: round; stroke-linecap: butt}</style>
 </defs>
 <g id="figure_1">
  <g id="patch_1">
   <path d="M 0 229.493889 
L 445.637164 229.493889 
L 445.637164 0 
L 0 0 
z
" style="fill: #ffffff"/>
  </g>
  <g id="axes_1">
   <g id="patch_2">
    <path d="M 52.157164 163.656 
L 442.757164 163.656 
L 442.757164 2.88 
L 52.157164 2.88 
z
" style="fill: #ffffff"/>
   </g>
   <g id="patch_3">
    <path d="M 69.91171 163.656 
L 87.967179 163.656 
L 87.967179 163.213963 
L 69.91171 163.213963 
z
" clip-path="url(#p1adb800952)" style="fill: url(#h1a09507387); stroke: #222222; stroke-width: 0.8; stroke-linejoin: miter"/>
   </g>
   <g id="patch_4">
    <path d="M 145.142834 163.656 
L 163.198304 163.656 
L 163.198304 99.721429 
L 145.142834 99.721429 
z
" clip-path="url(#p1adb800952)" style="fill: url(#h1a09507387); stroke: #222222; stroke-width: 0.8; stroke-linejoin: miter"/>
   </g>
   <g id="patch_5">
    <path d="M 220.373959 163.656 
L 238.429429 163.656 
L 238.429429 155.609196 
L 220.373959 155.609196 
z
" clip-path="url(#p1adb800952)" style="fill: url(#h1a09507387); stroke: #222222; stroke-width: 0.8; stroke-linejoin: miter"/>
   </g>
   <g id="patch_6">
    <path d="M 295.605084 163.656 
L 313.660554 163.656 
L 313.660554 23.850783 
L 295.605084 23.850783 
z
" clip-path="url(#p1adb800952)" style="fill: url(#h1a09507387); stroke: #222222; stroke-width: 0.8; stroke-linejoin: miter"/>
   </g>
   <g id="patch_7">
    <path d="M 370.836209 163.656 
L 388.891679 163.656 
L 388.891679 162.782788 
L 370.836209 162.782788 
z
" clip-path="url(#p1adb800952)" style="fill: url(#h1a09507387); stroke: #222222; stroke-width: 0.8; stroke-linejoin: miter"/>
   </g>
   <g id="patch_8">
    <path d="M 87.967179 163.656 
L 106.022649 163.656 
L 106.022649 163.322572 
L 87.967179 163.322572 
z
" clip-path="url(#p1adb800952)" style="fill: url(#h5181f186d7); stroke: #222222; stroke-width: 0.8; stroke-linejoin: miter"/>
   </g>
   <g id="patch_9">
    <path d="M 163.198304 163.656 
L 181.253774 163.656 
L 181.253774 99.721429 
L 163.198304 99.721429 
z
" clip-path="url(#p1adb800952)" style="fill: url(#h5181f186d7); stroke: #222222; stroke-width: 0.8; stroke-linejoin: miter"/>
   </g>
   <g id="patch_10">
    <path d="M 238.429429 163.656 
L 256.484899 163.656 
L 256.484899 155.733009 
L 238.429429 155.733009 
z
" clip-path="url(#p1adb800952)" style="fill: url(#h5181f186d7); stroke: #222222; stroke-width: 0.8; stroke-linejoin: miter"/>
   </g>
   <g id="patch_11">
    <path d="M 313.660554 163.656 
L 331.716024 163.656 
L 331.716024 41.161893 
L 313.660554 41.161893 
z
" clip-path="url(#p1adb800952)" style="fill: url(#h5181f186d7); stroke: #222222; stroke-width: 0.8; stroke-linejoin: miter"/>
   </g>
   <g id="patch_12">
    <path d="M 388.891679 163.656 
L 406.947149 163.656 
L 406.947149 162.618789 
L 388.891679 162.618789 
z
" clip-path="url(#p1adb800952)" style="fill: url(#h5181f186d7); stroke: #222222; stroke-width: 0.8; stroke-linejoin: miter"/>
   </g>
   <g id="patch_13">
    <path d="M 106.022649 163.656 
L 124.078119 163.656 
L 124.078119 162.744775 
L 106.022649 162.744775 
z
" clip-path="url(#p1adb800952)" style="fill: #e45756; stroke: #222222; stroke-width: 1.25; stroke-linejoin: miter"/>
   </g>
   <g id="patch_14">
    <path d="M 181.253774 163.656 
L 199.309244 163.656 
L 199.309244 99.721429 
L 181.253774 99.721429 
z
" clip-path="url(#p1adb800952)" style="fill: #e45756; stroke: #222222; stroke-width: 1.25; stroke-linejoin: miter"/>
   </g>
   <g id="patch_15">
    <path d="M 256.484899 163.656 
L 274.540369 163.656 
L 274.540369 155.861167 
L 256.484899 155.861167 
z
" clip-path="url(#p1adb800952)" style="fill: #e45756; stroke: #222222; stroke-width: 1.25; stroke-linejoin: miter"/>
   </g>
   <g id="patch_16">
    <path d="M 331.716024 163.656 
L 349.771494 163.656 
L 349.771494 81.148288 
L 331.716024 81.148288 
z
" clip-path="url(#p1adb800952)" style="fill: #e45756; stroke: #222222; stroke-width: 1.25; stroke-linejoin: miter"/>
   </g>
   <g id="patch_17">
    <path d="M 406.947149 163.656 
L 425.002619 163.656 
L 425.002619 162.622047 
L 406.947149 162.622047 
z
" clip-path="url(#p1adb800952)" style="fill: #e45756; stroke: #222222; stroke-width: 1.25; stroke-linejoin: miter"/>
   </g>
   <g id="matplotlib.axis_1">
    <g id="xtick_1">
     <g id="line2d_1">
      <defs>
       <path id="me840e115d7" d="M 0 0 
L 0 3.5 
" style="stroke: #000000; stroke-width: 0.8"/>
      </defs>
      <g>
       <use xlink:href="#me840e115d7" x="96.994914" y="163.656" style="stroke: #000000; stroke-width: 0.8"/>
      </g>
     </g>
     <g id="text_1">
      <text style="font-size: 7.8px; font-family: 'DejaVu Sans'" transform="translate(50.346276 191.261043) rotate(-18)">CT&amp;T test01</text>
     </g>
    </g>
    <g id="xtick_2">
     <g id="line2d_2">
      <g>
       <use xlink:href="#me840e115d7" x="172.226039" y="163.656" style="stroke: #000000; stroke-width: 0.8"/>
      </g>
     </g>
     <g id="text_2">
      <text style="font-size: 7.8px; font-family: 'DejaVu Sans'" transform="translate(125.577401 191.261043) rotate(-18)">CT&amp;T test02</text>
     </g>
    </g>
    <g id="xtick_3">
     <g id="line2d_3">
      <g>
       <use xlink:href="#me840e115d7" x="247.457164" y="163.656" style="stroke: #000000; stroke-width: 0.8"/>
      </g>
     </g>
     <g id="text_3">
      <text style="font-size: 7.8px; font-family: 'DejaVu Sans'" transform="translate(200.808526 191.261043) rotate(-18)">CT&amp;T test03</text>
     </g>
    </g>
    <g id="xtick_4">
     <g id="line2d_4">
      <g>
       <use xlink:href="#me840e115d7" x="322.688289" y="163.656" style="stroke: #000000; stroke-width: 0.8"/>
      </g>
     </g>
     <g id="text_4">
      <text style="font-size: 7.8px; font-family: 'DejaVu Sans'" transform="translate(276.03965 191.261043) rotate(-18)">CT&amp;T test04</text>
     </g>
    </g>
    <g id="xtick_5">
     <g id="line2d_5">
      <g>
       <use xlink:href="#me840e115d7" x="397.919414" y="163.656" style="stroke: #000000; stroke-width: 0.8"/>
      </g>
     </g>
     <g id="text_5">
      <text style="font-size: 7.8px; font-family: 'DejaVu Sans'" transform="translate(380.659759 181.712563) rotate(-18)">road</text>
     </g>
    </g>
   </g>
   <g id="matplotlib.axis_2">
    <g id="ytick_1">
     <g id="line2d_6">
      <path d="M 52.157164 163.656 
L 442.757164 163.656 
" clip-path="url(#p1adb800952)" style="fill: none; stroke: #e5e7eb; stroke-width: 0.7; stroke-linecap: square"/>
     </g>
     <g id="line2d_7">
      <defs>
       <path id="m26b9b5e36f" d="M 0 0 
L -3.5 0 
" style="stroke: #000000; stroke-width: 0.8"/>
      </defs>
      <g>
       <use xlink:href="#m26b9b5e36f" x="52.157164" y="163.656" style="stroke: #000000; stroke-width: 0.8"/>
      </g>
     </g>
     <g id="text_6">
      <text style="font-size: 7.8px; font-family: 'DejaVu Sans'; text-anchor: end" x="45.157164" y="166.619086" transform="rotate(-0 45.157164 166.619086)">0</text>
     </g>
    </g>
    <g id="ytick_2">
     <g id="line2d_8">
      <path d="M 52.157164 141.934298 
L 442.757164 141.934298 
" clip-path="url(#p1adb800952)" style="fill: none; stroke: #e5e7eb; stroke-width: 0.7; stroke-linecap: square"/>
     </g>
     <g id="line2d_9">
      <g>
       <use xlink:href="#m26b9b5e36f" x="52.157164" y="141.934298" style="stroke: #000000; stroke-width: 0.8"/>
      </g>
     </g>
     <g id="text_7">
      <text style="font-size: 7.8px; font-family: 'DejaVu Sans'; text-anchor: end" x="45.157164" y="144.897384" transform="rotate(-0 45.157164 144.897384)">20000</text>
     </g>
    </g>
    <g id="ytick_3">
     <g id="line2d_10">
      <path d="M 52.157164 120.212596 
L 442.757164 120.212596 
" clip-path="url(#p1adb800952)" style="fill: none; stroke: #e5e7eb; stroke-width: 0.7; stroke-linecap: square"/>
     </g>
     <g id="line2d_11">
      <g>
       <use xlink:href="#m26b9b5e36f" x="52.157164" y="120.212596" style="stroke: #000000; stroke-width: 0.8"/>
      </g>
     </g>
     <g id="text_8">
      <text style="font-size: 7.8px; font-family: 'DejaVu Sans'; text-anchor: end" x="45.157164" y="123.175682" transform="rotate(-0 45.157164 123.175682)">40000</text>
     </g>
    </g>
    <g id="ytick_4">
     <g id="line2d_12">
      <path d="M 52.157164 98.490894 
L 442.757164 98.490894 
" clip-path="url(#p1adb800952)" style="fill: none; stroke: #e5e7eb; stroke-width: 0.7; stroke-linecap: square"/>
     </g>
     <g id="line2d_13">
      <g>
       <use xlink:href="#m26b9b5e36f" x="52.157164" y="98.490894" style="stroke: #000000; stroke-width: 0.8"/>
      </g>
     </g>
     <g id="text_9">
      <text style="font-size: 7.8px; font-family: 'DejaVu Sans'; text-anchor: end" x="45.157164" y="101.45398" transform="rotate(-0 45.157164 101.45398)">60000</text>
     </g>
    </g>
    <g id="ytick_5">
     <g id="line2d_14">
      <path d="M 52.157164 76.769193 
L 442.757164 76.769193 
" clip-path="url(#p1adb800952)" style="fill: none; stroke: #e5e7eb; stroke-width: 0.7; stroke-linecap: square"/>
     </g>
     <g id="line2d_15">
      <g>
       <use xlink:href="#m26b9b5e36f" x="52.157164" y="76.769193" style="stroke: #000000; stroke-width: 0.8"/>
      </g>
     </g>
     <g id="text_10">
      <text style="font-size: 7.8px; font-family: 'DejaVu Sans'; text-anchor: end" x="45.157164" y="79.732279" transform="rotate(-0 45.157164 79.732279)">80000</text>
     </g>
    </g>
    <g id="ytick_6">
     <g id="line2d_16">
      <path d="M 52.157164 55.047491 
L 442.757164 55.047491 
" clip-path="url(#p1adb800952)" style="fill: none; stroke: #e5e7eb; stroke-width: 0.7; stroke-linecap: square"/>
     </g>
     <g id="line2d_17">
      <g>
       <use xlink:href="#m26b9b5e36f" x="52.157164" y="55.047491" style="stroke: #000000; stroke-width: 0.8"/>
      </g>
     </g>
     <g id="text_11">
      <text style="font-size: 7.8px; font-family: 'DejaVu Sans'; text-anchor: end" x="45.157164" y="58.010577" transform="rotate(-0 45.157164 58.010577)">100000</text>
     </g>
    </g>
    <g id="ytick_7">
     <g id="line2d_18">
      <path d="M 52.157164 33.325789 
L 442.757164 33.325789 
" clip-path="url(#p1adb800952)" style="fill: none; stroke: #e5e7eb; stroke-width: 0.7; stroke-linecap: square"/>
     </g>
     <g id="line2d_19">
      <g>
       <use xlink:href="#m26b9b5e36f" x="52.157164" y="33.325789" style="stroke: #000000; stroke-width: 0.8"/>
      </g>
     </g>
     <g id="text_12">
      <text style="font-size: 7.8px; font-family: 'DejaVu Sans'; text-anchor: end" x="45.157164" y="36.288875" transform="rotate(-0 45.157164 36.288875)">120000</text>
     </g>
    </g>
    <g id="ytick_8">
     <g id="line2d_20">
      <path d="M 52.157164 11.604087 
L 442.757164 11.604087 
" clip-path="url(#p1adb800952)" style="fill: none; stroke: #e5e7eb; stroke-width: 0.7; stroke-linecap: square"/>
     </g>
     <g id="line2d_21">
      <g>
       <use xlink:href="#m26b9b5e36f" x="52.157164" y="11.604087" style="stroke: #000000; stroke-width: 0.8"/>
      </g>
     </g>
     <g id="text_13">
      <text style="font-size: 7.8px; font-family: 'DejaVu Sans'; text-anchor: end" x="45.157164" y="14.567173" transform="rotate(-0 45.157164 14.567173)">140000</text>
     </g>
    </g>
    <g id="text_14">
     <text style="font-size: 8.5px; font-family: 'DejaVu Sans'; text-anchor: middle" x="9.338672" y="83.268" transform="rotate(-90 9.338672 83.268)">Failure count</text>
    </g>
   </g>
   <g id="patch_18">
    <path d="M 52.157164 163.656 
L 52.157164 2.88 
" style="fill: none; stroke: #333333; stroke-width: 0.9; stroke-linejoin: miter; stroke-linecap: square"/>
   </g>
   <g id="patch_19">
    <path d="M 52.157164 163.656 
L 442.757164 163.656 
" style="fill: none; stroke: #333333; stroke-width: 0.9; stroke-linejoin: miter; stroke-linecap: square"/>
   </g>
   <g id="legend_1">
    <g id="patch_20">
     <path d="M 130.122617 221.620061 
L 145.722617 221.620061 
L 145.722617 216.160061 
L 130.122617 216.160061 
z
" style="fill: url(#h1a09507387); stroke: #222222; stroke-width: 0.8; stroke-linejoin: miter"/>
    </g>
    <g id="text_15">
     <text style="font-size: 7.8px; font-family: 'DejaVu Sans'; text-anchor: start" x="151.962617" y="221.620061" transform="rotate(-0 151.962617 221.620061)">Transformer</text>
    </g>
    <g id="patch_21">
     <path d="M 214.365055 221.620061 
L 229.965055 221.620061 
L 229.965055 216.160061 
L 214.365055 216.160061 
z
" style="fill: url(#h5181f186d7); stroke: #222222; stroke-width: 0.8; stroke-linejoin: miter"/>
    </g>
    <g id="text_16">
     <text style="font-size: 7.8px; font-family: 'DejaVu Sans'; text-anchor: start" x="236.205055" y="221.620061" transform="rotate(-0 236.205055 221.620061)">Concat-Fusion</text>
    </g>
    <g id="patch_22">
     <path d="M 306.857211 221.620061 
L 322.457211 221.620061 
L 322.457211 216.160061 
L 306.857211 216.160061 
z
" style="fill: #e45756; stroke: #222222; stroke-width: 1.25; stroke-linejoin: miter"/>
    </g>
    <g id="text_17">
     <text style="font-size: 7.8px; font-family: 'DejaVu Sans'; text-anchor: start" x="328.697211" y="221.620061" transform="rotate(-0 328.697211 221.620061)">CMF-CAN</text>
    </g>
   </g>
  </g>
 </g>
 <defs>
  <clipPath id="p1adb800952">
   <rect x="52.157164" y="2.88" width="390.6" height="160.776"/>
  </clipPath>
 </defs>
 <defs>
  <pattern id="h1a09507387" patternUnits="userSpaceOnUse" x="0" y="0" width="72" height="72">
   <rect x="0" y="0" width="73" height="73" fill="#4c78a8"/>
   <path d="M -36 36 
L 36 -36 
M -32 40 
L 40 -32 
M -28 44 
L 44 -28 
M -24 48 
L 48 -24 
M -20 52 
L 52 -20 
M -16 56 
L 56 -16 
M -12 60 
L 60 -12 
M -8 64 
L 64 -8 
M -4 68 
L 68 -4 
M 0 72 
L 72 0 
M 4 76 
L 76 4 
M 8 80 
L 80 8 
M 12 84 
L 84 12 
M 16 88 
L 88 16 
M 20 92 
L 92 20 
M 24 96 
L 96 24 
M 28 100 
L 100 28 
M 32 104 
L 104 32 
M 36 108 
L 108 36 
" style="fill: #222222; stroke: #222222; stroke-width: 1.0; stroke-linecap: butt; stroke-linejoin: miter"/>
  </pattern>
  <pattern id="h5181f186d7" patternUnits="userSpaceOnUse" x="0" y="0" width="72" height="72">
   <rect x="0" y="0" width="73" height="73" fill="#f2be3e"/>
   <path d="M -36 36 
L 36 108 
M -32 32 
L 40 104 
M -28 28 
L 44 100 
M -24 24 
L 48 96 
M -20 20 
L 52 92 
M -16 16 
L 56 88 
M -12 12 
L 60 84 
M -8 8 
L 64 80 
M -4 4 
L 68 76 
M 0 0 
L 72 72 
M 4 -4 
L 76 68 
M 8 -8 
L 80 64 
M 12 -12 
L 84 60 
M 16 -16 
L 88 56 
M 20 -20 
L 92 52 
M 24 -24 
L 96 48 
M 28 -28 
L 100 44 
M 32 -32 
L 104 40 
M 36 -36 
L 108 36 
" style="fill: #222222; stroke: #222222; stroke-width: 1.0; stroke-linecap: butt; stroke-linejoin: miter"/>
  </pattern>
 </defs>
</svg>
