<?xml version="1.0" encoding="utf-8" standalone="no"?>
<!DOCTYPE svg PUBLIC "-//W3C//DTD SVG 1.1//EN"
  "http://www.w3.org/Graphics/SVG/1.1/DTD/svg11.dtd">
<svg xmlns:xlink="http://www.w3.org/1999/xlink" width="464.688pt" height="199.87717pt" viewBox="0 0 464.688 199.87717" xmlns="http://www.w3.org/2000/svg" version="1.1">
 <metadata>
  <rdf:RDF xmlns:dc="http://purl.org/dc/elements/1.1/" xmlns:cc="http://creativecommons.org/ns#" xmlns:rdf="http://www.w3.org/1999/02/22-rdf-syntax-ns#">
   <cc:Work>
    <dc:type rdf:resource="http://purl.org/dc/dcmitype/StillImage"/>
    <dc:date>2026-06-28T13:37:19.883486</dc:date>
    <dc:format>image/svg+xml</dc:format>
    <dc:creator>
     <cc:Agent>
      <dc:title>Matplotlib v3.11.0, https://matplotlib.org/</dc:title>
     </cc:Agent>
    </dc:creator>
   </cc:Work>
  </rdf:RDF>
 </metadata>
 <defs>
  <style type="text/css">*{stroke-linejoin: round; stroke-linecap: butt}</style>
 </defs>
 <g id="figure_1">
  <g id="patch_1">
   <path d="M 0 199.87717 
L 464.688 199.87717 
L 464.688 0 
L 0 0 
z
" style="fill: #fcfcfd"/>
  </g>
  <g id="axes_1">
   <g id="patch_2">
    <path d="M 38.088 134.28 
L 238.125736 134.28 
L 238.125736 58.68 
L 38.088 58.68 
z
" style="fill: #ffffff"/>
   </g>
   <g id="matplotlib.axis_1">
    <g id="xtick_1">
     <g id="text_1">
      <text style="font-size: 7.8px; font-family: 'DejaVu Sans'; fill: #1f2430" transform="translate(12.909247 177.209413) rotate(-35)">Full CMF-CAN</text>
     </g>
    </g>
    <g id="xtick_2">
     <g id="text_2">
      <text style="font-size: 7.8px; font-family: 'DejaVu Sans'; fill: #1f2430" transform="translate(23.574681 186.06633) rotate(-35)">w/o window stats</text>
     </g>
    </g>
    <g id="xtick_3">
     <g id="text_3">
      <text style="font-size: 7.8px; font-family: 'DejaVu Sans'; fill: #1f2430" transform="translate(55.82426 179.809366) rotate(-35)">w/o ID context</text>
     </g>
    </g>
    <g id="xtick_4">
     <g id="text_4">
      <text style="font-size: 7.8px; font-family: 'DejaVu Sans'; fill: #1f2430" transform="translate(56.27067 195.82222) rotate(-35)">w/o cross-modal attn.</text>
     </g>
    </g>
    <g id="xtick_5">
     <g id="text_5">
      <text style="font-size: 7.8px; font-family: 'DejaVu Sans'; fill: #1f2430" transform="translate(95.515627 184.667538) rotate(-35)">w/o gated fusion</text>
     </g>
    </g>
    <g id="xtick_6">
     <g id="text_6">
      <text style="font-size: 7.8px; font-family: 'DejaVu Sans'; fill: #1f2430" transform="translate(128.258386 178.065745) rotate(-35)">Concat fusion</text>
     </g>
    </g>
    <g id="xtick_7">
     <g id="text_7">
      <text style="font-size: 7.8px; font-family: 'DejaVu Sans'; fill: #1f2430" transform="translate(159.471686 172.534891) rotate(-35)">Frame-only</text>
     </g>
    </g>
    <g id="xtick_8">
     <g id="text_8">
      <text style="font-size: 7.8px; font-family: 'DejaVu Sans'; fill: #1f2430" transform="translate(186.383132 170.016227) rotate(-35)">Stats-only</text>
     </g>
    </g>
   </g>
   <g id="matplotlib.axis_2">
    <g id="ytick_1">
     <g id="line2d_1">
      <path d="M 38.088 134.28 
L 238.125736 134.28 
" clip-path="url(#pc525b569d2)" style="fill: none; stroke: #e6e8f0; stroke-width: 0.8; stroke-linecap: round"/>
     </g>
     <g id="text_9">
      <text style="font-size: 7.8px; font-family: 'DejaVu Sans'; text-anchor: end; fill: #1f2430" x="29.788" y="137.243086" transform="rotate(-0 29.788 137.243086)">0.0</text>
     </g>
    </g>
    <g id="ytick_2">
     <g id="line2d_2">
      <path d="M 38.088 98.28 
L 238.125736 98.28 
" clip-path="url(#pc525b569d2)" style="fill: none; stroke: #e6e8f0; stroke-width: 0.8; stroke-linecap: round"/>
     </g>
     <g id="text_10">
      <text style="font-size: 7.8px; font-family: 'DejaVu Sans'; text-anchor: end; fill: #1f2430" x="29.788" y="101.243086" transform="rotate(-0 29.788 101.243086)">0.5</text>
     </g>
    </g>
    <g id="ytick_3">
     <g id="line2d_3">
      <path d="M 38.088 62.28 
L 238.125736 62.28 
" clip-path="url(#pc525b569d2)" style="fill: none; stroke: #e6e8f0; stroke-width: 0.8; stroke-linecap: round"/>
     </g>
     <g id="text_11">
      <text style="font-size: 7.8px; font-family: 'DejaVu Sans'; text-anchor: end; fill: #1f2430" x="29.788" y="65.243086" transform="rotate(-0 29.788 65.243086)">1.0</text>
     </g>
    </g>
    <g id="text_12">
     <text style="font-size: 8.5px; font-family: 'DejaVu Sans'; text-anchor: middle; fill: #1f2430" x="11.34157" y="96.48" transform="rotate(-90 11.34157 96.48)">F1</text>
    </g>
   </g>
   <g id="patch_3">
    <path d="M 47.180624 134.28 
L 65.832161 134.28 
L 65.832161 77.444602 
L 47.180624 77.444602 
z
" clip-path="url(#pc525b569d2)" style="fill: #f0986e; stroke: #804126; stroke-width: 1.3; stroke-linejoin: miter"/>
   </g>
   <g id="patch_4">
    <path d="M 70.495046 134.28 
L 89.146583 134.28 
L 89.146583 76.040557 
L 70.495046 76.040557 
z
" clip-path="url(#pc525b569d2)" style="fill: url(#h017e43673b); stroke: #464c55; stroke-width: 0.8; stroke-linejoin: miter"/>
   </g>
   <g id="patch_5">
    <path d="M 93.809467 134.28 
L 112.461004 134.28 
L 112.461004 76.616911 
L 93.809467 76.616911 
z
" clip-path="url(#pc525b569d2)" style="fill: url(#h017e43673b); stroke: #464c55; stroke-width: 0.8; stroke-linejoin: miter"/>
   </g>
   <g id="patch_6">
    <path d="M 117.123889 134.28 
L 135.775426 134.28 
L 135.775426 77.69602 
L 117.123889 77.69602 
z
" clip-path="url(#pc525b569d2)" style="fill: url(#h017e43673b); stroke: #464c55; stroke-width: 0.8; stroke-linejoin: miter"/>
   </g>
   <g id="patch_7">
    <path d="M 140.43831 134.28 
L 159.089847 134.28 
L 159.089847 76.774841 
L 140.43831 76.774841 
z
" clip-path="url(#pc525b569d2)" style="fill: url(#h017e43673b); stroke: #464c55; stroke-width: 0.8; stroke-linejoin: miter"/>
   </g>
   <g id="patch_8">
    <path d="M 163.752731 134.28 
L 182.404269 134.28 
L 182.404269 77.502493 
L 163.752731 77.502493 
z
" clip-path="url(#pc525b569d2)" style="fill: url(#h8f95bfafe7); stroke: #464c55; stroke-width: 0.8; stroke-linejoin: miter"/>
   </g>
   <g id="patch_9">
    <path d="M 187.067153 134.28 
L 205.71869 134.28 
L 205.71869 76.68 
L 187.067153 76.68 
z
" clip-path="url(#pc525b569d2)" style="fill: #c5cad3; stroke: #464c55; stroke-width: 0.8; stroke-linejoin: miter"/>
   </g>
   <g id="patch_10">
    <path d="M 210.381574 134.28 
L 229.033111 134.28 
L 229.033111 115.693691 
L 210.381574 115.693691 
z
" clip-path="url(#pc525b569d2)" style="fill: #e2e5ea; stroke: #464c55; stroke-width: 0.8; stroke-linejoin: miter"/>
   </g>
   <g id="patch_11">
    <path d="M 38.088 134.28 
L 38.088 58.68 
" style="fill: none; stroke: #d7dbe7; stroke-width: 0.9; stroke-linejoin: miter; stroke-linecap: square"/>
   </g>
   <g id="patch_12">
    <path d="M 38.088 134.28 
L 238.125736 134.28 
" style="fill: none; stroke: #d7dbe7; stroke-width: 0.9; stroke-linejoin: miter; stroke-linecap: square"/>
   </g>
   <g id="text_13">
    <text style="font-size: 9.5px; font-family: 'DejaVu Sans'; text-anchor: middle; fill: #262626" x="138.106868" y="52.68" transform="rotate(-0 138.106868 52.68)">ROAD</text>
   </g>
  </g>
  <g id="axes_2">
   <g id="patch_13">
    <path d="M 262.130264 134.28 
L 462.168 134.28 
L 462.168 58.68 
L 262.130264 58.68 
z
" style="fill: #ffffff"/>
   </g>
   <g id="matplotlib.axis_3">
    <g id="xtick_9">
     <g id="text_14">
      <text style="font-size: 7.8px; font-family: 'DejaVu Sans'; fill: #1f2430" transform="translate(236.951512 177.209413) rotate(-35)">Full CMF-CAN</text>
     </g>
    </g>
    <g id="xtick_10">
     <g id="text_15">
      <text style="font-size: 7.8px; font-family: 'DejaVu Sans'; fill: #1f2430" transform="translate(247.616946 186.06633) rotate(-35)">w/o window stats</text>
     </g>
    </g>
    <g id="xtick_11">
     <g id="text_16">
      <text style="font-size: 7.8px; font-family: 'DejaVu Sans'; fill: #1f2430" transform="translate(279.866524 179.809366) rotate(-35)">w/o ID context</text>
     </g>
    </g>
    <g id="xtick_12">
     <g id="text_17">
      <text style="font-size: 7.8px; font-family: 'DejaVu Sans'; fill: #1f2430" transform="translate(280.312934 195.82222) rotate(-35)">w/o cross-modal attn.</text>
     </g>
    </g>
    <g id="xtick_13">
     <g id="text_18">
      <text style="font-size: 7.8px; font-family: 'DejaVu Sans'; fill: #1f2430" transform="translate(319.557891 184.667538) rotate(-35)">w/o gated fusion</text>
     </g>
    </g>
    <g id="xtick_14">
     <g id="text_19">
      <text style="font-size: 7.8px; font-family: 'DejaVu Sans'; fill: #1f2430" transform="translate(352.30065 178.065745) rotate(-35)">Concat fusion</text>
     </g>
    </g>
    <g id="xtick_15">
     <g id="text_20">
      <text style="font-size: 7.8px; font-family: 'DejaVu Sans'; fill: #1f2430" transform="translate(383.51395 172.534891) rotate(-35)">Frame-only</text>
     </g>
    </g>
    <g id="xtick_16">
     <g id="text_21">
      <text style="font-size: 7.8px; font-family: 'DejaVu Sans'; fill: #1f2430" transform="translate(410.425396 170.016227) rotate(-35)">Stats-only</text>
     </g>
    </g>
   </g>
   <g id="matplotlib.axis_4">
    <g id="ytick_4">
     <g id="line2d_4">
      <path d="M 262.130264 134.28 
L 462.168 134.28 
" clip-path="url(#p8330a4bab9)" style="fill: none; stroke: #e6e8f0; stroke-width: 0.8; stroke-linecap: round"/>
     </g>
    </g>
    <g id="ytick_5">
     <g id="line2d_5">
      <path d="M 262.130264 98.28 
L 462.168 98.28 
" clip-path="url(#p8330a4bab9)" style="fill: none; stroke: #e6e8f0; stroke-width: 0.8; stroke-linecap: round"/>
     </g>
    </g>
    <g id="ytick_6">
     <g id="line2d_6">
      <path d="M 262.130264 62.28 
L 462.168 62.28 
" clip-path="url(#p8330a4bab9)" style="fill: none; stroke: #e6e8f0; stroke-width: 0.8; stroke-linecap: round"/>
     </g>
    </g>
   </g>
   <g id="patch_14">
    <path d="M 271.222889 134.28 
L 289.874426 134.28 
L 289.874426 64.526999 
L 271.222889 64.526999 
z
" clip-path="url(#p8330a4bab9)" style="fill: #f0986e; stroke: #804126; stroke-width: 1.3; stroke-linejoin: miter"/>
   </g>
   <g id="patch_15">
    <path d="M 294.53731 134.28 
L 313.188847 134.28 
L 313.188847 67.744554 
L 294.53731 67.744554 
z
" clip-path="url(#p8330a4bab9)" style="fill: url(#h017e43673b); stroke: #464c55; stroke-width: 0.8; stroke-linejoin: miter"/>
   </g>
   <g id="patch_16">
    <path d="M 317.851731 134.28 
L 336.503269 134.28 
L 336.503269 80.390715 
L 317.851731 80.390715 
z
" clip-path="url(#p8330a4bab9)" style="fill: url(#h017e43673b); stroke: #464c55; stroke-width: 0.8; stroke-linejoin: miter"/>
   </g>
   <g id="patch_17">
    <path d="M 341.166153 134.28 
L 359.81769 134.28 
L 359.81769 67.793784 
L 341.166153 67.793784 
z
" clip-path="url(#p8330a4bab9)" style="fill: url(#h017e43673b); stroke: #464c55; stroke-width: 0.8; stroke-linejoin: miter"/>
   </g>
   <g id="patch_18">
    <path d="M 364.480574 134.28 
L 383.132111 134.28 
L 383.132111 81.830296 
L 364.480574 81.830296 
z
" clip-path="url(#p8330a4bab9)" style="fill: url(#h017e43673b); stroke: #464c55; stroke-width: 0.8; stroke-linejoin: miter"/>
   </g>
   <g id="patch_19">
    <path d="M 387.794996 134.28 
L 406.446533 134.28 
L 406.446533 75.585547 
L 387.794996 75.585547 
z
" clip-path="url(#p8330a4bab9)" style="fill: url(#h8f95bfafe7); stroke: #464c55; stroke-width: 0.8; stroke-linejoin: miter"/>
   </g>
   <g id="patch_20">
    <path d="M 411.109417 134.28 
L 429.760954 134.28 
L 429.760954 63.896055 
L 411.109417 63.896055 
z
" clip-path="url(#p8330a4bab9)" style="fill: #c5cad3; stroke: #464c55; stroke-width: 0.8; stroke-linejoin: miter"/>
   </g>
   <g id="patch_21">
    <path d="M 434.423839 134.28 
L 453.075376 134.28 
L 453.075376 66.458399 
L 434.423839 66.458399 
z
" clip-path="url(#p8330a4bab9)" style="fill: #e2e5ea; stroke: #464c55; stroke-width: 0.8; stroke-linejoin: miter"/>
   </g>
   <g id="patch_22">
    <path d="M 262.130264 134.28 
L 262.130264 58.68 
" style="fill: none; stroke: #d7dbe7; stroke-width: 0.9; stroke-linejoin: miter; stroke-linecap: square"/>
   </g>
   <g id="patch_23">
    <path d="M 262.130264 134.28 
L 462.168 134.28 
" style="fill: none; stroke: #d7dbe7; stroke-width: 0.9; stroke-linejoin: miter; stroke-linecap: square"/>
   </g>
   <g id="text_22">
    <text style="font-size: 9.5px; font-family: 'DejaVu Sans'; text-anchor: middle; fill: #262626" x="362.149132" y="52.68" transform="rotate(-0 362.149132 52.68)">CT&amp;T test01</text>
   </g>
  </g>
  <g id="text_23">
   <text style="font-weight: 700; font-size: 11.5px; font-family: 'DejaVu Sans'; text-anchor: start; fill: #1f2430" x="2.52" y="11.258203" transform="rotate(-0 2.52 11.258203)">Modality and fusion ablation</text>
  </g>
  <g id="text_24">
   <text style="font-size: 8.3px; font-family: 'DejaVu Sans'; text-anchor: start; fill: #6f768a" x="2.52" y="25.026703" transform="rotate(-0 2.52 25.026703)">Grouped hatch-style bars compare available CMF-CAN variants; missing variants are reported separately.</text>
  </g>
 </g>
 <defs>
  <clipPath id="pc525b569d2">
   <rect x="38.088" y="58.68" width="200.037736" height="75.6"/>
  </clipPath>
  <clipPath id="p8330a4bab9">
   <rect x="262.130264" y="58.68" width="200.037736" height="75.6"/>
  </clipPath>
 </defs>
 <defs>
  <pattern id="h017e43673b" patternUnits="userSpaceOnUse" x="0" y="0" width="72" height="72">
   <rect x="0" y="0" width="73" height="73" fill="#a3befa"/>
   <path d="M -36 36 
L 36 -36 
M -32 40 
L 40 -32 
M -28 44 
L 44 -28 
M -24 48 
L 48 -24 
M -20 52 
L 52 -20 
M -16 56 
L 56 -16 
M -12 60 
L 60 -12 
M -8 64 
L 64 -8 
M -4 68 
L 68 -4 
M 0 72 
L 72 0 
M 4 76 
L 76 4 
M 8 80 
L 80 8 
M 12 84 
L 84 12 
M 16 88 
L 88 16 
M 20 92 
L 92 20 
M 24 96 
L 96 24 
M 28 100 
L 100 28 
M 32 104 
L 104 32 
M 36 108 
L 108 36 
" style="fill: #464c55; stroke: #464c55; stroke-width: 1.0; stroke-linecap: butt; stroke-linejoin: miter"/>
  </pattern>
  <pattern id="h8f95bfafe7" patternUnits="userSpaceOnUse" x="0" y="0" width="72" height="72">
   <rect x="0" y="0" width="73" height="73" fill="#ffe15b"/>
   <path d="M -36 36 
L 36 108 
M -32 32 
L 40 104 
M -28 28 
L 44 100 
M -24 24 
L 48 96 
M -20 20 
L 52 92 
M -16 16 
L 56 88 
M -12 12 
L 60 84 
M -8 8 
L 64 80 
M -4 4 
L 68 76 
M 0 0 
L 72 72 
M 4 -4 
L 76 68 
M 8 -8 
L 80 64 
M 12 -12 
L 84 60 
M 16 -16 
L 88 56 
M 20 -20 
L 92 52 
M 24 -24 
L 96 48 
M 28 -28 
L 100 44 
M 32 -32 
L 104 40 
M 36 -36 
L 108 36 
" style="fill: #464c55; stroke: #464c55; stroke-width: 1.0; stroke-linecap: butt; stroke-linejoin: miter"/>
  </pattern>
 </defs>
</svg>
