<svg xmlns="http://www.w3.org/2000/svg" width="1380" height="780" viewBox="0 0 1380 780">

<defs>
  <pattern id="hatch" patternUnits="userSpaceOnUse" width="8" height="8" patternTransform="rotate(45)">
    <line x1="0" y1="0" x2="0" y2="8" stroke="#7d8894" stroke-width="1.1"/>
  </pattern>
  <style>
    .axis { stroke: #1f2937; stroke-width: 1.4; }
    .grid { stroke: #dfe4ea; stroke-width: 1.0; }
    .label { font-family: Arial, Helvetica, sans-serif; fill: #334155; }
  </style>
</defs>

<rect width="100%" height="100%" fill="white"/>
<text x="56.0" y="52.0" font-family="Arial, Helvetica, sans-serif" font-size="30" font-weight="700" text-anchor="start" fill="#17212f">CMF-CAN Architecture</text>
<text x="56.0" y="84.0" font-family="Arial, Helvetica, sans-serif" font-size="14" font-weight="400" text-anchor="start" fill="#475569">Frame / window / CAN-ID context fusion with anomaly-aware deployment scoring</text>
<rect x="60.0" y="160.0" width="190.0" height="82.0" rx="8.0" fill="#dbeafe" stroke="#1f2937" stroke-width="1.4"/>
<text x="155.0" y="193.0" font-family="Arial, Helvetica, sans-serif" font-size="15" font-weight="700" text-anchor="middle" fill="#17212f">CAN Frames</text>
<text x="155.0" y="211.0" font-family="Arial, Helvetica, sans-serif" font-size="12" font-weight="400" text-anchor="middle" fill="#17212f">ID, payload, timing</text>
<rect x="60.0" y="340.0" width="190.0" height="82.0" rx="8.0" fill="#dcfce7" stroke="#1f2937" stroke-width="1.4"/>
<text x="155.0" y="373.0" font-family="Arial, Helvetica, sans-serif" font-size="15" font-weight="700" text-anchor="middle" fill="#17212f">Window Stats</text>
<text x="155.0" y="391.0" font-family="Arial, Helvetica, sans-serif" font-size="12" font-weight="400" text-anchor="middle" fill="#17212f">entropy, rarity, deltas</text>
<rect x="60.0" y="520.0" width="190.0" height="82.0" rx="8.0" fill="#ffedd5" stroke="#1f2937" stroke-width="1.4"/>
<text x="155.0" y="553.0" font-family="Arial, Helvetica, sans-serif" font-size="15" font-weight="700" text-anchor="middle" fill="#17212f">ID Context</text>
<text x="155.0" y="571.0" font-family="Arial, Helvetica, sans-serif" font-size="12" font-weight="400" text-anchor="middle" fill="#17212f">periodicity, transitions</text>
<rect x="365.0" y="140.0" width="260.0" height="120.0" rx="8.0" fill="#dbeafe" stroke="#1f2937" stroke-width="1.4"/>
<text x="495.0" y="192.0" font-family="Arial, Helvetica, sans-serif" font-size="15" font-weight="700" text-anchor="middle" fill="#17212f">Frame Encoder</text>
<text x="495.0" y="210.0" font-family="Arial, Helvetica, sans-serif" font-size="12" font-weight="400" text-anchor="middle" fill="#17212f">embeddings + Transformer</text>
<rect x="365.0" y="320.0" width="260.0" height="120.0" rx="8.0" fill="#dcfce7" stroke="#1f2937" stroke-width="1.4"/>
<text x="495.0" y="372.0" font-family="Arial, Helvetica, sans-serif" font-size="15" font-weight="700" text-anchor="middle" fill="#17212f">Stats Encoder</text>
<text x="495.0" y="390.0" font-family="Arial, Helvetica, sans-serif" font-size="12" font-weight="400" text-anchor="middle" fill="#17212f">window-stat MLP</text>
<rect x="365.0" y="500.0" width="260.0" height="120.0" rx="8.0" fill="#ffedd5" stroke="#1f2937" stroke-width="1.4"/>
<text x="495.0" y="552.0" font-family="Arial, Helvetica, sans-serif" font-size="15" font-weight="700" text-anchor="middle" fill="#17212f">Context Encoder</text>
<text x="495.0" y="570.0" font-family="Arial, Helvetica, sans-serif" font-size="12" font-weight="400" text-anchor="middle" fill="#17212f">ID-context pooling</text>
<rect x="750.0" y="230.0" width="270.0" height="150.0" rx="8.0" fill="#ede9fe" stroke="#1f2937" stroke-width="1.4"/>
<text x="885.0" y="297.0" font-family="Arial, Helvetica, sans-serif" font-size="15" font-weight="700" text-anchor="middle" fill="#17212f">Cross-Modality Fusion</text>
<text x="885.0" y="315.0" font-family="Arial, Helvetica, sans-serif" font-size="12" font-weight="400" text-anchor="middle" fill="#17212f">modality tokens + attention</text>
<rect x="750.0" y="465.0" width="270.0" height="110.0" rx="8.0" fill="#ede9fe" stroke="#1f2937" stroke-width="1.4"/>
<text x="885.0" y="512.0" font-family="Arial, Helvetica, sans-serif" font-size="15" font-weight="700" text-anchor="middle" fill="#17212f">Gated Fusion</text>
<text x="885.0" y="530.0" font-family="Arial, Helvetica, sans-serif" font-size="12" font-weight="400" text-anchor="middle" fill="#17212f">adaptive modality weights</text>
<rect x="1120.0" y="300.0" width="220.0" height="105.0" rx="8.0" fill="#e2e8f0" stroke="#1f2937" stroke-width="1.4"/>
<text x="1230.0" y="344.5" font-family="Arial, Helvetica, sans-serif" font-size="15" font-weight="700" text-anchor="middle" fill="#17212f">CMF Score</text>
<text x="1230.0" y="362.5" font-family="Arial, Helvetica, sans-serif" font-size="12" font-weight="400" text-anchor="middle" fill="#17212f">attack probability</text>
<rect x="1120.0" y="500.0" width="220.0" height="130.0" rx="8.0" fill="#fee2e2" stroke="#1f2937" stroke-width="1.4"/>
<text x="1230.0" y="549.0" font-family="Arial, Helvetica, sans-serif" font-size="15" font-weight="700" text-anchor="middle" fill="#17212f">Anomaly Branch</text>
<text x="1230.0" y="567.0" font-family="Arial, Helvetica, sans-serif" font-size="12" font-weight="400" text-anchor="middle" fill="#17212f">PCA, Ledoit-Wolf,</text>
<text x="1230.0" y="585.0" font-family="Arial, Helvetica, sans-serif" font-size="12" font-weight="400" text-anchor="middle" fill="#17212f">tail count, smoothing</text>
<line x1="250.0" y1="201.0" x2="365.0" y2="201.0" stroke="#26384f" stroke-width="1.8"/>
<polygon points="365.0,201.0 356.0,196.0 356.0,206.0" fill="#26384f"/>
<line x1="250.0" y1="381.0" x2="365.0" y2="381.0" stroke="#26384f" stroke-width="1.8"/>
<polygon points="365.0,381.0 356.0,376.0 356.0,386.0" fill="#26384f"/>
<line x1="250.0" y1="561.0" x2="365.0" y2="561.0" stroke="#26384f" stroke-width="1.8"/>
<polygon points="365.0,561.0 356.0,556.0 356.0,566.0" fill="#26384f"/>
<line x1="625.0" y1="200.0" x2="750.0" y2="285.0" stroke="#26384f" stroke-width="1.8"/>
<polygon points="750.0,285.0 741.0,280.0 741.0,290.0" fill="#26384f"/>
<line x1="625.0" y1="380.0" x2="750.0" y2="305.0" stroke="#26384f" stroke-width="1.8"/>
<polygon points="750.0,305.0 741.0,300.0 741.0,310.0" fill="#26384f"/>
<line x1="625.0" y1="560.0" x2="750.0" y2="325.0" stroke="#26384f" stroke-width="1.8"/>
<polygon points="750.0,325.0 741.0,320.0 741.0,330.0" fill="#26384f"/>
<line x1="885.0" y1="380.0" x2="885.0" y2="465.0" stroke="#26384f" stroke-width="1.8"/>
<polygon points="885.0,465.0 876.0,460.0 876.0,470.0" fill="#26384f"/>
<line x1="1020.0" y1="300.0" x2="1120.0" y2="350.0" stroke="#26384f" stroke-width="1.8"/>
<polygon points="1120.0,350.0 1111.0,345.0 1111.0,355.0" fill="#26384f"/>
<line x1="1020.0" y1="520.0" x2="1120.0" y2="565.0" stroke="#26384f" stroke-width="1.8"/>
<polygon points="1120.0,565.0 1111.0,560.0 1111.0,570.0" fill="#26384f"/>
<line x1="1230.0" y1="405.0" x2="1230.0" y2="500.0" stroke="#26384f" stroke-width="1.8"/>
<polygon points="1230.0,500.0 1221.0,495.0 1221.0,505.0" fill="#26384f"/>
<text x="1090.0" y="700.0" font-family="Arial, Helvetica, sans-serif" font-size="13" font-weight="400" text-anchor="start" fill="#475569">Scenario-aware deployment policy</text>
</svg>
