<?xml version="1.0" encoding="utf-8" standalone="no"?>
<!DOCTYPE svg PUBLIC "-//W3C//DTD SVG 1.1//EN"
  "http://www.w3.org/Graphics/SVG/1.1/DTD/svg11.dtd">
<svg xmlns:xlink="http://www.w3.org/1999/xlink" width="361.304437pt" height="229.493889pt" viewBox="0 0 361.304437 229.493889" xmlns="http://www.w3.org/2000/svg" version="1.1">
 <metadata>
  <rdf:RDF xmlns:dc="http://purl.org/dc/elements/1.1/" xmlns:cc="http://creativecommons.org/ns#" xmlns:rdf="http://www.w3.org/1999/02/22-rdf-syntax-ns#">
   <cc:Work>
    <dc:type rdf:resource="http://purl.org/dc/dcmitype/StillImage"/>
    <dc:date>2026-06-28T19:12:40.029200</dc:date>
    <dc:format>image/svg+xml</dc:format>
    <dc:creator>
     <cc:Agent>
      <dc:title>Matplotlib v3.11.0, https://matplotlib.org/</dc:title>
     </cc:Agent>
    </dc:creator>
   </cc:Work>
  </rdf:RDF>
 </metadata>
 <defs>
  <style type="text/css">*{stroke-linejoin: round; stroke-linecap: butt}</style>
 </defs>
 <g id="figure_1">
  <g id="patch_1">
   <path d="M -0 229.493889 
L 361.304437 229.493889 
L 361.304437 0 
L -0 0 
z
" style="fill: #ffffff"/>
  </g>
  <g id="axes_1">
   <g id="patch_2">
    <path d="M 34.784437 163.656 
L 358.424437 163.656 
L 358.424437 2.88 
L 34.784437 2.88 
z
" style="fill: #ffffff"/>
   </g>
   <g id="patch_3">
    <path d="M 49.495347 163.656 
L 68.477165 163.656 
L 68.477165 13.377939 
L 49.495347 13.377939 
z
" clip-path="url(#ped4dde1990)" style="fill: url(#h01c5caf372); stroke: #222222; stroke-width: 0.8; stroke-linejoin: miter"/>
   </g>
   <g id="patch_4">
    <path d="M 128.586256 163.656 
L 147.568074 163.656 
L 147.568074 151.403429 
L 128.586256 151.403429 
z
" clip-path="url(#ped4dde1990)" style="fill: url(#h01c5caf372); stroke: #222222; stroke-width: 0.8; stroke-linejoin: miter"/>
   </g>
   <g id="patch_5">
    <path d="M 207.677165 163.656 
L 226.658983 163.656 
L 226.658983 88.519652 
L 207.677165 88.519652 
z
" clip-path="url(#ped4dde1990)" style="fill: url(#h01c5caf372); stroke: #222222; stroke-width: 0.8; stroke-linejoin: miter"/>
   </g>
   <g id="patch_6">
    <path d="M 286.768074 163.656 
L 305.749892 163.656 
L 305.749892 159.632318 
L 286.768074 159.632318 
z
" clip-path="url(#ped4dde1990)" style="fill: url(#h01c5caf372); stroke: #222222; stroke-width: 0.8; stroke-linejoin: miter"/>
   </g>
   <g id="patch_7">
    <path d="M 68.477165 163.656 
L 87.458983 163.656 
L 87.458983 25.100961 
L 68.477165 25.100961 
z
" clip-path="url(#ped4dde1990)" style="fill: url(#hef1b102a20); stroke: #222222; stroke-width: 0.8; stroke-linejoin: miter"/>
   </g>
   <g id="patch_8">
    <path d="M 147.568074 163.656 
L 166.549892 163.656 
L 166.549892 151.403429 
L 147.568074 151.403429 
z
" clip-path="url(#ped4dde1990)" style="fill: url(#hef1b102a20); stroke: #222222; stroke-width: 0.8; stroke-linejoin: miter"/>
   </g>
   <g id="patch_9">
    <path d="M 226.658983 163.656 
L 245.640801 163.656 
L 245.640801 86.238606 
L 226.658983 86.238606 
z
" clip-path="url(#ped4dde1990)" style="fill: url(#hef1b102a20); stroke: #222222; stroke-width: 0.8; stroke-linejoin: miter"/>
   </g>
   <g id="patch_10">
    <path d="M 305.749892 163.656 
L 324.73171 163.656 
L 324.73171 143.275705 
L 305.749892 143.275705 
z
" clip-path="url(#ped4dde1990)" style="fill: url(#hef1b102a20); stroke: #222222; stroke-width: 0.8; stroke-linejoin: miter"/>
   </g>
   <g id="patch_11">
    <path d="M 87.458983 163.656 
L 106.440801 163.656 
L 106.440801 13.006523 
L 87.458983 13.006523 
z
" clip-path="url(#ped4dde1990)" style="fill: #e45756; stroke: #222222; stroke-width: 1.25; stroke-linejoin: miter"/>
   </g>
   <g id="patch_12">
    <path d="M 166.549892 163.656 
L 185.53171 163.656 
L 185.53171 151.403429 
L 166.549892 151.403429 
z
" clip-path="url(#ped4dde1990)" style="fill: #e45756; stroke: #222222; stroke-width: 1.25; stroke-linejoin: miter"/>
   </g>
   <g id="patch_13">
    <path d="M 245.640801 163.656 
L 264.622619 163.656 
L 264.622619 83.945761 
L 245.640801 83.945761 
z
" clip-path="url(#ped4dde1990)" style="fill: #e45756; stroke: #222222; stroke-width: 1.25; stroke-linejoin: miter"/>
   </g>
   <g id="patch_14">
    <path d="M 324.73171 163.656 
L 343.713528 163.656 
L 343.713528 116.166652 
L 324.73171 116.166652 
z
" clip-path="url(#ped4dde1990)" style="fill: #e45756; stroke: #222222; stroke-width: 1.25; stroke-linejoin: miter"/>
   </g>
   <g id="matplotlib.axis_1">
    <g id="xtick_1">
     <g id="line2d_1">
      <defs>
       <path id="ma337fcb28b" d="M 0 0 
L 0 3.5 
" style="stroke: #000000; stroke-width: 0.8"/>
      </defs>
      <g>
       <use xlink:href="#ma337fcb28b" x="77.968074" y="163.656" style="stroke: #000000; stroke-width: 0.8"/>
      </g>
     </g>
     <g id="text_1">
      <text style="font-size: 7.8px; font-family: 'DejaVu Sans'" transform="translate(55.398581 183.437254) rotate(-18)">KV-KA</text>
     </g>
    </g>
    <g id="xtick_2">
     <g id="line2d_2">
      <g>
       <use xlink:href="#ma337fcb28b" x="157.058983" y="163.656" style="stroke: #000000; stroke-width: 0.8"/>
      </g>
     </g>
     <g id="text_2">
      <text style="font-size: 7.8px; font-family: 'DejaVu Sans'" transform="translate(133.925009 183.620665) rotate(-18)">UV-KA</text>
     </g>
    </g>
    <g id="xtick_3">
     <g id="line2d_3">
      <g>
       <use xlink:href="#ma337fcb28b" x="236.149892" y="163.656" style="stroke: #000000; stroke-width: 0.8"/>
      </g>
     </g>
     <g id="text_3">
      <text style="font-size: 7.8px; font-family: 'DejaVu Sans'" transform="translate(212.886099 183.662846) rotate(-18)">KV-UA</text>
     </g>
    </g>
    <g id="xtick_4">
     <g id="line2d_4">
      <g>
       <use xlink:href="#ma337fcb28b" x="315.240801" y="163.656" style="stroke: #000000; stroke-width: 0.8"/>
      </g>
     </g>
     <g id="text_4">
      <text style="font-size: 7.8px; font-family: 'DejaVu Sans'" transform="translate(291.412526 183.846257) rotate(-18)">UV-UA</text>
     </g>
    </g>
   </g>
   <g id="matplotlib.axis_2">
    <g id="ytick_1">
     <g id="line2d_5">
      <path d="M 34.784437 163.656 
L 358.424437 163.656 
" clip-path="url(#ped4dde1990)" style="fill: none; stroke: #e5e7eb; stroke-width: 0.7; stroke-linecap: square"/>
     </g>
     <g id="line2d_6">
      <defs>
       <path id="m51bfd9f6ce" d="M 0 0 
L -3.5 0 
" style="stroke: #000000; stroke-width: 0.8"/>
      </defs>
      <g>
       <use xlink:href="#m51bfd9f6ce" x="34.784437" y="163.656" style="stroke: #000000; stroke-width: 0.8"/>
      </g>
     </g>
     <g id="text_5">
      <text style="font-size: 7.8px; font-family: 'DejaVu Sans'; text-anchor: end" x="27.784437" y="166.619086" transform="rotate(-0 27.784437 166.619086)">0.0</text>
     </g>
    </g>
    <g id="ytick_2">
     <g id="line2d_7">
      <path d="M 34.784437 133.032 
L 358.424437 133.032 
" clip-path="url(#ped4dde1990)" style="fill: none; stroke: #e5e7eb; stroke-width: 0.7; stroke-linecap: square"/>
     </g>
     <g id="line2d_8">
      <g>
       <use xlink:href="#m51bfd9f6ce" x="34.784437" y="133.032" style="stroke: #000000; stroke-width: 0.8"/>
      </g>
     </g>
     <g id="text_6">
      <text style="font-size: 7.8px; font-family: 'DejaVu Sans'; text-anchor: end" x="27.784437" y="135.995086" transform="rotate(-0 27.784437 135.995086)">0.2</text>
     </g>
    </g>
    <g id="ytick_3">
     <g id="line2d_9">
      <path d="M 34.784437 102.408 
L 358.424437 102.408 
" clip-path="url(#ped4dde1990)" style="fill: none; stroke: #e5e7eb; stroke-width: 0.7; stroke-linecap: square"/>
     </g>
     <g id="line2d_10">
      <g>
       <use xlink:href="#m51bfd9f6ce" x="34.784437" y="102.408" style="stroke: #000000; stroke-width: 0.8"/>
      </g>
     </g>
     <g id="text_7">
      <text style="font-size: 7.8px; font-family: 'DejaVu Sans'; text-anchor: end" x="27.784437" y="105.371086" transform="rotate(-0 27.784437 105.371086)">0.4</text>
     </g>
    </g>
    <g id="ytick_4">
     <g id="line2d_11">
      <path d="M 34.784437 71.784 
L 358.424437 71.784 
" clip-path="url(#ped4dde1990)" style="fill: none; stroke: #e5e7eb; stroke-width: 0.7; stroke-linecap: square"/>
     </g>
     <g id="line2d_12">
      <g>
       <use xlink:href="#m51bfd9f6ce" x="34.784437" y="71.784" style="stroke: #000000; stroke-width: 0.8"/>
      </g>
     </g>
     <g id="text_8">
      <text style="font-size: 7.8px; font-family: 'DejaVu Sans'; text-anchor: end" x="27.784437" y="74.747086" transform="rotate(-0 27.784437 74.747086)">0.6</text>
     </g>
    </g>
    <g id="ytick_5">
     <g id="line2d_13">
      <path d="M 34.784437 41.16 
L 358.424437 41.16 
" clip-path="url(#ped4dde1990)" style="fill: none; stroke: #e5e7eb; stroke-width: 0.7; stroke-linecap: square"/>
     </g>
     <g id="line2d_14">
      <g>
       <use xlink:href="#m51bfd9f6ce" x="34.784437" y="41.16" style="stroke: #000000; stroke-width: 0.8"/>
      </g>
     </g>
     <g id="text_9">
      <text style="font-size: 7.8px; font-family: 'DejaVu Sans'; text-anchor: end" x="27.784437" y="44.123086" transform="rotate(-0 27.784437 44.123086)">0.8</text>
     </g>
    </g>
    <g id="ytick_6">
     <g id="line2d_15">
      <path d="M 34.784437 10.536 
L 358.424437 10.536 
" clip-path="url(#ped4dde1990)" style="fill: none; stroke: #e5e7eb; stroke-width: 0.7; stroke-linecap: square"/>
     </g>
     <g id="line2d_16">
      <g>
       <use xlink:href="#m51bfd9f6ce" x="34.784437" y="10.536" style="stroke: #000000; stroke-width: 0.8"/>
      </g>
     </g>
     <g id="text_10">
      <text style="font-size: 7.8px; font-family: 'DejaVu Sans'; text-anchor: end" x="27.784437" y="13.499086" transform="rotate(-0 27.784437 13.499086)">1.0</text>
     </g>
    </g>
    <g id="text_11">
     <text style="font-size: 8.5px; font-family: 'DejaVu Sans'; text-anchor: middle" x="9.338008" y="83.268" transform="rotate(-90 9.338008 83.268)">Macro-F1</text>
    </g>
   </g>
   <g id="patch_15">
    <path d="M 34.784437 163.656 
L 34.784437 2.88 
" style="fill: none; stroke: #333333; stroke-width: 0.9; stroke-linejoin: miter; stroke-linecap: square"/>
   </g>
   <g id="patch_16">
    <path d="M 34.784438 163.656 
L 358.424437 163.656 
" style="fill: none; stroke: #333333; stroke-width: 0.9; stroke-linejoin: miter; stroke-linecap: square"/>
   </g>
   <g id="legend_1">
    <g id="patch_17">
     <path d="M 79.269891 221.620061 
L 94.869891 221.620061 
L 94.869891 216.160061 
L 79.269891 216.160061 
z
" style="fill: url(#h01c5caf372); stroke: #222222; stroke-width: 0.8; stroke-linejoin: miter"/>
    </g>
    <g id="text_12">
     <text style="font-size: 7.8px; font-family: 'DejaVu Sans'; text-anchor: start" x="101.109891" y="221.620061" transform="rotate(-0 101.109891 221.620061)">Transformer</text>
    </g>
    <g id="patch_18">
     <path d="M 163.512328 221.620061 
L 179.112328 221.620061 
L 179.112328 216.160061 
L 163.512328 216.160061 
z
" style="fill: url(#hef1b102a20); stroke: #222222; stroke-width: 0.8; stroke-linejoin: miter"/>
    </g>
    <g id="text_13">
     <text style="font-size: 7.8px; font-family: 'DejaVu Sans'; text-anchor: start" x="185.352328" y="221.620061" transform="rotate(-0 185.352328 221.620061)">Concat-Fusion</text>
    </g>
    <g id="patch_19">
     <path d="M 256.004484 221.620061 
L 271.604484 221.620061 
L 271.604484 216.160061 
L 256.004484 216.160061 
z
" style="fill: #e45756; stroke: #222222; stroke-width: 1.25; stroke-linejoin: miter"/>
    </g>
    <g id="text_14">
     <text style="font-size: 7.8px; font-family: 'DejaVu Sans'; text-anchor: start" x="277.844484" y="221.620061" transform="rotate(-0 277.844484 221.620061)">CMF-CAN</text>
    </g>
   </g>
  </g>
 </g>
 <defs>
  <clipPath id="ped4dde1990">
   <rect x="34.784437" y="2.88" width="323.64" height="160.776"/>
  </clipPath>
 </defs>
 <defs>
  <pattern id="h01c5caf372" patternUnits="userSpaceOnUse" x="0" y="0" width="72" height="72">
   <rect x="0" y="0" width="73" height="73" fill="#4c78a8"/>
   <path d="M -36 36 
L 36 -36 
M -32 40 
L 40 -32 
M -28 44 
L 44 -28 
M -24 48 
L 48 -24 
M -20 52 
L 52 -20 
M -16 56 
L 56 -16 
M -12 60 
L 60 -12 
M -8 64 
L 64 -8 
M -4 68 
L 68 -4 
M 0 72 
L 72 0 
M 4 76 
L 76 4 
M 8 80 
L 80 8 
M 12 84 
L 84 12 
M 16 88 
L 88 16 
M 20 92 
L 92 20 
M 24 96 
L 96 24 
M 28 100 
L 100 28 
M 32 104 
L 104 32 
M 36 108 
L 108 36 
" style="fill: #222222; stroke: #222222; stroke-width: 1.0; stroke-linecap: butt; stroke-linejoin: miter"/>
  </pattern>
  <pattern id="hef1b102a20" patternUnits="userSpaceOnUse" x="0" y="0" width="72" height="72">
   <rect x="0" y="0" width="73" height="73" fill="#f2be3e"/>
   <path d="M -36 36 
L 36 108 
M -32 32 
L 40 104 
M -28 28 
L 44 100 
M -24 24 
L 48 96 
M -20 20 
L 52 92 
M -16 16 
L 56 88 
M -12 12 
L 60 84 
M -8 8 
L 64 80 
M -4 4 
L 68 76 
M 0 0 
L 72 72 
M 4 -4 
L 76 68 
M 8 -8 
L 80 64 
M 12 -12 
L 84 60 
M 16 -16 
L 88 56 
M 20 -20 
L 92 52 
M 24 -24 
L 96 48 
M 28 -28 
L 100 44 
M 32 -32 
L 104 40 
M 36 -36 
L 108 36 
" style="fill: #222222; stroke: #222222; stroke-width: 1.0; stroke-linecap: butt; stroke-linejoin: miter"/>
  </pattern>
 </defs>
</svg>
