<?xml version="1.0" encoding="utf-8" standalone="no"?>
<!DOCTYPE svg PUBLIC "-//W3C//DTD SVG 1.1//EN"
  "http://www.w3.org/Graphics/SVG/1.1/DTD/svg11.dtd">
<svg xmlns:xlink="http://www.w3.org/1999/xlink" width="404.2425pt" height="204.303063pt" viewBox="0 0 404.2425 204.303063" xmlns="http://www.w3.org/2000/svg" version="1.1">
 <metadata>
  <rdf:RDF xmlns:dc="http://purl.org/dc/elements/1.1/" xmlns:cc="http://creativecommons.org/ns#" xmlns:rdf="http://www.w3.org/1999/02/22-rdf-syntax-ns#">
   <cc:Work>
    <dc:type rdf:resource="http://purl.org/dc/dcmitype/StillImage"/>
    <dc:date>2026-06-29T11:53:36.807457</dc:date>
    <dc:format>image/svg+xml</dc:format>
    <dc:creator>
     <cc:Agent>
      <dc:title>Matplotlib v3.11.0, https://matplotlib.org/</dc:title>
     </cc:Agent>
    </dc:creator>
   </cc:Work>
  </rdf:RDF>
 </metadata>
 <defs>
  <style type="text/css">*{stroke-linejoin: round; stroke-linecap: butt}</style>
 </defs>
 <g id="figure_1">
  <g id="patch_1">
   <path d="M 0 204.303063 
L 404.2425 204.303063 
L 404.2425 0 
L 0 0 
z
" style="fill: #ffffff"/>
  </g>
  <g id="axes_1">
   <g id="patch_2">
    <path d="M 39.9225 182.103063 
L 397.0425 182.103063 
L 397.0425 10.239062 
L 39.9225 10.239062 
z
" style="fill: #ffffff"/>
   </g>
   <g id="patch_3">
    <path d="M 56.155227 182.103063 
L 148.913669 182.103063 
L 148.913669 101.516907 
L 56.155227 101.516907 
z
" clip-path="url(#pa2005b55fd)" style="fill: url(#hda5f6f07ea); stroke: #222222; stroke-linejoin: miter"/>
   </g>
   <g id="patch_4">
    <path d="M 172.103279 182.103063 
L 264.861721 182.103063 
L 264.861721 34.821394 
L 172.103279 34.821394 
z
" clip-path="url(#pa2005b55fd)" style="fill: url(#hda5f6f07ea); stroke: #222222; stroke-linejoin: miter"/>
   </g>
   <g id="patch_5">
    <path d="M 288.051331 182.103063 
L 380.809773 182.103063 
L 380.809773 165.193273 
L 288.051331 165.193273 
z
" clip-path="url(#pa2005b55fd)" style="fill: url(#hda5f6f07ea); stroke: #222222; stroke-linejoin: miter"/>
   </g>
   <g id="matplotlib.axis_1">
    <g id="xtick_1">
     <g id="line2d_1">
      <defs>
       <path id="m5e2135f9ad" d="M 0 0 
L 0 3.5 
" style="stroke: #000000; stroke-width: 0.8"/>
      </defs>
      <g>
       <use xlink:href="#m5e2135f9ad" x="102.534448" y="182.103063" style="stroke: #000000; stroke-width: 0.8"/>
      </g>
     </g>
     <g id="text_1">
      <text style="font-size: 8px; font-family: 'DejaVu Sans'; text-anchor: middle" x="102.534448" y="195.181188" transform="rotate(-0 102.534448 195.181188)">test02</text>
     </g>
    </g>
    <g id="xtick_2">
     <g id="line2d_2">
      <g>
       <use xlink:href="#m5e2135f9ad" x="218.4825" y="182.103063" style="stroke: #000000; stroke-width: 0.8"/>
      </g>
     </g>
     <g id="text_2">
      <text style="font-size: 8px; font-family: 'DejaVu Sans'; text-anchor: middle" x="218.4825" y="195.181188" transform="rotate(-0 218.4825 195.181188)">test03</text>
     </g>
    </g>
    <g id="xtick_3">
     <g id="line2d_3">
      <g>
       <use xlink:href="#m5e2135f9ad" x="334.430552" y="182.103063" style="stroke: #000000; stroke-width: 0.8"/>
      </g>
     </g>
     <g id="text_3">
      <text style="font-size: 8px; font-family: 'DejaVu Sans'; text-anchor: middle" x="334.430552" y="195.181188" transform="rotate(-0 334.430552 195.181188)">test04</text>
     </g>
    </g>
   </g>
   <g id="matplotlib.axis_2">
    <g id="ytick_1">
     <g id="line2d_4">
      <path d="M 39.9225 182.103063 
L 397.0425 182.103063 
" clip-path="url(#pa2005b55fd)" style="fill: none; stroke: #e5e7eb; stroke-width: 0.7; stroke-linecap: square"/>
     </g>
     <g id="line2d_5">
      <defs>
       <path id="m092ffd05ba" d="M 0 0 
L -3.5 0 
" style="stroke: #000000; stroke-width: 0.8"/>
      </defs>
      <g>
       <use xlink:href="#m092ffd05ba" x="39.9225" y="182.103063" style="stroke: #000000; stroke-width: 0.8"/>
      </g>
     </g>
     <g id="text_4">
      <text style="font-size: 8px; font-family: 'DejaVu Sans'; text-anchor: end" x="32.9225" y="185.142125" transform="rotate(-0 32.9225 185.142125)">0.0</text>
     </g>
    </g>
    <g id="ytick_2">
     <g id="line2d_6">
      <path d="M 39.9225 147.730263 
L 397.0425 147.730263 
" clip-path="url(#pa2005b55fd)" style="fill: none; stroke: #e5e7eb; stroke-width: 0.7; stroke-linecap: square"/>
     </g>
     <g id="line2d_7">
      <g>
       <use xlink:href="#m092ffd05ba" x="39.9225" y="147.730263" style="stroke: #000000; stroke-width: 0.8"/>
      </g>
     </g>
     <g id="text_5">
      <text style="font-size: 8px; font-family: 'DejaVu Sans'; text-anchor: end" x="32.9225" y="150.769325" transform="rotate(-0 32.9225 150.769325)">0.2</text>
     </g>
    </g>
    <g id="ytick_3">
     <g id="line2d_8">
      <path d="M 39.9225 113.357463 
L 397.0425 113.357463 
" clip-path="url(#pa2005b55fd)" style="fill: none; stroke: #e5e7eb; stroke-width: 0.7; stroke-linecap: square"/>
     </g>
     <g id="line2d_9">
      <g>
       <use xlink:href="#m092ffd05ba" x="39.9225" y="113.357463" style="stroke: #000000; stroke-width: 0.8"/>
      </g>
     </g>
     <g id="text_6">
      <text style="font-size: 8px; font-family: 'DejaVu Sans'; text-anchor: end" x="32.9225" y="116.396525" transform="rotate(-0 32.9225 116.396525)">0.4</text>
     </g>
    </g>
    <g id="ytick_4">
     <g id="line2d_10">
      <path d="M 39.9225 78.984662 
L 397.0425 78.984662 
" clip-path="url(#pa2005b55fd)" style="fill: none; stroke: #e5e7eb; stroke-width: 0.7; stroke-linecap: square"/>
     </g>
     <g id="line2d_11">
      <g>
       <use xlink:href="#m092ffd05ba" x="39.9225" y="78.984662" style="stroke: #000000; stroke-width: 0.8"/>
      </g>
     </g>
     <g id="text_7">
      <text style="font-size: 8px; font-family: 'DejaVu Sans'; text-anchor: end" x="32.9225" y="82.023725" transform="rotate(-0 32.9225 82.023725)">0.6</text>
     </g>
    </g>
    <g id="ytick_5">
     <g id="line2d_12">
      <path d="M 39.9225 44.611863 
L 397.0425 44.611863 
" clip-path="url(#pa2005b55fd)" style="fill: none; stroke: #e5e7eb; stroke-width: 0.7; stroke-linecap: square"/>
     </g>
     <g id="line2d_13">
      <g>
       <use xlink:href="#m092ffd05ba" x="39.9225" y="44.611863" style="stroke: #000000; stroke-width: 0.8"/>
      </g>
     </g>
     <g id="text_8">
      <text style="font-size: 8px; font-family: 'DejaVu Sans'; text-anchor: end" x="32.9225" y="47.650925" transform="rotate(-0 32.9225 47.650925)">0.8</text>
     </g>
    </g>
    <g id="ytick_6">
     <g id="line2d_14">
      <path d="M 39.9225 10.239062 
L 397.0425 10.239062 
" clip-path="url(#pa2005b55fd)" style="fill: none; stroke: #e5e7eb; stroke-width: 0.7; stroke-linecap: square"/>
     </g>
     <g id="line2d_15">
      <g>
       <use xlink:href="#m092ffd05ba" x="39.9225" y="10.239062" style="stroke: #000000; stroke-width: 0.8"/>
      </g>
     </g>
     <g id="text_9">
      <text style="font-size: 8px; font-family: 'DejaVu Sans'; text-anchor: end" x="32.9225" y="13.278125" transform="rotate(-0 32.9225 13.278125)">1.0</text>
     </g>
    </g>
    <g id="text_10">
     <text style="font-size: 9px; font-family: 'DejaVu Sans'; text-anchor: middle" x="14.037891" y="96.171062" transform="rotate(-90 14.037891 96.171062)">Score</text>
    </g>
   </g>
   <g id="line2d_16">
    <path d="M 102.534448 73.362712 
L 218.4825 24.784929 
L 334.430552 163.175309 
" clip-path="url(#pa2005b55fd)" style="fill: none; stroke: #c2410c; stroke-width: 1.8; stroke-linecap: square"/>
    <defs>
     <path id="ma6a01942d8" d="M 0 3 
C 0.795609 3 1.55874 2.683901 2.12132 2.12132 
C 2.683901 1.55874 3 0.795609 3 0 
C 3 -0.795609 2.683901 -1.55874 2.12132 -2.12132 
C 1.55874 -2.683901 0.795609 -3 0 -3 
C -0.795609 -3 -1.55874 -2.683901 -2.12132 -2.12132 
C -2.683901 -1.55874 -3 -0.795609 -3 0 
C -3 0.795609 -2.683901 1.55874 -2.12132 2.12132 
C -1.55874 2.683901 -0.795609 3 0 3 
z
" style="stroke: #c2410c"/>
    </defs>
    <g clip-path="url(#pa2005b55fd)">
     <use xlink:href="#ma6a01942d8" x="102.534448" y="73.362712" style="fill: #c2410c; stroke: #c2410c"/>
     <use xlink:href="#ma6a01942d8" x="218.4825" y="24.784929" style="fill: #c2410c; stroke: #c2410c"/>
     <use xlink:href="#ma6a01942d8" x="334.430552" y="163.175309" style="fill: #c2410c; stroke: #c2410c"/>
    </g>
   </g>
   <g id="patch_6">
    <path d="M 39.9225 182.103063 
L 39.9225 10.239062 
" style="fill: none; stroke: #000000; stroke-width: 0.9; stroke-linejoin: miter; stroke-linecap: square"/>
   </g>
   <g id="patch_7">
    <path d="M 397.0425 182.103063 
L 397.0425 10.239062 
" style="fill: none; stroke: #000000; stroke-width: 0.9; stroke-linejoin: miter; stroke-linecap: square"/>
   </g>
   <g id="patch_8">
    <path d="M 39.9225 182.103063 
L 397.0425 182.103063 
" style="fill: none; stroke: #000000; stroke-width: 0.9; stroke-linejoin: miter; stroke-linecap: square"/>
   </g>
   <g id="patch_9">
    <path d="M 39.9225 10.239062 
L 397.0425 10.239062 
" style="fill: none; stroke: #000000; stroke-width: 0.9; stroke-linejoin: miter; stroke-linecap: square"/>
   </g>
   <g id="legend_1">
    <g id="line2d_17">
     <path d="M 320.2 20.717812 
L 328.2 20.717812 
L 336.2 20.717812 
" style="fill: none; stroke: #c2410c; stroke-width: 1.8; stroke-linecap: square"/>
     <g>
      <use xlink:href="#ma6a01942d8" x="328.2" y="20.717812" style="fill: #c2410c; stroke: #c2410c"/>
     </g>
    </g>
    <g id="text_11">
     <text style="font-size: 8px; font-family: 'DejaVu Sans'; text-anchor: start" x="342.6" y="23.517812" transform="rotate(-0 342.6 23.517812)">Event recall</text>
    </g>
    <g id="patch_10">
     <path d="M 320.2 35.518438 
L 336.2 35.518438 
L 336.2 29.918438 
L 320.2 29.918438 
z
" style="fill: url(#hda5f6f07ea); stroke: #222222; stroke-linejoin: miter"/>
    </g>
    <g id="text_12">
     <text style="font-size: 8px; font-family: 'DejaVu Sans'; text-anchor: start" x="342.6" y="35.518438" transform="rotate(-0 342.6 35.518438)">Window F1</text>
    </g>
   </g>
  </g>
 </g>
 <defs>
  <clipPath id="pa2005b55fd">
   <rect x="39.9225" y="10.239062" width="357.12" height="171.864"/>
  </clipPath>
 </defs>
 <defs>
  <pattern id="hda5f6f07ea" patternUnits="userSpaceOnUse" x="0" y="0" width="72" height="72">
   <rect x="0" y="0" width="73" height="73" fill="#2563eb"/>
   <path d="M -36 36 
L 36 -36 
M -30 42 
L 42 -30 
M -24 48 
L 48 -24 
M -18 54 
L 54 -18 
M -12 60 
L 60 -12 
M -6 66 
L 66 -6 
M 0 72 
L 72 0 
M 6 78 
L 78 6 
M 12 84 
L 84 12 
M 18 90 
L 90 18 
M 24 96 
L 96 24 
M 30 102 
L 102 30 
M 36 108 
L 108 36 
" style="fill: #222222; stroke: #222222; stroke-width: 1.0; stroke-linecap: butt; stroke-linejoin: miter"/>
  </pattern>
 </defs>
</svg>
