<?xml version="1.0" encoding="utf-8" standalone="no"?>
<!DOCTYPE svg PUBLIC "-//W3C//DTD SVG 1.1//EN"
  "http://www.w3.org/Graphics/SVG/1.1/DTD/svg11.dtd">
<svg xmlns:xlink="http://www.w3.org/1999/xlink" width="404.243203pt" height="204.303063pt" viewBox="0 0 404.243203 204.303063" xmlns="http://www.w3.org/2000/svg" version="1.1">
 <metadata>
  <rdf:RDF xmlns:dc="http://purl.org/dc/elements/1.1/" xmlns:cc="http://creativecommons.org/ns#" xmlns:rdf="http://www.w3.org/1999/02/22-rdf-syntax-ns#">
   <cc:Work>
    <dc:type rdf:resource="http://purl.org/dc/dcmitype/StillImage"/>
    <dc:date>2026-06-29T11:53:37.073330</dc:date>
    <dc:format>image/svg+xml</dc:format>
    <dc:creator>
     <cc:Agent>
      <dc:title>Matplotlib v3.11.0, https://matplotlib.org/</dc:title>
     </cc:Agent>
    </dc:creator>
   </cc:Work>
  </rdf:RDF>
 </metadata>
 <defs>
  <style type="text/css">*{stroke-linejoin: round; stroke-linecap: butt}</style>
 </defs>
 <g id="figure_1">
  <g id="patch_1">
   <path d="M 0 204.303063 
L 404.243203 204.303063 
L 404.243203 0 
L 0 0 
z
" style="fill: #ffffff"/>
  </g>
  <g id="axes_1">
   <g id="patch_2">
    <path d="M 39.923203 182.103063 
L 397.043203 182.103063 
L 397.043203 10.239062 
L 39.923203 10.239062 
z
" style="fill: #ffffff"/>
   </g>
   <g id="patch_3">
    <path d="M 56.15593 182.103063 
L 148.914372 182.103063 
L 148.914372 182.103063 
L 56.15593 182.103063 
z
" clip-path="url(#p9a1a6ee032)" style="fill: url(#he10344aec6); stroke: #222222; stroke-linejoin: miter"/>
   </g>
   <g id="patch_4">
    <path d="M 172.103982 182.103063 
L 264.862424 182.103063 
L 264.862424 158.908302 
L 172.103982 158.908302 
z
" clip-path="url(#p9a1a6ee032)" style="fill: url(#he10344aec6); stroke: #222222; stroke-linejoin: miter"/>
   </g>
   <g id="patch_5">
    <path d="M 288.052034 182.103063 
L 380.810476 182.103063 
L 380.810476 180.588842 
L 288.052034 180.588842 
z
" clip-path="url(#p9a1a6ee032)" style="fill: url(#he10344aec6); stroke: #222222; stroke-linejoin: miter"/>
   </g>
   <g id="matplotlib.axis_1">
    <g id="xtick_1">
     <g id="line2d_1">
      <defs>
       <path id="m67242aec46" d="M 0 0 
L 0 3.5 
" style="stroke: #000000; stroke-width: 0.8"/>
      </defs>
      <g>
       <use xlink:href="#m67242aec46" x="102.535151" y="182.103063" style="stroke: #000000; stroke-width: 0.8"/>
      </g>
     </g>
     <g id="text_1">
      <text style="font-size: 8px; font-family: 'DejaVu Sans'; text-anchor: middle" x="102.535151" y="195.181188" transform="rotate(-0 102.535151 195.181188)">test02</text>
     </g>
    </g>
    <g id="xtick_2">
     <g id="line2d_2">
      <g>
       <use xlink:href="#m67242aec46" x="218.483203" y="182.103063" style="stroke: #000000; stroke-width: 0.8"/>
      </g>
     </g>
     <g id="text_2">
      <text style="font-size: 8px; font-family: 'DejaVu Sans'; text-anchor: middle" x="218.483203" y="195.181188" transform="rotate(-0 218.483203 195.181188)">test03</text>
     </g>
    </g>
    <g id="xtick_3">
     <g id="line2d_3">
      <g>
       <use xlink:href="#m67242aec46" x="334.431255" y="182.103063" style="stroke: #000000; stroke-width: 0.8"/>
      </g>
     </g>
     <g id="text_3">
      <text style="font-size: 8px; font-family: 'DejaVu Sans'; text-anchor: middle" x="334.431255" y="195.181188" transform="rotate(-0 334.431255 195.181188)">test04</text>
     </g>
    </g>
   </g>
   <g id="matplotlib.axis_2">
    <g id="ytick_1">
     <g id="line2d_4">
      <path d="M 39.923203 182.103063 
L 397.043203 182.103063 
" clip-path="url(#p9a1a6ee032)" style="fill: none; stroke: #e5e7eb; stroke-width: 0.7; stroke-linecap: square"/>
     </g>
     <g id="line2d_5">
      <defs>
       <path id="md1d5a3ff47" d="M 0 0 
L -3.5 0 
" style="stroke: #000000; stroke-width: 0.8"/>
      </defs>
      <g>
       <use xlink:href="#md1d5a3ff47" x="39.923203" y="182.103063" style="stroke: #000000; stroke-width: 0.8"/>
      </g>
     </g>
     <g id="text_4">
      <text style="font-size: 8px; font-family: 'DejaVu Sans'; text-anchor: end" x="32.923203" y="185.142125" transform="rotate(-0 32.923203 185.142125)">0.0</text>
     </g>
    </g>
    <g id="ytick_2">
     <g id="line2d_6">
      <path d="M 39.923203 147.730263 
L 397.043203 147.730263 
" clip-path="url(#p9a1a6ee032)" style="fill: none; stroke: #e5e7eb; stroke-width: 0.7; stroke-linecap: square"/>
     </g>
     <g id="line2d_7">
      <g>
       <use xlink:href="#md1d5a3ff47" x="39.923203" y="147.730263" style="stroke: #000000; stroke-width: 0.8"/>
      </g>
     </g>
     <g id="text_5">
      <text style="font-size: 8px; font-family: 'DejaVu Sans'; text-anchor: end" x="32.923203" y="150.769325" transform="rotate(-0 32.923203 150.769325)">0.2</text>
     </g>
    </g>
    <g id="ytick_3">
     <g id="line2d_8">
      <path d="M 39.923203 113.357463 
L 397.043203 113.357463 
" clip-path="url(#p9a1a6ee032)" style="fill: none; stroke: #e5e7eb; stroke-width: 0.7; stroke-linecap: square"/>
     </g>
     <g id="line2d_9">
      <g>
       <use xlink:href="#md1d5a3ff47" x="39.923203" y="113.357463" style="stroke: #000000; stroke-width: 0.8"/>
      </g>
     </g>
     <g id="text_6">
      <text style="font-size: 8px; font-family: 'DejaVu Sans'; text-anchor: end" x="32.923203" y="116.396525" transform="rotate(-0 32.923203 116.396525)">0.4</text>
     </g>
    </g>
    <g id="ytick_4">
     <g id="line2d_10">
      <path d="M 39.923203 78.984662 
L 397.043203 78.984662 
" clip-path="url(#p9a1a6ee032)" style="fill: none; stroke: #e5e7eb; stroke-width: 0.7; stroke-linecap: square"/>
     </g>
     <g id="line2d_11">
      <g>
       <use xlink:href="#md1d5a3ff47" x="39.923203" y="78.984662" style="stroke: #000000; stroke-width: 0.8"/>
      </g>
     </g>
     <g id="text_7">
      <text style="font-size: 8px; font-family: 'DejaVu Sans'; text-anchor: end" x="32.923203" y="82.023725" transform="rotate(-0 32.923203 82.023725)">0.6</text>
     </g>
    </g>
    <g id="ytick_5">
     <g id="line2d_12">
      <path d="M 39.923203 44.611863 
L 397.043203 44.611863 
" clip-path="url(#p9a1a6ee032)" style="fill: none; stroke: #e5e7eb; stroke-width: 0.7; stroke-linecap: square"/>
     </g>
     <g id="line2d_13">
      <g>
       <use xlink:href="#md1d5a3ff47" x="39.923203" y="44.611863" style="stroke: #000000; stroke-width: 0.8"/>
      </g>
     </g>
     <g id="text_8">
      <text style="font-size: 8px; font-family: 'DejaVu Sans'; text-anchor: end" x="32.923203" y="47.650925" transform="rotate(-0 32.923203 47.650925)">0.8</text>
     </g>
    </g>
    <g id="ytick_6">
     <g id="line2d_14">
      <path d="M 39.923203 10.239062 
L 397.043203 10.239062 
" clip-path="url(#p9a1a6ee032)" style="fill: none; stroke: #e5e7eb; stroke-width: 0.7; stroke-linecap: square"/>
     </g>
     <g id="line2d_15">
      <g>
       <use xlink:href="#md1d5a3ff47" x="39.923203" y="10.239062" style="stroke: #000000; stroke-width: 0.8"/>
      </g>
     </g>
     <g id="text_9">
      <text style="font-size: 8px; font-family: 'DejaVu Sans'; text-anchor: end" x="32.923203" y="13.278125" transform="rotate(-0 32.923203 13.278125)">1.0</text>
     </g>
    </g>
    <g id="text_10">
     <text style="font-size: 9px; font-family: 'DejaVu Sans'; text-anchor: middle" x="14.038594" y="96.171062" transform="rotate(-90 14.038594 96.171062)">Event recall under &lt;=10 false alarm events/hour</text>
    </g>
   </g>
   <g id="patch_6">
    <path d="M 39.923203 182.103063 
L 39.923203 10.239062 
" style="fill: none; stroke: #000000; stroke-width: 0.9; stroke-linejoin: miter; stroke-linecap: square"/>
   </g>
   <g id="patch_7">
    <path d="M 397.043203 182.103063 
L 397.043203 10.239062 
" style="fill: none; stroke: #000000; stroke-width: 0.9; stroke-linejoin: miter; stroke-linecap: square"/>
   </g>
   <g id="patch_8">
    <path d="M 39.923203 182.103063 
L 397.043203 182.103063 
" style="fill: none; stroke: #000000; stroke-width: 0.9; stroke-linejoin: miter; stroke-linecap: square"/>
   </g>
   <g id="patch_9">
    <path d="M 39.923203 10.239062 
L 397.043203 10.239062 
" style="fill: none; stroke: #000000; stroke-width: 0.9; stroke-linejoin: miter; stroke-linecap: square"/>
   </g>
  </g>
 </g>
 <defs>
  <clipPath id="p9a1a6ee032">
   <rect x="39.923203" y="10.239062" width="357.12" height="171.864"/>
  </clipPath>
 </defs>
 <defs>
  <pattern id="he10344aec6" patternUnits="userSpaceOnUse" x="0" y="0" width="72" height="72">
   <rect x="0" y="0" width="73" height="73" fill="#047857"/>
   <path d="M -36 36 
L 36 -36 
M -30 42 
L 42 -30 
M -24 48 
L 48 -24 
M -18 54 
L 54 -18 
M -12 60 
L 60 -12 
M -6 66 
L 66 -6 
M 0 72 
L 72 0 
M 6 78 
L 78 6 
M 12 84 
L 84 12 
M 18 90 
L 90 18 
M 24 96 
L 96 24 
M 30 102 
L 102 30 
M 36 108 
L 108 36 
M -36 36 
L 36 108 
M -30 30 
L 42 102 
M -24 24 
L 48 96 
M -18 18 
L 54 90 
M -12 12 
L 60 84 
M -6 6 
L 66 78 
M 0 0 
L 72 72 
M 6 -6 
L 78 66 
M 12 -12 
L 84 60 
M 18 -18 
L 90 54 
M 24 -24 
L 96 48 
M 30 -30 
L 102 42 
M 36 -36 
L 108 36 
" style="fill: #222222; stroke: #222222; stroke-width: 1.0; stroke-linecap: butt; stroke-linejoin: miter"/>
  </pattern>
 </defs>
</svg>
