<?xml version="1.0" encoding="utf-8" standalone="no"?>
<!DOCTYPE svg PUBLIC "-//W3C//DTD SVG 1.1//EN"
  "http://www.w3.org/Graphics/SVG/1.1/DTD/svg11.dtd">
<svg xmlns:xlink="http://www.w3.org/1999/xlink" width="457.2pt" height="241.2pt" viewBox="0 0 457.2 241.2" xmlns="http://www.w3.org/2000/svg" version="1.1">
 <metadata>
  <rdf:RDF xmlns:dc="http://purl.org/dc/elements/1.1/" xmlns:cc="http://creativecommons.org/ns#" xmlns:rdf="http://www.w3.org/1999/02/22-rdf-syntax-ns#">
   <cc:Work>
    <dc:type rdf:resource="http://purl.org/dc/dcmitype/StillImage"/>
    <dc:date>2026-07-04T21:14:24.408394</dc:date>
    <dc:format>image/svg+xml</dc:format>
    <dc:creator>
     <cc:Agent>
      <dc:title>Matplotlib v3.11.0, https://matplotlib.org/</dc:title>
     </cc:Agent>
    </dc:creator>
   </cc:Work>
  </rdf:RDF>
 </metadata>
 <defs>
  <style type="text/css">*{stroke-linejoin: round; stroke-linecap: butt}</style>
 </defs>
 <g id="figure_1">
  <g id="patch_1">
   <path d="M 0 241.2 
L 457.2 241.2 
L 457.2 0 
L 0 0 
z
" style="fill: #ffffff"/>
  </g>
  <g id="axes_1">
   <g id="patch_2">
    <path d="M 40.11822 148.455 
L 145.00098 148.455 
Q 152.9001 148.455 152.9001 144.44388 
L 152.9001 61.10172 
Q 152.9001 57.0906 145.00098 57.0906 
L 40.11822 57.0906 
Q 32.2191 57.0906 32.2191 61.10172 
L 32.2191 144.44388 
Q 32.2191 148.455 40.11822 148.455 
z
" clip-path="url(#pf22e4fc24e)" style="fill: #f2f6fa; stroke: #315f8c; stroke-width: 1.1; stroke-linejoin: miter"/>
   </g>
   <g id="patch_3">
    <path d="M 176.15862 148.455 
L 281.04138 148.455 
Q 288.9405 148.455 288.9405 144.44388 
L 288.9405 61.10172 
Q 288.9405 57.0906 281.04138 57.0906 
L 176.15862 57.0906 
Q 168.2595 57.0906 168.2595 61.10172 
L 168.2595 144.44388 
Q 168.2595 148.455 176.15862 148.455 
z
" clip-path="url(#pf22e4fc24e)" style="fill: #ecf7f1; stroke: #1b8e5a; stroke-width: 1.1; stroke-linejoin: miter"/>
   </g>
   <g id="patch_4">
    <path d="M 312.19902 148.455 
L 417.08178 148.455 
Q 424.9809 148.455 424.9809 144.44388 
L 424.9809 61.10172 
Q 424.9809 57.0906 417.08178 57.0906 
L 312.19902 57.0906 
Q 304.2999 57.0906 304.2999 61.10172 
L 304.2999 144.44388 
Q 304.2999 148.455 312.19902 148.455 
z
" clip-path="url(#pf22e4fc24e)" style="fill: #fff6e5; stroke: #b7791f; stroke-width: 1.1; stroke-linejoin: miter"/>
   </g>
   <g id="patch_5">
    <path d="M 47.79792 207.95328 
L 137.32128 207.95328 
Q 152.68068 207.95328 152.68068 200.15388 
L 152.68068 183.66372 
Q 152.68068 175.86432 137.32128 175.86432 
L 47.79792 175.86432 
Q 32.43852 175.86432 32.43852 183.66372 
L 32.43852 200.15388 
Q 32.43852 207.95328 47.79792 207.95328 
z
" clip-path="url(#pf22e4fc24e)" style="fill: #ffffff; stroke: #777777; stroke-width: 0.9; stroke-linejoin: miter"/>
   </g>
   <g id="patch_6">
    <path d="M 183.83832 207.95328 
L 273.36168 207.95328 
Q 288.72108 207.95328 288.72108 200.15388 
L 288.72108 183.66372 
Q 288.72108 175.86432 273.36168 175.86432 
L 183.83832 175.86432 
Q 168.47892 175.86432 168.47892 183.66372 
L 168.47892 200.15388 
Q 168.47892 207.95328 183.83832 207.95328 
z
" clip-path="url(#pf22e4fc24e)" style="fill: #ffffff; stroke: #777777; stroke-width: 0.9; stroke-linejoin: miter"/>
   </g>
   <g id="patch_7">
    <path d="M 319.87872 207.95328 
L 409.40208 207.95328 
Q 424.76148 207.95328 424.76148 200.15388 
L 424.76148 183.66372 
Q 424.76148 175.86432 409.40208 175.86432 
L 319.87872 175.86432 
Q 304.51932 175.86432 304.51932 183.66372 
L 304.51932 200.15388 
Q 304.51932 207.95328 319.87872 207.95328 
z
" clip-path="url(#pf22e4fc24e)" style="fill: #ffffff; stroke: #777777; stroke-width: 0.9; stroke-linejoin: miter"/>
   </g>
   <g id="text_1">
    <text style="font-weight: 700; font-size: 9.8px; font-family: 'DejaVu Sans'; text-anchor: start; fill: #315f8c" x="47.5785" y="74.120903" transform="rotate(-0 47.5785 74.120903)">#1</text>
   </g>
   <g id="text_2">
    <text style="font-weight: 700; font-size: 9.2px; font-family: 'DejaVu Sans'; text-anchor: middle; fill: #222222" x="92.5596" y="81.764444" transform="rotate(-0 92.5596 81.764444)">Input CAN trace</text>
   </g>
   <g id="text_3">
    <text style="font-size: 8px; font-family: 'DejaVu Sans'; fill: #222222" transform="translate(70.983975 103.3397)">timestamp</text>
    <text style="font-size: 8px; font-family: 'DejaVu Sans'; fill: #222222" transform="translate(60.336475 113.5547)">CAN ID and DLC</text>
    <text style="font-size: 8px; font-family: 'DejaVu Sans'; fill: #222222" transform="translate(64.36085 122.2197)">payload bytes</text>
   </g>
   <g id="patch_8">
    <path d="M 153.582252 102.7728 
Q 160.577573 102.7728 166.343057 102.7728 
" style="fill: none; stroke: #4a4a4a; stroke-width: 1.1; stroke-linecap: round"/>
    <path d="M 162.343057 100.7728 
L 166.343057 102.7728 
L 162.343057 104.7728 
z
" style="fill: #4a4a4a; stroke: #4a4a4a; stroke-width: 1.1; stroke-linecap: round"/>
   </g>
   <g id="text_4">
    <text style="font-weight: 700; font-size: 9.8px; font-family: 'DejaVu Sans'; text-anchor: start; fill: #1b8e5a" x="183.6189" y="74.120903" transform="rotate(-0 183.6189 74.120903)">#2</text>
   </g>
   <g id="text_5">
    <text style="font-weight: 700; font-size: 9.2px; font-family: 'DejaVu Sans'; text-anchor: middle; fill: #222222" x="228.6" y="81.764803" transform="rotate(-0 228.6 81.764803)">GRAIN feature extraction</text>
   </g>
   <g id="text_6">
    <text style="font-size: 8px; font-family: 'DejaVu Sans'; fill: #222222" transform="translate(183.76875 98.6197)">same-ID history buffer</text>
    <text style="font-size: 8px; font-family: 'DejaVu Sans'; fill: #222222" transform="translate(189.170625 108.0597)">same-ID timing gap</text>
    <text style="font-size: 8px; font-family: 'DejaVu Sans'; fill: #222222" transform="translate(173.393125 117.4997)">payload delta and statistics</text>
    <text style="font-size: 8px; font-family: 'DejaVu Sans'; fill: #222222" transform="translate(194.919375 127.7147)">local ID behavior</text>
   </g>
   <g id="patch_9">
    <path d="M 289.622652 102.7728 
Q 296.617973 102.7728 302.383457 102.7728 
" style="fill: none; stroke: #4a4a4a; stroke-width: 1.1; stroke-linecap: round"/>
    <path d="M 298.383457 100.7728 
L 302.383457 102.7728 
L 298.383457 104.7728 
z
" style="fill: #4a4a4a; stroke: #4a4a4a; stroke-width: 1.1; stroke-linecap: round"/>
   </g>
   <g id="text_7">
    <text style="font-weight: 700; font-size: 9.8px; font-family: 'DejaVu Sans'; text-anchor: start; fill: #b7791f" x="319.6593" y="74.120903" transform="rotate(-0 319.6593 74.120903)">#3</text>
   </g>
   <g id="text_8">
    <text style="font-weight: 700; font-size: 9.2px; font-family: 'DejaVu Sans'; text-anchor: middle; fill: #222222" x="364.6404" y="81.764803" transform="rotate(-0 364.6404 81.764803)">Window classifier</text>
   </g>
   <g id="text_9">
    <text style="font-size: 8px; font-family: 'DejaVu Sans'; fill: #222222" transform="translate(302.69915 103.800325)">fixed W10/W20/W100 windows</text>
    <text style="font-size: 8px; font-family: 'DejaVu Sans'; fill: #222222" transform="translate(317.067275 112.7797)">supervised score model</text>
    <text style="font-size: 8px; font-family: 'DejaVu Sans'; fill: #222222" transform="translate(316.4204 122.680325)">normal / attack decision</text>
   </g>
   <g id="text_10">
    <text style="font-weight: 700; font-size: 7.9px; font-family: 'DejaVu Sans'; text-anchor: middle" x="92.5596" y="189.949828" transform="rotate(-0 92.5596 189.949828)">CAUSAL</text>
   </g>
   <g id="text_11">
    <text style="font-size: 7px; font-family: 'DejaVu Sans'; text-anchor: middle" x="92.5596" y="199.521273" transform="rotate(-0 92.5596 199.521273)">current + past frames only</text>
   </g>
   <g id="text_12">
    <text style="font-weight: 700; font-size: 7.9px; font-family: 'DejaVu Sans'; text-anchor: middle" x="228.6" y="189.949828" transform="rotate(-0 228.6 189.949828)">FIXED</text>
   </g>
   <g id="text_13">
    <text style="font-size: 7px; font-family: 'DejaVu Sans'; text-anchor: middle" x="228.6" y="199.521273" transform="rotate(-0 228.6 199.521273)">window and threshold fixed before test</text>
   </g>
   <g id="text_14">
    <text style="font-weight: 700; font-size: 7.9px; font-family: 'DejaVu Sans'; text-anchor: middle" x="364.6404" y="189.949828" transform="rotate(-0 364.6404 189.949828)">REPORTED</text>
   </g>
   <g id="text_15">
    <text style="font-size: 7px; font-family: 'DejaVu Sans'; text-anchor: middle" x="364.6404" y="199.521273" transform="rotate(-0 364.6404 199.521273)">P/R/F1, FNR/FPR, confusion matrix</text>
   </g>
   <g id="text_16">
    <text style="font-weight: 700; font-size: 12px; font-family: 'DejaVu Sans'; text-anchor: middle" x="228.6" y="32.353256" transform="rotate(-0 228.6 32.353256)">GRAIN-CAN feature-preserving IDS pipeline</text>
   </g>
   <g id="text_17">
    <text style="font-size: 9px; font-family: 'DejaVu Sans'; text-anchor: middle; fill: #444444" x="228.6" y="46.058442" transform="rotate(-0 228.6 46.058442)">Local same-ID behavior is extracted before window aggregation.</text>
   </g>
  </g>
 </g>
 <defs>
  <clipPath id="pf22e4fc24e">
   <rect x="9.18" y="9.18" width="438.84" height="222.84"/>
  </clipPath>
 </defs>
</svg>
