<?xml version="1.0" encoding="utf-8" standalone="no"?>
<!DOCTYPE svg PUBLIC "-//W3C//DTD SVG 1.1//EN"
  "http://www.w3.org/Graphics/SVG/1.1/DTD/svg11.dtd">
<svg xmlns:xlink="http://www.w3.org/1999/xlink" width="383.49pt" height="208.72pt" viewBox="0 0 383.49 208.72" xmlns="http://www.w3.org/2000/svg" version="1.1">
 <metadata>
  <rdf:RDF xmlns:dc="http://purl.org/dc/elements/1.1/" xmlns:cc="http://creativecommons.org/ns#" xmlns:rdf="http://www.w3.org/1999/02/22-rdf-syntax-ns#">
   <cc:Work>
    <dc:type rdf:resource="http://purl.org/dc/dcmitype/StillImage"/>
    <dc:date>2026-06-29T22:30:03.902455</dc:date>
    <dc:format>image/svg+xml</dc:format>
    <dc:creator>
     <cc:Agent>
      <dc:title>Matplotlib v3.11.0, https://matplotlib.org/</dc:title>
     </cc:Agent>
    </dc:creator>
   </cc:Work>
  </rdf:RDF>
 </metadata>
 <defs>
  <style type="text/css">*{stroke-linejoin: round; stroke-linecap: butt}</style>
 </defs>
 <g id="figure_1">
  <g id="patch_1">
   <path d="M 0 208.72 
L 383.49 208.72 
L 383.49 0 
L 0 0 
z
" style="fill: #ffffff"/>
  </g>
  <g id="axes_1">
   <g id="patch_2">
    <path d="M 52.65 173.52 
L 376.29 173.52 
L 376.29 7.2 
L 52.65 7.2 
z
" style="fill: #ffffff"/>
   </g>
   <g id="patch_3">
    <path d="M 67.360909 173.52 
L 73.245273 173.52 
L 73.245273 15.12 
L 67.360909 15.12 
z
" clip-path="url(#p14251f008f)" style="fill: #bdbdbd; opacity: 0.55; stroke: #000000; stroke-linejoin: miter"/>
   </g>
   <g id="patch_4">
    <path d="M 73.245273 173.52 
L 79.129636 173.52 
L 79.129636 173.52 
L 73.245273 173.52 
z
" clip-path="url(#p14251f008f)" style="fill: #bdbdbd; opacity: 0.55; stroke: #000000; stroke-linejoin: miter"/>
   </g>
   <g id="patch_5">
    <path d="M 79.129636 173.52 
L 85.014 173.52 
L 85.014 173.507314 
L 79.129636 173.507314 
z
" clip-path="url(#p14251f008f)" style="fill: #bdbdbd; opacity: 0.55; stroke: #000000; stroke-linejoin: miter"/>
   </g>
   <g id="patch_6">
    <path d="M 85.014 173.52 
L 90.898364 173.52 
L 90.898364 173.52 
L 85.014 173.52 
z
" clip-path="url(#p14251f008f)" style="fill: #bdbdbd; opacity: 0.55; stroke: #000000; stroke-linejoin: miter"/>
   </g>
   <g id="patch_7">
    <path d="M 90.898364 173.52 
L 96.782727 173.52 
L 96.782727 173.516828 
L 90.898364 173.516828 
z
" clip-path="url(#p14251f008f)" style="fill: #bdbdbd; opacity: 0.55; stroke: #000000; stroke-linejoin: miter"/>
   </g>
   <g id="patch_8">
    <path d="M 96.782727 173.52 
L 102.667091 173.52 
L 102.667091 173.52 
L 96.782727 173.52 
z
" clip-path="url(#p14251f008f)" style="fill: #bdbdbd; opacity: 0.55; stroke: #000000; stroke-linejoin: miter"/>
   </g>
   <g id="patch_9">
    <path d="M 102.667091 173.52 
L 108.551455 173.52 
L 108.551455 173.52 
L 102.667091 173.52 
z
" clip-path="url(#p14251f008f)" style="fill: #bdbdbd; opacity: 0.55; stroke: #000000; stroke-linejoin: miter"/>
   </g>
   <g id="patch_10">
    <path d="M 108.551455 173.52 
L 114.435818 173.52 
L 114.435818 173.52 
L 108.551455 173.52 
z
" clip-path="url(#p14251f008f)" style="fill: #bdbdbd; opacity: 0.55; stroke: #000000; stroke-linejoin: miter"/>
   </g>
   <g id="patch_11">
    <path d="M 114.435818 173.52 
L 120.320182 173.52 
L 120.320182 173.516828 
L 114.435818 173.516828 
z
" clip-path="url(#p14251f008f)" style="fill: #bdbdbd; opacity: 0.55; stroke: #000000; stroke-linejoin: miter"/>
   </g>
   <g id="patch_12">
    <path d="M 120.320182 173.52 
L 126.204545 173.52 
L 126.204545 173.52 
L 120.320182 173.52 
z
" clip-path="url(#p14251f008f)" style="fill: #bdbdbd; opacity: 0.55; stroke: #000000; stroke-linejoin: miter"/>
   </g>
   <g id="patch_13">
    <path d="M 126.204545 173.52 
L 132.088909 173.52 
L 132.088909 173.52 
L 126.204545 173.52 
z
" clip-path="url(#p14251f008f)" style="fill: #bdbdbd; opacity: 0.55; stroke: #000000; stroke-linejoin: miter"/>
   </g>
   <g id="patch_14">
    <path d="M 132.088909 173.52 
L 137.973273 173.52 
L 137.973273 173.52 
L 132.088909 173.52 
z
" clip-path="url(#p14251f008f)" style="fill: #bdbdbd; opacity: 0.55; stroke: #000000; stroke-linejoin: miter"/>
   </g>
   <g id="patch_15">
    <path d="M 137.973273 173.52 
L 143.857636 173.52 
L 143.857636 173.52 
L 137.973273 173.52 
z
" clip-path="url(#p14251f008f)" style="fill: #bdbdbd; opacity: 0.55; stroke: #000000; stroke-linejoin: miter"/>
   </g>
   <g id="patch_16">
    <path d="M 143.857636 173.52 
L 149.742 173.52 
L 149.742 173.52 
L 143.857636 173.52 
z
" clip-path="url(#p14251f008f)" style="fill: #bdbdbd; opacity: 0.55; stroke: #000000; stroke-linejoin: miter"/>
   </g>
   <g id="patch_17">
    <path d="M 149.742 173.52 
L 155.626364 173.52 
L 155.626364 173.52 
L 149.742 173.52 
z
" clip-path="url(#p14251f008f)" style="fill: #bdbdbd; opacity: 0.55; stroke: #000000; stroke-linejoin: miter"/>
   </g>
   <g id="patch_18">
    <path d="M 155.626364 173.52 
L 161.510727 173.52 
L 161.510727 173.52 
L 155.626364 173.52 
z
" clip-path="url(#p14251f008f)" style="fill: #bdbdbd; opacity: 0.55; stroke: #000000; stroke-linejoin: miter"/>
   </g>
   <g id="patch_19">
    <path d="M 161.510727 173.52 
L 167.395091 173.52 
L 167.395091 173.52 
L 161.510727 173.52 
z
" clip-path="url(#p14251f008f)" style="fill: #bdbdbd; opacity: 0.55; stroke: #000000; stroke-linejoin: miter"/>
   </g>
   <g id="patch_20">
    <path d="M 167.395091 173.52 
L 173.279455 173.52 
L 173.279455 173.52 
L 167.395091 173.52 
z
" clip-path="url(#p14251f008f)" style="fill: #bdbdbd; opacity: 0.55; stroke: #000000; stroke-linejoin: miter"/>
   </g>
   <g id="patch_21">
    <path d="M 173.279455 173.52 
L 179.163818 173.52 
L 179.163818 173.52 
L 173.279455 173.52 
z
" clip-path="url(#p14251f008f)" style="fill: #bdbdbd; opacity: 0.55; stroke: #000000; stroke-linejoin: miter"/>
   </g>
   <g id="patch_22">
    <path d="M 179.163818 173.52 
L 185.048182 173.52 
L 185.048182 173.52 
L 179.163818 173.52 
z
" clip-path="url(#p14251f008f)" style="fill: #bdbdbd; opacity: 0.55; stroke: #000000; stroke-linejoin: miter"/>
   </g>
   <g id="patch_23">
    <path d="M 185.048182 173.52 
L 190.932545 173.52 
L 190.932545 173.52 
L 185.048182 173.52 
z
" clip-path="url(#p14251f008f)" style="fill: #bdbdbd; opacity: 0.55; stroke: #000000; stroke-linejoin: miter"/>
   </g>
   <g id="patch_24">
    <path d="M 190.932545 173.52 
L 196.816909 173.52 
L 196.816909 173.52 
L 190.932545 173.52 
z
" clip-path="url(#p14251f008f)" style="fill: #bdbdbd; opacity: 0.55; stroke: #000000; stroke-linejoin: miter"/>
   </g>
   <g id="patch_25">
    <path d="M 196.816909 173.52 
L 202.701273 173.52 
L 202.701273 173.52 
L 196.816909 173.52 
z
" clip-path="url(#p14251f008f)" style="fill: #bdbdbd; opacity: 0.55; stroke: #000000; stroke-linejoin: miter"/>
   </g>
   <g id="patch_26">
    <path d="M 202.701273 173.52 
L 208.585636 173.52 
L 208.585636 173.52 
L 202.701273 173.52 
z
" clip-path="url(#p14251f008f)" style="fill: #bdbdbd; opacity: 0.55; stroke: #000000; stroke-linejoin: miter"/>
   </g>
   <g id="patch_27">
    <path d="M 208.585636 173.52 
L 214.47 173.52 
L 214.47 173.52 
L 208.585636 173.52 
z
" clip-path="url(#p14251f008f)" style="fill: #bdbdbd; opacity: 0.55; stroke: #000000; stroke-linejoin: miter"/>
   </g>
   <g id="patch_28">
    <path d="M 214.47 173.52 
L 220.354364 173.52 
L 220.354364 173.52 
L 214.47 173.52 
z
" clip-path="url(#p14251f008f)" style="fill: #bdbdbd; opacity: 0.55; stroke: #000000; stroke-linejoin: miter"/>
   </g>
   <g id="patch_29">
    <path d="M 220.354364 173.52 
L 226.238727 173.52 
L 226.238727 173.52 
L 220.354364 173.52 
z
" clip-path="url(#p14251f008f)" style="fill: #bdbdbd; opacity: 0.55; stroke: #000000; stroke-linejoin: miter"/>
   </g>
   <g id="patch_30">
    <path d="M 226.238727 173.52 
L 232.123091 173.52 
L 232.123091 173.52 
L 226.238727 173.52 
z
" clip-path="url(#p14251f008f)" style="fill: #bdbdbd; opacity: 0.55; stroke: #000000; stroke-linejoin: miter"/>
   </g>
   <g id="patch_31">
    <path d="M 232.123091 173.52 
L 238.007455 173.52 
L 238.007455 173.52 
L 232.123091 173.52 
z
" clip-path="url(#p14251f008f)" style="fill: #bdbdbd; opacity: 0.55; stroke: #000000; stroke-linejoin: miter"/>
   </g>
   <g id="patch_32">
    <path d="M 238.007455 173.52 
L 243.891818 173.52 
L 243.891818 173.52 
L 238.007455 173.52 
z
" clip-path="url(#p14251f008f)" style="fill: #bdbdbd; opacity: 0.55; stroke: #000000; stroke-linejoin: miter"/>
   </g>
   <g id="patch_33">
    <path d="M 243.891818 173.52 
L 249.776182 173.52 
L 249.776182 173.52 
L 243.891818 173.52 
z
" clip-path="url(#p14251f008f)" style="fill: #bdbdbd; opacity: 0.55; stroke: #000000; stroke-linejoin: miter"/>
   </g>
   <g id="patch_34">
    <path d="M 249.776182 173.52 
L 255.660545 173.52 
L 255.660545 173.52 
L 249.776182 173.52 
z
" clip-path="url(#p14251f008f)" style="fill: #bdbdbd; opacity: 0.55; stroke: #000000; stroke-linejoin: miter"/>
   </g>
   <g id="patch_35">
    <path d="M 255.660545 173.52 
L 261.544909 173.52 
L 261.544909 173.52 
L 255.660545 173.52 
z
" clip-path="url(#p14251f008f)" style="fill: #bdbdbd; opacity: 0.55; stroke: #000000; stroke-linejoin: miter"/>
   </g>
   <g id="patch_36">
    <path d="M 261.544909 173.52 
L 267.429273 173.52 
L 267.429273 173.52 
L 261.544909 173.52 
z
" clip-path="url(#p14251f008f)" style="fill: #bdbdbd; opacity: 0.55; stroke: #000000; stroke-linejoin: miter"/>
   </g>
   <g id="patch_37">
    <path d="M 267.429273 173.52 
L 273.313636 173.52 
L 273.313636 173.52 
L 267.429273 173.52 
z
" clip-path="url(#p14251f008f)" style="fill: #bdbdbd; opacity: 0.55; stroke: #000000; stroke-linejoin: miter"/>
   </g>
   <g id="patch_38">
    <path d="M 273.313636 173.52 
L 279.198 173.52 
L 279.198 173.52 
L 273.313636 173.52 
z
" clip-path="url(#p14251f008f)" style="fill: #bdbdbd; opacity: 0.55; stroke: #000000; stroke-linejoin: miter"/>
   </g>
   <g id="patch_39">
    <path d="M 279.198 173.52 
L 285.082364 173.52 
L 285.082364 173.52 
L 279.198 173.52 
z
" clip-path="url(#p14251f008f)" style="fill: #bdbdbd; opacity: 0.55; stroke: #000000; stroke-linejoin: miter"/>
   </g>
   <g id="patch_40">
    <path d="M 285.082364 173.52 
L 290.966727 173.52 
L 290.966727 173.52 
L 285.082364 173.52 
z
" clip-path="url(#p14251f008f)" style="fill: #bdbdbd; opacity: 0.55; stroke: #000000; stroke-linejoin: miter"/>
   </g>
   <g id="patch_41">
    <path d="M 290.966727 173.52 
L 296.851091 173.52 
L 296.851091 173.52 
L 290.966727 173.52 
z
" clip-path="url(#p14251f008f)" style="fill: #bdbdbd; opacity: 0.55; stroke: #000000; stroke-linejoin: miter"/>
   </g>
   <g id="patch_42">
    <path d="M 296.851091 173.52 
L 302.735455 173.52 
L 302.735455 173.52 
L 296.851091 173.52 
z
" clip-path="url(#p14251f008f)" style="fill: #bdbdbd; opacity: 0.55; stroke: #000000; stroke-linejoin: miter"/>
   </g>
   <g id="patch_43">
    <path d="M 302.735455 173.52 
L 308.619818 173.52 
L 308.619818 173.52 
L 302.735455 173.52 
z
" clip-path="url(#p14251f008f)" style="fill: #bdbdbd; opacity: 0.55; stroke: #000000; stroke-linejoin: miter"/>
   </g>
   <g id="patch_44">
    <path d="M 308.619818 173.52 
L 314.504182 173.52 
L 314.504182 173.52 
L 308.619818 173.52 
z
" clip-path="url(#p14251f008f)" style="fill: #bdbdbd; opacity: 0.55; stroke: #000000; stroke-linejoin: miter"/>
   </g>
   <g id="patch_45">
    <path d="M 314.504182 173.52 
L 320.388545 173.52 
L 320.388545 173.52 
L 314.504182 173.52 
z
" clip-path="url(#p14251f008f)" style="fill: #bdbdbd; opacity: 0.55; stroke: #000000; stroke-linejoin: miter"/>
   </g>
   <g id="patch_46">
    <path d="M 320.388545 173.52 
L 326.272909 173.52 
L 326.272909 173.52 
L 320.388545 173.52 
z
" clip-path="url(#p14251f008f)" style="fill: #bdbdbd; opacity: 0.55; stroke: #000000; stroke-linejoin: miter"/>
   </g>
   <g id="patch_47">
    <path d="M 326.272909 173.52 
L 332.157273 173.52 
L 332.157273 173.52 
L 326.272909 173.52 
z
" clip-path="url(#p14251f008f)" style="fill: #bdbdbd; opacity: 0.55; stroke: #000000; stroke-linejoin: miter"/>
   </g>
   <g id="patch_48">
    <path d="M 332.157273 173.52 
L 338.041636 173.52 
L 338.041636 173.52 
L 332.157273 173.52 
z
" clip-path="url(#p14251f008f)" style="fill: #bdbdbd; opacity: 0.55; stroke: #000000; stroke-linejoin: miter"/>
   </g>
   <g id="patch_49">
    <path d="M 338.041636 173.52 
L 343.926 173.52 
L 343.926 173.52 
L 338.041636 173.52 
z
" clip-path="url(#p14251f008f)" style="fill: #bdbdbd; opacity: 0.55; stroke: #000000; stroke-linejoin: miter"/>
   </g>
   <g id="patch_50">
    <path d="M 343.926 173.52 
L 349.810364 173.52 
L 349.810364 173.52 
L 343.926 173.52 
z
" clip-path="url(#p14251f008f)" style="fill: #bdbdbd; opacity: 0.55; stroke: #000000; stroke-linejoin: miter"/>
   </g>
   <g id="patch_51">
    <path d="M 349.810364 173.52 
L 355.694727 173.52 
L 355.694727 173.52 
L 349.810364 173.52 
z
" clip-path="url(#p14251f008f)" style="fill: #bdbdbd; opacity: 0.55; stroke: #000000; stroke-linejoin: miter"/>
   </g>
   <g id="patch_52">
    <path d="M 355.694727 173.52 
L 361.579091 173.52 
L 361.579091 173.513657 
L 355.694727 173.513657 
z
" clip-path="url(#p14251f008f)" style="fill: #bdbdbd; opacity: 0.55; stroke: #000000; stroke-linejoin: miter"/>
   </g>
   <g id="patch_53">
    <path d="M 67.360909 173.52 
L 73.245273 173.52 
L 73.245273 173.412165 
L 67.360909 173.412165 
z
" clip-path="url(#p14251f008f)" style="fill: url(#h918846a15d); opacity: 0.55; stroke: #000000; stroke-linejoin: miter"/>
   </g>
   <g id="patch_54">
    <path d="M 73.245273 173.52 
L 79.129636 173.52 
L 79.129636 173.52 
L 73.245273 173.52 
z
" clip-path="url(#p14251f008f)" style="fill: url(#h918846a15d); opacity: 0.55; stroke: #000000; stroke-linejoin: miter"/>
   </g>
   <g id="patch_55">
    <path d="M 79.129636 173.52 
L 85.014 173.52 
L 85.014 173.488284 
L 79.129636 173.488284 
z
" clip-path="url(#p14251f008f)" style="fill: url(#h918846a15d); opacity: 0.55; stroke: #000000; stroke-linejoin: miter"/>
   </g>
   <g id="patch_56">
    <path d="M 85.014 173.52 
L 90.898364 173.52 
L 90.898364 173.52 
L 85.014 173.52 
z
" clip-path="url(#p14251f008f)" style="fill: url(#h918846a15d); opacity: 0.55; stroke: #000000; stroke-linejoin: miter"/>
   </g>
   <g id="patch_57">
    <path d="M 90.898364 173.52 
L 96.782727 173.52 
L 96.782727 173.52 
L 90.898364 173.52 
z
" clip-path="url(#p14251f008f)" style="fill: url(#h918846a15d); opacity: 0.55; stroke: #000000; stroke-linejoin: miter"/>
   </g>
   <g id="patch_58">
    <path d="M 96.782727 173.52 
L 102.667091 173.52 
L 102.667091 173.52 
L 96.782727 173.52 
z
" clip-path="url(#p14251f008f)" style="fill: url(#h918846a15d); opacity: 0.55; stroke: #000000; stroke-linejoin: miter"/>
   </g>
   <g id="patch_59">
    <path d="M 102.667091 173.52 
L 108.551455 173.52 
L 108.551455 173.52 
L 102.667091 173.52 
z
" clip-path="url(#p14251f008f)" style="fill: url(#h918846a15d); opacity: 0.55; stroke: #000000; stroke-linejoin: miter"/>
   </g>
   <g id="patch_60">
    <path d="M 108.551455 173.52 
L 114.435818 173.52 
L 114.435818 173.52 
L 108.551455 173.52 
z
" clip-path="url(#p14251f008f)" style="fill: url(#h918846a15d); opacity: 0.55; stroke: #000000; stroke-linejoin: miter"/>
   </g>
   <g id="patch_61">
    <path d="M 114.435818 173.52 
L 120.320182 173.52 
L 120.320182 173.516828 
L 114.435818 173.516828 
z
" clip-path="url(#p14251f008f)" style="fill: url(#h918846a15d); opacity: 0.55; stroke: #000000; stroke-linejoin: miter"/>
   </g>
   <g id="patch_62">
    <path d="M 120.320182 173.52 
L 126.204545 173.52 
L 126.204545 173.52 
L 120.320182 173.52 
z
" clip-path="url(#p14251f008f)" style="fill: url(#h918846a15d); opacity: 0.55; stroke: #000000; stroke-linejoin: miter"/>
   </g>
   <g id="patch_63">
    <path d="M 126.204545 173.52 
L 132.088909 173.52 
L 132.088909 173.52 
L 126.204545 173.52 
z
" clip-path="url(#p14251f008f)" style="fill: url(#h918846a15d); opacity: 0.55; stroke: #000000; stroke-linejoin: miter"/>
   </g>
   <g id="patch_64">
    <path d="M 132.088909 173.52 
L 137.973273 173.52 
L 137.973273 173.52 
L 132.088909 173.52 
z
" clip-path="url(#p14251f008f)" style="fill: url(#h918846a15d); opacity: 0.55; stroke: #000000; stroke-linejoin: miter"/>
   </g>
   <g id="patch_65">
    <path d="M 137.973273 173.52 
L 143.857636 173.52 
L 143.857636 173.52 
L 137.973273 173.52 
z
" clip-path="url(#p14251f008f)" style="fill: url(#h918846a15d); opacity: 0.55; stroke: #000000; stroke-linejoin: miter"/>
   </g>
   <g id="patch_66">
    <path d="M 143.857636 173.52 
L 149.742 173.52 
L 149.742 173.52 
L 143.857636 173.52 
z
" clip-path="url(#p14251f008f)" style="fill: url(#h918846a15d); opacity: 0.55; stroke: #000000; stroke-linejoin: miter"/>
   </g>
   <g id="patch_67">
    <path d="M 149.742 173.52 
L 155.626364 173.52 
L 155.626364 173.52 
L 149.742 173.52 
z
" clip-path="url(#p14251f008f)" style="fill: url(#h918846a15d); opacity: 0.55; stroke: #000000; stroke-linejoin: miter"/>
   </g>
   <g id="patch_68">
    <path d="M 155.626364 173.52 
L 161.510727 173.52 
L 161.510727 173.52 
L 155.626364 173.52 
z
" clip-path="url(#p14251f008f)" style="fill: url(#h918846a15d); opacity: 0.55; stroke: #000000; stroke-linejoin: miter"/>
   </g>
   <g id="patch_69">
    <path d="M 161.510727 173.52 
L 167.395091 173.52 
L 167.395091 173.52 
L 161.510727 173.52 
z
" clip-path="url(#p14251f008f)" style="fill: url(#h918846a15d); opacity: 0.55; stroke: #000000; stroke-linejoin: miter"/>
   </g>
   <g id="patch_70">
    <path d="M 167.395091 173.52 
L 173.279455 173.52 
L 173.279455 173.52 
L 167.395091 173.52 
z
" clip-path="url(#p14251f008f)" style="fill: url(#h918846a15d); opacity: 0.55; stroke: #000000; stroke-linejoin: miter"/>
   </g>
   <g id="patch_71">
    <path d="M 173.279455 173.52 
L 179.163818 173.52 
L 179.163818 173.52 
L 173.279455 173.52 
z
" clip-path="url(#p14251f008f)" style="fill: url(#h918846a15d); opacity: 0.55; stroke: #000000; stroke-linejoin: miter"/>
   </g>
   <g id="patch_72">
    <path d="M 179.163818 173.52 
L 185.048182 173.52 
L 185.048182 173.52 
L 179.163818 173.52 
z
" clip-path="url(#p14251f008f)" style="fill: url(#h918846a15d); opacity: 0.55; stroke: #000000; stroke-linejoin: miter"/>
   </g>
   <g id="patch_73">
    <path d="M 185.048182 173.52 
L 190.932545 173.52 
L 190.932545 173.52 
L 185.048182 173.52 
z
" clip-path="url(#p14251f008f)" style="fill: url(#h918846a15d); opacity: 0.55; stroke: #000000; stroke-linejoin: miter"/>
   </g>
   <g id="patch_74">
    <path d="M 190.932545 173.52 
L 196.816909 173.52 
L 196.816909 173.52 
L 190.932545 173.52 
z
" clip-path="url(#p14251f008f)" style="fill: url(#h918846a15d); opacity: 0.55; stroke: #000000; stroke-linejoin: miter"/>
   </g>
   <g id="patch_75">
    <path d="M 196.816909 173.52 
L 202.701273 173.52 
L 202.701273 173.52 
L 196.816909 173.52 
z
" clip-path="url(#p14251f008f)" style="fill: url(#h918846a15d); opacity: 0.55; stroke: #000000; stroke-linejoin: miter"/>
   </g>
   <g id="patch_76">
    <path d="M 202.701273 173.52 
L 208.585636 173.52 
L 208.585636 173.52 
L 202.701273 173.52 
z
" clip-path="url(#p14251f008f)" style="fill: url(#h918846a15d); opacity: 0.55; stroke: #000000; stroke-linejoin: miter"/>
   </g>
   <g id="patch_77">
    <path d="M 208.585636 173.52 
L 214.47 173.52 
L 214.47 173.52 
L 208.585636 173.52 
z
" clip-path="url(#p14251f008f)" style="fill: url(#h918846a15d); opacity: 0.55; stroke: #000000; stroke-linejoin: miter"/>
   </g>
   <g id="patch_78">
    <path d="M 214.47 173.52 
L 220.354364 173.52 
L 220.354364 173.52 
L 214.47 173.52 
z
" clip-path="url(#p14251f008f)" style="fill: url(#h918846a15d); opacity: 0.55; stroke: #000000; stroke-linejoin: miter"/>
   </g>
   <g id="patch_79">
    <path d="M 220.354364 173.52 
L 226.238727 173.52 
L 226.238727 173.52 
L 220.354364 173.52 
z
" clip-path="url(#p14251f008f)" style="fill: url(#h918846a15d); opacity: 0.55; stroke: #000000; stroke-linejoin: miter"/>
   </g>
   <g id="patch_80">
    <path d="M 226.238727 173.52 
L 232.123091 173.52 
L 232.123091 173.52 
L 226.238727 173.52 
z
" clip-path="url(#p14251f008f)" style="fill: url(#h918846a15d); opacity: 0.55; stroke: #000000; stroke-linejoin: miter"/>
   </g>
   <g id="patch_81">
    <path d="M 232.123091 173.52 
L 238.007455 173.52 
L 238.007455 173.52 
L 232.123091 173.52 
z
" clip-path="url(#p14251f008f)" style="fill: url(#h918846a15d); opacity: 0.55; stroke: #000000; stroke-linejoin: miter"/>
   </g>
   <g id="patch_82">
    <path d="M 238.007455 173.52 
L 243.891818 173.52 
L 243.891818 173.52 
L 238.007455 173.52 
z
" clip-path="url(#p14251f008f)" style="fill: url(#h918846a15d); opacity: 0.55; stroke: #000000; stroke-linejoin: miter"/>
   </g>
   <g id="patch_83">
    <path d="M 243.891818 173.52 
L 249.776182 173.52 
L 249.776182 173.52 
L 243.891818 173.52 
z
" clip-path="url(#p14251f008f)" style="fill: url(#h918846a15d); opacity: 0.55; stroke: #000000; stroke-linejoin: miter"/>
   </g>
   <g id="patch_84">
    <path d="M 249.776182 173.52 
L 255.660545 173.52 
L 255.660545 173.52 
L 249.776182 173.52 
z
" clip-path="url(#p14251f008f)" style="fill: url(#h918846a15d); opacity: 0.55; stroke: #000000; stroke-linejoin: miter"/>
   </g>
   <g id="patch_85">
    <path d="M 255.660545 173.52 
L 261.544909 173.52 
L 261.544909 173.52 
L 255.660545 173.52 
z
" clip-path="url(#p14251f008f)" style="fill: url(#h918846a15d); opacity: 0.55; stroke: #000000; stroke-linejoin: miter"/>
   </g>
   <g id="patch_86">
    <path d="M 261.544909 173.52 
L 267.429273 173.52 
L 267.429273 173.52 
L 261.544909 173.52 
z
" clip-path="url(#p14251f008f)" style="fill: url(#h918846a15d); opacity: 0.55; stroke: #000000; stroke-linejoin: miter"/>
   </g>
   <g id="patch_87">
    <path d="M 267.429273 173.52 
L 273.313636 173.52 
L 273.313636 173.52 
L 267.429273 173.52 
z
" clip-path="url(#p14251f008f)" style="fill: url(#h918846a15d); opacity: 0.55; stroke: #000000; stroke-linejoin: miter"/>
   </g>
   <g id="patch_88">
    <path d="M 273.313636 173.52 
L 279.198 173.52 
L 279.198 173.52 
L 273.313636 173.52 
z
" clip-path="url(#p14251f008f)" style="fill: url(#h918846a15d); opacity: 0.55; stroke: #000000; stroke-linejoin: miter"/>
   </g>
   <g id="patch_89">
    <path d="M 279.198 173.52 
L 285.082364 173.52 
L 285.082364 173.52 
L 279.198 173.52 
z
" clip-path="url(#p14251f008f)" style="fill: url(#h918846a15d); opacity: 0.55; stroke: #000000; stroke-linejoin: miter"/>
   </g>
   <g id="patch_90">
    <path d="M 285.082364 173.52 
L 290.966727 173.52 
L 290.966727 173.52 
L 285.082364 173.52 
z
" clip-path="url(#p14251f008f)" style="fill: url(#h918846a15d); opacity: 0.55; stroke: #000000; stroke-linejoin: miter"/>
   </g>
   <g id="patch_91">
    <path d="M 290.966727 173.52 
L 296.851091 173.52 
L 296.851091 173.52 
L 290.966727 173.52 
z
" clip-path="url(#p14251f008f)" style="fill: url(#h918846a15d); opacity: 0.55; stroke: #000000; stroke-linejoin: miter"/>
   </g>
   <g id="patch_92">
    <path d="M 296.851091 173.52 
L 302.735455 173.52 
L 302.735455 173.52 
L 296.851091 173.52 
z
" clip-path="url(#p14251f008f)" style="fill: url(#h918846a15d); opacity: 0.55; stroke: #000000; stroke-linejoin: miter"/>
   </g>
   <g id="patch_93">
    <path d="M 302.735455 173.52 
L 308.619818 173.52 
L 308.619818 173.52 
L 302.735455 173.52 
z
" clip-path="url(#p14251f008f)" style="fill: url(#h918846a15d); opacity: 0.55; stroke: #000000; stroke-linejoin: miter"/>
   </g>
   <g id="patch_94">
    <path d="M 308.619818 173.52 
L 314.504182 173.52 
L 314.504182 173.52 
L 308.619818 173.52 
z
" clip-path="url(#p14251f008f)" style="fill: url(#h918846a15d); opacity: 0.55; stroke: #000000; stroke-linejoin: miter"/>
   </g>
   <g id="patch_95">
    <path d="M 314.504182 173.52 
L 320.388545 173.52 
L 320.388545 173.52 
L 314.504182 173.52 
z
" clip-path="url(#p14251f008f)" style="fill: url(#h918846a15d); opacity: 0.55; stroke: #000000; stroke-linejoin: miter"/>
   </g>
   <g id="patch_96">
    <path d="M 320.388545 173.52 
L 326.272909 173.52 
L 326.272909 173.52 
L 320.388545 173.52 
z
" clip-path="url(#p14251f008f)" style="fill: url(#h918846a15d); opacity: 0.55; stroke: #000000; stroke-linejoin: miter"/>
   </g>
   <g id="patch_97">
    <path d="M 326.272909 173.52 
L 332.157273 173.52 
L 332.157273 173.52 
L 326.272909 173.52 
z
" clip-path="url(#p14251f008f)" style="fill: url(#h918846a15d); opacity: 0.55; stroke: #000000; stroke-linejoin: miter"/>
   </g>
   <g id="patch_98">
    <path d="M 332.157273 173.52 
L 338.041636 173.52 
L 338.041636 173.52 
L 332.157273 173.52 
z
" clip-path="url(#p14251f008f)" style="fill: url(#h918846a15d); opacity: 0.55; stroke: #000000; stroke-linejoin: miter"/>
   </g>
   <g id="patch_99">
    <path d="M 338.041636 173.52 
L 343.926 173.52 
L 343.926 173.52 
L 338.041636 173.52 
z
" clip-path="url(#p14251f008f)" style="fill: url(#h918846a15d); opacity: 0.55; stroke: #000000; stroke-linejoin: miter"/>
   </g>
   <g id="patch_100">
    <path d="M 343.926 173.52 
L 349.810364 173.52 
L 349.810364 173.52 
L 343.926 173.52 
z
" clip-path="url(#p14251f008f)" style="fill: url(#h918846a15d); opacity: 0.55; stroke: #000000; stroke-linejoin: miter"/>
   </g>
   <g id="patch_101">
    <path d="M 349.810364 173.52 
L 355.694727 173.52 
L 355.694727 173.513657 
L 349.810364 173.513657 
z
" clip-path="url(#p14251f008f)" style="fill: url(#h918846a15d); opacity: 0.55; stroke: #000000; stroke-linejoin: miter"/>
   </g>
   <g id="patch_102">
    <path d="M 355.694727 173.52 
L 361.579091 173.52 
L 361.579091 173.513657 
L 355.694727 173.513657 
z
" clip-path="url(#p14251f008f)" style="fill: url(#h918846a15d); opacity: 0.55; stroke: #000000; stroke-linejoin: miter"/>
   </g>
   <g id="matplotlib.axis_1">
    <g id="xtick_1">
     <g id="line2d_1">
      <defs>
       <path id="m3a4dd51bb1" d="M 0 0 
L 0 3.5 
" style="stroke: #000000; stroke-width: 0.8"/>
      </defs>
      <g>
       <use xlink:href="#m3a4dd51bb1" x="66.750879" y="173.52" style="stroke: #000000; stroke-width: 0.8"/>
      </g>
     </g>
     <g id="text_1">
      <text style="font-size: 8px; font-family: 'DejaVu Sans'; text-anchor: middle" x="66.750879" y="186.598125" transform="rotate(-0 66.750879 186.598125)">0.0</text>
     </g>
    </g>
    <g id="xtick_2">
     <g id="line2d_2">
      <g>
       <use xlink:href="#m3a4dd51bb1" x="126.975602" y="173.52" style="stroke: #000000; stroke-width: 0.8"/>
      </g>
     </g>
     <g id="text_2">
      <text style="font-size: 8px; font-family: 'DejaVu Sans'; text-anchor: middle" x="126.975602" y="186.598125" transform="rotate(-0 126.975602 186.598125)">0.2</text>
     </g>
    </g>
    <g id="xtick_3">
     <g id="line2d_3">
      <g>
       <use xlink:href="#m3a4dd51bb1" x="187.200325" y="173.52" style="stroke: #000000; stroke-width: 0.8"/>
      </g>
     </g>
     <g id="text_3">
      <text style="font-size: 8px; font-family: 'DejaVu Sans'; text-anchor: middle" x="187.200325" y="186.598125" transform="rotate(-0 187.200325 186.598125)">0.4</text>
     </g>
    </g>
    <g id="xtick_4">
     <g id="line2d_4">
      <g>
       <use xlink:href="#m3a4dd51bb1" x="247.425048" y="173.52" style="stroke: #000000; stroke-width: 0.8"/>
      </g>
     </g>
     <g id="text_4">
      <text style="font-size: 8px; font-family: 'DejaVu Sans'; text-anchor: middle" x="247.425048" y="186.598125" transform="rotate(-0 247.425048 186.598125)">0.6</text>
     </g>
    </g>
    <g id="xtick_5">
     <g id="line2d_5">
      <g>
       <use xlink:href="#m3a4dd51bb1" x="307.649771" y="173.52" style="stroke: #000000; stroke-width: 0.8"/>
      </g>
     </g>
     <g id="text_5">
      <text style="font-size: 8px; font-family: 'DejaVu Sans'; text-anchor: middle" x="307.649771" y="186.598125" transform="rotate(-0 307.649771 186.598125)">0.8</text>
     </g>
    </g>
    <g id="xtick_6">
     <g id="line2d_6">
      <g>
       <use xlink:href="#m3a4dd51bb1" x="367.874494" y="173.52" style="stroke: #000000; stroke-width: 0.8"/>
      </g>
     </g>
     <g id="text_6">
      <text style="font-size: 8px; font-family: 'DejaVu Sans'; text-anchor: middle" x="367.874494" y="186.598125" transform="rotate(-0 367.874494 186.598125)">1.0</text>
     </g>
    </g>
    <g id="text_7">
     <text style="font-size: 9px; font-family: 'DejaVu Sans'; text-anchor: middle" x="214.47" y="199.357891" transform="rotate(-0 214.47 199.357891)">Score</text>
    </g>
   </g>
   <g id="matplotlib.axis_2">
    <g id="ytick_1">
     <g id="line2d_7">
      <defs>
       <path id="m303b1fca1c" d="M 0 0 
L -3.5 0 
" style="stroke: #000000; stroke-width: 0.8"/>
      </defs>
      <g>
       <use xlink:href="#m303b1fca1c" x="52.65" y="173.52" style="stroke: #000000; stroke-width: 0.8"/>
      </g>
     </g>
     <g id="text_8">
      <text style="font-size: 8px; font-family: 'DejaVu Sans'; text-anchor: end" x="45.65" y="176.559063" transform="rotate(-0 45.65 176.559063)">0</text>
     </g>
    </g>
    <g id="ytick_2">
     <g id="line2d_8">
      <g>
       <use xlink:href="#m303b1fca1c" x="52.65" y="141.803844" style="stroke: #000000; stroke-width: 0.8"/>
      </g>
     </g>
     <g id="text_9">
      <text style="font-size: 8px; font-family: 'DejaVu Sans'; text-anchor: end" x="45.65" y="144.842906" transform="rotate(-0 45.65 144.842906)">10000</text>
     </g>
    </g>
    <g id="ytick_3">
     <g id="line2d_9">
      <g>
       <use xlink:href="#m303b1fca1c" x="52.65" y="110.087687" style="stroke: #000000; stroke-width: 0.8"/>
      </g>
     </g>
     <g id="text_10">
      <text style="font-size: 8px; font-family: 'DejaVu Sans'; text-anchor: end" x="45.65" y="113.12675" transform="rotate(-0 45.65 113.12675)">20000</text>
     </g>
    </g>
    <g id="ytick_4">
     <g id="line2d_10">
      <g>
       <use xlink:href="#m303b1fca1c" x="52.65" y="78.371531" style="stroke: #000000; stroke-width: 0.8"/>
      </g>
     </g>
     <g id="text_11">
      <text style="font-size: 8px; font-family: 'DejaVu Sans'; text-anchor: end" x="45.65" y="81.410593" transform="rotate(-0 45.65 81.410593)">30000</text>
     </g>
    </g>
    <g id="ytick_5">
     <g id="line2d_11">
      <g>
       <use xlink:href="#m303b1fca1c" x="52.65" y="46.655374" style="stroke: #000000; stroke-width: 0.8"/>
      </g>
     </g>
     <g id="text_12">
      <text style="font-size: 8px; font-family: 'DejaVu Sans'; text-anchor: end" x="45.65" y="49.694437" transform="rotate(-0 45.65 49.694437)">40000</text>
     </g>
    </g>
    <g id="ytick_6">
     <g id="line2d_12">
      <g>
       <use xlink:href="#m303b1fca1c" x="52.65" y="14.939218" style="stroke: #000000; stroke-width: 0.8"/>
      </g>
     </g>
     <g id="text_13">
      <text style="font-size: 8px; font-family: 'DejaVu Sans'; text-anchor: end" x="45.65" y="17.97828" transform="rotate(-0 45.65 17.97828)">50000</text>
     </g>
    </g>
    <g id="text_14">
     <text style="font-size: 9px; font-family: 'DejaVu Sans'; text-anchor: middle" x="14.037891" y="90.36" transform="rotate(-90 14.037891 90.36)">Count</text>
    </g>
   </g>
   <g id="patch_103">
    <path d="M 52.65 173.52 
L 52.65 7.2 
" style="fill: none; stroke: #000000; stroke-width: 0.9; stroke-linejoin: miter; stroke-linecap: square"/>
   </g>
   <g id="patch_104">
    <path d="M 376.29 173.52 
L 376.29 7.2 
" style="fill: none; stroke: #000000; stroke-width: 0.9; stroke-linejoin: miter; stroke-linecap: square"/>
   </g>
   <g id="patch_105">
    <path d="M 52.65 173.52 
L 376.29 173.52 
" style="fill: none; stroke: #000000; stroke-width: 0.9; stroke-linejoin: miter; stroke-linecap: square"/>
   </g>
   <g id="patch_106">
    <path d="M 52.65 7.2 
L 376.29 7.2 
" style="fill: none; stroke: #000000; stroke-width: 0.9; stroke-linejoin: miter; stroke-linecap: square"/>
   </g>
   <g id="legend_1">
    <g id="patch_107">
     <path d="M 318.65875 20.47875 
L 334.65875 20.47875 
L 334.65875 14.87875 
L 318.65875 14.87875 
z
" style="fill: #bdbdbd; opacity: 0.55; stroke: #000000; stroke-linejoin: miter"/>
    </g>
    <g id="text_15">
     <text style="font-size: 8px; font-family: 'DejaVu Sans'; text-anchor: start" x="341.05875" y="20.47875" transform="rotate(-0 341.05875 20.47875)">normal</text>
    </g>
    <g id="patch_108">
     <path d="M 318.65875 32.479375 
L 334.65875 32.479375 
L 334.65875 26.879375 
L 318.65875 26.879375 
z
" style="fill: url(#h918846a15d); opacity: 0.55; stroke: #000000; stroke-linejoin: miter"/>
    </g>
    <g id="text_16">
     <text style="font-size: 8px; font-family: 'DejaVu Sans'; text-anchor: start" x="341.05875" y="32.479375" transform="rotate(-0 341.05875 32.479375)">attack</text>
    </g>
   </g>
  </g>
 </g>
 <defs>
  <clipPath id="p14251f008f">
   <rect x="52.65" y="7.2" width="323.64" height="166.32"/>
  </clipPath>
 </defs>
 <defs>
  <pattern id="h918846a15d" patternUnits="userSpaceOnUse" x="0" y="0" width="72" height="72">
   <rect x="0" y="0" width="73" height="73" fill="#ffffff"/>
   <path d="M -36 36 
L 36 -36 
M -30 42 
L 42 -30 
M -24 48 
L 48 -24 
M -18 54 
L 54 -18 
M -12 60 
L 60 -12 
M -6 66 
L 66 -6 
M 0 72 
L 72 0 
M 6 78 
L 78 6 
M 12 84 
L 84 12 
M 18 90 
L 90 18 
M 24 96 
L 96 24 
M 30 102 
L 102 30 
M 36 108 
L 108 36 
" style="fill: #000000; stroke: #000000; stroke-width: 1.0; stroke-linecap: butt; stroke-linejoin: miter; stroke-opacity: 0.55"/>
  </pattern>
 </defs>
</svg>
