<?xml version="1.0" encoding="utf-8" standalone="no"?>
<!DOCTYPE svg PUBLIC "-//W3C//DTD SVG 1.1//EN"
  "http://www.w3.org/Graphics/SVG/1.1/DTD/svg11.dtd">
<svg xmlns:xlink="http://www.w3.org/1999/xlink" width="393.0825pt" height="277.107136pt" viewBox="0 0 393.0825 277.107136" xmlns="http://www.w3.org/2000/svg" version="1.1">
 <metadata>
  <rdf:RDF xmlns:dc="http://purl.org/dc/elements/1.1/" xmlns:cc="http://creativecommons.org/ns#" xmlns:rdf="http://www.w3.org/1999/02/22-rdf-syntax-ns#">
   <cc:Work>
    <dc:type rdf:resource="http://purl.org/dc/dcmitype/StillImage"/>
    <dc:date>2026-06-29T22:30:03.979373</dc:date>
    <dc:format>image/svg+xml</dc:format>
    <dc:creator>
     <cc:Agent>
      <dc:title>Matplotlib v3.11.0, https://matplotlib.org/</dc:title>
     </cc:Agent>
    </dc:creator>
   </cc:Work>
  </rdf:RDF>
 </metadata>
 <defs>
  <style type="text/css">*{stroke-linejoin: round; stroke-linecap: butt}</style>
 </defs>
 <g id="figure_1">
  <g id="patch_1">
   <path d="M 0 277.107136 
L 393.0825 277.107136 
L 393.0825 0 
L 0 0 
z
" style="fill: #ffffff"/>
  </g>
  <g id="axes_1">
   <g id="patch_2">
    <path d="M 39.9225 173.52 
L 385.8825 173.52 
L 385.8825 7.2 
L 39.9225 7.2 
z
" style="fill: #ffffff"/>
   </g>
   <g id="patch_3">
    <path d="M 55.647955 173.52 
L 87.905297 173.52 
L 87.905297 68.69581 
L 55.647955 68.69581 
z
" clip-path="url(#pd4b00237dd)" style="fill: url(#h4096d67d9d); stroke: #000000; stroke-linejoin: miter"/>
   </g>
   <g id="patch_4">
    <path d="M 95.969633 173.52 
L 128.226976 173.52 
L 128.226976 172.755261 
L 95.969633 172.755261 
z
" clip-path="url(#pd4b00237dd)" style="fill: url(#h4096d67d9d); stroke: #000000; stroke-linejoin: miter"/>
   </g>
   <g id="patch_5">
    <path d="M 136.291311 173.52 
L 168.548654 173.52 
L 168.548654 172.726892 
L 136.291311 172.726892 
z
" clip-path="url(#pd4b00237dd)" style="fill: url(#h4096d67d9d); stroke: #000000; stroke-linejoin: miter"/>
   </g>
   <g id="patch_6">
    <path d="M 176.61299 173.52 
L 208.870332 173.52 
L 208.870332 68.618444 
L 176.61299 68.618444 
z
" clip-path="url(#pd4b00237dd)" style="fill: url(#h4096d67d9d); stroke: #000000; stroke-linejoin: miter"/>
   </g>
   <g id="patch_7">
    <path d="M 216.934668 173.52 
L 249.19201 173.52 
L 249.19201 120.736392 
L 216.934668 120.736392 
z
" clip-path="url(#pd4b00237dd)" style="fill: url(#h4096d67d9d); stroke: #000000; stroke-linejoin: miter"/>
   </g>
   <g id="patch_8">
    <path d="M 257.256346 173.52 
L 289.513689 173.52 
L 289.513689 173.174563 
L 257.256346 173.174563 
z
" clip-path="url(#pd4b00237dd)" style="fill: url(#h4096d67d9d); stroke: #000000; stroke-linejoin: miter"/>
   </g>
   <g id="patch_9">
    <path d="M 297.578024 173.52 
L 329.835367 173.52 
L 329.835367 173.157325 
L 297.578024 173.157325 
z
" clip-path="url(#pd4b00237dd)" style="fill: url(#h4096d67d9d); stroke: #000000; stroke-linejoin: miter"/>
   </g>
   <g id="patch_10">
    <path d="M 337.899703 173.52 
L 370.157045 173.52 
L 370.157045 120.673413 
L 337.899703 120.673413 
z
" clip-path="url(#pd4b00237dd)" style="fill: url(#h4096d67d9d); stroke: #000000; stroke-linejoin: miter"/>
   </g>
   <g id="matplotlib.axis_1">
    <g id="xtick_1">
     <g id="line2d_1">
      <defs>
       <path id="m5ad72cd91f" d="M 0 0 
L 0 3.5 
" style="stroke: #000000; stroke-width: 0.8"/>
      </defs>
      <g>
       <use xlink:href="#m5ad72cd91f" x="71.776626" y="173.52" style="stroke: #000000; stroke-width: 0.8"/>
      </g>
     </g>
     <g id="text_1">
      <text style="font-size: 8px; font-family: 'DejaVu Sans'" transform="translate(34.62623 213.819537) rotate(-45)">ctt_test03</text>
      <text style="font-size: 8px; font-family: 'DejaVu Sans'" transform="translate(24.189113 237.836197) rotate(-45)">supervised_only</text>
     </g>
    </g>
    <g id="xtick_2">
     <g id="line2d_2">
      <g>
       <use xlink:href="#m5ad72cd91f" x="112.098304" y="173.52" style="stroke: #000000; stroke-width: 0.8"/>
      </g>
     </g>
     <g id="text_2">
      <text style="font-size: 8px; font-family: 'DejaVu Sans'" transform="translate(74.947908 213.819537) rotate(-45)">ctt_test03</text>
      <text style="font-size: 8px; font-family: 'DejaVu Sans'" transform="translate(68.420208 233.926781) rotate(-45)">normality_only</text>
     </g>
    </g>
    <g id="xtick_3">
     <g id="line2d_3">
      <g>
       <use xlink:href="#m5ad72cd91f" x="152.419983" y="173.52" style="stroke: #000000; stroke-width: 0.8"/>
      </g>
     </g>
     <g id="text_3">
      <text style="font-size: 8px; font-family: 'DejaVu Sans'" transform="translate(115.269587 213.819537) rotate(-45)">ctt_test03</text>
      <text style="font-size: 8px; font-family: 'DejaVu Sans'" transform="translate(74.68674 267.981927) rotate(-45)">max_supervised_normality</text>
     </g>
    </g>
    <g id="xtick_4">
     <g id="line2d_4">
      <g>
       <use xlink:href="#m5ad72cd91f" x="192.741661" y="173.52" style="stroke: #000000; stroke-width: 0.8"/>
      </g>
     </g>
     <g id="text_4">
      <text style="font-size: 8px; font-family: 'DejaVu Sans'" transform="translate(155.591265 213.819537) rotate(-45)">ctt_test03</text>
      <text style="font-size: 8px; font-family: 'DejaVu Sans'" transform="translate(123.954203 259.036143) rotate(-45)">val_selected_alpha_mix</text>
     </g>
    </g>
    <g id="xtick_5">
     <g id="line2d_5">
      <g>
       <use xlink:href="#m5ad72cd91f" x="233.063339" y="173.52" style="stroke: #000000; stroke-width: 0.8"/>
      </g>
     </g>
     <g id="text_5">
      <text style="font-size: 8px; font-family: 'DejaVu Sans'" transform="translate(195.912943 213.819537) rotate(-45)">ctt_test04</text>
      <text style="font-size: 8px; font-family: 'DejaVu Sans'" transform="translate(185.475826 237.836197) rotate(-45)">supervised_only</text>
     </g>
    </g>
    <g id="xtick_6">
     <g id="line2d_6">
      <g>
       <use xlink:href="#m5ad72cd91f" x="273.385017" y="173.52" style="stroke: #000000; stroke-width: 0.8"/>
      </g>
     </g>
     <g id="text_6">
      <text style="font-size: 8px; font-family: 'DejaVu Sans'" transform="translate(236.234622 213.819537) rotate(-45)">ctt_test04</text>
      <text style="font-size: 8px; font-family: 'DejaVu Sans'" transform="translate(229.706921 233.926781) rotate(-45)">normality_only</text>
     </g>
    </g>
    <g id="xtick_7">
     <g id="line2d_7">
      <g>
       <use xlink:href="#m5ad72cd91f" x="313.706696" y="173.52" style="stroke: #000000; stroke-width: 0.8"/>
      </g>
     </g>
     <g id="text_7">
      <text style="font-size: 8px; font-family: 'DejaVu Sans'" transform="translate(276.5563 213.819537) rotate(-45)">ctt_test04</text>
      <text style="font-size: 8px; font-family: 'DejaVu Sans'" transform="translate(235.973453 267.981927) rotate(-45)">max_supervised_normality</text>
     </g>
    </g>
    <g id="xtick_8">
     <g id="line2d_8">
      <g>
       <use xlink:href="#m5ad72cd91f" x="354.028374" y="173.52" style="stroke: #000000; stroke-width: 0.8"/>
      </g>
     </g>
     <g id="text_8">
      <text style="font-size: 8px; font-family: 'DejaVu Sans'" transform="translate(316.877978 213.819537) rotate(-45)">ctt_test04</text>
      <text style="font-size: 8px; font-family: 'DejaVu Sans'" transform="translate(285.240916 259.036143) rotate(-45)">val_selected_alpha_mix</text>
     </g>
    </g>
   </g>
   <g id="matplotlib.axis_2">
    <g id="ytick_1">
     <g id="line2d_9">
      <path d="M 39.9225 173.52 
L 385.8825 173.52 
" clip-path="url(#pd4b00237dd)" style="fill: none; stroke: #e6e6e6; stroke-width: 0.6; stroke-linecap: square"/>
     </g>
     <g id="line2d_10">
      <defs>
       <path id="m8c66c19882" d="M 0 0 
L -3.5 0 
" style="stroke: #000000; stroke-width: 0.8"/>
      </defs>
      <g>
       <use xlink:href="#m8c66c19882" x="39.9225" y="173.52" style="stroke: #000000; stroke-width: 0.8"/>
      </g>
     </g>
     <g id="text_9">
      <text style="font-size: 8px; font-family: 'DejaVu Sans'; text-anchor: end" x="32.9225" y="176.559063" transform="rotate(-0 32.9225 176.559063)">0.0</text>
     </g>
    </g>
    <g id="ytick_2">
     <g id="line2d_11">
      <path d="M 39.9225 141.84 
L 385.8825 141.84 
" clip-path="url(#pd4b00237dd)" style="fill: none; stroke: #e6e6e6; stroke-width: 0.6; stroke-linecap: square"/>
     </g>
     <g id="line2d_12">
      <g>
       <use xlink:href="#m8c66c19882" x="39.9225" y="141.84" style="stroke: #000000; stroke-width: 0.8"/>
      </g>
     </g>
     <g id="text_10">
      <text style="font-size: 8px; font-family: 'DejaVu Sans'; text-anchor: end" x="32.9225" y="144.879063" transform="rotate(-0 32.9225 144.879063)">0.2</text>
     </g>
    </g>
    <g id="ytick_3">
     <g id="line2d_13">
      <path d="M 39.9225 110.16 
L 385.8825 110.16 
" clip-path="url(#pd4b00237dd)" style="fill: none; stroke: #e6e6e6; stroke-width: 0.6; stroke-linecap: square"/>
     </g>
     <g id="line2d_14">
      <g>
       <use xlink:href="#m8c66c19882" x="39.9225" y="110.16" style="stroke: #000000; stroke-width: 0.8"/>
      </g>
     </g>
     <g id="text_11">
      <text style="font-size: 8px; font-family: 'DejaVu Sans'; text-anchor: end" x="32.9225" y="113.199062" transform="rotate(-0 32.9225 113.199062)">0.4</text>
     </g>
    </g>
    <g id="ytick_4">
     <g id="line2d_15">
      <path d="M 39.9225 78.48 
L 385.8825 78.48 
" clip-path="url(#pd4b00237dd)" style="fill: none; stroke: #e6e6e6; stroke-width: 0.6; stroke-linecap: square"/>
     </g>
     <g id="line2d_16">
      <g>
       <use xlink:href="#m8c66c19882" x="39.9225" y="78.48" style="stroke: #000000; stroke-width: 0.8"/>
      </g>
     </g>
     <g id="text_12">
      <text style="font-size: 8px; font-family: 'DejaVu Sans'; text-anchor: end" x="32.9225" y="81.519062" transform="rotate(-0 32.9225 81.519062)">0.6</text>
     </g>
    </g>
    <g id="ytick_5">
     <g id="line2d_17">
      <path d="M 39.9225 46.8 
L 385.8825 46.8 
" clip-path="url(#pd4b00237dd)" style="fill: none; stroke: #e6e6e6; stroke-width: 0.6; stroke-linecap: square"/>
     </g>
     <g id="line2d_18">
      <g>
       <use xlink:href="#m8c66c19882" x="39.9225" y="46.8" style="stroke: #000000; stroke-width: 0.8"/>
      </g>
     </g>
     <g id="text_13">
      <text style="font-size: 8px; font-family: 'DejaVu Sans'; text-anchor: end" x="32.9225" y="49.839063" transform="rotate(-0 32.9225 49.839063)">0.8</text>
     </g>
    </g>
    <g id="ytick_6">
     <g id="line2d_19">
      <path d="M 39.9225 15.12 
L 385.8825 15.12 
" clip-path="url(#pd4b00237dd)" style="fill: none; stroke: #e6e6e6; stroke-width: 0.6; stroke-linecap: square"/>
     </g>
     <g id="line2d_20">
      <g>
       <use xlink:href="#m8c66c19882" x="39.9225" y="15.12" style="stroke: #000000; stroke-width: 0.8"/>
      </g>
     </g>
     <g id="text_14">
      <text style="font-size: 8px; font-family: 'DejaVu Sans'; text-anchor: end" x="32.9225" y="18.159063" transform="rotate(-0 32.9225 18.159063)">1.0</text>
     </g>
    </g>
    <g id="text_15">
     <text style="font-size: 9px; font-family: 'DejaVu Sans'; text-anchor: middle" x="14.037891" y="90.36" transform="rotate(-90 14.037891 90.36)">F1</text>
    </g>
   </g>
   <g id="patch_11">
    <path d="M 39.9225 173.52 
L 39.9225 7.2 
" style="fill: none; stroke: #000000; stroke-width: 0.9; stroke-linejoin: miter; stroke-linecap: square"/>
   </g>
   <g id="patch_12">
    <path d="M 385.8825 173.52 
L 385.8825 7.2 
" style="fill: none; stroke: #000000; stroke-width: 0.9; stroke-linejoin: miter; stroke-linecap: square"/>
   </g>
   <g id="patch_13">
    <path d="M 39.9225 173.52 
L 385.8825 173.52 
" style="fill: none; stroke: #000000; stroke-width: 0.9; stroke-linejoin: miter; stroke-linecap: square"/>
   </g>
   <g id="patch_14">
    <path d="M 39.9225 7.2 
L 385.8825 7.2 
" style="fill: none; stroke: #000000; stroke-width: 0.9; stroke-linejoin: miter; stroke-linecap: square"/>
   </g>
  </g>
 </g>
 <defs>
  <clipPath id="pd4b00237dd">
   <rect x="39.9225" y="7.2" width="345.96" height="166.32"/>
  </clipPath>
 </defs>
 <defs>
  <pattern id="h4096d67d9d" patternUnits="userSpaceOnUse" x="0" y="0" width="72" height="72">
   <rect x="0" y="0" width="73" height="73" fill="#d9d9d9"/>
   <path d="M -36 36 
L 36 -36 
M -30 42 
L 42 -30 
M -24 48 
L 48 -24 
M -18 54 
L 54 -18 
M -12 60 
L 60 -12 
M -6 66 
L 66 -6 
M 0 72 
L 72 0 
M 6 78 
L 78 6 
M 12 84 
L 84 12 
M 18 90 
L 90 18 
M 24 96 
L 96 24 
M 30 102 
L 102 30 
M 36 108 
L 108 36 
M -36 36 
L 36 108 
M -30 30 
L 42 102 
M -24 24 
L 48 96 
M -18 18 
L 54 90 
M -12 12 
L 60 84 
M -6 6 
L 66 78 
M 0 0 
L 72 72 
M 6 -6 
L 78 66 
M 12 -12 
L 84 60 
M 18 -18 
L 90 54 
M 24 -24 
L 96 48 
M 30 -30 
L 102 42 
M 36 -36 
L 108 36 
" style="fill: #000000; stroke: #000000; stroke-width: 1.0; stroke-linecap: butt; stroke-linejoin: miter"/>
  </pattern>
 </defs>
</svg>
