<?xml version="1.0" encoding="utf-8" standalone="no"?>
<!DOCTYPE svg PUBLIC "-//W3C//DTD SVG 1.1//EN"
  "http://www.w3.org/Graphics/SVG/1.1/DTD/svg11.dtd">
<svg xmlns:xlink="http://www.w3.org/1999/xlink" width="383.513516pt" height="207.808pt" viewBox="0 0 383.513516 207.808" xmlns="http://www.w3.org/2000/svg" version="1.1">
 <metadata>
  <rdf:RDF xmlns:dc="http://purl.org/dc/elements/1.1/" xmlns:cc="http://creativecommons.org/ns#" xmlns:rdf="http://www.w3.org/1999/02/22-rdf-syntax-ns#">
   <cc:Work>
    <dc:type rdf:resource="http://purl.org/dc/dcmitype/StillImage"/>
    <dc:date>2026-06-30T01:28:46.712804</dc:date>
    <dc:format>image/svg+xml</dc:format>
    <dc:creator>
     <cc:Agent>
      <dc:title>Matplotlib v3.11.0, https://matplotlib.org/</dc:title>
     </cc:Agent>
    </dc:creator>
   </cc:Work>
  </rdf:RDF>
 </metadata>
 <defs>
  <style type="text/css">*{stroke-linejoin: round; stroke-linecap: butt}</style>
 </defs>
 <g id="figure_1">
  <g id="patch_1">
   <path d="M 0 207.808 
L 383.513516 207.808 
L 383.513516 0 
L 0 0 
z
" style="fill: #ffffff"/>
  </g>
  <g id="axes_1">
   <g id="patch_2">
    <path d="M 41.513516 184.608 
L 376.313516 184.608 
L 376.313516 7.2 
L 41.513516 7.2 
z
" style="fill: #ffffff"/>
   </g>
   <g id="patch_3">
    <path d="M 56.731697 184.608 
L 120.808252 184.608 
L 120.808252 71.968 
L 56.731697 71.968 
z
" clip-path="url(#p4389398e25)" style="fill: url(#h8f7f63fe43); stroke: #000000; stroke-linejoin: miter"/>
   </g>
   <g id="patch_4">
    <path d="M 136.827391 184.608 
L 200.903946 184.608 
L 200.903946 124.204088 
L 136.827391 124.204088 
z
" clip-path="url(#p4389398e25)" style="fill: url(#h8f7f63fe43); stroke: #000000; stroke-linejoin: miter"/>
   </g>
   <g id="patch_5">
    <path d="M 216.923085 184.608 
L 280.99964 184.608 
L 280.99964 34.116411 
L 216.923085 34.116411 
z
" clip-path="url(#p4389398e25)" style="fill: url(#h8f7f63fe43); stroke: #000000; stroke-linejoin: miter"/>
   </g>
   <g id="patch_6">
    <path d="M 297.018779 184.608 
L 361.095334 184.608 
L 361.095334 122.935775 
L 297.018779 122.935775 
z
" clip-path="url(#p4389398e25)" style="fill: url(#h8f7f63fe43); stroke: #000000; stroke-linejoin: miter"/>
   </g>
   <g id="matplotlib.axis_1">
    <g id="xtick_1">
     <g id="line2d_1">
      <defs>
       <path id="mfdf9768b3f" d="M 0 0 
L 0 3.5 
" style="stroke: #000000; stroke-width: 0.8"/>
      </defs>
      <g>
       <use xlink:href="#mfdf9768b3f" x="88.769975" y="184.608" style="stroke: #000000; stroke-width: 0.8"/>
      </g>
     </g>
     <g id="text_1">
      <text style="font-size: 9px; font-family: 'DejaVu Sans'; text-anchor: middle" x="88.769975" y="198.445891" transform="rotate(-0 88.769975 198.445891)">ctt_test01</text>
     </g>
    </g>
    <g id="xtick_2">
     <g id="line2d_2">
      <g>
       <use xlink:href="#mfdf9768b3f" x="168.865669" y="184.608" style="stroke: #000000; stroke-width: 0.8"/>
      </g>
     </g>
     <g id="text_2">
      <text style="font-size: 9px; font-family: 'DejaVu Sans'; text-anchor: middle" x="168.865669" y="198.445891" transform="rotate(-0 168.865669 198.445891)">ctt_test02</text>
     </g>
    </g>
    <g id="xtick_3">
     <g id="line2d_3">
      <g>
       <use xlink:href="#mfdf9768b3f" x="248.961363" y="184.608" style="stroke: #000000; stroke-width: 0.8"/>
      </g>
     </g>
     <g id="text_3">
      <text style="font-size: 9px; font-family: 'DejaVu Sans'; text-anchor: middle" x="248.961363" y="198.445891" transform="rotate(-0 248.961363 198.445891)">ctt_test03</text>
     </g>
    </g>
    <g id="xtick_4">
     <g id="line2d_4">
      <g>
       <use xlink:href="#mfdf9768b3f" x="329.057056" y="184.608" style="stroke: #000000; stroke-width: 0.8"/>
      </g>
     </g>
     <g id="text_4">
      <text style="font-size: 9px; font-family: 'DejaVu Sans'; text-anchor: middle" x="329.057056" y="198.445891" transform="rotate(-0 329.057056 198.445891)">ctt_test04</text>
     </g>
    </g>
   </g>
   <g id="matplotlib.axis_2">
    <g id="ytick_1">
     <g id="line2d_5">
      <path d="M 41.513516 184.608 
L 376.313516 184.608 
" clip-path="url(#p4389398e25)" style="fill: none; stroke: #e6e6e6; stroke-width: 0.6; stroke-linecap: square"/>
     </g>
     <g id="line2d_6">
      <defs>
       <path id="mf16d097efc" d="M 0 0 
L -3.5 0 
" style="stroke: #000000; stroke-width: 0.8"/>
      </defs>
      <g>
       <use xlink:href="#mf16d097efc" x="41.513516" y="184.608" style="stroke: #000000; stroke-width: 0.8"/>
      </g>
     </g>
     <g id="text_5">
      <text style="font-size: 9px; font-family: 'DejaVu Sans'; text-anchor: end" x="34.513516" y="188.026945" transform="rotate(-0 34.513516 188.026945)">0.0</text>
     </g>
    </g>
    <g id="ytick_2">
     <g id="line2d_7">
      <path d="M 41.513516 150.816 
L 376.313516 150.816 
" clip-path="url(#p4389398e25)" style="fill: none; stroke: #e6e6e6; stroke-width: 0.6; stroke-linecap: square"/>
     </g>
     <g id="line2d_8">
      <g>
       <use xlink:href="#mf16d097efc" x="41.513516" y="150.816" style="stroke: #000000; stroke-width: 0.8"/>
      </g>
     </g>
     <g id="text_6">
      <text style="font-size: 9px; font-family: 'DejaVu Sans'; text-anchor: end" x="34.513516" y="154.234945" transform="rotate(-0 34.513516 154.234945)">0.2</text>
     </g>
    </g>
    <g id="ytick_3">
     <g id="line2d_9">
      <path d="M 41.513516 117.024 
L 376.313516 117.024 
" clip-path="url(#p4389398e25)" style="fill: none; stroke: #e6e6e6; stroke-width: 0.6; stroke-linecap: square"/>
     </g>
     <g id="line2d_10">
      <g>
       <use xlink:href="#mf16d097efc" x="41.513516" y="117.024" style="stroke: #000000; stroke-width: 0.8"/>
      </g>
     </g>
     <g id="text_7">
      <text style="font-size: 9px; font-family: 'DejaVu Sans'; text-anchor: end" x="34.513516" y="120.442945" transform="rotate(-0 34.513516 120.442945)">0.4</text>
     </g>
    </g>
    <g id="ytick_4">
     <g id="line2d_11">
      <path d="M 41.513516 83.232 
L 376.313516 83.232 
" clip-path="url(#p4389398e25)" style="fill: none; stroke: #e6e6e6; stroke-width: 0.6; stroke-linecap: square"/>
     </g>
     <g id="line2d_12">
      <g>
       <use xlink:href="#mf16d097efc" x="41.513516" y="83.232" style="stroke: #000000; stroke-width: 0.8"/>
      </g>
     </g>
     <g id="text_8">
      <text style="font-size: 9px; font-family: 'DejaVu Sans'; text-anchor: end" x="34.513516" y="86.650945" transform="rotate(-0 34.513516 86.650945)">0.6</text>
     </g>
    </g>
    <g id="ytick_5">
     <g id="line2d_13">
      <path d="M 41.513516 49.44 
L 376.313516 49.44 
" clip-path="url(#p4389398e25)" style="fill: none; stroke: #e6e6e6; stroke-width: 0.6; stroke-linecap: square"/>
     </g>
     <g id="line2d_14">
      <g>
       <use xlink:href="#mf16d097efc" x="41.513516" y="49.44" style="stroke: #000000; stroke-width: 0.8"/>
      </g>
     </g>
     <g id="text_9">
      <text style="font-size: 9px; font-family: 'DejaVu Sans'; text-anchor: end" x="34.513516" y="52.858945" transform="rotate(-0 34.513516 52.858945)">0.8</text>
     </g>
    </g>
    <g id="ytick_6">
     <g id="line2d_15">
      <path d="M 41.513516 15.648 
L 376.313516 15.648 
" clip-path="url(#p4389398e25)" style="fill: none; stroke: #e6e6e6; stroke-width: 0.6; stroke-linecap: square"/>
     </g>
     <g id="line2d_16">
      <g>
       <use xlink:href="#mf16d097efc" x="41.513516" y="15.648" style="stroke: #000000; stroke-width: 0.8"/>
      </g>
     </g>
     <g id="text_10">
      <text style="font-size: 9px; font-family: 'DejaVu Sans'; text-anchor: end" x="34.513516" y="19.066945" transform="rotate(-0 34.513516 19.066945)">1.0</text>
     </g>
    </g>
    <g id="text_11">
     <text style="font-size: 9px; font-family: 'DejaVu Sans'; text-anchor: middle" x="14.038594" y="95.904" transform="rotate(-90 14.038594 95.904)">Event recall</text>
    </g>
   </g>
   <g id="patch_7">
    <path d="M 41.513516 184.608 
L 41.513516 7.2 
" style="fill: none; stroke: #000000; stroke-width: 0.9; stroke-linejoin: miter; stroke-linecap: square"/>
   </g>
   <g id="patch_8">
    <path d="M 376.313516 184.608 
L 376.313516 7.2 
" style="fill: none; stroke: #000000; stroke-width: 0.9; stroke-linejoin: miter; stroke-linecap: square"/>
   </g>
   <g id="patch_9">
    <path d="M 41.513516 184.608 
L 376.313516 184.608 
" style="fill: none; stroke: #000000; stroke-width: 0.9; stroke-linejoin: miter; stroke-linecap: square"/>
   </g>
   <g id="patch_10">
    <path d="M 41.513516 7.2 
L 376.313516 7.2 
" style="fill: none; stroke: #000000; stroke-width: 0.9; stroke-linejoin: miter; stroke-linecap: square"/>
   </g>
  </g>
 </g>
 <defs>
  <clipPath id="p4389398e25">
   <rect x="41.513516" y="7.2" width="334.8" height="177.408"/>
  </clipPath>
 </defs>
 <defs>
  <pattern id="h8f7f63fe43" patternUnits="userSpaceOnUse" x="0" y="0" width="72" height="72">
   <rect x="0" y="0" width="73" height="73" fill="#d9d9d9"/>
   <path d="M -36 36 
L 36 -36 
M -30 42 
L 42 -30 
M -24 48 
L 48 -24 
M -18 54 
L 54 -18 
M -12 60 
L 60 -12 
M -6 66 
L 66 -6 
M 0 72 
L 72 0 
M 6 78 
L 78 6 
M 12 84 
L 84 12 
M 18 90 
L 90 18 
M 24 96 
L 96 24 
M 30 102 
L 102 30 
M 36 108 
L 108 36 
" style="fill: #000000; stroke: #000000; stroke-width: 1.0; stroke-linecap: butt; stroke-linejoin: miter"/>
  </pattern>
 </defs>
</svg>
